<?xml version="1.0" encoding="utf-8" standalone="no"?>
<!DOCTYPE svg PUBLIC "-//W3C//DTD SVG 1.1//EN"
  "http://www.w3.org/Graphics/SVG/1.1/DTD/svg11.dtd">
<svg xmlns:xlink="http://www.w3.org/1999/xlink" width="707.16pt" height="417.1325pt" viewBox="0 0 707.16 417.1325" xmlns="http://www.w3.org/2000/svg" version="1.1">
 <metadata>
  <rdf:RDF xmlns:dc="http://purl.org/dc/elements/1.1/" xmlns:cc="http://creativecommons.org/ns#" xmlns:rdf="http://www.w3.org/1999/02/22-rdf-syntax-ns#">
   <cc:Work>
    <dc:type rdf:resource="http://purl.org/dc/dcmitype/StillImage"/>
    <dc:date>2026-05-28T03:20:52.909738</dc:date>
    <dc:format>image/svg+xml</dc:format>
    <dc:creator>
     <cc:Agent>
      <dc:title>Matplotlib v3.10.7, https://matplotlib.org/</dc:title>
     </cc:Agent>
    </dc:creator>
   </cc:Work>
  </rdf:RDF>
 </metadata>
 <defs>
  <style type="text/css">*{stroke-linejoin: round; stroke-linecap: butt}</style>
 </defs>
 <g id="figure_1">
  <g id="patch_1">
   <path d="M 0 417.1325 
L 707.16 417.1325 
L 707.16 0 
L 0 0 
z
" style="fill: #ffffff"/>
  </g>
  <g id="axes_1">
   <g id="patch_2">
    <path d="M 45.8 375.3925 
L 692.46 375.3925 
L 692.46 24.24 
L 45.8 24.24 
z
" style="fill: #ffffff"/>
   </g>
   <g id="FillBetweenPolyCollection_1">
    <defs>
     <path id="mbb3156275e" d="M 49.049548 -264.647576 
L 49.049548 -261.210313 
L 52.299095 -261.210313 
L 55.548643 -261.210313 
L 58.798191 -261.210313 
L 62.047739 -261.210313 
L 65.297286 -261.210313 
L 68.546834 -261.210313 
L 71.796382 -261.210313 
L 75.04593 -261.210313 
L 78.295477 -261.210313 
L 81.545025 -261.210313 
L 84.794573 -261.210313 
L 88.044121 -261.210313 
L 91.293668 -261.210313 
L 94.543216 -261.210313 
L 97.792764 -261.210313 
L 101.042312 -261.210313 
L 104.291859 -261.210313 
L 107.541407 -261.210313 
L 110.790955 -261.210313 
L 114.040503 -261.210313 
L 117.29005 -261.210313 
L 120.539598 -261.210313 
L 123.789146 -261.210313 
L 127.038693 -261.210313 
L 130.288241 -261.210313 
L 133.537789 -261.210313 
L 136.787337 -261.210313 
L 140.036884 -261.210313 
L 143.286432 -261.210313 
L 146.53598 -261.210313 
L 149.785528 -261.210313 
L 153.035075 -261.210313 
L 156.284623 -261.210313 
L 159.534171 -261.210313 
L 162.783719 -261.210313 
L 166.033266 -261.210313 
L 169.282814 -261.210313 
L 172.532362 -261.210313 
L 175.78191 -261.210313 
L 179.031457 -261.210313 
L 182.281005 -261.210313 
L 185.530553 -261.210313 
L 188.780101 -261.210313 
L 192.029648 -261.210313 
L 195.279196 -261.210313 
L 198.528744 -261.210313 
L 201.778291 -261.210313 
L 205.027839 -261.210313 
L 208.277387 -261.210313 
L 211.526935 -261.210313 
L 214.776482 -261.210313 
L 218.02603 -261.210313 
L 221.275578 -261.210313 
L 224.525126 -261.210313 
L 227.774673 -261.210313 
L 231.024221 -261.210313 
L 234.273769 -261.210313 
L 237.523317 -261.210313 
L 240.772864 -261.210313 
L 244.022412 -261.210313 
L 247.27196 -261.210313 
L 250.521508 -261.210313 
L 253.771055 -261.210313 
L 257.020603 -261.210313 
L 260.270151 -261.210313 
L 263.519698 -261.210313 
L 266.769246 -261.210313 
L 270.018794 -261.210313 
L 273.268342 -261.210313 
L 276.517889 -261.210313 
L 279.767437 -261.210313 
L 283.016985 -261.210313 
L 286.266533 -261.210313 
L 289.51608 -261.210313 
L 292.765628 -261.210313 
L 296.015176 -261.210313 
L 299.264724 -261.210313 
L 302.514271 -261.210313 
L 305.763819 -261.210313 
L 309.013367 -261.210313 
L 312.262915 -261.210313 
L 315.512462 -261.210313 
L 318.76201 -261.210313 
L 322.011558 -261.210313 
L 325.261106 -261.210313 
L 328.510653 -261.210313 
L 331.760201 -261.210313 
L 335.009749 -261.210313 
L 338.259296 -261.210313 
L 341.508844 -261.210313 
L 344.758392 -261.210313 
L 348.00794 -261.210313 
L 351.257487 -261.210313 
L 354.507035 -261.210313 
L 357.756583 -261.210313 
L 361.006131 -261.210313 
L 364.255678 -261.210313 
L 367.505226 -261.210313 
L 367.505226 -262.935835 
L 367.505226 -262.935835 
L 364.255678 -266.345428 
L 361.006131 -269.699044 
L 357.756583 -272.995848 
L 354.507035 -276.235019 
L 351.257487 -279.415748 
L 348.00794 -282.537244 
L 344.758392 -285.598727 
L 341.508844 -288.599437 
L 338.259296 -291.538623 
L 335.009749 -294.415555 
L 331.760201 -297.229514 
L 328.510653 -299.9798 
L 325.261106 -302.665728 
L 322.011558 -305.286627 
L 318.76201 -307.841845 
L 315.512462 -310.330744 
L 312.262915 -312.752706 
L 309.013367 -315.107125 
L 305.763819 -317.393415 
L 302.514271 -319.611007 
L 299.264724 -321.759348 
L 296.015176 -323.837901 
L 292.765628 -325.84615 
L 289.51608 -327.783594 
L 286.266533 -329.64975 
L 283.016985 -331.444153 
L 279.767437 -333.166355 
L 276.517889 -334.815928 
L 273.268342 -336.39246 
L 270.018794 -337.895559 
L 266.769246 -339.324849 
L 263.519698 -340.679975 
L 260.270151 -341.960599 
L 257.020603 -343.166401 
L 253.771055 -344.297082 
L 250.521508 -345.352359 
L 247.27196 -346.33197 
L 244.022412 -347.23567 
L 240.772864 -348.063234 
L 237.523317 -348.814456 
L 234.273769 -349.489149 
L 231.024221 -350.087144 
L 227.774673 -350.608292 
L 224.525126 -351.052464 
L 221.275578 -351.419549 
L 218.02603 -351.709455 
L 214.776482 -351.92211 
L 211.526935 -352.057461 
L 208.277387 -352.115475 
L 205.027839 -352.096137 
L 201.778291 -351.999451 
L 198.528744 -351.825443 
L 195.279196 -351.574154 
L 192.029648 -351.245648 
L 188.780101 -350.840007 
L 185.530553 -350.357332 
L 182.281005 -349.797743 
L 179.031457 -349.161379 
L 175.78191 -348.4484 
L 172.532362 -347.658982 
L 169.282814 -346.793324 
L 166.033266 -345.851639 
L 162.783719 -344.834163 
L 159.534171 -343.74115 
L 156.284623 -342.572872 
L 153.035075 -341.32962 
L 149.785528 -340.011704 
L 146.53598 -338.619452 
L 143.286432 -337.153212 
L 140.036884 -335.613349 
L 136.787337 -334.000246 
L 133.537789 -332.314306 
L 130.288241 -330.555949 
L 127.038693 -328.725613 
L 123.789146 -326.823754 
L 120.539598 -324.850846 
L 117.29005 -322.807381 
L 114.040503 -320.693868 
L 110.790955 -318.510833 
L 107.541407 -316.258822 
L 104.291859 -313.938395 
L 101.042312 -311.55013 
L 97.792764 -309.094624 
L 94.543216 -306.572486 
L 91.293668 -303.984347 
L 88.044121 -301.330851 
L 84.794573 -298.61266 
L 81.545025 -295.83045 
L 78.295477 -292.984916 
L 75.04593 -290.076766 
L 71.796382 -287.106726 
L 68.546834 -284.075535 
L 65.297286 -280.983949 
L 62.047739 -277.832738 
L 58.798191 -274.622689 
L 55.548643 -271.354599 
L 52.299095 -268.029286 
L 49.049548 -264.647576 
z
" style="stroke: #ff0000; stroke-opacity: 0.2"/>
    </defs>
    <g clip-path="url(#p52d366b863)">
     <use xlink:href="#mbb3156275e" x="0" y="417.1325" style="fill: #ff0000; fill-opacity: 0.2; stroke: #ff0000; stroke-opacity: 0.2"/>
    </g>
   </g>
   <g id="matplotlib.axis_1">
    <g id="xtick_1">
     <g id="line2d_1">
      <defs>
       <path id="mbc94184ac4" d="M 0 0 
L 0 3.5 
" style="stroke: #000000; stroke-width: 0.8"/>
      </defs>
      <g>
       <use xlink:href="#mbc94184ac4" x="45.8" y="375.3925" style="stroke: #000000; stroke-width: 0.8"/>
      </g>
     </g>
     <g id="text_1">
      <!-- 0.0 -->
      <g transform="translate(38.3 390.588125) scale(0.12 -0.12)">
       <defs>
        <path id="STIXGeneral-Regular-30" d="M 3046 2112 
Q 3046 1683 2963 1302 
Q 2880 922 2717 602 
Q 2554 282 2266 96 
Q 1978 -90 1600 -90 
Q 1210 -90 915 108 
Q 621 307 461 640 
Q 301 973 227 1350 
Q 154 1728 154 2150 
Q 154 2746 301 3222 
Q 448 3699 790 4012 
Q 1133 4326 1626 4326 
Q 2253 4326 2649 3712 
Q 3046 3098 3046 2112 
z
M 2432 2080 
Q 2432 3091 2217 3625 
Q 2003 4160 1587 4160 
Q 1190 4160 979 3622 
Q 768 3085 768 2106 
Q 768 1120 979 598 
Q 1190 77 1600 77 
Q 2003 77 2217 598 
Q 2432 1120 2432 2080 
z
" transform="scale(0.015625)"/>
        <path id="STIXGeneral-Regular-2e" d="M 1158 275 
Q 1158 134 1052 32 
Q 947 -70 800 -70 
Q 653 -70 550 32 
Q 448 134 448 281 
Q 448 429 553 534 
Q 659 640 806 640 
Q 947 640 1052 531 
Q 1158 422 1158 275 
z
" transform="scale(0.015625)"/>
       </defs>
       <use xlink:href="#STIXGeneral-Regular-30"/>
       <use xlink:href="#STIXGeneral-Regular-2e" transform="translate(49.999985 0)"/>
       <use xlink:href="#STIXGeneral-Regular-30" transform="translate(74.999969 0)"/>
      </g>
     </g>
    </g>
    <g id="xtick_2">
     <g id="line2d_2">
      <g>
       <use xlink:href="#mbc94184ac4" x="175.132" y="375.3925" style="stroke: #000000; stroke-width: 0.8"/>
      </g>
     </g>
     <g id="text_2">
      <!-- 0.1 -->
      <g transform="translate(167.632 390.588125) scale(0.12 -0.12)">
       <defs>
        <path id="STIXGeneral-Regular-31" d="M 2522 0 
L 755 0 
L 755 96 
Q 1107 115 1235 227 
Q 1363 339 1363 608 
L 1363 3482 
Q 1363 3795 1171 3795 
Q 1082 3795 883 3718 
L 710 3654 
L 710 3744 
L 1856 4326 
L 1914 4307 
L 1914 486 
Q 1914 275 2042 185 
Q 2170 96 2522 96 
L 2522 0 
z
" transform="scale(0.015625)"/>
       </defs>
       <use xlink:href="#STIXGeneral-Regular-30"/>
       <use xlink:href="#STIXGeneral-Regular-2e" transform="translate(49.999985 0)"/>
       <use xlink:href="#STIXGeneral-Regular-31" transform="translate(74.999969 0)"/>
      </g>
     </g>
    </g>
    <g id="xtick_3">
     <g id="line2d_3">
      <g>
       <use xlink:href="#mbc94184ac4" x="304.464" y="375.3925" style="stroke: #000000; stroke-width: 0.8"/>
      </g>
     </g>
     <g id="text_3">
      <!-- 0.2 -->
      <g transform="translate(296.964 390.588125) scale(0.12 -0.12)">
       <defs>
        <path id="STIXGeneral-Regular-32" d="M 3034 877 
L 2688 0 
L 186 0 
L 186 77 
L 1325 1286 
Q 1773 1754 1965 2144 
Q 2157 2534 2157 2950 
Q 2157 3379 1920 3616 
Q 1683 3853 1267 3853 
Q 922 3853 720 3673 
Q 518 3494 326 3021 
L 192 3053 
Q 301 3648 630 3987 
Q 960 4326 1523 4326 
Q 2054 4326 2380 4006 
Q 2707 3686 2707 3200 
Q 2707 2477 1888 1613 
L 832 486 
L 2330 486 
Q 2541 486 2665 569 
Q 2790 653 2944 915 
L 3034 877 
z
" transform="scale(0.015625)"/>
       </defs>
       <use xlink:href="#STIXGeneral-Regular-30"/>
       <use xlink:href="#STIXGeneral-Regular-2e" transform="translate(49.999985 0)"/>
       <use xlink:href="#STIXGeneral-Regular-32" transform="translate(74.999969 0)"/>
      </g>
     </g>
    </g>
    <g id="xtick_4">
     <g id="line2d_4">
      <g>
       <use xlink:href="#mbc94184ac4" x="433.796" y="375.3925" style="stroke: #000000; stroke-width: 0.8"/>
      </g>
     </g>
     <g id="text_4">
      <!-- 0.3 -->
      <g transform="translate(426.296 390.588125) scale(0.12 -0.12)">
       <defs>
        <path id="STIXGeneral-Regular-33" d="M 390 3264 
L 288 3290 
Q 435 3770 748 4048 
Q 1062 4326 1542 4326 
Q 1990 4326 2265 4083 
Q 2541 3840 2541 3450 
Q 2541 2925 1946 2566 
Q 2298 2413 2477 2227 
Q 2758 1914 2758 1402 
Q 2758 890 2464 506 
Q 2246 211 1840 60 
Q 1434 -90 979 -90 
Q 262 -90 262 275 
Q 262 378 339 442 
Q 416 506 525 506 
Q 685 506 915 339 
Q 1197 141 1466 141 
Q 1818 141 2058 425 
Q 2298 710 2298 1120 
Q 2298 1856 1632 2048 
Q 1434 2112 979 2112 
L 979 2202 
Q 1338 2323 1517 2432 
Q 2035 2726 2035 3290 
Q 2035 3610 1852 3776 
Q 1670 3942 1344 3942 
Q 768 3942 390 3264 
z
" transform="scale(0.015625)"/>
       </defs>
       <use xlink:href="#STIXGeneral-Regular-30"/>
       <use xlink:href="#STIXGeneral-Regular-2e" transform="translate(49.999985 0)"/>
       <use xlink:href="#STIXGeneral-Regular-33" transform="translate(74.999969 0)"/>
      </g>
     </g>
    </g>
    <g id="xtick_5">
     <g id="line2d_5">
      <g>
       <use xlink:href="#mbc94184ac4" x="563.128" y="375.3925" style="stroke: #000000; stroke-width: 0.8"/>
      </g>
     </g>
     <g id="text_5">
      <!-- 0.4 -->
      <g transform="translate(555.628 390.588125) scale(0.12 -0.12)">
       <defs>
        <path id="STIXGeneral-Regular-34" d="M 3027 1069 
L 2368 1069 
L 2368 0 
L 1869 0 
L 1869 1069 
L 77 1069 
L 77 1478 
L 2086 4326 
L 2368 4326 
L 2368 1478 
L 3027 1478 
L 3027 1069 
z
M 1869 1478 
L 1869 3674 
L 333 1478 
L 1869 1478 
z
" transform="scale(0.015625)"/>
       </defs>
       <use xlink:href="#STIXGeneral-Regular-30"/>
       <use xlink:href="#STIXGeneral-Regular-2e" transform="translate(49.999985 0)"/>
       <use xlink:href="#STIXGeneral-Regular-34" transform="translate(74.999969 0)"/>
      </g>
     </g>
    </g>
    <g id="xtick_6">
     <g id="line2d_6">
      <g>
       <use xlink:href="#mbc94184ac4" x="692.46" y="375.3925" style="stroke: #000000; stroke-width: 0.8"/>
      </g>
     </g>
     <g id="text_6">
      <!-- 0.5 -->
      <g transform="translate(684.96 390.588125) scale(0.12 -0.12)">
       <defs>
        <path id="STIXGeneral-Regular-35" d="M 2803 4358 
L 2573 3814 
Q 2534 3731 2400 3731 
L 1158 3731 
L 902 3187 
Q 1606 3053 1920 2896 
Q 2234 2739 2502 2368 
Q 2726 2061 2726 1555 
Q 2726 1094 2576 780 
Q 2426 467 2099 224 
Q 1664 -90 1011 -90 
Q 646 -90 422 19 
Q 198 128 198 307 
Q 198 550 486 550 
Q 717 550 960 352 
Q 1210 147 1414 147 
Q 1747 147 2012 480 
Q 2278 813 2278 1229 
Q 2278 1843 1850 2189 
Q 1293 2637 486 2637 
Q 410 2637 410 2688 
L 416 2720 
L 1114 4237 
L 2438 4237 
Q 2547 4237 2608 4269 
Q 2669 4301 2746 4403 
L 2803 4358 
z
" transform="scale(0.015625)"/>
       </defs>
       <use xlink:href="#STIXGeneral-Regular-30"/>
       <use xlink:href="#STIXGeneral-Regular-2e" transform="translate(49.999985 0)"/>
       <use xlink:href="#STIXGeneral-Regular-35" transform="translate(74.999969 0)"/>
      </g>
     </g>
    </g>
    <g id="text_7">
     <!-- Physical analyzer angle $\phi_b / \pi$ -->
     <g transform="translate(288.63 406.8525) scale(0.14 -0.14)">
      <defs>
       <path id="STIXGeneral-Regular-50" d="M 102 4237 
L 1760 4237 
Q 2669 4237 3149 3834 
Q 3469 3565 3469 3072 
Q 3469 2560 3104 2234 
Q 2835 1990 2553 1916 
Q 2272 1843 1734 1843 
Q 1549 1843 1293 1862 
L 1293 717 
Q 1293 352 1398 246 
Q 1504 141 1894 122 
L 1894 0 
L 102 0 
L 102 122 
Q 474 147 557 256 
Q 640 365 640 781 
L 640 3526 
Q 640 3885 547 3987 
Q 454 4090 102 4115 
L 102 4237 
z
M 1293 3770 
L 1293 2118 
Q 1510 2099 1683 2099 
Q 2202 2099 2486 2352 
Q 2771 2605 2771 3040 
Q 2771 3558 2476 3779 
Q 2182 4000 1517 4000 
Q 1382 4000 1337 3952 
Q 1293 3904 1293 3770 
z
" transform="scale(0.015625)"/>
       <path id="STIXGeneral-Regular-68" d="M 3117 0 
L 1760 0 
L 1760 96 
Q 2042 128 2118 224 
Q 2195 320 2195 653 
L 2195 1920 
Q 2195 2598 1722 2598 
Q 1530 2598 1370 2508 
Q 1210 2419 1005 2195 
L 1005 653 
Q 1005 320 1081 224 
Q 1158 128 1440 96 
L 1440 0 
L 58 0 
L 58 96 
Q 333 134 400 224 
Q 467 314 467 653 
L 467 3667 
Q 467 3872 406 3933 
Q 346 3994 141 3994 
Q 83 3994 64 3987 
L 64 4090 
L 237 4141 
Q 730 4288 973 4371 
L 1005 4352 
L 1005 2406 
Q 1229 2694 1446 2819 
Q 1664 2944 1946 2944 
Q 2733 2944 2733 1926 
L 2733 653 
Q 2733 320 2793 233 
Q 2854 147 3117 96 
L 3117 0 
z
" transform="scale(0.015625)"/>
       <path id="STIXGeneral-Regular-79" d="M 3040 2880 
L 3040 2784 
Q 2925 2771 2854 2700 
Q 2784 2630 2720 2458 
L 1760 -160 
Q 1510 -838 1257 -1116 
Q 1005 -1395 640 -1395 
Q 435 -1395 313 -1289 
Q 192 -1184 192 -1024 
Q 192 -902 272 -816 
Q 352 -730 467 -730 
Q 653 -730 800 -813 
Q 883 -858 966 -858 
Q 1101 -858 1286 -576 
Q 1376 -448 1459 -211 
Q 1542 26 1542 115 
Q 1542 198 1274 762 
L 429 2566 
Q 346 2752 90 2790 
L 90 2880 
L 1402 2880 
L 1402 2784 
Q 1197 2778 1117 2739 
Q 1037 2701 1037 2611 
Q 1037 2541 1120 2349 
L 1837 749 
L 2458 2515 
Q 2483 2573 2483 2630 
Q 2483 2784 2189 2784 
L 2189 2880 
L 3040 2880 
z
" transform="scale(0.015625)"/>
       <path id="STIXGeneral-Regular-73" d="M 998 1926 
L 1664 1523 
Q 1984 1331 2105 1164 
Q 2227 998 2227 736 
Q 2227 416 1961 176 
Q 1696 -64 1331 -64 
Q 1030 -64 864 -6 
Q 691 51 570 51 
Q 461 51 416 -26 
L 333 -26 
L 333 979 
L 435 979 
Q 538 512 730 294 
Q 922 77 1248 77 
Q 1485 77 1632 211 
Q 1779 346 1779 550 
Q 1779 845 1440 1030 
L 1094 1222 
Q 326 1651 326 2150 
Q 326 2522 566 2730 
Q 806 2938 1210 2938 
Q 1491 2938 1638 2867 
Q 1754 2816 1818 2816 
Q 1862 2816 1920 2880 
L 1990 2880 
L 2022 2010 
L 1926 2010 
Q 1818 2445 1654 2621 
Q 1491 2797 1203 2797 
Q 986 2797 854 2688 
Q 723 2579 723 2362 
Q 723 2253 796 2128 
Q 870 2003 998 1926 
z
" transform="scale(0.015625)"/>
       <path id="STIXGeneral-Regular-69" d="M 1152 4045 
Q 1152 3904 1056 3811 
Q 960 3718 819 3718 
Q 685 3718 592 3811 
Q 499 3904 499 4045 
Q 499 4179 595 4275 
Q 691 4371 826 4371 
Q 966 4371 1059 4275 
Q 1152 4179 1152 4045 
z
M 1619 0 
L 102 0 
L 102 96 
Q 435 115 521 211 
Q 608 307 608 666 
L 608 2118 
Q 608 2342 563 2432 
Q 518 2522 397 2522 
Q 243 2522 128 2490 
L 128 2592 
L 1120 2944 
L 1146 2918 
L 1146 672 
Q 1146 314 1226 218 
Q 1306 122 1619 96 
L 1619 0 
z
" transform="scale(0.015625)"/>
       <path id="STIXGeneral-Regular-63" d="M 2547 998 
L 2637 941 
Q 2362 403 2112 205 
Q 1786 -64 1376 -64 
Q 845 -64 502 336 
Q 160 736 160 1357 
Q 160 2170 698 2618 
Q 1094 2944 1562 2944 
Q 1965 2944 2256 2749 
Q 2547 2554 2547 2285 
Q 2547 2176 2457 2096 
Q 2368 2016 2246 2016 
Q 2022 2016 1939 2310 
L 1901 2451 
Q 1850 2630 1773 2694 
Q 1696 2758 1523 2758 
Q 1133 2758 893 2451 
Q 653 2144 653 1645 
Q 653 1094 928 745 
Q 1203 397 1645 397 
Q 1920 397 2118 528 
Q 2317 659 2547 998 
z
" transform="scale(0.015625)"/>
       <path id="STIXGeneral-Regular-61" d="M 2829 422 
L 2829 243 
Q 2586 -64 2253 -64 
Q 1888 -64 1843 403 
L 1837 403 
Q 1427 -64 909 -64 
Q 608 -64 422 112 
Q 237 288 237 602 
Q 237 1050 685 1350 
Q 992 1555 1837 1869 
L 1837 2214 
Q 1837 2502 1699 2646 
Q 1562 2790 1338 2790 
Q 1146 2790 1018 2697 
Q 890 2605 890 2477 
Q 890 2419 909 2348 
Q 928 2278 928 2208 
Q 928 2112 841 2029 
Q 755 1946 634 1946 
Q 525 1946 441 2029 
Q 358 2112 358 2240 
Q 358 2547 685 2752 
Q 986 2944 1421 2944 
Q 1939 2944 2176 2656 
Q 2291 2522 2323 2384 
Q 2355 2246 2355 1946 
L 2355 723 
Q 2355 301 2554 301 
Q 2682 301 2829 422 
z
M 1837 813 
L 1837 1715 
Q 1248 1510 1018 1293 
Q 800 1094 800 800 
Q 800 557 921 432 
Q 1043 307 1242 307 
Q 1453 307 1613 410 
Q 1747 506 1792 589 
Q 1837 672 1837 813 
z
" transform="scale(0.015625)"/>
       <path id="STIXGeneral-Regular-6c" d="M 1645 0 
L 134 0 
L 134 96 
Q 435 122 531 221 
Q 627 320 627 589 
L 627 3590 
Q 627 3821 569 3910 
Q 512 4000 358 4000 
Q 224 4000 122 3987 
L 122 4090 
Q 730 4237 1133 4371 
L 1165 4346 
L 1165 557 
Q 1165 288 1254 201 
Q 1344 115 1645 96 
L 1645 0 
z
" transform="scale(0.015625)"/>
       <path id="STIXGeneral-Regular-20" transform="scale(0.015625)"/>
       <path id="STIXGeneral-Regular-6e" d="M 3104 0 
L 1773 0 
L 1779 96 
Q 2016 115 2096 233 
Q 2176 352 2176 672 
L 2176 1946 
Q 2176 2592 1709 2592 
Q 1549 2592 1408 2515 
Q 1267 2438 1050 2227 
L 1050 461 
Q 1050 269 1136 192 
Q 1222 115 1466 96 
L 1466 0 
L 115 0 
L 115 96 
Q 358 115 435 214 
Q 512 314 512 602 
L 512 2157 
Q 512 2394 467 2483 
Q 422 2573 288 2573 
Q 160 2573 102 2547 
L 102 2656 
Q 550 2784 979 2944 
L 1030 2925 
L 1030 2426 
L 1037 2426 
Q 1491 2944 1958 2944 
Q 2323 2944 2518 2688 
Q 2714 2432 2714 1958 
L 2714 544 
Q 2714 288 2790 205 
Q 2867 122 3104 96 
L 3104 0 
z
" transform="scale(0.015625)"/>
       <path id="STIXGeneral-Regular-7a" d="M 2675 870 
L 2579 0 
L 173 0 
L 173 96 
L 1875 2688 
L 1011 2688 
Q 710 2688 604 2582 
Q 499 2477 454 2125 
L 339 2125 
L 365 2880 
L 2579 2880 
L 2579 2784 
L 858 192 
L 1709 192 
Q 2246 192 2387 365 
Q 2477 474 2560 896 
L 2675 870 
z
" transform="scale(0.015625)"/>
       <path id="STIXGeneral-Regular-65" d="M 2611 1050 
L 2714 1005 
Q 2330 -64 1376 -64 
Q 813 -64 486 329 
Q 160 723 160 1389 
Q 160 2074 525 2509 
Q 890 2944 1485 2944 
Q 2061 2944 2374 2502 
Q 2560 2246 2592 1773 
L 621 1773 
Q 646 1370 700 1158 
Q 755 947 915 730 
Q 1184 378 1626 378 
Q 1939 378 2153 531 
Q 2368 685 2611 1050 
z
M 634 1978 
L 1939 1978 
Q 1882 2381 1750 2547 
Q 1619 2714 1312 2714 
Q 1043 2714 864 2525 
Q 685 2336 634 1978 
z
" transform="scale(0.015625)"/>
       <path id="STIXGeneral-Regular-72" d="M 1024 2931 
L 1024 2342 
Q 1267 2688 1430 2816 
Q 1594 2944 1792 2944 
Q 1958 2944 2051 2854 
Q 2144 2765 2144 2605 
Q 2144 2470 2077 2393 
Q 2010 2317 1894 2317 
Q 1773 2317 1638 2445 
Q 1536 2541 1472 2541 
Q 1338 2541 1181 2355 
Q 1024 2170 1024 2016 
L 1024 576 
Q 1024 301 1133 205 
Q 1242 109 1568 96 
L 1568 0 
L 32 0 
L 32 96 
Q 339 154 412 224 
Q 486 294 486 538 
L 486 2138 
Q 486 2349 438 2435 
Q 390 2522 269 2522 
Q 166 2522 45 2496 
L 45 2598 
Q 448 2726 992 2944 
L 1024 2931 
z
" transform="scale(0.015625)"/>
       <path id="STIXGeneral-Regular-67" d="M 3008 2483 
L 2477 2483 
Q 2598 2208 2598 1946 
Q 2598 1453 2265 1203 
Q 1933 954 1600 954 
Q 1530 954 1357 973 
L 1235 986 
Q 1107 947 979 812 
Q 851 678 851 582 
Q 851 435 1350 410 
L 2176 371 
Q 2528 358 2739 172 
Q 2950 -13 2950 -314 
Q 2950 -685 2566 -986 
Q 2035 -1395 1286 -1395 
Q 826 -1395 502 -1212 
Q 179 -1030 179 -774 
Q 179 -595 320 -419 
Q 461 -243 806 6 
Q 602 102 534 172 
Q 467 243 467 346 
Q 467 531 762 787 
Q 909 915 1037 1043 
Q 717 1203 579 1401 
Q 442 1600 442 1901 
Q 442 2336 752 2640 
Q 1062 2944 1510 2944 
Q 1766 2944 2022 2848 
L 2163 2797 
Q 2349 2733 2515 2733 
L 3008 2733 
L 3008 2483 
z
M 973 2163 
L 973 2144 
Q 973 1683 1155 1398 
Q 1338 1114 1632 1114 
Q 1850 1114 1978 1270 
Q 2106 1427 2106 1690 
Q 2106 2112 1914 2464 
Q 1754 2765 1446 2765 
Q 1222 2765 1097 2605 
Q 973 2445 973 2163 
z
M 2771 -410 
Q 2771 -230 2595 -163 
Q 2419 -96 1978 -96 
Q 1344 -96 941 -13 
Q 749 -243 688 -348 
Q 627 -454 627 -563 
Q 627 -774 880 -902 
Q 1133 -1030 1555 -1030 
Q 2099 -1030 2435 -860 
Q 2771 -691 2771 -410 
z
" transform="scale(0.015625)"/>
       <path id="STIXGeneral-Italic-3d5" d="M 3078 4371 
L 2650 2822 
Q 3098 2822 3296 2746 
Q 3808 2547 3808 1939 
Q 3808 1709 3728 1446 
Q 3648 1184 3481 915 
Q 3315 646 3088 425 
Q 2861 205 2537 67 
Q 2214 -70 1850 -70 
L 1504 -1312 
L 1005 -1312 
L 1350 -70 
Q 883 -70 666 0 
Q 173 160 173 819 
Q 173 1018 256 1274 
Q 339 1530 502 1802 
Q 666 2074 886 2301 
Q 1107 2528 1417 2675 
Q 1728 2822 2061 2822 
L 2157 2822 
L 2586 4371 
L 3078 4371 
z
M 2611 2688 
L 1888 64 
Q 2125 64 2330 166 
Q 2694 352 2982 998 
Q 3270 1645 3270 2093 
Q 3270 2464 2982 2643 
Q 2906 2688 2611 2688 
z
M 1389 64 
L 2118 2688 
Q 1760 2688 1427 2365 
Q 1094 2042 902 1568 
Q 710 1094 710 646 
Q 710 237 1018 115 
Q 1152 64 1389 64 
z
" transform="scale(0.015625)"/>
       <path id="STIXGeneral-Italic-62" d="M 1043 1856 
L 1050 1856 
Q 1370 2387 1654 2604 
Q 1939 2822 2285 2822 
Q 2618 2822 2822 2617 
Q 3027 2413 3027 2054 
Q 3027 1562 2726 1062 
Q 2426 563 1942 246 
Q 1459 -70 979 -70 
Q 685 -70 416 32 
Q 147 134 147 269 
L 147 307 
L 1056 3654 
Q 1114 3885 1114 3955 
Q 1114 4058 1053 4080 
Q 992 4102 704 4115 
L 704 4224 
Q 1184 4282 1683 4371 
L 1715 4339 
L 1581 3814 
L 1043 1856 
z
M 2483 1958 
Q 2483 2509 2035 2509 
Q 1594 2509 1158 1773 
Q 954 1427 826 1008 
Q 698 589 698 294 
Q 698 77 992 77 
Q 1414 77 1779 454 
Q 2074 762 2278 1187 
Q 2483 1613 2483 1958 
z
" transform="scale(0.015625)"/>
       <path id="STIXGeneral-Regular-2f" d="M 1837 4326 
L 378 -90 
L -58 -90 
L 1408 4326 
L 1837 4326 
z
" transform="scale(0.015625)"/>
       <path id="STIXGeneral-Italic-3c0" d="M 3430 2739 
L 3296 2266 
L 2643 2266 
Q 2624 2195 2502 1782 
Q 2381 1370 2297 1072 
Q 2214 774 2214 717 
Q 2214 448 2413 448 
Q 2694 448 2867 838 
L 2970 838 
Q 2886 486 2652 208 
Q 2419 -70 2093 -70 
Q 1901 -70 1808 67 
Q 1715 205 1715 410 
Q 1715 627 1824 922 
L 2310 2266 
L 1645 2266 
Q 1568 2061 1401 1469 
Q 1235 877 1068 512 
Q 902 147 672 -38 
Q 563 -115 442 -115 
Q 314 -115 218 -32 
Q 122 51 122 166 
Q 122 429 314 480 
Q 634 563 774 928 
L 1299 2266 
L 1261 2266 
Q 973 2266 819 2208 
Q 666 2150 474 1914 
L 371 1914 
Q 640 2362 931 2550 
Q 1222 2739 1696 2739 
L 3430 2739 
z
" transform="scale(0.015625)"/>
      </defs>
      <use xlink:href="#STIXGeneral-Regular-50" transform="translate(0 0.703125)"/>
      <use xlink:href="#STIXGeneral-Regular-68" transform="translate(55.699997 0.703125)"/>
      <use xlink:href="#STIXGeneral-Regular-79" transform="translate(105.699982 0.703125)"/>
      <use xlink:href="#STIXGeneral-Regular-73" transform="translate(155.699966 0.703125)"/>
      <use xlink:href="#STIXGeneral-Regular-69" transform="translate(194.59996 0.703125)"/>
      <use xlink:href="#STIXGeneral-Regular-63" transform="translate(222.399948 0.703125)"/>
      <use xlink:href="#STIXGeneral-Regular-61" transform="translate(266.799942 0.703125)"/>
      <use xlink:href="#STIXGeneral-Regular-6c" transform="translate(311.199936 0.703125)"/>
      <use xlink:href="#STIXGeneral-Regular-20" transform="translate(338.999924 0.703125)"/>
      <use xlink:href="#STIXGeneral-Regular-61" transform="translate(363.999908 0.703125)"/>
      <use xlink:href="#STIXGeneral-Regular-6e" transform="translate(408.399902 0.703125)"/>
      <use xlink:href="#STIXGeneral-Regular-61" transform="translate(458.399887 0.703125)"/>
      <use xlink:href="#STIXGeneral-Regular-6c" transform="translate(502.799881 0.703125)"/>
      <use xlink:href="#STIXGeneral-Regular-79" transform="translate(530.599869 0.703125)"/>
      <use xlink:href="#STIXGeneral-Regular-7a" transform="translate(580.599854 0.703125)"/>
      <use xlink:href="#STIXGeneral-Regular-65" transform="translate(624.999847 0.703125)"/>
      <use xlink:href="#STIXGeneral-Regular-72" transform="translate(669.399841 0.703125)"/>
      <use xlink:href="#STIXGeneral-Regular-20" transform="translate(702.699829 0.703125)"/>
      <use xlink:href="#STIXGeneral-Regular-61" transform="translate(727.699814 0.703125)"/>
      <use xlink:href="#STIXGeneral-Regular-6e" transform="translate(772.099808 0.703125)"/>
      <use xlink:href="#STIXGeneral-Regular-67" transform="translate(822.099792 0.703125)"/>
      <use xlink:href="#STIXGeneral-Regular-6c" transform="translate(872.099777 0.703125)"/>
      <use xlink:href="#STIXGeneral-Regular-65" transform="translate(899.899765 0.703125)"/>
      <use xlink:href="#STIXGeneral-Regular-20" transform="translate(944.299759 0.703125)"/>
      <use xlink:href="#STIXGeneral-Italic-3d5" transform="translate(969.299744 0.703125)"/>
      <use xlink:href="#STIXGeneral-Italic-62" transform="translate(1031.999741 -12.525) scale(0.7)"/>
      <use xlink:href="#STIXGeneral-Regular-2f" transform="translate(1071.409105 0.703125)"/>
      <use xlink:href="#STIXGeneral-Italic-3c0" transform="translate(1099.209093 0.703125)"/>
     </g>
    </g>
   </g>
   <g id="matplotlib.axis_2">
    <g id="ytick_1">
     <g id="line2d_7">
      <defs>
       <path id="m711ca02d0d" d="M 0 0 
L -3.5 0 
" style="stroke: #000000; stroke-width: 0.8"/>
      </defs>
      <g>
       <use xlink:href="#m711ca02d0d" x="45.8" y="375.3925" style="stroke: #000000; stroke-width: 0.8"/>
      </g>
     </g>
     <g id="text_8">
      <!-- 0.0 -->
      <g transform="translate(23.8 379.490312) scale(0.12 -0.12)">
       <use xlink:href="#STIXGeneral-Regular-30"/>
       <use xlink:href="#STIXGeneral-Regular-2e" transform="translate(49.999985 0)"/>
       <use xlink:href="#STIXGeneral-Regular-30" transform="translate(74.999969 0)"/>
      </g>
     </g>
    </g>
    <g id="ytick_2">
     <g id="line2d_8">
      <g>
       <use xlink:href="#m711ca02d0d" x="45.8" y="320.524922" style="stroke: #000000; stroke-width: 0.8"/>
      </g>
     </g>
     <g id="text_9">
      <!-- 0.5 -->
      <g transform="translate(23.8 324.622734) scale(0.12 -0.12)">
       <use xlink:href="#STIXGeneral-Regular-30"/>
       <use xlink:href="#STIXGeneral-Regular-2e" transform="translate(49.999985 0)"/>
       <use xlink:href="#STIXGeneral-Regular-35" transform="translate(74.999969 0)"/>
      </g>
     </g>
    </g>
    <g id="ytick_3">
     <g id="line2d_9">
      <g>
       <use xlink:href="#m711ca02d0d" x="45.8" y="265.657344" style="stroke: #000000; stroke-width: 0.8"/>
      </g>
     </g>
     <g id="text_10">
      <!-- 1.0 -->
      <g transform="translate(23.8 269.755156) scale(0.12 -0.12)">
       <use xlink:href="#STIXGeneral-Regular-31"/>
       <use xlink:href="#STIXGeneral-Regular-2e" transform="translate(49.999985 0)"/>
       <use xlink:href="#STIXGeneral-Regular-30" transform="translate(74.999969 0)"/>
      </g>
     </g>
    </g>
    <g id="ytick_4">
     <g id="line2d_10">
      <g>
       <use xlink:href="#m711ca02d0d" x="45.8" y="210.789766" style="stroke: #000000; stroke-width: 0.8"/>
      </g>
     </g>
     <g id="text_11">
      <!-- 1.5 -->
      <g transform="translate(23.8 214.887578) scale(0.12 -0.12)">
       <use xlink:href="#STIXGeneral-Regular-31"/>
       <use xlink:href="#STIXGeneral-Regular-2e" transform="translate(49.999985 0)"/>
       <use xlink:href="#STIXGeneral-Regular-35" transform="translate(74.999969 0)"/>
      </g>
     </g>
    </g>
    <g id="ytick_5">
     <g id="line2d_11">
      <g>
       <use xlink:href="#m711ca02d0d" x="45.8" y="155.922187" style="stroke: #000000; stroke-width: 0.8"/>
      </g>
     </g>
     <g id="text_12">
      <!-- 2.0 -->
      <g transform="translate(23.8 160.02) scale(0.12 -0.12)">
       <use xlink:href="#STIXGeneral-Regular-32"/>
       <use xlink:href="#STIXGeneral-Regular-2e" transform="translate(49.999985 0)"/>
       <use xlink:href="#STIXGeneral-Regular-30" transform="translate(74.999969 0)"/>
      </g>
     </g>
    </g>
    <g id="ytick_6">
     <g id="line2d_12">
      <g>
       <use xlink:href="#m711ca02d0d" x="45.8" y="101.054609" style="stroke: #000000; stroke-width: 0.8"/>
      </g>
     </g>
     <g id="text_13">
      <!-- 2.5 -->
      <g transform="translate(23.8 105.152422) scale(0.12 -0.12)">
       <use xlink:href="#STIXGeneral-Regular-32"/>
       <use xlink:href="#STIXGeneral-Regular-2e" transform="translate(49.999985 0)"/>
       <use xlink:href="#STIXGeneral-Regular-35" transform="translate(74.999969 0)"/>
      </g>
     </g>
    </g>
    <g id="ytick_7">
     <g id="line2d_13">
      <g>
       <use xlink:href="#m711ca02d0d" x="45.8" y="46.187031" style="stroke: #000000; stroke-width: 0.8"/>
      </g>
     </g>
     <g id="text_14">
      <!-- 3.0 -->
      <g transform="translate(23.8 50.284844) scale(0.12 -0.12)">
       <use xlink:href="#STIXGeneral-Regular-33"/>
       <use xlink:href="#STIXGeneral-Regular-2e" transform="translate(49.999985 0)"/>
       <use xlink:href="#STIXGeneral-Regular-30" transform="translate(74.999969 0)"/>
      </g>
     </g>
    </g>
    <g id="text_15">
     <!-- CHSH $S$-parameter -->
     <g transform="translate(16.72 254.06625) rotate(-90) scale(0.14 -0.14)">
      <defs>
       <path id="STIXGeneral-Regular-43" d="M 3930 838 
L 4051 723 
Q 3482 -90 2304 -90 
Q 1376 -90 794 480 
Q 179 1082 179 2080 
Q 179 3014 755 3661 
Q 1357 4326 2310 4326 
Q 2720 4326 3072 4230 
Q 3475 4115 3514 4115 
Q 3725 4115 3782 4326 
L 3910 4326 
L 3968 2874 
L 3821 2874 
Q 3718 3334 3488 3584 
Q 3034 4070 2458 4070 
Q 1747 4070 1334 3548 
Q 922 3027 922 2182 
Q 922 1152 1382 653 
Q 1811 192 2522 192 
Q 2944 192 3251 339 
Q 3558 486 3930 838 
z
" transform="scale(0.015625)"/>
       <path id="STIXGeneral-Regular-48" d="M 4499 0 
L 2714 0 
L 2714 122 
Q 3085 147 3181 265 
Q 3277 384 3277 794 
L 3277 2016 
L 1338 2016 
L 1338 723 
Q 1338 371 1440 256 
Q 1542 141 1894 122 
L 1901 0 
L 115 0 
L 115 122 
Q 493 147 589 259 
Q 685 371 685 781 
L 685 3507 
Q 685 3878 585 3980 
Q 486 4083 115 4115 
L 115 4237 
L 1907 4237 
L 1907 4115 
Q 1549 4083 1443 3977 
Q 1338 3872 1338 3507 
L 1338 2298 
L 3277 2298 
L 3277 3507 
Q 3277 3878 3177 3980 
Q 3078 4083 2707 4115 
L 2707 4237 
L 4499 4237 
L 4499 4115 
Q 4141 4083 4035 3977 
Q 3930 3872 3930 3507 
L 3930 710 
Q 3930 371 4035 259 
Q 4141 147 4499 122 
L 4499 0 
z
" transform="scale(0.015625)"/>
       <path id="STIXGeneral-Regular-53" d="M 3002 2963 
L 2842 2963 
Q 2733 3360 2579 3565 
Q 2189 4064 1651 4064 
Q 1357 4064 1181 3894 
Q 1005 3725 1005 3456 
Q 1005 3328 1069 3206 
Q 1133 3085 1206 2998 
Q 1280 2912 1465 2784 
Q 1651 2656 1766 2589 
Q 1882 2522 2150 2362 
Q 2669 2061 2905 1763 
Q 3142 1466 3142 1107 
Q 3142 576 2771 243 
Q 2400 -90 1837 -90 
Q 1421 -90 1082 58 
Q 915 128 781 128 
Q 704 128 653 70 
Q 602 13 602 -83 
L 461 -83 
L 275 1274 
L 416 1274 
Q 845 141 1734 141 
Q 2074 141 2285 342 
Q 2496 544 2496 858 
Q 2496 1158 2310 1363 
Q 2003 1696 1235 2106 
Q 454 2522 454 3206 
Q 454 3718 768 4022 
Q 1082 4326 1568 4326 
Q 1907 4326 2240 4186 
Q 2413 4109 2522 4109 
Q 2688 4109 2726 4326 
L 2861 4326 
L 3002 2963 
z
" transform="scale(0.015625)"/>
       <path id="STIXGeneral-Italic-53" d="M 3251 4269 
L 2995 2989 
L 2880 3008 
Q 2880 3539 2720 3795 
Q 2560 4051 2118 4051 
Q 1786 4051 1594 3881 
Q 1402 3712 1402 3411 
Q 1402 3168 1504 3005 
Q 1606 2842 2035 2413 
Q 2464 1978 2611 1715 
Q 2758 1453 2758 1133 
Q 2758 589 2390 237 
Q 2022 -115 1466 -115 
Q 1222 -115 800 32 
Q 595 109 499 109 
Q 288 109 224 -96 
L 109 -96 
L 326 1338 
L 454 1325 
Q 442 1267 442 1178 
Q 442 710 701 409 
Q 960 109 1363 109 
Q 1734 109 1968 336 
Q 2202 563 2202 928 
Q 2202 1139 2118 1308 
Q 2035 1478 1818 1715 
L 1568 1984 
Q 1549 2003 1459 2102 
Q 1370 2202 1318 2253 
Q 1030 2560 934 2755 
Q 838 2950 838 3213 
Q 838 3699 1168 3980 
Q 1498 4262 1978 4262 
Q 2310 4262 2522 4173 
Q 2707 4102 2816 4102 
Q 2925 4102 2982 4134 
Q 3040 4166 3104 4269 
L 3251 4269 
z
" transform="scale(0.015625)"/>
       <path id="STIXGeneral-Regular-2d" d="M 1824 1242 
L 250 1242 
L 250 1645 
L 1824 1645 
L 1824 1242 
z
" transform="scale(0.015625)"/>
       <path id="STIXGeneral-Regular-70" d="M 1018 2931 
L 1018 2438 
Q 1421 2944 1939 2944 
Q 2406 2944 2707 2560 
Q 3008 2176 3008 1581 
Q 3008 883 2621 409 
Q 2234 -64 1664 -64 
Q 1466 -64 1328 -6 
Q 1190 51 1018 211 
L 1018 -794 
Q 1018 -1094 1120 -1180 
Q 1222 -1267 1581 -1274 
L 1581 -1389 
L 32 -1389 
L 32 -1280 
Q 314 -1254 397 -1171 
Q 480 -1088 480 -838 
L 480 2157 
Q 480 2381 429 2451 
Q 378 2522 218 2522 
Q 115 2522 58 2515 
L 58 2618 
Q 506 2752 979 2944 
L 1018 2931 
z
M 1018 2138 
L 1018 563 
Q 1018 422 1238 281 
Q 1459 141 1683 141 
Q 2029 141 2243 467 
Q 2458 794 2458 1325 
Q 2458 1888 2243 2224 
Q 2029 2560 1670 2560 
Q 1446 2560 1232 2419 
Q 1018 2278 1018 2138 
z
" transform="scale(0.015625)"/>
       <path id="STIXGeneral-Regular-6d" d="M 4960 0 
L 3565 0 
L 3565 96 
Q 3834 122 3907 208 
Q 3981 294 3981 576 
L 3981 1894 
Q 3981 2278 3869 2444 
Q 3757 2611 3488 2611 
Q 3264 2611 3107 2521 
Q 2950 2432 2803 2221 
L 2803 608 
Q 2803 301 2896 201 
Q 2989 102 3264 96 
L 3264 0 
L 1830 0 
L 1830 96 
Q 2112 115 2189 188 
Q 2266 262 2266 550 
L 2266 1901 
Q 2266 2611 1850 2611 
Q 1670 2611 1468 2531 
Q 1267 2451 1171 2336 
Q 1088 2240 1088 2227 
L 1088 448 
Q 1088 243 1177 176 
Q 1267 109 1523 96 
L 1523 0 
L 102 0 
L 102 96 
Q 371 102 460 195 
Q 550 288 550 563 
L 550 2150 
Q 550 2387 499 2480 
Q 448 2573 326 2573 
Q 230 2573 122 2547 
L 122 2656 
Q 557 2778 1011 2944 
L 1062 2925 
L 1062 2451 
L 1075 2451 
Q 1363 2752 1584 2848 
Q 1805 2944 2054 2944 
Q 2560 2944 2733 2406 
Q 3232 2944 3776 2944 
Q 4518 2944 4518 1792 
L 4518 493 
Q 4518 282 4582 202 
Q 4646 122 4794 109 
L 4960 96 
L 4960 0 
z
" transform="scale(0.015625)"/>
       <path id="STIXGeneral-Regular-74" d="M 1702 493 
L 1786 422 
Q 1478 -64 1011 -64 
Q 448 -64 448 749 
L 448 2675 
L 109 2675 
Q 83 2694 83 2720 
Q 83 2771 192 2842 
Q 435 2982 813 3526 
Q 826 3546 874 3606 
Q 922 3667 941 3706 
Q 986 3706 986 3622 
L 986 2880 
L 1632 2880 
L 1632 2675 
L 986 2675 
L 986 845 
Q 986 538 1062 403 
Q 1139 269 1318 269 
Q 1510 269 1702 493 
z
" transform="scale(0.015625)"/>
      </defs>
      <use xlink:href="#STIXGeneral-Regular-43" transform="translate(0 0.40625)"/>
      <use xlink:href="#STIXGeneral-Regular-48" transform="translate(66.699997 0.40625)"/>
      <use xlink:href="#STIXGeneral-Regular-53" transform="translate(138.899979 0.40625)"/>
      <use xlink:href="#STIXGeneral-Regular-48" transform="translate(194.499969 0.40625)"/>
      <use xlink:href="#STIXGeneral-Regular-20" transform="translate(266.699951 0.40625)"/>
      <use xlink:href="#STIXGeneral-Italic-53" transform="translate(291.699936 0.40625)"/>
      <use xlink:href="#STIXGeneral-Regular-2d" transform="translate(341.699921 0.40625)"/>
      <use xlink:href="#STIXGeneral-Regular-70" transform="translate(374.999908 0.40625)"/>
      <use xlink:href="#STIXGeneral-Regular-61" transform="translate(424.999893 0.40625)"/>
      <use xlink:href="#STIXGeneral-Regular-72" transform="translate(469.399887 0.40625)"/>
      <use xlink:href="#STIXGeneral-Regular-61" transform="translate(502.699875 0.40625)"/>
      <use xlink:href="#STIXGeneral-Regular-6d" transform="translate(547.099869 0.40625)"/>
      <use xlink:href="#STIXGeneral-Regular-65" transform="translate(624.899857 0.40625)"/>
      <use xlink:href="#STIXGeneral-Regular-74" transform="translate(669.29985 0.40625)"/>
      <use xlink:href="#STIXGeneral-Regular-65" transform="translate(697.099838 0.40625)"/>
      <use xlink:href="#STIXGeneral-Regular-72" transform="translate(741.499832 0.40625)"/>
     </g>
    </g>
   </g>
   <g id="line2d_14">
    <path d="M 45.8 155.922188 
L 52.299095 149.103214 
L 58.798191 142.509811 
L 65.297286 136.148551 
L 71.796382 130.025774 
L 78.295477 124.147584 
L 84.794573 118.51984 
L 91.293668 113.148153 
L 97.792764 108.037876 
L 104.291859 103.194105 
L 110.790955 98.621667 
L 117.29005 94.325119 
L 123.789146 90.308746 
L 130.288241 86.576551 
L 136.787337 83.132254 
L 143.286432 79.979288 
L 149.785528 77.120796 
L 156.284623 74.559628 
L 162.783719 72.298337 
L 169.282814 70.339176 
L 175.78191 68.6841 
L 182.281005 67.334757 
L 188.780101 66.292493 
L 195.279196 65.558346 
L 201.778291 65.133049 
L 208.277387 65.017025 
L 214.776482 65.21039 
L 221.275578 65.712951 
L 227.774673 66.524208 
L 234.273769 67.643351 
L 240.772864 69.069266 
L 247.27196 70.80053 
L 253.771055 72.835418 
L 260.270151 75.171901 
L 266.769246 77.807651 
L 273.268342 80.74004 
L 279.767437 83.966145 
L 286.266533 87.48275 
L 292.765628 91.28635 
L 299.264724 95.373152 
L 305.763819 99.739085 
L 312.262915 104.379794 
L 318.76201 109.290655 
L 325.261106 114.466772 
L 331.760201 119.902986 
L 338.259296 125.593877 
L 344.758392 131.533773 
L 351.257487 137.716752 
L 357.756583 144.136652 
L 364.255678 150.787072 
L 370.754774 157.661384 
L 380.503417 168.3776 
L 390.25206 179.558071 
L 400.000704 191.177723 
L 409.749347 203.210498 
L 419.49799 215.629412 
L 429.246633 228.406612 
L 438.995276 241.513446 
L 448.74392 254.920519 
L 461.742111 273.211599 
L 474.740302 291.910002 
L 490.98804 315.74212 
L 510.485327 344.817766 
L 529.982613 374.167527 
L 533.232161 371.717658 
L 562.47809 327.806856 
L 578.725829 303.770286 
L 591.72402 284.855067 
L 604.722211 266.300756 
L 617.720402 248.181317 
L 627.469045 234.920646 
L 637.217688 221.974999 
L 646.966332 209.373409 
L 656.714975 197.144136 
L 666.463618 185.314606 
L 676.212261 173.911347 
L 685.960905 162.959933 
L 692.46 155.922188 
L 692.46 155.922188 
" clip-path="url(#p52d366b863)" style="fill: none; stroke: #0000ff; stroke-width: 2.5; stroke-linecap: square"/>
   </g>
   <g id="line2d_15">
    <path d="M 45.8 155.922187 
L 692.46 155.922187 
" clip-path="url(#p52d366b863)" style="fill: none; stroke-dasharray: 7.4,3.2; stroke-dashoffset: 0; stroke: #ff0000; stroke-width: 2"/>
   </g>
   <g id="line2d_16">
    <path d="M 45.8 65.014608 
L 692.46 65.014608 
" clip-path="url(#p52d366b863)" style="fill: none; stroke-dasharray: 1.5,2.475; stroke-dashoffset: 0; stroke: #008000; stroke-width: 1.5"/>
   </g>
   <g id="patch_3">
    <path d="M 45.8 375.3925 
L 45.8 24.24 
" style="fill: none; stroke: #000000; stroke-width: 0.8; stroke-linejoin: miter; stroke-linecap: square"/>
   </g>
   <g id="patch_4">
    <path d="M 692.46 375.3925 
L 692.46 24.24 
" style="fill: none; stroke: #000000; stroke-width: 0.8; stroke-linejoin: miter; stroke-linecap: square"/>
   </g>
   <g id="patch_5">
    <path d="M 45.8 375.3925 
L 692.46 375.3925 
" style="fill: none; stroke: #000000; stroke-width: 0.8; stroke-linejoin: miter; stroke-linecap: square"/>
   </g>
   <g id="patch_6">
    <path d="M 45.8 24.24 
L 692.46 24.24 
" style="fill: none; stroke: #000000; stroke-width: 0.8; stroke-linejoin: miter; stroke-linecap: square"/>
   </g>
   <g id="text_16">
    <!-- CHSH Bell Test: $S$ vs Measurement Angle -->
    <g transform="translate(232.25 18.24) scale(0.16 -0.16)">
     <defs>
      <path id="STIXGeneral-Regular-42" d="M 2701 2234 
L 2701 2227 
Q 3181 2150 3482 1875 
Q 3795 1594 3795 1139 
Q 3795 608 3379 304 
Q 2963 0 2266 0 
L 109 0 
L 109 122 
Q 486 134 604 246 
Q 723 358 723 723 
L 723 3520 
Q 723 3891 614 3990 
Q 506 4090 109 4115 
L 109 4237 
L 1901 4237 
Q 2726 4237 3152 3958 
Q 3578 3680 3578 3168 
Q 3578 2733 3315 2502 
Q 3130 2342 2701 2234 
z
M 1376 2342 
L 1965 2342 
Q 2925 2342 2925 3136 
Q 2925 3546 2640 3773 
Q 2355 4000 1792 4000 
L 1530 4000 
Q 1376 4000 1376 3795 
L 1376 2342 
z
M 1376 2086 
L 1376 525 
Q 1376 365 1462 301 
Q 1549 237 1773 237 
Q 2208 237 2413 285 
Q 2618 333 2816 512 
Q 3059 723 3059 1146 
Q 3059 1632 2758 1830 
Q 2688 1882 2617 1917 
Q 2547 1952 2492 1974 
Q 2438 1997 2348 2016 
Q 2259 2035 2211 2044 
Q 2163 2054 2041 2060 
Q 1920 2067 1862 2070 
Q 1805 2074 1635 2080 
Q 1466 2086 1376 2086 
z
" transform="scale(0.015625)"/>
      <path id="STIXGeneral-Regular-54" d="M 3795 3149 
L 3642 3149 
Q 3539 3674 3353 3821 
Q 3168 3968 2656 3968 
L 2278 3968 
L 2278 710 
Q 2278 346 2387 243 
Q 2496 141 2893 122 
L 2893 0 
L 1024 0 
L 1024 122 
Q 1427 147 1526 256 
Q 1626 365 1626 787 
L 1626 3968 
L 1242 3968 
Q 723 3968 540 3817 
Q 358 3667 262 3149 
L 109 3149 
L 154 4237 
L 3750 4237 
L 3795 3149 
z
" transform="scale(0.015625)"/>
      <path id="STIXGeneral-Regular-3a" d="M 1123 2832 
Q 1229 2726 1229 2579 
Q 1229 2432 1126 2329 
Q 1024 2227 877 2227 
Q 730 2227 624 2332 
Q 518 2438 518 2579 
Q 518 2733 620 2835 
Q 723 2938 877 2938 
Q 1018 2938 1123 2832 
z
M 1229 282 
Q 1229 141 1126 35 
Q 1024 -70 877 -70 
Q 730 -70 624 35 
Q 518 141 518 282 
Q 518 435 620 537 
Q 723 640 877 640 
Q 1018 640 1123 534 
Q 1229 429 1229 282 
z
" transform="scale(0.015625)"/>
      <path id="STIXGeneral-Regular-76" d="M 3053 2880 
L 3053 2784 
Q 2906 2771 2835 2688 
Q 2765 2605 2637 2285 
L 1818 230 
Q 1690 -90 1638 -90 
Q 1587 -90 1523 77 
Q 1510 96 1497 141 
Q 1485 186 1472 211 
L 704 2048 
Q 499 2534 403 2652 
Q 307 2771 122 2784 
L 122 2880 
L 1376 2880 
L 1376 2784 
Q 1210 2771 1146 2732 
Q 1082 2694 1082 2611 
Q 1082 2509 1139 2368 
L 1792 730 
L 2426 2387 
Q 2464 2483 2464 2579 
Q 2464 2758 2163 2784 
L 2163 2880 
L 3053 2880 
z
" transform="scale(0.015625)"/>
      <path id="STIXGeneral-Regular-4d" d="M 5530 0 
L 3738 0 
L 3738 122 
Q 4115 147 4214 265 
Q 4314 384 4314 787 
L 4314 3661 
L 2682 0 
L 2592 0 
L 979 3514 
L 979 966 
Q 979 448 1088 294 
Q 1197 141 1574 122 
L 1574 0 
L 77 0 
L 77 122 
Q 358 141 480 205 
Q 602 269 650 432 
Q 698 595 698 966 
L 698 3514 
Q 698 3878 589 3984 
Q 480 4090 90 4115 
L 90 4237 
L 1357 4237 
L 2835 1024 
L 4250 4237 
L 5523 4237 
L 5523 4115 
Q 5178 4109 5072 3993 
Q 4966 3878 4966 3520 
L 4966 717 
Q 4966 378 5072 262 
Q 5178 147 5530 122 
L 5530 0 
z
" transform="scale(0.015625)"/>
      <path id="STIXGeneral-Regular-75" d="M 3072 320 
L 3072 230 
Q 2573 96 2195 -58 
L 2163 -38 
L 2163 486 
L 2150 486 
Q 1747 -64 1235 -64 
Q 870 -64 662 160 
Q 454 384 454 755 
L 454 2362 
Q 454 2598 371 2688 
Q 288 2778 58 2790 
L 58 2880 
L 992 2880 
L 992 813 
Q 992 595 1123 451 
Q 1254 307 1446 307 
Q 1760 307 1984 506 
Q 2067 582 2099 649 
Q 2131 717 2131 877 
L 2131 2355 
Q 2131 2605 2041 2678 
Q 1952 2752 1658 2771 
L 1658 2880 
L 2669 2880 
L 2669 685 
Q 2669 461 2742 390 
Q 2816 320 3034 320 
L 3072 320 
z
" transform="scale(0.015625)"/>
      <path id="STIXGeneral-Regular-41" d="M 4525 0 
L 2893 0 
L 2893 122 
Q 3149 122 3245 179 
Q 3334 224 3334 333 
Q 3334 499 3213 781 
L 2950 1382 
L 1274 1382 
L 979 653 
Q 922 506 922 384 
Q 922 237 1027 179 
Q 1133 122 1370 122 
L 1370 0 
L 96 0 
L 96 122 
Q 365 147 486 316 
Q 608 486 902 1190 
L 2221 4314 
L 2349 4314 
L 3923 710 
Q 4064 378 4176 262 
Q 4288 147 4525 122 
L 4525 0 
z
M 2861 1645 
L 2118 3405 
L 1382 1645 
L 2861 1645 
z
" transform="scale(0.015625)"/>
     </defs>
     <use xlink:href="#STIXGeneral-Regular-43" transform="translate(0 0.703125)"/>
     <use xlink:href="#STIXGeneral-Regular-48" transform="translate(66.699997 0.703125)"/>
     <use xlink:href="#STIXGeneral-Regular-53" transform="translate(138.899979 0.703125)"/>
     <use xlink:href="#STIXGeneral-Regular-48" transform="translate(194.499969 0.703125)"/>
     <use xlink:href="#STIXGeneral-Regular-20" transform="translate(266.699951 0.703125)"/>
     <use xlink:href="#STIXGeneral-Regular-42" transform="translate(291.699936 0.703125)"/>
     <use xlink:href="#STIXGeneral-Regular-65" transform="translate(358.399933 0.703125)"/>
     <use xlink:href="#STIXGeneral-Regular-6c" transform="translate(402.799927 0.703125)"/>
     <use xlink:href="#STIXGeneral-Regular-6c" transform="translate(430.599915 0.703125)"/>
     <use xlink:href="#STIXGeneral-Regular-20" transform="translate(458.399902 0.703125)"/>
     <use xlink:href="#STIXGeneral-Regular-54" transform="translate(483.399887 0.703125)"/>
     <use xlink:href="#STIXGeneral-Regular-65" transform="translate(544.499878 0.703125)"/>
     <use xlink:href="#STIXGeneral-Regular-73" transform="translate(588.899872 0.703125)"/>
     <use xlink:href="#STIXGeneral-Regular-74" transform="translate(627.799866 0.703125)"/>
     <use xlink:href="#STIXGeneral-Regular-3a" transform="translate(655.599854 0.703125)"/>
     <use xlink:href="#STIXGeneral-Regular-20" transform="translate(683.399841 0.703125)"/>
     <use xlink:href="#STIXGeneral-Italic-53" transform="translate(708.399826 0.703125)"/>
     <use xlink:href="#STIXGeneral-Regular-20" transform="translate(758.399811 0.703125)"/>
     <use xlink:href="#STIXGeneral-Regular-76" transform="translate(783.399796 0.703125)"/>
     <use xlink:href="#STIXGeneral-Regular-73" transform="translate(833.39978 0.703125)"/>
     <use xlink:href="#STIXGeneral-Regular-20" transform="translate(872.299774 0.703125)"/>
     <use xlink:href="#STIXGeneral-Regular-4d" transform="translate(897.299759 0.703125)"/>
     <use xlink:href="#STIXGeneral-Regular-65" transform="translate(986.199753 0.703125)"/>
     <use xlink:href="#STIXGeneral-Regular-61" transform="translate(1030.599747 0.703125)"/>
     <use xlink:href="#STIXGeneral-Regular-73" transform="translate(1074.999741 0.703125)"/>
     <use xlink:href="#STIXGeneral-Regular-75" transform="translate(1113.899734 0.703125)"/>
     <use xlink:href="#STIXGeneral-Regular-72" transform="translate(1163.899719 0.703125)"/>
     <use xlink:href="#STIXGeneral-Regular-65" transform="translate(1197.199707 0.703125)"/>
     <use xlink:href="#STIXGeneral-Regular-6d" transform="translate(1241.599701 0.703125)"/>
     <use xlink:href="#STIXGeneral-Regular-65" transform="translate(1319.399689 0.703125)"/>
     <use xlink:href="#STIXGeneral-Regular-6e" transform="translate(1363.799683 0.703125)"/>
     <use xlink:href="#STIXGeneral-Regular-74" transform="translate(1413.799667 0.703125)"/>
     <use xlink:href="#STIXGeneral-Regular-20" transform="translate(1441.599655 0.703125)"/>
     <use xlink:href="#STIXGeneral-Regular-41" transform="translate(1466.59964 0.703125)"/>
     <use xlink:href="#STIXGeneral-Regular-6e" transform="translate(1538.799622 0.703125)"/>
     <use xlink:href="#STIXGeneral-Regular-67" transform="translate(1588.799606 0.703125)"/>
     <use xlink:href="#STIXGeneral-Regular-6c" transform="translate(1638.799591 0.703125)"/>
     <use xlink:href="#STIXGeneral-Regular-65" transform="translate(1666.599579 0.703125)"/>
    </g>
   </g>
   <g id="legend_1">
    <g id="patch_7">
     <path d="M 499.96 369.8925 
L 684.76 369.8925 
Q 686.96 369.8925 686.96 367.6925 
L 686.96 301.9675 
Q 686.96 299.7675 684.76 299.7675 
L 499.96 299.7675 
Q 497.76 299.7675 497.76 301.9675 
L 497.76 367.6925 
Q 497.76 369.8925 499.96 369.8925 
z
" style="fill: #ffffff; opacity: 0.8; stroke: #cccccc; stroke-linejoin: miter"/>
    </g>
    <g id="line2d_17">
     <path d="M 502.16 308.2375 
L 513.16 308.2375 
L 524.16 308.2375 
" style="fill: none; stroke: #0000ff; stroke-width: 2.5; stroke-linecap: square"/>
    </g>
    <g id="text_17">
     <!-- $S(\phi_b)$ for $|\Psi^-\rangle$ -->
     <g transform="translate(532.96 312.0875) scale(0.11 -0.11)">
      <defs>
       <path id="STIXGeneral-Regular-28" d="M 1946 -1030 
L 1869 -1133 
Q 1126 -710 716 32 
Q 307 774 307 1613 
Q 307 3386 1888 4326 
L 1946 4224 
Q 1293 3667 1075 3126 
Q 858 2586 858 1632 
Q 858 685 1082 96 
Q 1306 -493 1946 -1030 
z
" transform="scale(0.015625)"/>
       <path id="STIXGeneral-Regular-29" d="M 186 4224 
L 262 4326 
Q 992 3891 1408 3148 
Q 1824 2406 1824 1581 
Q 1824 -166 243 -1133 
L 186 -1030 
Q 845 -486 1059 54 
Q 1274 595 1274 1562 
Q 1274 2534 1059 3120 
Q 845 3706 186 4224 
z
" transform="scale(0.015625)"/>
       <path id="STIXGeneral-Regular-66" d="M 134 2880 
L 659 2880 
Q 666 3264 710 3478 
Q 755 3693 883 3910 
Q 1152 4371 1786 4371 
Q 2074 4371 2262 4259 
Q 2451 4147 2451 3974 
Q 2451 3866 2374 3789 
Q 2298 3712 2182 3712 
Q 2029 3712 1894 3942 
Q 1741 4192 1555 4192 
Q 1197 4192 1197 3622 
L 1197 2880 
L 1978 2880 
L 1978 2675 
L 1197 2675 
L 1197 666 
Q 1197 307 1299 208 
Q 1402 109 1792 96 
L 1792 0 
L 128 0 
L 128 96 
Q 474 115 566 214 
Q 659 314 659 666 
L 659 2675 
L 134 2675 
L 134 2880 
z
" transform="scale(0.015625)"/>
       <path id="STIXGeneral-Regular-6f" d="M 3008 1478 
Q 3008 806 2608 371 
Q 2208 -64 1568 -64 
Q 979 -64 582 368 
Q 186 800 186 1459 
Q 186 2125 582 2534 
Q 979 2944 1626 2944 
Q 2221 2944 2614 2537 
Q 3008 2131 3008 1478 
z
M 2432 1306 
Q 2432 2035 2112 2445 
Q 1856 2765 1504 2765 
Q 1171 2765 966 2493 
Q 762 2221 762 1747 
Q 762 928 1101 435 
Q 1318 115 1677 115 
Q 2029 115 2230 432 
Q 2432 749 2432 1306 
z
" transform="scale(0.015625)"/>
       <path id="STIXGeneral-Regular-7c" d="M 851 -90 
L 429 -90 
L 429 4326 
L 851 4326 
L 851 -90 
z
" transform="scale(0.015625)"/>
       <path id="STIXGeneral-Regular-3a8" d="M 4634 4416 
L 4634 4294 
Q 4467 4262 4400 4054 
Q 4333 3846 4333 3629 
Q 4333 3533 4345 3341 
Q 4358 3149 4358 3053 
Q 4358 2598 4118 2291 
Q 3878 1984 3520 1856 
Q 3162 1728 2714 1728 
L 2714 710 
Q 2714 339 2851 236 
Q 2989 134 3373 122 
L 3373 0 
L 1414 0 
L 1414 122 
Q 1830 141 1945 259 
Q 2061 378 2061 794 
L 2061 1728 
Q 1613 1728 1254 1856 
Q 896 1984 656 2291 
Q 416 2598 416 3053 
Q 416 3149 429 3341 
Q 442 3533 442 3629 
Q 442 3846 374 4054 
Q 307 4262 141 4294 
L 141 4416 
Q 1133 4416 1133 3258 
Q 1133 3046 1145 2886 
Q 1158 2726 1212 2544 
Q 1267 2362 1353 2243 
Q 1440 2125 1603 2045 
Q 1766 1965 1990 1965 
L 2061 1965 
L 2061 3597 
Q 2061 3910 1904 4012 
Q 1747 4115 1414 4115 
L 1414 4237 
L 3373 4237 
L 3373 4115 
Q 3027 4115 2870 4019 
Q 2714 3923 2714 3597 
L 2714 1965 
L 2784 1965 
Q 3008 1965 3171 2045 
Q 3334 2125 3420 2243 
Q 3507 2362 3561 2544 
Q 3616 2726 3629 2886 
Q 3642 3046 3642 3258 
Q 3642 4416 4634 4416 
z
" transform="scale(0.015625)"/>
       <path id="STIXGeneral-Regular-2212" d="M 3974 1408 
L 410 1408 
L 410 1830 
L 3974 1830 
L 3974 1408 
z
" transform="scale(0.015625)"/>
       <path id="STIXGeneral-Regular-27e9" d="M 2067 1536 
L 749 -1363 
L 416 -1363 
L 1645 1600 
L 422 4563 
L 755 4563 
L 2067 1664 
L 2067 1536 
z
" transform="scale(0.015625)"/>
      </defs>
      <use xlink:href="#STIXGeneral-Italic-53" transform="translate(0 0.703125)"/>
      <use xlink:href="#STIXGeneral-Regular-28" transform="translate(49.999985 0.703125)"/>
      <use xlink:href="#STIXGeneral-Italic-3d5" transform="translate(83.299973 0.703125)"/>
      <use xlink:href="#STIXGeneral-Italic-62" transform="translate(145.999969 -12.525) scale(0.7)"/>
      <use xlink:href="#STIXGeneral-Regular-29" transform="translate(185.409334 0.703125)"/>
      <use xlink:href="#STIXGeneral-Regular-20" transform="translate(218.709322 0.703125)"/>
      <use xlink:href="#STIXGeneral-Regular-66" transform="translate(243.709306 0.703125)"/>
      <use xlink:href="#STIXGeneral-Regular-6f" transform="translate(277.009294 0.703125)"/>
      <use xlink:href="#STIXGeneral-Regular-72" transform="translate(327.009279 0.703125)"/>
      <use xlink:href="#STIXGeneral-Regular-20" transform="translate(360.309267 0.703125)"/>
      <use xlink:href="#STIXGeneral-Regular-7c" transform="translate(385.309251 0.703125)"/>
      <use xlink:href="#STIXGeneral-Regular-3a8" transform="translate(405.309236 0.703125)"/>
      <use xlink:href="#STIXGeneral-Regular-2212" transform="translate(491.560506 35.978125) scale(0.7)"/>
      <use xlink:href="#STIXGeneral-Regular-27e9" transform="translate(554.027867 0.703125)"/>
     </g>
    </g>
    <g id="line2d_18">
     <path d="M 502.16 323.8575 
L 513.16 323.8575 
L 524.16 323.8575 
" style="fill: none; stroke-dasharray: 7.4,3.2; stroke-dashoffset: 0; stroke: #ff0000; stroke-width: 2"/>
    </g>
    <g id="text_18">
     <!-- Classical bound $S = 2$ -->
     <g transform="translate(532.96 327.7075) scale(0.11 -0.11)">
      <defs>
       <path id="STIXGeneral-Regular-62" d="M 979 4358 
L 979 2406 
Q 1082 2650 1315 2797 
Q 1549 2944 1843 2944 
Q 2349 2944 2672 2541 
Q 2995 2138 2995 1536 
Q 2995 832 2566 384 
Q 2138 -64 1498 -64 
Q 1107 -64 774 67 
Q 442 198 442 358 
L 442 3622 
Q 442 3859 384 3926 
Q 326 3994 128 3994 
Q 83 3994 19 3981 
L 19 4090 
L 211 4147 
Q 864 4346 947 4371 
L 979 4358 
z
M 979 2035 
L 979 474 
Q 979 326 1161 233 
Q 1344 141 1600 141 
Q 1978 141 2195 416 
Q 2432 710 2432 1261 
Q 2432 1888 2182 2240 
Q 1971 2541 1613 2541 
Q 1357 2541 1168 2390 
Q 979 2240 979 2035 
z
" transform="scale(0.015625)"/>
       <path id="STIXGeneral-Regular-64" d="M 3142 269 
L 2202 -64 
L 2176 -45 
L 2176 365 
Q 1869 -64 1357 -64 
Q 826 -64 499 317 
Q 173 698 173 1312 
Q 173 1990 563 2467 
Q 954 2944 1504 2944 
Q 1850 2944 2176 2669 
L 2176 3667 
Q 2176 3866 2118 3930 
Q 2061 3994 1882 3994 
Q 1792 3994 1741 3987 
L 1741 4090 
Q 2323 4243 2682 4371 
L 2714 4358 
L 2714 730 
Q 2714 506 2768 435 
Q 2822 365 2995 365 
Q 3034 365 3142 371 
L 3142 269 
z
M 2176 653 
L 2176 2125 
Q 2176 2381 1981 2573 
Q 1786 2765 1523 2765 
Q 1158 2765 940 2438 
Q 723 2112 723 1568 
Q 723 979 963 624 
Q 1203 269 1606 269 
Q 1907 269 2080 474 
Q 2176 582 2176 653 
z
" transform="scale(0.015625)"/>
       <path id="STIXGeneral-Regular-3d" d="M 4077 2048 
L 307 2048 
L 307 2470 
L 4077 2470 
L 4077 2048 
z
M 4077 768 
L 307 768 
L 307 1190 
L 4077 1190 
L 4077 768 
z
" transform="scale(0.015625)"/>
      </defs>
      <use xlink:href="#STIXGeneral-Regular-43" transform="translate(0 0.703125)"/>
      <use xlink:href="#STIXGeneral-Regular-6c" transform="translate(66.699997 0.703125)"/>
      <use xlink:href="#STIXGeneral-Regular-61" transform="translate(94.499985 0.703125)"/>
      <use xlink:href="#STIXGeneral-Regular-73" transform="translate(138.899979 0.703125)"/>
      <use xlink:href="#STIXGeneral-Regular-73" transform="translate(177.799973 0.703125)"/>
      <use xlink:href="#STIXGeneral-Regular-69" transform="translate(216.699966 0.703125)"/>
      <use xlink:href="#STIXGeneral-Regular-63" transform="translate(244.499954 0.703125)"/>
      <use xlink:href="#STIXGeneral-Regular-61" transform="translate(288.899948 0.703125)"/>
      <use xlink:href="#STIXGeneral-Regular-6c" transform="translate(333.299942 0.703125)"/>
      <use xlink:href="#STIXGeneral-Regular-20" transform="translate(361.09993 0.703125)"/>
      <use xlink:href="#STIXGeneral-Regular-62" transform="translate(386.099915 0.703125)"/>
      <use xlink:href="#STIXGeneral-Regular-6f" transform="translate(436.099899 0.703125)"/>
      <use xlink:href="#STIXGeneral-Regular-75" transform="translate(486.099884 0.703125)"/>
      <use xlink:href="#STIXGeneral-Regular-6e" transform="translate(536.099869 0.703125)"/>
      <use xlink:href="#STIXGeneral-Regular-64" transform="translate(586.099854 0.703125)"/>
      <use xlink:href="#STIXGeneral-Regular-20" transform="translate(636.099838 0.703125)"/>
      <use xlink:href="#STIXGeneral-Italic-53" transform="translate(661.099823 0.703125)"/>
      <use xlink:href="#STIXGeneral-Regular-3d" transform="translate(725.539804 0.703125)"/>
      <use xlink:href="#STIXGeneral-Regular-32" transform="translate(808.479785 0.703125)"/>
     </g>
    </g>
    <g id="line2d_19">
     <path d="M 502.16 343.184844 
L 513.16 343.184844 
L 524.16 343.184844 
" style="fill: none; stroke-dasharray: 1.5,2.475; stroke-dashoffset: 0; stroke: #008000; stroke-width: 1.5"/>
    </g>
    <g id="text_19">
     <!-- Tsirelson bound $S = 2\sqrt{2} \approx 2.828$ -->
     <g transform="translate(532.96 347.034844) scale(0.11 -0.11)">
      <defs>
       <path id="STIXGeneral-Regular-221a" d="M 6163 6227 
L 3104 -1658 
L 2899 -1658 
L 1606 1734 
Q 1466 2112 1210 2112 
Q 1011 2112 794 1914 
L 717 2042 
L 1715 2835 
L 1837 2835 
L 3142 -595 
L 3168 -595 
L 5818 6227 
L 6163 6227 
z
" transform="scale(0.015625)"/>
       <path id="STIXGeneral-Regular-2248" d="M 3866 3040 
L 4077 3040 
Q 4045 2566 3769 2150 
Q 3494 1734 3066 1734 
Q 2803 1734 2460 1939 
Q 2118 2144 1804 2349 
Q 1491 2554 1306 2554 
Q 992 2554 800 2304 
Q 608 2054 518 1670 
L 307 1670 
Q 333 2189 617 2582 
Q 902 2976 1350 2976 
Q 1613 2976 1955 2771 
Q 2298 2566 2611 2361 
Q 2925 2157 3117 2157 
Q 3680 2157 3866 3040 
z
M 3866 1530 
L 4077 1530 
Q 4045 1056 3769 640 
Q 3494 224 3066 224 
Q 2803 224 2460 429 
Q 2118 634 1804 838 
Q 1491 1043 1306 1043 
Q 992 1043 800 793 
Q 608 544 518 160 
L 307 160 
Q 333 678 617 1072 
Q 902 1466 1350 1466 
Q 1613 1466 1955 1261 
Q 2298 1056 2611 851 
Q 2925 646 3117 646 
Q 3680 646 3866 1530 
z
" transform="scale(0.015625)"/>
       <path id="STIXGeneral-Regular-38" d="M 2848 992 
Q 2848 499 2505 204 
Q 2163 -90 1587 -90 
Q 1050 -90 704 204 
Q 358 499 358 954 
Q 358 1293 524 1533 
Q 691 1773 1190 2125 
Q 710 2522 553 2765 
Q 397 3008 397 3328 
Q 397 3782 745 4054 
Q 1094 4326 1638 4326 
Q 2106 4326 2410 4060 
Q 2714 3795 2714 3411 
Q 2714 3059 2531 2848 
Q 2349 2637 1856 2374 
Q 2432 1990 2640 1689 
Q 2848 1389 2848 992 
z
M 2272 3411 
Q 2272 3744 2086 3945 
Q 1901 4147 1574 4147 
Q 1248 4147 1059 3977 
Q 870 3808 870 3513 
Q 870 3219 1059 2979 
Q 1248 2739 1670 2490 
Q 1997 2682 2134 2896 
Q 2272 3110 2272 3411 
z
M 1734 1741 
L 1357 1997 
Q 1075 1766 960 1545 
Q 845 1325 845 1011 
Q 845 576 1065 333 
Q 1286 90 1658 90 
Q 1971 90 2166 285 
Q 2362 480 2362 794 
Q 2362 1082 2214 1299 
Q 2067 1517 1734 1741 
z
" transform="scale(0.015625)"/>
      </defs>
      <use xlink:href="#STIXGeneral-Regular-54" transform="translate(0 0.703125)"/>
      <use xlink:href="#STIXGeneral-Regular-73" transform="translate(61.099991 0.703125)"/>
      <use xlink:href="#STIXGeneral-Regular-69" transform="translate(99.999985 0.703125)"/>
      <use xlink:href="#STIXGeneral-Regular-72" transform="translate(127.799973 0.703125)"/>
      <use xlink:href="#STIXGeneral-Regular-65" transform="translate(161.09996 0.703125)"/>
      <use xlink:href="#STIXGeneral-Regular-6c" transform="translate(205.499954 0.703125)"/>
      <use xlink:href="#STIXGeneral-Regular-73" transform="translate(233.299942 0.703125)"/>
      <use xlink:href="#STIXGeneral-Regular-6f" transform="translate(272.199936 0.703125)"/>
      <use xlink:href="#STIXGeneral-Regular-6e" transform="translate(322.199921 0.703125)"/>
      <use xlink:href="#STIXGeneral-Regular-20" transform="translate(372.199905 0.703125)"/>
      <use xlink:href="#STIXGeneral-Regular-62" transform="translate(397.19989 0.703125)"/>
      <use xlink:href="#STIXGeneral-Regular-6f" transform="translate(447.199875 0.703125)"/>
      <use xlink:href="#STIXGeneral-Regular-75" transform="translate(497.19986 0.703125)"/>
      <use xlink:href="#STIXGeneral-Regular-6e" transform="translate(547.199844 0.703125)"/>
      <use xlink:href="#STIXGeneral-Regular-64" transform="translate(597.199829 0.703125)"/>
      <use xlink:href="#STIXGeneral-Regular-20" transform="translate(647.199814 0.703125)"/>
      <use xlink:href="#STIXGeneral-Italic-53" transform="translate(672.199799 0.703125)"/>
      <use xlink:href="#STIXGeneral-Regular-3d" transform="translate(736.63978 0.703125)"/>
      <use xlink:href="#STIXGeneral-Regular-32" transform="translate(819.579761 0.703125)"/>
      <use xlink:href="#STIXGeneral-Regular-221a" transform="translate(869.579745 0.703125)"/>
      <use xlink:href="#STIXGeneral-Regular-32" transform="translate(974.879733 1.15625)"/>
      <use xlink:href="#STIXGeneral-Regular-2248" transform="translate(1051.819714 0.703125)"/>
      <use xlink:href="#STIXGeneral-Regular-32" transform="translate(1134.759695 0.703125)"/>
      <use xlink:href="#STIXGeneral-Regular-2e" transform="translate(1184.75968 0.703125)"/>
      <use xlink:href="#STIXGeneral-Regular-38" transform="translate(1209.759665 0.703125)"/>
      <use xlink:href="#STIXGeneral-Regular-32" transform="translate(1259.75965 0.703125)"/>
      <use xlink:href="#STIXGeneral-Regular-38" transform="translate(1309.759634 0.703125)"/>
      <path d="M 962.379733 91.5 
L 962.379733 97.75 
L 1037.379718 97.75 
L 1037.379718 91.5 
L 962.379733 91.5 
z
"/>
     </g>
    </g>
    <g id="patch_8">
     <path d="M 502.16 363.094844 
L 524.16 363.094844 
L 524.16 355.394844 
L 502.16 355.394844 
z
" style="fill: #ff0000; fill-opacity: 0.2; stroke: #ff0000; stroke-opacity: 0.2; stroke-linejoin: miter"/>
    </g>
    <g id="text_20">
     <!-- Bell violation region -->
     <g transform="translate(532.96 363.094844) scale(0.11 -0.11)">
      <use xlink:href="#STIXGeneral-Regular-42"/>
      <use xlink:href="#STIXGeneral-Regular-65" transform="translate(66.699997 0)"/>
      <use xlink:href="#STIXGeneral-Regular-6c" transform="translate(111.099991 0)"/>
      <use xlink:href="#STIXGeneral-Regular-6c" transform="translate(138.899979 0)"/>
      <use xlink:href="#STIXGeneral-Regular-20" transform="translate(166.699966 0)"/>
      <use xlink:href="#STIXGeneral-Regular-76" transform="translate(191.699951 0)"/>
      <use xlink:href="#STIXGeneral-Regular-69" transform="translate(241.699936 0)"/>
      <use xlink:href="#STIXGeneral-Regular-6f" transform="translate(269.499924 0)"/>
      <use xlink:href="#STIXGeneral-Regular-6c" transform="translate(319.499908 0)"/>
      <use xlink:href="#STIXGeneral-Regular-61" transform="translate(347.299896 0)"/>
      <use xlink:href="#STIXGeneral-Regular-74" transform="translate(391.69989 0)"/>
      <use xlink:href="#STIXGeneral-Regular-69" transform="translate(419.499878 0)"/>
      <use xlink:href="#STIXGeneral-Regular-6f" transform="translate(447.299866 0)"/>
      <use xlink:href="#STIXGeneral-Regular-6e" transform="translate(497.29985 0)"/>
      <use xlink:href="#STIXGeneral-Regular-20" transform="translate(547.299835 0)"/>
      <use xlink:href="#STIXGeneral-Regular-72" transform="translate(572.29982 0)"/>
      <use xlink:href="#STIXGeneral-Regular-65" transform="translate(605.599808 0)"/>
      <use xlink:href="#STIXGeneral-Regular-67" transform="translate(649.999802 0)"/>
      <use xlink:href="#STIXGeneral-Regular-69" transform="translate(699.999786 0)"/>
      <use xlink:href="#STIXGeneral-Regular-6f" transform="translate(727.799774 0)"/>
      <use xlink:href="#STIXGeneral-Regular-6e" transform="translate(777.799759 0)"/>
     </g>
    </g>
   </g>
  </g>
 </g>
 <defs>
  <clipPath id="p52d366b863">
   <rect x="45.8" y="24.24" width="646.66" height="351.1525"/>
  </clipPath>
 </defs>
</svg>
