<?xml version="1.0" encoding="utf-8" standalone="no"?>
<!DOCTYPE svg PUBLIC "-//W3C//DTD SVG 1.1//EN"
  "http://www.w3.org/Graphics/SVG/1.1/DTD/svg11.dtd">
<svg xmlns:xlink="http://www.w3.org/1999/xlink" width="563.748pt" height="348.659062pt" viewBox="0 0 563.748 348.659062" xmlns="http://www.w3.org/2000/svg" version="1.1">
 <metadata>
  <rdf:RDF xmlns:dc="http://purl.org/dc/elements/1.1/" xmlns:cc="http://creativecommons.org/ns#" xmlns:rdf="http://www.w3.org/1999/02/22-rdf-syntax-ns#">
   <cc:Work>
    <dc:type rdf:resource="http://purl.org/dc/dcmitype/StillImage"/>
    <dc:date>2026-05-28T03:20:54.155600</dc:date>
    <dc:format>image/svg+xml</dc:format>
    <dc:creator>
     <cc:Agent>
      <dc:title>Matplotlib v3.10.7, https://matplotlib.org/</dc:title>
     </cc:Agent>
    </dc:creator>
   </cc:Work>
  </rdf:RDF>
 </metadata>
 <defs>
  <style type="text/css">*{stroke-linejoin: round; stroke-linecap: butt}</style>
 </defs>
 <g id="figure_1">
  <g id="patch_1">
   <path d="M 0 348.659062 
L 563.748 348.659062 
L 563.748 0 
L 0 0 
z
" style="fill: #ffffff"/>
  </g>
  <g id="axes_1">
   <g id="patch_2">
    <path d="M 45.8 307.059062 
L 556.548 307.059062 
L 556.548 22.761562 
L 45.8 22.761562 
z
" style="fill: #ffffff"/>
   </g>
   <g id="matplotlib.axis_1">
    <g id="xtick_1">
     <g id="line2d_1">
      <defs>
       <path id="m7855765c68" d="M 0 0 
L 0 3.5 
" style="stroke: #000000; stroke-width: 0.8"/>
      </defs>
      <g>
       <use xlink:href="#m7855765c68" x="69.015818" y="307.059062" style="stroke: #000000; stroke-width: 0.8"/>
      </g>
     </g>
     <g id="text_1">
      <!-- 0.0 -->
      <g transform="translate(61.515818 322.254687) scale(0.12 -0.12)">
       <defs>
        <path id="STIXGeneral-Regular-30" d="M 3046 2112 
Q 3046 1683 2963 1302 
Q 2880 922 2717 602 
Q 2554 282 2266 96 
Q 1978 -90 1600 -90 
Q 1210 -90 915 108 
Q 621 307 461 640 
Q 301 973 227 1350 
Q 154 1728 154 2150 
Q 154 2746 301 3222 
Q 448 3699 790 4012 
Q 1133 4326 1626 4326 
Q 2253 4326 2649 3712 
Q 3046 3098 3046 2112 
z
M 2432 2080 
Q 2432 3091 2217 3625 
Q 2003 4160 1587 4160 
Q 1190 4160 979 3622 
Q 768 3085 768 2106 
Q 768 1120 979 598 
Q 1190 77 1600 77 
Q 2003 77 2217 598 
Q 2432 1120 2432 2080 
z
" transform="scale(0.015625)"/>
        <path id="STIXGeneral-Regular-2e" d="M 1158 275 
Q 1158 134 1052 32 
Q 947 -70 800 -70 
Q 653 -70 550 32 
Q 448 134 448 281 
Q 448 429 553 534 
Q 659 640 806 640 
Q 947 640 1052 531 
Q 1158 422 1158 275 
z
" transform="scale(0.015625)"/>
       </defs>
       <use xlink:href="#STIXGeneral-Regular-30"/>
       <use xlink:href="#STIXGeneral-Regular-2e" transform="translate(49.999985 0)"/>
       <use xlink:href="#STIXGeneral-Regular-30" transform="translate(74.999969 0)"/>
      </g>
     </g>
    </g>
    <g id="xtick_2">
     <g id="line2d_2">
      <g>
       <use xlink:href="#m7855765c68" x="161.879091" y="307.059062" style="stroke: #000000; stroke-width: 0.8"/>
      </g>
     </g>
     <g id="text_2">
      <!-- 0.2 -->
      <g transform="translate(154.379091 322.254687) scale(0.12 -0.12)">
       <defs>
        <path id="STIXGeneral-Regular-32" d="M 3034 877 
L 2688 0 
L 186 0 
L 186 77 
L 1325 1286 
Q 1773 1754 1965 2144 
Q 2157 2534 2157 2950 
Q 2157 3379 1920 3616 
Q 1683 3853 1267 3853 
Q 922 3853 720 3673 
Q 518 3494 326 3021 
L 192 3053 
Q 301 3648 630 3987 
Q 960 4326 1523 4326 
Q 2054 4326 2380 4006 
Q 2707 3686 2707 3200 
Q 2707 2477 1888 1613 
L 832 486 
L 2330 486 
Q 2541 486 2665 569 
Q 2790 653 2944 915 
L 3034 877 
z
" transform="scale(0.015625)"/>
       </defs>
       <use xlink:href="#STIXGeneral-Regular-30"/>
       <use xlink:href="#STIXGeneral-Regular-2e" transform="translate(49.999985 0)"/>
       <use xlink:href="#STIXGeneral-Regular-32" transform="translate(74.999969 0)"/>
      </g>
     </g>
    </g>
    <g id="xtick_3">
     <g id="line2d_3">
      <g>
       <use xlink:href="#m7855765c68" x="254.742364" y="307.059062" style="stroke: #000000; stroke-width: 0.8"/>
      </g>
     </g>
     <g id="text_3">
      <!-- 0.4 -->
      <g transform="translate(247.242364 322.254687) scale(0.12 -0.12)">
       <defs>
        <path id="STIXGeneral-Regular-34" d="M 3027 1069 
L 2368 1069 
L 2368 0 
L 1869 0 
L 1869 1069 
L 77 1069 
L 77 1478 
L 2086 4326 
L 2368 4326 
L 2368 1478 
L 3027 1478 
L 3027 1069 
z
M 1869 1478 
L 1869 3674 
L 333 1478 
L 1869 1478 
z
" transform="scale(0.015625)"/>
       </defs>
       <use xlink:href="#STIXGeneral-Regular-30"/>
       <use xlink:href="#STIXGeneral-Regular-2e" transform="translate(49.999985 0)"/>
       <use xlink:href="#STIXGeneral-Regular-34" transform="translate(74.999969 0)"/>
      </g>
     </g>
    </g>
    <g id="xtick_4">
     <g id="line2d_4">
      <g>
       <use xlink:href="#m7855765c68" x="347.605636" y="307.059062" style="stroke: #000000; stroke-width: 0.8"/>
      </g>
     </g>
     <g id="text_4">
      <!-- 0.6 -->
      <g transform="translate(340.105636 322.254687) scale(0.12 -0.12)">
       <defs>
        <path id="STIXGeneral-Regular-36" d="M 2854 4378 
L 2867 4275 
Q 2112 4154 1606 3664 
Q 1101 3174 973 2451 
Q 1344 2739 1786 2739 
Q 2349 2739 2672 2380 
Q 2995 2022 2995 1402 
Q 2995 774 2669 378 
Q 2291 -90 1651 -90 
Q 870 -90 518 557 
Q 218 1107 218 1786 
Q 218 2835 915 3552 
Q 1312 3962 1731 4131 
Q 2150 4301 2854 4378 
z
M 2419 1203 
Q 2419 2445 1555 2445 
Q 1235 2445 1024 2275 
Q 813 2106 813 1702 
Q 813 954 1046 522 
Q 1280 90 1722 90 
Q 2061 90 2240 394 
Q 2419 698 2419 1203 
z
" transform="scale(0.015625)"/>
       </defs>
       <use xlink:href="#STIXGeneral-Regular-30"/>
       <use xlink:href="#STIXGeneral-Regular-2e" transform="translate(49.999985 0)"/>
       <use xlink:href="#STIXGeneral-Regular-36" transform="translate(74.999969 0)"/>
      </g>
     </g>
    </g>
    <g id="xtick_5">
     <g id="line2d_5">
      <g>
       <use xlink:href="#m7855765c68" x="440.468909" y="307.059062" style="stroke: #000000; stroke-width: 0.8"/>
      </g>
     </g>
     <g id="text_5">
      <!-- 0.8 -->
      <g transform="translate(432.968909 322.254687) scale(0.12 -0.12)">
       <defs>
        <path id="STIXGeneral-Regular-38" d="M 2848 992 
Q 2848 499 2505 204 
Q 2163 -90 1587 -90 
Q 1050 -90 704 204 
Q 358 499 358 954 
Q 358 1293 524 1533 
Q 691 1773 1190 2125 
Q 710 2522 553 2765 
Q 397 3008 397 3328 
Q 397 3782 745 4054 
Q 1094 4326 1638 4326 
Q 2106 4326 2410 4060 
Q 2714 3795 2714 3411 
Q 2714 3059 2531 2848 
Q 2349 2637 1856 2374 
Q 2432 1990 2640 1689 
Q 2848 1389 2848 992 
z
M 2272 3411 
Q 2272 3744 2086 3945 
Q 1901 4147 1574 4147 
Q 1248 4147 1059 3977 
Q 870 3808 870 3513 
Q 870 3219 1059 2979 
Q 1248 2739 1670 2490 
Q 1997 2682 2134 2896 
Q 2272 3110 2272 3411 
z
M 1734 1741 
L 1357 1997 
Q 1075 1766 960 1545 
Q 845 1325 845 1011 
Q 845 576 1065 333 
Q 1286 90 1658 90 
Q 1971 90 2166 285 
Q 2362 480 2362 794 
Q 2362 1082 2214 1299 
Q 2067 1517 1734 1741 
z
" transform="scale(0.015625)"/>
       </defs>
       <use xlink:href="#STIXGeneral-Regular-30"/>
       <use xlink:href="#STIXGeneral-Regular-2e" transform="translate(49.999985 0)"/>
       <use xlink:href="#STIXGeneral-Regular-38" transform="translate(74.999969 0)"/>
      </g>
     </g>
    </g>
    <g id="xtick_6">
     <g id="line2d_6">
      <g>
       <use xlink:href="#m7855765c68" x="533.332182" y="307.059062" style="stroke: #000000; stroke-width: 0.8"/>
      </g>
     </g>
     <g id="text_6">
      <!-- 1.0 -->
      <g transform="translate(525.832182 322.254687) scale(0.12 -0.12)">
       <defs>
        <path id="STIXGeneral-Regular-31" d="M 2522 0 
L 755 0 
L 755 96 
Q 1107 115 1235 227 
Q 1363 339 1363 608 
L 1363 3482 
Q 1363 3795 1171 3795 
Q 1082 3795 883 3718 
L 710 3654 
L 710 3744 
L 1856 4326 
L 1914 4307 
L 1914 486 
Q 1914 275 2042 185 
Q 2170 96 2522 96 
L 2522 0 
z
" transform="scale(0.015625)"/>
       </defs>
       <use xlink:href="#STIXGeneral-Regular-31"/>
       <use xlink:href="#STIXGeneral-Regular-2e" transform="translate(49.999985 0)"/>
       <use xlink:href="#STIXGeneral-Regular-30" transform="translate(74.999969 0)"/>
      </g>
     </g>
    </g>
    <g id="text_7">
     <!-- Concurrence $C$ -->
     <g transform="translate(258.964 338.420625) scale(0.14 -0.14)">
      <defs>
       <path id="STIXGeneral-Regular-43" d="M 3930 838 
L 4051 723 
Q 3482 -90 2304 -90 
Q 1376 -90 794 480 
Q 179 1082 179 2080 
Q 179 3014 755 3661 
Q 1357 4326 2310 4326 
Q 2720 4326 3072 4230 
Q 3475 4115 3514 4115 
Q 3725 4115 3782 4326 
L 3910 4326 
L 3968 2874 
L 3821 2874 
Q 3718 3334 3488 3584 
Q 3034 4070 2458 4070 
Q 1747 4070 1334 3548 
Q 922 3027 922 2182 
Q 922 1152 1382 653 
Q 1811 192 2522 192 
Q 2944 192 3251 339 
Q 3558 486 3930 838 
z
" transform="scale(0.015625)"/>
       <path id="STIXGeneral-Regular-6f" d="M 3008 1478 
Q 3008 806 2608 371 
Q 2208 -64 1568 -64 
Q 979 -64 582 368 
Q 186 800 186 1459 
Q 186 2125 582 2534 
Q 979 2944 1626 2944 
Q 2221 2944 2614 2537 
Q 3008 2131 3008 1478 
z
M 2432 1306 
Q 2432 2035 2112 2445 
Q 1856 2765 1504 2765 
Q 1171 2765 966 2493 
Q 762 2221 762 1747 
Q 762 928 1101 435 
Q 1318 115 1677 115 
Q 2029 115 2230 432 
Q 2432 749 2432 1306 
z
" transform="scale(0.015625)"/>
       <path id="STIXGeneral-Regular-6e" d="M 3104 0 
L 1773 0 
L 1779 96 
Q 2016 115 2096 233 
Q 2176 352 2176 672 
L 2176 1946 
Q 2176 2592 1709 2592 
Q 1549 2592 1408 2515 
Q 1267 2438 1050 2227 
L 1050 461 
Q 1050 269 1136 192 
Q 1222 115 1466 96 
L 1466 0 
L 115 0 
L 115 96 
Q 358 115 435 214 
Q 512 314 512 602 
L 512 2157 
Q 512 2394 467 2483 
Q 422 2573 288 2573 
Q 160 2573 102 2547 
L 102 2656 
Q 550 2784 979 2944 
L 1030 2925 
L 1030 2426 
L 1037 2426 
Q 1491 2944 1958 2944 
Q 2323 2944 2518 2688 
Q 2714 2432 2714 1958 
L 2714 544 
Q 2714 288 2790 205 
Q 2867 122 3104 96 
L 3104 0 
z
" transform="scale(0.015625)"/>
       <path id="STIXGeneral-Regular-63" d="M 2547 998 
L 2637 941 
Q 2362 403 2112 205 
Q 1786 -64 1376 -64 
Q 845 -64 502 336 
Q 160 736 160 1357 
Q 160 2170 698 2618 
Q 1094 2944 1562 2944 
Q 1965 2944 2256 2749 
Q 2547 2554 2547 2285 
Q 2547 2176 2457 2096 
Q 2368 2016 2246 2016 
Q 2022 2016 1939 2310 
L 1901 2451 
Q 1850 2630 1773 2694 
Q 1696 2758 1523 2758 
Q 1133 2758 893 2451 
Q 653 2144 653 1645 
Q 653 1094 928 745 
Q 1203 397 1645 397 
Q 1920 397 2118 528 
Q 2317 659 2547 998 
z
" transform="scale(0.015625)"/>
       <path id="STIXGeneral-Regular-75" d="M 3072 320 
L 3072 230 
Q 2573 96 2195 -58 
L 2163 -38 
L 2163 486 
L 2150 486 
Q 1747 -64 1235 -64 
Q 870 -64 662 160 
Q 454 384 454 755 
L 454 2362 
Q 454 2598 371 2688 
Q 288 2778 58 2790 
L 58 2880 
L 992 2880 
L 992 813 
Q 992 595 1123 451 
Q 1254 307 1446 307 
Q 1760 307 1984 506 
Q 2067 582 2099 649 
Q 2131 717 2131 877 
L 2131 2355 
Q 2131 2605 2041 2678 
Q 1952 2752 1658 2771 
L 1658 2880 
L 2669 2880 
L 2669 685 
Q 2669 461 2742 390 
Q 2816 320 3034 320 
L 3072 320 
z
" transform="scale(0.015625)"/>
       <path id="STIXGeneral-Regular-72" d="M 1024 2931 
L 1024 2342 
Q 1267 2688 1430 2816 
Q 1594 2944 1792 2944 
Q 1958 2944 2051 2854 
Q 2144 2765 2144 2605 
Q 2144 2470 2077 2393 
Q 2010 2317 1894 2317 
Q 1773 2317 1638 2445 
Q 1536 2541 1472 2541 
Q 1338 2541 1181 2355 
Q 1024 2170 1024 2016 
L 1024 576 
Q 1024 301 1133 205 
Q 1242 109 1568 96 
L 1568 0 
L 32 0 
L 32 96 
Q 339 154 412 224 
Q 486 294 486 538 
L 486 2138 
Q 486 2349 438 2435 
Q 390 2522 269 2522 
Q 166 2522 45 2496 
L 45 2598 
Q 448 2726 992 2944 
L 1024 2931 
z
" transform="scale(0.015625)"/>
       <path id="STIXGeneral-Regular-65" d="M 2611 1050 
L 2714 1005 
Q 2330 -64 1376 -64 
Q 813 -64 486 329 
Q 160 723 160 1389 
Q 160 2074 525 2509 
Q 890 2944 1485 2944 
Q 2061 2944 2374 2502 
Q 2560 2246 2592 1773 
L 621 1773 
Q 646 1370 700 1158 
Q 755 947 915 730 
Q 1184 378 1626 378 
Q 1939 378 2153 531 
Q 2368 685 2611 1050 
z
M 634 1978 
L 1939 1978 
Q 1882 2381 1750 2547 
Q 1619 2714 1312 2714 
Q 1043 2714 864 2525 
Q 685 2336 634 1978 
z
" transform="scale(0.015625)"/>
       <path id="STIXGeneral-Regular-20" transform="scale(0.015625)"/>
       <path id="STIXGeneral-Italic-43" d="M 4410 4250 
L 4173 2970 
L 4058 2989 
Q 3942 4032 3104 4032 
Q 2406 4032 1830 3411 
Q 1491 3053 1315 2541 
Q 1139 2029 1139 1485 
Q 1139 173 2259 173 
Q 2656 173 2985 339 
Q 3315 506 3725 934 
L 3840 838 
Q 3411 333 2998 109 
Q 2586 -115 2093 -115 
Q 1344 -115 883 329 
Q 422 774 422 1555 
Q 422 2214 748 2812 
Q 1075 3411 1619 3795 
Q 2272 4262 3021 4262 
Q 3462 4262 3770 4154 
Q 3898 4109 4032 4109 
Q 4205 4109 4275 4250 
L 4410 4250 
z
" transform="scale(0.015625)"/>
      </defs>
      <use xlink:href="#STIXGeneral-Regular-43" transform="translate(0 0.40625)"/>
      <use xlink:href="#STIXGeneral-Regular-6f" transform="translate(66.699997 0.40625)"/>
      <use xlink:href="#STIXGeneral-Regular-6e" transform="translate(116.699982 0.40625)"/>
      <use xlink:href="#STIXGeneral-Regular-63" transform="translate(166.699966 0.40625)"/>
      <use xlink:href="#STIXGeneral-Regular-75" transform="translate(211.09996 0.40625)"/>
      <use xlink:href="#STIXGeneral-Regular-72" transform="translate(261.099945 0.40625)"/>
      <use xlink:href="#STIXGeneral-Regular-72" transform="translate(294.399933 0.40625)"/>
      <use xlink:href="#STIXGeneral-Regular-65" transform="translate(327.699921 0.40625)"/>
      <use xlink:href="#STIXGeneral-Regular-6e" transform="translate(372.099915 0.40625)"/>
      <use xlink:href="#STIXGeneral-Regular-63" transform="translate(422.099899 0.40625)"/>
      <use xlink:href="#STIXGeneral-Regular-65" transform="translate(466.499893 0.40625)"/>
      <use xlink:href="#STIXGeneral-Regular-20" transform="translate(510.899887 0.40625)"/>
      <use xlink:href="#STIXGeneral-Italic-43" transform="translate(535.899872 0.40625)"/>
     </g>
    </g>
   </g>
   <g id="matplotlib.axis_2">
    <g id="ytick_1">
     <g id="line2d_7">
      <defs>
       <path id="mcdda4b05f0" d="M 0 0 
L -3.5 0 
" style="stroke: #000000; stroke-width: 0.8"/>
      </defs>
      <g>
       <use xlink:href="#mcdda4b05f0" x="45.8" y="294.136449" style="stroke: #000000; stroke-width: 0.8"/>
      </g>
     </g>
     <g id="text_8">
      <!-- 2.0 -->
      <g transform="translate(23.8 298.234261) scale(0.12 -0.12)">
       <use xlink:href="#STIXGeneral-Regular-32"/>
       <use xlink:href="#STIXGeneral-Regular-2e" transform="translate(49.999985 0)"/>
       <use xlink:href="#STIXGeneral-Regular-30" transform="translate(74.999969 0)"/>
      </g>
     </g>
    </g>
    <g id="ytick_2">
     <g id="line2d_8">
      <g>
       <use xlink:href="#mcdda4b05f0" x="45.8" y="231.740551" style="stroke: #000000; stroke-width: 0.8"/>
      </g>
     </g>
     <g id="text_9">
      <!-- 2.2 -->
      <g transform="translate(23.8 235.838363) scale(0.12 -0.12)">
       <use xlink:href="#STIXGeneral-Regular-32"/>
       <use xlink:href="#STIXGeneral-Regular-2e" transform="translate(49.999985 0)"/>
       <use xlink:href="#STIXGeneral-Regular-32" transform="translate(74.999969 0)"/>
      </g>
     </g>
    </g>
    <g id="ytick_3">
     <g id="line2d_9">
      <g>
       <use xlink:href="#mcdda4b05f0" x="45.8" y="169.344652" style="stroke: #000000; stroke-width: 0.8"/>
      </g>
     </g>
     <g id="text_10">
      <!-- 2.4 -->
      <g transform="translate(23.8 173.442465) scale(0.12 -0.12)">
       <use xlink:href="#STIXGeneral-Regular-32"/>
       <use xlink:href="#STIXGeneral-Regular-2e" transform="translate(49.999985 0)"/>
       <use xlink:href="#STIXGeneral-Regular-34" transform="translate(74.999969 0)"/>
      </g>
     </g>
    </g>
    <g id="ytick_4">
     <g id="line2d_10">
      <g>
       <use xlink:href="#mcdda4b05f0" x="45.8" y="106.948754" style="stroke: #000000; stroke-width: 0.8"/>
      </g>
     </g>
     <g id="text_11">
      <!-- 2.6 -->
      <g transform="translate(23.8 111.046567) scale(0.12 -0.12)">
       <use xlink:href="#STIXGeneral-Regular-32"/>
       <use xlink:href="#STIXGeneral-Regular-2e" transform="translate(49.999985 0)"/>
       <use xlink:href="#STIXGeneral-Regular-36" transform="translate(74.999969 0)"/>
      </g>
     </g>
    </g>
    <g id="ytick_5">
     <g id="line2d_11">
      <g>
       <use xlink:href="#mcdda4b05f0" x="45.8" y="44.552856" style="stroke: #000000; stroke-width: 0.8"/>
      </g>
     </g>
     <g id="text_12">
      <!-- 2.8 -->
      <g transform="translate(23.8 48.650669) scale(0.12 -0.12)">
       <use xlink:href="#STIXGeneral-Regular-32"/>
       <use xlink:href="#STIXGeneral-Regular-2e" transform="translate(49.999985 0)"/>
       <use xlink:href="#STIXGeneral-Regular-38" transform="translate(74.999969 0)"/>
      </g>
     </g>
    </g>
    <g id="text_13">
     <!-- Maximal CHSH $S_{\max}$ -->
     <g transform="translate(16.761563 224.620312) rotate(-90) scale(0.14 -0.14)">
      <defs>
       <path id="STIXGeneral-Regular-4d" d="M 5530 0 
L 3738 0 
L 3738 122 
Q 4115 147 4214 265 
Q 4314 384 4314 787 
L 4314 3661 
L 2682 0 
L 2592 0 
L 979 3514 
L 979 966 
Q 979 448 1088 294 
Q 1197 141 1574 122 
L 1574 0 
L 77 0 
L 77 122 
Q 358 141 480 205 
Q 602 269 650 432 
Q 698 595 698 966 
L 698 3514 
Q 698 3878 589 3984 
Q 480 4090 90 4115 
L 90 4237 
L 1357 4237 
L 2835 1024 
L 4250 4237 
L 5523 4237 
L 5523 4115 
Q 5178 4109 5072 3993 
Q 4966 3878 4966 3520 
L 4966 717 
Q 4966 378 5072 262 
Q 5178 147 5530 122 
L 5530 0 
z
" transform="scale(0.015625)"/>
       <path id="STIXGeneral-Regular-61" d="M 2829 422 
L 2829 243 
Q 2586 -64 2253 -64 
Q 1888 -64 1843 403 
L 1837 403 
Q 1427 -64 909 -64 
Q 608 -64 422 112 
Q 237 288 237 602 
Q 237 1050 685 1350 
Q 992 1555 1837 1869 
L 1837 2214 
Q 1837 2502 1699 2646 
Q 1562 2790 1338 2790 
Q 1146 2790 1018 2697 
Q 890 2605 890 2477 
Q 890 2419 909 2348 
Q 928 2278 928 2208 
Q 928 2112 841 2029 
Q 755 1946 634 1946 
Q 525 1946 441 2029 
Q 358 2112 358 2240 
Q 358 2547 685 2752 
Q 986 2944 1421 2944 
Q 1939 2944 2176 2656 
Q 2291 2522 2323 2384 
Q 2355 2246 2355 1946 
L 2355 723 
Q 2355 301 2554 301 
Q 2682 301 2829 422 
z
M 1837 813 
L 1837 1715 
Q 1248 1510 1018 1293 
Q 800 1094 800 800 
Q 800 557 921 432 
Q 1043 307 1242 307 
Q 1453 307 1613 410 
Q 1747 506 1792 589 
Q 1837 672 1837 813 
z
" transform="scale(0.015625)"/>
       <path id="STIXGeneral-Regular-78" d="M 3066 0 
L 1779 0 
L 1779 96 
Q 1939 109 1987 137 
Q 2035 166 2035 250 
Q 2035 307 1997 365 
L 1414 1261 
L 909 474 
Q 781 275 781 211 
Q 781 96 1037 96 
L 1037 0 
L 109 0 
L 109 96 
Q 269 109 355 169 
Q 442 230 576 422 
L 1306 1478 
L 704 2400 
Q 557 2624 454 2704 
Q 352 2784 211 2784 
L 154 2784 
L 154 2880 
L 1478 2880 
L 1478 2784 
Q 1203 2778 1203 2643 
Q 1203 2509 1498 2074 
Q 1581 1958 1587 1946 
Q 1619 1990 1779 2227 
Q 1811 2285 1856 2349 
Q 1901 2413 1923 2451 
Q 1946 2490 1971 2528 
Q 1997 2566 2006 2595 
Q 2016 2624 2016 2643 
Q 2016 2765 1760 2784 
L 1760 2880 
L 2771 2880 
L 2771 2784 
Q 2445 2771 2253 2502 
L 1722 1734 
L 2541 480 
Q 2790 96 3066 96 
L 3066 0 
z
" transform="scale(0.015625)"/>
       <path id="STIXGeneral-Regular-69" d="M 1152 4045 
Q 1152 3904 1056 3811 
Q 960 3718 819 3718 
Q 685 3718 592 3811 
Q 499 3904 499 4045 
Q 499 4179 595 4275 
Q 691 4371 826 4371 
Q 966 4371 1059 4275 
Q 1152 4179 1152 4045 
z
M 1619 0 
L 102 0 
L 102 96 
Q 435 115 521 211 
Q 608 307 608 666 
L 608 2118 
Q 608 2342 563 2432 
Q 518 2522 397 2522 
Q 243 2522 128 2490 
L 128 2592 
L 1120 2944 
L 1146 2918 
L 1146 672 
Q 1146 314 1226 218 
Q 1306 122 1619 96 
L 1619 0 
z
" transform="scale(0.015625)"/>
       <path id="STIXGeneral-Regular-6d" d="M 4960 0 
L 3565 0 
L 3565 96 
Q 3834 122 3907 208 
Q 3981 294 3981 576 
L 3981 1894 
Q 3981 2278 3869 2444 
Q 3757 2611 3488 2611 
Q 3264 2611 3107 2521 
Q 2950 2432 2803 2221 
L 2803 608 
Q 2803 301 2896 201 
Q 2989 102 3264 96 
L 3264 0 
L 1830 0 
L 1830 96 
Q 2112 115 2189 188 
Q 2266 262 2266 550 
L 2266 1901 
Q 2266 2611 1850 2611 
Q 1670 2611 1468 2531 
Q 1267 2451 1171 2336 
Q 1088 2240 1088 2227 
L 1088 448 
Q 1088 243 1177 176 
Q 1267 109 1523 96 
L 1523 0 
L 102 0 
L 102 96 
Q 371 102 460 195 
Q 550 288 550 563 
L 550 2150 
Q 550 2387 499 2480 
Q 448 2573 326 2573 
Q 230 2573 122 2547 
L 122 2656 
Q 557 2778 1011 2944 
L 1062 2925 
L 1062 2451 
L 1075 2451 
Q 1363 2752 1584 2848 
Q 1805 2944 2054 2944 
Q 2560 2944 2733 2406 
Q 3232 2944 3776 2944 
Q 4518 2944 4518 1792 
L 4518 493 
Q 4518 282 4582 202 
Q 4646 122 4794 109 
L 4960 96 
L 4960 0 
z
" transform="scale(0.015625)"/>
       <path id="STIXGeneral-Regular-6c" d="M 1645 0 
L 134 0 
L 134 96 
Q 435 122 531 221 
Q 627 320 627 589 
L 627 3590 
Q 627 3821 569 3910 
Q 512 4000 358 4000 
Q 224 4000 122 3987 
L 122 4090 
Q 730 4237 1133 4371 
L 1165 4346 
L 1165 557 
Q 1165 288 1254 201 
Q 1344 115 1645 96 
L 1645 0 
z
" transform="scale(0.015625)"/>
       <path id="STIXGeneral-Regular-48" d="M 4499 0 
L 2714 0 
L 2714 122 
Q 3085 147 3181 265 
Q 3277 384 3277 794 
L 3277 2016 
L 1338 2016 
L 1338 723 
Q 1338 371 1440 256 
Q 1542 141 1894 122 
L 1901 0 
L 115 0 
L 115 122 
Q 493 147 589 259 
Q 685 371 685 781 
L 685 3507 
Q 685 3878 585 3980 
Q 486 4083 115 4115 
L 115 4237 
L 1907 4237 
L 1907 4115 
Q 1549 4083 1443 3977 
Q 1338 3872 1338 3507 
L 1338 2298 
L 3277 2298 
L 3277 3507 
Q 3277 3878 3177 3980 
Q 3078 4083 2707 4115 
L 2707 4237 
L 4499 4237 
L 4499 4115 
Q 4141 4083 4035 3977 
Q 3930 3872 3930 3507 
L 3930 710 
Q 3930 371 4035 259 
Q 4141 147 4499 122 
L 4499 0 
z
" transform="scale(0.015625)"/>
       <path id="STIXGeneral-Regular-53" d="M 3002 2963 
L 2842 2963 
Q 2733 3360 2579 3565 
Q 2189 4064 1651 4064 
Q 1357 4064 1181 3894 
Q 1005 3725 1005 3456 
Q 1005 3328 1069 3206 
Q 1133 3085 1206 2998 
Q 1280 2912 1465 2784 
Q 1651 2656 1766 2589 
Q 1882 2522 2150 2362 
Q 2669 2061 2905 1763 
Q 3142 1466 3142 1107 
Q 3142 576 2771 243 
Q 2400 -90 1837 -90 
Q 1421 -90 1082 58 
Q 915 128 781 128 
Q 704 128 653 70 
Q 602 13 602 -83 
L 461 -83 
L 275 1274 
L 416 1274 
Q 845 141 1734 141 
Q 2074 141 2285 342 
Q 2496 544 2496 858 
Q 2496 1158 2310 1363 
Q 2003 1696 1235 2106 
Q 454 2522 454 3206 
Q 454 3718 768 4022 
Q 1082 4326 1568 4326 
Q 1907 4326 2240 4186 
Q 2413 4109 2522 4109 
Q 2688 4109 2726 4326 
L 2861 4326 
L 3002 2963 
z
" transform="scale(0.015625)"/>
       <path id="STIXGeneral-Italic-53" d="M 3251 4269 
L 2995 2989 
L 2880 3008 
Q 2880 3539 2720 3795 
Q 2560 4051 2118 4051 
Q 1786 4051 1594 3881 
Q 1402 3712 1402 3411 
Q 1402 3168 1504 3005 
Q 1606 2842 2035 2413 
Q 2464 1978 2611 1715 
Q 2758 1453 2758 1133 
Q 2758 589 2390 237 
Q 2022 -115 1466 -115 
Q 1222 -115 800 32 
Q 595 109 499 109 
Q 288 109 224 -96 
L 109 -96 
L 326 1338 
L 454 1325 
Q 442 1267 442 1178 
Q 442 710 701 409 
Q 960 109 1363 109 
Q 1734 109 1968 336 
Q 2202 563 2202 928 
Q 2202 1139 2118 1308 
Q 2035 1478 1818 1715 
L 1568 1984 
Q 1549 2003 1459 2102 
Q 1370 2202 1318 2253 
Q 1030 2560 934 2755 
Q 838 2950 838 3213 
Q 838 3699 1168 3980 
Q 1498 4262 1978 4262 
Q 2310 4262 2522 4173 
Q 2707 4102 2816 4102 
Q 2925 4102 2982 4134 
Q 3040 4166 3104 4269 
L 3251 4269 
z
" transform="scale(0.015625)"/>
      </defs>
      <use xlink:href="#STIXGeneral-Regular-4d" transform="translate(0 0.703125)"/>
      <use xlink:href="#STIXGeneral-Regular-61" transform="translate(88.899994 0.703125)"/>
      <use xlink:href="#STIXGeneral-Regular-78" transform="translate(133.299988 0.703125)"/>
      <use xlink:href="#STIXGeneral-Regular-69" transform="translate(183.299973 0.703125)"/>
      <use xlink:href="#STIXGeneral-Regular-6d" transform="translate(211.09996 0.703125)"/>
      <use xlink:href="#STIXGeneral-Regular-61" transform="translate(288.899948 0.703125)"/>
      <use xlink:href="#STIXGeneral-Regular-6c" transform="translate(333.299942 0.703125)"/>
      <use xlink:href="#STIXGeneral-Regular-20" transform="translate(361.09993 0.703125)"/>
      <use xlink:href="#STIXGeneral-Regular-43" transform="translate(386.099915 0.703125)"/>
      <use xlink:href="#STIXGeneral-Regular-48" transform="translate(452.799911 0.703125)"/>
      <use xlink:href="#STIXGeneral-Regular-53" transform="translate(524.999893 0.703125)"/>
      <use xlink:href="#STIXGeneral-Regular-48" transform="translate(580.599884 0.703125)"/>
      <use xlink:href="#STIXGeneral-Regular-20" transform="translate(652.799866 0.703125)"/>
      <use xlink:href="#STIXGeneral-Italic-53" transform="translate(677.79985 0.703125)"/>
      <use xlink:href="#STIXGeneral-Regular-6d" transform="translate(727.799835 -12.525) scale(0.7)"/>
      <use xlink:href="#STIXGeneral-Regular-61" transform="translate(782.259827 -12.525) scale(0.7)"/>
      <use xlink:href="#STIXGeneral-Regular-78" transform="translate(813.339822 -12.525) scale(0.7)"/>
     </g>
    </g>
   </g>
   <g id="line2d_12">
    <path d="M 69.015818 294.136449 
L 78.247443 294.013135 
L 87.475419 293.643535 
L 96.696096 293.028669 
L 105.905831 292.17023 
L 115.100981 291.070572 
L 124.277912 289.732697 
L 133.432995 288.160229 
L 142.562612 286.357396 
L 151.663153 284.329002 
L 160.73102 282.080395 
L 169.762629 279.617439 
L 178.754408 276.946473 
L 187.702802 274.074282 
L 196.604277 271.008054 
L 205.455308 267.755348 
L 214.252401 264.32405 
L 222.992075 260.722337 
L 231.670875 256.958643 
L 240.285374 253.041616 
L 248.832162 248.980088 
L 257.30786 244.783035 
L 265.70912 240.45955 
L 274.032617 236.018808 
L 282.275065 231.470033 
L 290.433201 226.822482 
L 298.503804 222.085405 
L 306.48368 217.268033 
L 314.369672 212.379549 
L 322.15867 207.429067 
L 329.847589 202.425622 
L 337.43339 197.378144 
L 344.913077 192.295449 
L 352.283692 187.186224 
L 359.542314 182.059021 
L 366.686082 176.922229 
L 373.71217 171.784087 
L 380.617798 166.652664 
L 387.400238 161.535855 
L 394.056807 156.441375 
L 400.584873 151.376755 
L 406.981857 146.349335 
L 413.245232 141.366264 
L 419.372515 136.434504 
L 425.36129 131.560809 
L 431.20919 126.751743 
L 436.913895 122.013676 
L 442.473161 117.352764 
L 447.884777 112.774986 
L 453.146617 108.286099 
L 458.256593 103.891678 
L 463.212686 99.597095 
L 468.012933 95.407527 
L 472.655442 91.327949 
L 477.138381 87.363139 
L 481.459969 83.517697 
L 485.6185 79.796017 
L 489.612336 76.202298 
L 493.439886 72.740567 
L 497.099649 69.414638 
L 500.59017 66.228158 
L 503.910074 63.184573 
L 507.058049 60.287151 
L 510.032844 57.538978 
L 512.833291 54.942949 
L 515.458277 52.501787 
L 517.906765 50.218027 
L 520.177788 48.094029 
L 522.270453 46.131966 
L 524.183927 44.333846 
L 525.917451 42.701494 
L 527.470343 41.236558 
L 528.841992 39.940507 
L 530.031851 38.814645 
L 531.039456 37.860088 
L 531.8644 37.077797 
L 532.506361 36.468544 
L 532.965089 36.032928 
L 533.240396 35.771389 
L 533.332182 35.684176 
" clip-path="url(#pd41604bfc0)" style="fill: none; stroke: #0000ff; stroke-width: 2.5; stroke-linecap: square"/>
   </g>
   <g id="line2d_13">
    <path d="M 45.8 294.136449 
L 556.548 294.136449 
" clip-path="url(#pd41604bfc0)" style="fill: none; stroke-dasharray: 7.4,3.2; stroke-dashoffset: 0; stroke: #ff0000; stroke-width: 2"/>
   </g>
   <g id="line2d_14">
    <path d="M 45.8 35.684176 
L 556.548 35.684176 
" clip-path="url(#pd41604bfc0)" style="fill: none; stroke-dasharray: 1.5,2.475; stroke-dashoffset: 0; stroke: #008000; stroke-width: 1.5"/>
   </g>
   <g id="patch_3">
    <path d="M 45.8 307.059062 
L 45.8 22.761562 
" style="fill: none; stroke: #000000; stroke-width: 0.8; stroke-linejoin: miter; stroke-linecap: square"/>
   </g>
   <g id="patch_4">
    <path d="M 556.548 307.059062 
L 556.548 22.761562 
" style="fill: none; stroke: #000000; stroke-width: 0.8; stroke-linejoin: miter; stroke-linecap: square"/>
   </g>
   <g id="patch_5">
    <path d="M 45.8 307.059062 
L 556.548 307.059062 
" style="fill: none; stroke: #000000; stroke-width: 0.8; stroke-linejoin: miter; stroke-linecap: square"/>
   </g>
   <g id="patch_6">
    <path d="M 45.8 22.761562 
L 556.548 22.761562 
" style="fill: none; stroke: #000000; stroke-width: 0.8; stroke-linejoin: miter; stroke-linecap: square"/>
   </g>
   <g id="text_14">
    <!-- Maximal CHSH Violation vs Concurrence -->
    <g transform="translate(181.793375 16.761562) scale(0.14 -0.14)">
     <defs>
      <path id="STIXGeneral-Regular-56" d="M 4461 4237 
L 4461 4115 
Q 4262 4109 4134 3990 
Q 4006 3872 3872 3533 
L 2451 -70 
L 2355 -70 
L 794 3411 
Q 589 3866 467 3987 
Q 346 4109 102 4115 
L 102 4237 
L 1798 4237 
L 1798 4115 
L 1619 4102 
Q 1331 4083 1331 3904 
Q 1331 3776 1581 3219 
L 2554 1030 
L 3494 3392 
Q 3616 3699 3616 3853 
Q 3616 3898 3606 3933 
Q 3597 3968 3584 3993 
Q 3571 4019 3536 4038 
Q 3501 4058 3481 4067 
Q 3462 4077 3411 4086 
Q 3360 4096 3337 4099 
Q 3315 4102 3248 4108 
Q 3181 4115 3155 4115 
L 3155 4237 
L 4461 4237 
z
" transform="scale(0.015625)"/>
      <path id="STIXGeneral-Regular-74" d="M 1702 493 
L 1786 422 
Q 1478 -64 1011 -64 
Q 448 -64 448 749 
L 448 2675 
L 109 2675 
Q 83 2694 83 2720 
Q 83 2771 192 2842 
Q 435 2982 813 3526 
Q 826 3546 874 3606 
Q 922 3667 941 3706 
Q 986 3706 986 3622 
L 986 2880 
L 1632 2880 
L 1632 2675 
L 986 2675 
L 986 845 
Q 986 538 1062 403 
Q 1139 269 1318 269 
Q 1510 269 1702 493 
z
" transform="scale(0.015625)"/>
      <path id="STIXGeneral-Regular-76" d="M 3053 2880 
L 3053 2784 
Q 2906 2771 2835 2688 
Q 2765 2605 2637 2285 
L 1818 230 
Q 1690 -90 1638 -90 
Q 1587 -90 1523 77 
Q 1510 96 1497 141 
Q 1485 186 1472 211 
L 704 2048 
Q 499 2534 403 2652 
Q 307 2771 122 2784 
L 122 2880 
L 1376 2880 
L 1376 2784 
Q 1210 2771 1146 2732 
Q 1082 2694 1082 2611 
Q 1082 2509 1139 2368 
L 1792 730 
L 2426 2387 
Q 2464 2483 2464 2579 
Q 2464 2758 2163 2784 
L 2163 2880 
L 3053 2880 
z
" transform="scale(0.015625)"/>
      <path id="STIXGeneral-Regular-73" d="M 998 1926 
L 1664 1523 
Q 1984 1331 2105 1164 
Q 2227 998 2227 736 
Q 2227 416 1961 176 
Q 1696 -64 1331 -64 
Q 1030 -64 864 -6 
Q 691 51 570 51 
Q 461 51 416 -26 
L 333 -26 
L 333 979 
L 435 979 
Q 538 512 730 294 
Q 922 77 1248 77 
Q 1485 77 1632 211 
Q 1779 346 1779 550 
Q 1779 845 1440 1030 
L 1094 1222 
Q 326 1651 326 2150 
Q 326 2522 566 2730 
Q 806 2938 1210 2938 
Q 1491 2938 1638 2867 
Q 1754 2816 1818 2816 
Q 1862 2816 1920 2880 
L 1990 2880 
L 2022 2010 
L 1926 2010 
Q 1818 2445 1654 2621 
Q 1491 2797 1203 2797 
Q 986 2797 854 2688 
Q 723 2579 723 2362 
Q 723 2253 796 2128 
Q 870 2003 998 1926 
z
" transform="scale(0.015625)"/>
     </defs>
     <use xlink:href="#STIXGeneral-Regular-4d"/>
     <use xlink:href="#STIXGeneral-Regular-61" transform="translate(88.899994 0)"/>
     <use xlink:href="#STIXGeneral-Regular-78" transform="translate(133.299988 0)"/>
     <use xlink:href="#STIXGeneral-Regular-69" transform="translate(183.299973 0)"/>
     <use xlink:href="#STIXGeneral-Regular-6d" transform="translate(211.09996 0)"/>
     <use xlink:href="#STIXGeneral-Regular-61" transform="translate(288.899948 0)"/>
     <use xlink:href="#STIXGeneral-Regular-6c" transform="translate(333.299942 0)"/>
     <use xlink:href="#STIXGeneral-Regular-20" transform="translate(361.09993 0)"/>
     <use xlink:href="#STIXGeneral-Regular-43" transform="translate(386.099915 0)"/>
     <use xlink:href="#STIXGeneral-Regular-48" transform="translate(452.799911 0)"/>
     <use xlink:href="#STIXGeneral-Regular-53" transform="translate(524.999893 0)"/>
     <use xlink:href="#STIXGeneral-Regular-48" transform="translate(580.599884 0)"/>
     <use xlink:href="#STIXGeneral-Regular-20" transform="translate(652.799866 0)"/>
     <use xlink:href="#STIXGeneral-Regular-56" transform="translate(677.79985 0)"/>
     <use xlink:href="#STIXGeneral-Regular-69" transform="translate(749.999832 0)"/>
     <use xlink:href="#STIXGeneral-Regular-6f" transform="translate(777.79982 0)"/>
     <use xlink:href="#STIXGeneral-Regular-6c" transform="translate(827.799805 0)"/>
     <use xlink:href="#STIXGeneral-Regular-61" transform="translate(855.599792 0)"/>
     <use xlink:href="#STIXGeneral-Regular-74" transform="translate(899.999786 0)"/>
     <use xlink:href="#STIXGeneral-Regular-69" transform="translate(927.799774 0)"/>
     <use xlink:href="#STIXGeneral-Regular-6f" transform="translate(955.599762 0)"/>
     <use xlink:href="#STIXGeneral-Regular-6e" transform="translate(1005.599747 0)"/>
     <use xlink:href="#STIXGeneral-Regular-20" transform="translate(1055.599731 0)"/>
     <use xlink:href="#STIXGeneral-Regular-76" transform="translate(1080.599716 0)"/>
     <use xlink:href="#STIXGeneral-Regular-73" transform="translate(1130.599701 0)"/>
     <use xlink:href="#STIXGeneral-Regular-20" transform="translate(1169.499695 0)"/>
     <use xlink:href="#STIXGeneral-Regular-43" transform="translate(1194.49968 0)"/>
     <use xlink:href="#STIXGeneral-Regular-6f" transform="translate(1261.199677 0)"/>
     <use xlink:href="#STIXGeneral-Regular-6e" transform="translate(1311.199661 0)"/>
     <use xlink:href="#STIXGeneral-Regular-63" transform="translate(1361.199646 0)"/>
     <use xlink:href="#STIXGeneral-Regular-75" transform="translate(1405.59964 0)"/>
     <use xlink:href="#STIXGeneral-Regular-72" transform="translate(1455.599625 0)"/>
     <use xlink:href="#STIXGeneral-Regular-72" transform="translate(1488.899612 0)"/>
     <use xlink:href="#STIXGeneral-Regular-65" transform="translate(1522.1996 0)"/>
     <use xlink:href="#STIXGeneral-Regular-6e" transform="translate(1566.599594 0)"/>
     <use xlink:href="#STIXGeneral-Regular-63" transform="translate(1616.599579 0)"/>
     <use xlink:href="#STIXGeneral-Regular-65" transform="translate(1660.999573 0)"/>
    </g>
   </g>
   <g id="legend_1">
    <g id="patch_7">
     <path d="M 442.455656 182.147656 
L 548.848 182.147656 
Q 551.048 182.147656 551.048 179.947656 
L 551.048 149.872969 
Q 551.048 147.672969 548.848 147.672969 
L 442.455656 147.672969 
Q 440.255656 147.672969 440.255656 149.872969 
L 440.255656 179.947656 
Q 440.255656 182.147656 442.455656 182.147656 
z
" style="fill: #ffffff; opacity: 0.8; stroke: #cccccc; stroke-linejoin: miter"/>
    </g>
    <g id="line2d_15">
     <path d="M 444.655656 155.922969 
L 455.655656 155.922969 
L 466.655656 155.922969 
" style="fill: none; stroke-dasharray: 7.4,3.2; stroke-dashoffset: 0; stroke: #ff0000; stroke-width: 2"/>
    </g>
    <g id="text_15">
     <!-- Classical bound -->
     <g transform="translate(475.455656 159.772969) scale(0.11 -0.11)">
      <defs>
       <path id="STIXGeneral-Regular-62" d="M 979 4358 
L 979 2406 
Q 1082 2650 1315 2797 
Q 1549 2944 1843 2944 
Q 2349 2944 2672 2541 
Q 2995 2138 2995 1536 
Q 2995 832 2566 384 
Q 2138 -64 1498 -64 
Q 1107 -64 774 67 
Q 442 198 442 358 
L 442 3622 
Q 442 3859 384 3926 
Q 326 3994 128 3994 
Q 83 3994 19 3981 
L 19 4090 
L 211 4147 
Q 864 4346 947 4371 
L 979 4358 
z
M 979 2035 
L 979 474 
Q 979 326 1161 233 
Q 1344 141 1600 141 
Q 1978 141 2195 416 
Q 2432 710 2432 1261 
Q 2432 1888 2182 2240 
Q 1971 2541 1613 2541 
Q 1357 2541 1168 2390 
Q 979 2240 979 2035 
z
" transform="scale(0.015625)"/>
       <path id="STIXGeneral-Regular-64" d="M 3142 269 
L 2202 -64 
L 2176 -45 
L 2176 365 
Q 1869 -64 1357 -64 
Q 826 -64 499 317 
Q 173 698 173 1312 
Q 173 1990 563 2467 
Q 954 2944 1504 2944 
Q 1850 2944 2176 2669 
L 2176 3667 
Q 2176 3866 2118 3930 
Q 2061 3994 1882 3994 
Q 1792 3994 1741 3987 
L 1741 4090 
Q 2323 4243 2682 4371 
L 2714 4358 
L 2714 730 
Q 2714 506 2768 435 
Q 2822 365 2995 365 
Q 3034 365 3142 371 
L 3142 269 
z
M 2176 653 
L 2176 2125 
Q 2176 2381 1981 2573 
Q 1786 2765 1523 2765 
Q 1158 2765 940 2438 
Q 723 2112 723 1568 
Q 723 979 963 624 
Q 1203 269 1606 269 
Q 1907 269 2080 474 
Q 2176 582 2176 653 
z
" transform="scale(0.015625)"/>
      </defs>
      <use xlink:href="#STIXGeneral-Regular-43"/>
      <use xlink:href="#STIXGeneral-Regular-6c" transform="translate(66.699997 0)"/>
      <use xlink:href="#STIXGeneral-Regular-61" transform="translate(94.499985 0)"/>
      <use xlink:href="#STIXGeneral-Regular-73" transform="translate(138.899979 0)"/>
      <use xlink:href="#STIXGeneral-Regular-73" transform="translate(177.799973 0)"/>
      <use xlink:href="#STIXGeneral-Regular-69" transform="translate(216.699966 0)"/>
      <use xlink:href="#STIXGeneral-Regular-63" transform="translate(244.499954 0)"/>
      <use xlink:href="#STIXGeneral-Regular-61" transform="translate(288.899948 0)"/>
      <use xlink:href="#STIXGeneral-Regular-6c" transform="translate(333.299942 0)"/>
      <use xlink:href="#STIXGeneral-Regular-20" transform="translate(361.09993 0)"/>
      <use xlink:href="#STIXGeneral-Regular-62" transform="translate(386.099915 0)"/>
      <use xlink:href="#STIXGeneral-Regular-6f" transform="translate(436.099899 0)"/>
      <use xlink:href="#STIXGeneral-Regular-75" transform="translate(486.099884 0)"/>
      <use xlink:href="#STIXGeneral-Regular-6e" transform="translate(536.099869 0)"/>
      <use xlink:href="#STIXGeneral-Regular-64" transform="translate(586.099854 0)"/>
     </g>
    </g>
    <g id="line2d_16">
     <path d="M 444.655656 171.510312 
L 455.655656 171.510312 
L 466.655656 171.510312 
" style="fill: none; stroke-dasharray: 1.5,2.475; stroke-dashoffset: 0; stroke: #008000; stroke-width: 1.5"/>
    </g>
    <g id="text_16">
     <!-- Tsirelson bound -->
     <g transform="translate(475.455656 175.360312) scale(0.11 -0.11)">
      <defs>
       <path id="STIXGeneral-Regular-54" d="M 3795 3149 
L 3642 3149 
Q 3539 3674 3353 3821 
Q 3168 3968 2656 3968 
L 2278 3968 
L 2278 710 
Q 2278 346 2387 243 
Q 2496 141 2893 122 
L 2893 0 
L 1024 0 
L 1024 122 
Q 1427 147 1526 256 
Q 1626 365 1626 787 
L 1626 3968 
L 1242 3968 
Q 723 3968 540 3817 
Q 358 3667 262 3149 
L 109 3149 
L 154 4237 
L 3750 4237 
L 3795 3149 
z
" transform="scale(0.015625)"/>
      </defs>
      <use xlink:href="#STIXGeneral-Regular-54"/>
      <use xlink:href="#STIXGeneral-Regular-73" transform="translate(61.099991 0)"/>
      <use xlink:href="#STIXGeneral-Regular-69" transform="translate(99.999985 0)"/>
      <use xlink:href="#STIXGeneral-Regular-72" transform="translate(127.799973 0)"/>
      <use xlink:href="#STIXGeneral-Regular-65" transform="translate(161.09996 0)"/>
      <use xlink:href="#STIXGeneral-Regular-6c" transform="translate(205.499954 0)"/>
      <use xlink:href="#STIXGeneral-Regular-73" transform="translate(233.299942 0)"/>
      <use xlink:href="#STIXGeneral-Regular-6f" transform="translate(272.199936 0)"/>
      <use xlink:href="#STIXGeneral-Regular-6e" transform="translate(322.199921 0)"/>
      <use xlink:href="#STIXGeneral-Regular-20" transform="translate(372.199905 0)"/>
      <use xlink:href="#STIXGeneral-Regular-62" transform="translate(397.19989 0)"/>
      <use xlink:href="#STIXGeneral-Regular-6f" transform="translate(447.199875 0)"/>
      <use xlink:href="#STIXGeneral-Regular-75" transform="translate(497.19986 0)"/>
      <use xlink:href="#STIXGeneral-Regular-6e" transform="translate(547.199844 0)"/>
      <use xlink:href="#STIXGeneral-Regular-64" transform="translate(597.199829 0)"/>
     </g>
    </g>
   </g>
  </g>
 </g>
 <defs>
  <clipPath id="pd41604bfc0">
   <rect x="45.8" y="22.761562" width="510.748" height="284.2975"/>
  </clipPath>
 </defs>
</svg>
