<?xml version="1.0" encoding="utf-8" standalone="no"?>
<!DOCTYPE svg PUBLIC "-//W3C//DTD SVG 1.1//EN"
  "http://www.w3.org/Graphics/SVG/1.1/DTD/svg11.dtd">
<svg xmlns:xlink="http://www.w3.org/1999/xlink" width="706.68pt" height="417.1325pt" viewBox="0 0 706.68 417.1325" xmlns="http://www.w3.org/2000/svg" version="1.1">
 <metadata>
  <rdf:RDF xmlns:dc="http://purl.org/dc/elements/1.1/" xmlns:cc="http://creativecommons.org/ns#" xmlns:rdf="http://www.w3.org/1999/02/22-rdf-syntax-ns#">
   <cc:Work>
    <dc:type rdf:resource="http://purl.org/dc/dcmitype/StillImage"/>
    <dc:date>2026-05-28T03:20:53.612898</dc:date>
    <dc:format>image/svg+xml</dc:format>
    <dc:creator>
     <cc:Agent>
      <dc:title>Matplotlib v3.10.7, https://matplotlib.org/</dc:title>
     </cc:Agent>
    </dc:creator>
   </cc:Work>
  </rdf:RDF>
 </metadata>
 <defs>
  <style type="text/css">*{stroke-linejoin: round; stroke-linecap: butt}</style>
 </defs>
 <g id="figure_1">
  <g id="patch_1">
   <path d="M 0 417.1325 
L 706.68 417.1325 
L 706.68 0 
L 0 0 
z
" style="fill: #ffffff"/>
  </g>
  <g id="axes_1">
   <g id="patch_2">
    <path d="M 60.02 375.3925 
L 699.48 375.3925 
L 699.48 23.28 
L 60.02 23.28 
z
" style="fill: #ffffff"/>
   </g>
   <g id="matplotlib.axis_1">
    <g id="xtick_1">
     <g id="line2d_1">
      <defs>
       <path id="mb685dade1a" d="M 0 0 
L 0 3.5 
" style="stroke: #000000; stroke-width: 0.8"/>
      </defs>
      <g>
       <use xlink:href="#mb685dade1a" x="89.086364" y="375.3925" style="stroke: #000000; stroke-width: 0.8"/>
      </g>
     </g>
     <g id="text_1">
      <!-- 0.0 -->
      <g transform="translate(81.586364 390.588125) scale(0.12 -0.12)">
       <defs>
        <path id="STIXGeneral-Regular-30" d="M 3046 2112 
Q 3046 1683 2963 1302 
Q 2880 922 2717 602 
Q 2554 282 2266 96 
Q 1978 -90 1600 -90 
Q 1210 -90 915 108 
Q 621 307 461 640 
Q 301 973 227 1350 
Q 154 1728 154 2150 
Q 154 2746 301 3222 
Q 448 3699 790 4012 
Q 1133 4326 1626 4326 
Q 2253 4326 2649 3712 
Q 3046 3098 3046 2112 
z
M 2432 2080 
Q 2432 3091 2217 3625 
Q 2003 4160 1587 4160 
Q 1190 4160 979 3622 
Q 768 3085 768 2106 
Q 768 1120 979 598 
Q 1190 77 1600 77 
Q 2003 77 2217 598 
Q 2432 1120 2432 2080 
z
" transform="scale(0.015625)"/>
        <path id="STIXGeneral-Regular-2e" d="M 1158 275 
Q 1158 134 1052 32 
Q 947 -70 800 -70 
Q 653 -70 550 32 
Q 448 134 448 281 
Q 448 429 553 534 
Q 659 640 806 640 
Q 947 640 1052 531 
Q 1158 422 1158 275 
z
" transform="scale(0.015625)"/>
       </defs>
       <use xlink:href="#STIXGeneral-Regular-30"/>
       <use xlink:href="#STIXGeneral-Regular-2e" transform="translate(49.999985 0)"/>
       <use xlink:href="#STIXGeneral-Regular-30" transform="translate(74.999969 0)"/>
      </g>
     </g>
    </g>
    <g id="xtick_2">
     <g id="line2d_2">
      <g>
       <use xlink:href="#mb685dade1a" x="205.351818" y="375.3925" style="stroke: #000000; stroke-width: 0.8"/>
      </g>
     </g>
     <g id="text_2">
      <!-- 0.2 -->
      <g transform="translate(197.851818 390.588125) scale(0.12 -0.12)">
       <defs>
        <path id="STIXGeneral-Regular-32" d="M 3034 877 
L 2688 0 
L 186 0 
L 186 77 
L 1325 1286 
Q 1773 1754 1965 2144 
Q 2157 2534 2157 2950 
Q 2157 3379 1920 3616 
Q 1683 3853 1267 3853 
Q 922 3853 720 3673 
Q 518 3494 326 3021 
L 192 3053 
Q 301 3648 630 3987 
Q 960 4326 1523 4326 
Q 2054 4326 2380 4006 
Q 2707 3686 2707 3200 
Q 2707 2477 1888 1613 
L 832 486 
L 2330 486 
Q 2541 486 2665 569 
Q 2790 653 2944 915 
L 3034 877 
z
" transform="scale(0.015625)"/>
       </defs>
       <use xlink:href="#STIXGeneral-Regular-30"/>
       <use xlink:href="#STIXGeneral-Regular-2e" transform="translate(49.999985 0)"/>
       <use xlink:href="#STIXGeneral-Regular-32" transform="translate(74.999969 0)"/>
      </g>
     </g>
    </g>
    <g id="xtick_3">
     <g id="line2d_3">
      <g>
       <use xlink:href="#mb685dade1a" x="321.617273" y="375.3925" style="stroke: #000000; stroke-width: 0.8"/>
      </g>
     </g>
     <g id="text_3">
      <!-- 0.4 -->
      <g transform="translate(314.117273 390.588125) scale(0.12 -0.12)">
       <defs>
        <path id="STIXGeneral-Regular-34" d="M 3027 1069 
L 2368 1069 
L 2368 0 
L 1869 0 
L 1869 1069 
L 77 1069 
L 77 1478 
L 2086 4326 
L 2368 4326 
L 2368 1478 
L 3027 1478 
L 3027 1069 
z
M 1869 1478 
L 1869 3674 
L 333 1478 
L 1869 1478 
z
" transform="scale(0.015625)"/>
       </defs>
       <use xlink:href="#STIXGeneral-Regular-30"/>
       <use xlink:href="#STIXGeneral-Regular-2e" transform="translate(49.999985 0)"/>
       <use xlink:href="#STIXGeneral-Regular-34" transform="translate(74.999969 0)"/>
      </g>
     </g>
    </g>
    <g id="xtick_4">
     <g id="line2d_4">
      <g>
       <use xlink:href="#mb685dade1a" x="437.882727" y="375.3925" style="stroke: #000000; stroke-width: 0.8"/>
      </g>
     </g>
     <g id="text_4">
      <!-- 0.6 -->
      <g transform="translate(430.382727 390.588125) scale(0.12 -0.12)">
       <defs>
        <path id="STIXGeneral-Regular-36" d="M 2854 4378 
L 2867 4275 
Q 2112 4154 1606 3664 
Q 1101 3174 973 2451 
Q 1344 2739 1786 2739 
Q 2349 2739 2672 2380 
Q 2995 2022 2995 1402 
Q 2995 774 2669 378 
Q 2291 -90 1651 -90 
Q 870 -90 518 557 
Q 218 1107 218 1786 
Q 218 2835 915 3552 
Q 1312 3962 1731 4131 
Q 2150 4301 2854 4378 
z
M 2419 1203 
Q 2419 2445 1555 2445 
Q 1235 2445 1024 2275 
Q 813 2106 813 1702 
Q 813 954 1046 522 
Q 1280 90 1722 90 
Q 2061 90 2240 394 
Q 2419 698 2419 1203 
z
" transform="scale(0.015625)"/>
       </defs>
       <use xlink:href="#STIXGeneral-Regular-30"/>
       <use xlink:href="#STIXGeneral-Regular-2e" transform="translate(49.999985 0)"/>
       <use xlink:href="#STIXGeneral-Regular-36" transform="translate(74.999969 0)"/>
      </g>
     </g>
    </g>
    <g id="xtick_5">
     <g id="line2d_5">
      <g>
       <use xlink:href="#mb685dade1a" x="554.148182" y="375.3925" style="stroke: #000000; stroke-width: 0.8"/>
      </g>
     </g>
     <g id="text_5">
      <!-- 0.8 -->
      <g transform="translate(546.648182 390.588125) scale(0.12 -0.12)">
       <defs>
        <path id="STIXGeneral-Regular-38" d="M 2848 992 
Q 2848 499 2505 204 
Q 2163 -90 1587 -90 
Q 1050 -90 704 204 
Q 358 499 358 954 
Q 358 1293 524 1533 
Q 691 1773 1190 2125 
Q 710 2522 553 2765 
Q 397 3008 397 3328 
Q 397 3782 745 4054 
Q 1094 4326 1638 4326 
Q 2106 4326 2410 4060 
Q 2714 3795 2714 3411 
Q 2714 3059 2531 2848 
Q 2349 2637 1856 2374 
Q 2432 1990 2640 1689 
Q 2848 1389 2848 992 
z
M 2272 3411 
Q 2272 3744 2086 3945 
Q 1901 4147 1574 4147 
Q 1248 4147 1059 3977 
Q 870 3808 870 3513 
Q 870 3219 1059 2979 
Q 1248 2739 1670 2490 
Q 1997 2682 2134 2896 
Q 2272 3110 2272 3411 
z
M 1734 1741 
L 1357 1997 
Q 1075 1766 960 1545 
Q 845 1325 845 1011 
Q 845 576 1065 333 
Q 1286 90 1658 90 
Q 1971 90 2166 285 
Q 2362 480 2362 794 
Q 2362 1082 2214 1299 
Q 2067 1517 1734 1741 
z
" transform="scale(0.015625)"/>
       </defs>
       <use xlink:href="#STIXGeneral-Regular-30"/>
       <use xlink:href="#STIXGeneral-Regular-2e" transform="translate(49.999985 0)"/>
       <use xlink:href="#STIXGeneral-Regular-38" transform="translate(74.999969 0)"/>
      </g>
     </g>
    </g>
    <g id="xtick_6">
     <g id="line2d_6">
      <g>
       <use xlink:href="#mb685dade1a" x="670.413636" y="375.3925" style="stroke: #000000; stroke-width: 0.8"/>
      </g>
     </g>
     <g id="text_6">
      <!-- 1.0 -->
      <g transform="translate(662.913636 390.588125) scale(0.12 -0.12)">
       <defs>
        <path id="STIXGeneral-Regular-31" d="M 2522 0 
L 755 0 
L 755 96 
Q 1107 115 1235 227 
Q 1363 339 1363 608 
L 1363 3482 
Q 1363 3795 1171 3795 
Q 1082 3795 883 3718 
L 710 3654 
L 710 3744 
L 1856 4326 
L 1914 4307 
L 1914 486 
Q 1914 275 2042 185 
Q 2170 96 2522 96 
L 2522 0 
z
" transform="scale(0.015625)"/>
       </defs>
       <use xlink:href="#STIXGeneral-Regular-31"/>
       <use xlink:href="#STIXGeneral-Regular-2e" transform="translate(49.999985 0)"/>
       <use xlink:href="#STIXGeneral-Regular-30" transform="translate(74.999969 0)"/>
      </g>
     </g>
    </g>
    <g id="text_7">
     <!-- $\phi_b / \pi$ (Alice angle $a = 0$) -->
     <g transform="translate(313.04 406.8525) scale(0.14 -0.14)">
      <defs>
       <path id="STIXGeneral-Italic-3d5" d="M 3078 4371 
L 2650 2822 
Q 3098 2822 3296 2746 
Q 3808 2547 3808 1939 
Q 3808 1709 3728 1446 
Q 3648 1184 3481 915 
Q 3315 646 3088 425 
Q 2861 205 2537 67 
Q 2214 -70 1850 -70 
L 1504 -1312 
L 1005 -1312 
L 1350 -70 
Q 883 -70 666 0 
Q 173 160 173 819 
Q 173 1018 256 1274 
Q 339 1530 502 1802 
Q 666 2074 886 2301 
Q 1107 2528 1417 2675 
Q 1728 2822 2061 2822 
L 2157 2822 
L 2586 4371 
L 3078 4371 
z
M 2611 2688 
L 1888 64 
Q 2125 64 2330 166 
Q 2694 352 2982 998 
Q 3270 1645 3270 2093 
Q 3270 2464 2982 2643 
Q 2906 2688 2611 2688 
z
M 1389 64 
L 2118 2688 
Q 1760 2688 1427 2365 
Q 1094 2042 902 1568 
Q 710 1094 710 646 
Q 710 237 1018 115 
Q 1152 64 1389 64 
z
" transform="scale(0.015625)"/>
       <path id="STIXGeneral-Italic-62" d="M 1043 1856 
L 1050 1856 
Q 1370 2387 1654 2604 
Q 1939 2822 2285 2822 
Q 2618 2822 2822 2617 
Q 3027 2413 3027 2054 
Q 3027 1562 2726 1062 
Q 2426 563 1942 246 
Q 1459 -70 979 -70 
Q 685 -70 416 32 
Q 147 134 147 269 
L 147 307 
L 1056 3654 
Q 1114 3885 1114 3955 
Q 1114 4058 1053 4080 
Q 992 4102 704 4115 
L 704 4224 
Q 1184 4282 1683 4371 
L 1715 4339 
L 1581 3814 
L 1043 1856 
z
M 2483 1958 
Q 2483 2509 2035 2509 
Q 1594 2509 1158 1773 
Q 954 1427 826 1008 
Q 698 589 698 294 
Q 698 77 992 77 
Q 1414 77 1779 454 
Q 2074 762 2278 1187 
Q 2483 1613 2483 1958 
z
" transform="scale(0.015625)"/>
       <path id="STIXGeneral-Regular-2f" d="M 1837 4326 
L 378 -90 
L -58 -90 
L 1408 4326 
L 1837 4326 
z
" transform="scale(0.015625)"/>
       <path id="STIXGeneral-Italic-3c0" d="M 3430 2739 
L 3296 2266 
L 2643 2266 
Q 2624 2195 2502 1782 
Q 2381 1370 2297 1072 
Q 2214 774 2214 717 
Q 2214 448 2413 448 
Q 2694 448 2867 838 
L 2970 838 
Q 2886 486 2652 208 
Q 2419 -70 2093 -70 
Q 1901 -70 1808 67 
Q 1715 205 1715 410 
Q 1715 627 1824 922 
L 2310 2266 
L 1645 2266 
Q 1568 2061 1401 1469 
Q 1235 877 1068 512 
Q 902 147 672 -38 
Q 563 -115 442 -115 
Q 314 -115 218 -32 
Q 122 51 122 166 
Q 122 429 314 480 
Q 634 563 774 928 
L 1299 2266 
L 1261 2266 
Q 973 2266 819 2208 
Q 666 2150 474 1914 
L 371 1914 
Q 640 2362 931 2550 
Q 1222 2739 1696 2739 
L 3430 2739 
z
" transform="scale(0.015625)"/>
       <path id="STIXGeneral-Regular-20" transform="scale(0.015625)"/>
       <path id="STIXGeneral-Regular-28" d="M 1946 -1030 
L 1869 -1133 
Q 1126 -710 716 32 
Q 307 774 307 1613 
Q 307 3386 1888 4326 
L 1946 4224 
Q 1293 3667 1075 3126 
Q 858 2586 858 1632 
Q 858 685 1082 96 
Q 1306 -493 1946 -1030 
z
" transform="scale(0.015625)"/>
       <path id="STIXGeneral-Regular-41" d="M 4525 0 
L 2893 0 
L 2893 122 
Q 3149 122 3245 179 
Q 3334 224 3334 333 
Q 3334 499 3213 781 
L 2950 1382 
L 1274 1382 
L 979 653 
Q 922 506 922 384 
Q 922 237 1027 179 
Q 1133 122 1370 122 
L 1370 0 
L 96 0 
L 96 122 
Q 365 147 486 316 
Q 608 486 902 1190 
L 2221 4314 
L 2349 4314 
L 3923 710 
Q 4064 378 4176 262 
Q 4288 147 4525 122 
L 4525 0 
z
M 2861 1645 
L 2118 3405 
L 1382 1645 
L 2861 1645 
z
" transform="scale(0.015625)"/>
       <path id="STIXGeneral-Regular-6c" d="M 1645 0 
L 134 0 
L 134 96 
Q 435 122 531 221 
Q 627 320 627 589 
L 627 3590 
Q 627 3821 569 3910 
Q 512 4000 358 4000 
Q 224 4000 122 3987 
L 122 4090 
Q 730 4237 1133 4371 
L 1165 4346 
L 1165 557 
Q 1165 288 1254 201 
Q 1344 115 1645 96 
L 1645 0 
z
" transform="scale(0.015625)"/>
       <path id="STIXGeneral-Regular-69" d="M 1152 4045 
Q 1152 3904 1056 3811 
Q 960 3718 819 3718 
Q 685 3718 592 3811 
Q 499 3904 499 4045 
Q 499 4179 595 4275 
Q 691 4371 826 4371 
Q 966 4371 1059 4275 
Q 1152 4179 1152 4045 
z
M 1619 0 
L 102 0 
L 102 96 
Q 435 115 521 211 
Q 608 307 608 666 
L 608 2118 
Q 608 2342 563 2432 
Q 518 2522 397 2522 
Q 243 2522 128 2490 
L 128 2592 
L 1120 2944 
L 1146 2918 
L 1146 672 
Q 1146 314 1226 218 
Q 1306 122 1619 96 
L 1619 0 
z
" transform="scale(0.015625)"/>
       <path id="STIXGeneral-Regular-63" d="M 2547 998 
L 2637 941 
Q 2362 403 2112 205 
Q 1786 -64 1376 -64 
Q 845 -64 502 336 
Q 160 736 160 1357 
Q 160 2170 698 2618 
Q 1094 2944 1562 2944 
Q 1965 2944 2256 2749 
Q 2547 2554 2547 2285 
Q 2547 2176 2457 2096 
Q 2368 2016 2246 2016 
Q 2022 2016 1939 2310 
L 1901 2451 
Q 1850 2630 1773 2694 
Q 1696 2758 1523 2758 
Q 1133 2758 893 2451 
Q 653 2144 653 1645 
Q 653 1094 928 745 
Q 1203 397 1645 397 
Q 1920 397 2118 528 
Q 2317 659 2547 998 
z
" transform="scale(0.015625)"/>
       <path id="STIXGeneral-Regular-65" d="M 2611 1050 
L 2714 1005 
Q 2330 -64 1376 -64 
Q 813 -64 486 329 
Q 160 723 160 1389 
Q 160 2074 525 2509 
Q 890 2944 1485 2944 
Q 2061 2944 2374 2502 
Q 2560 2246 2592 1773 
L 621 1773 
Q 646 1370 700 1158 
Q 755 947 915 730 
Q 1184 378 1626 378 
Q 1939 378 2153 531 
Q 2368 685 2611 1050 
z
M 634 1978 
L 1939 1978 
Q 1882 2381 1750 2547 
Q 1619 2714 1312 2714 
Q 1043 2714 864 2525 
Q 685 2336 634 1978 
z
" transform="scale(0.015625)"/>
       <path id="STIXGeneral-Regular-61" d="M 2829 422 
L 2829 243 
Q 2586 -64 2253 -64 
Q 1888 -64 1843 403 
L 1837 403 
Q 1427 -64 909 -64 
Q 608 -64 422 112 
Q 237 288 237 602 
Q 237 1050 685 1350 
Q 992 1555 1837 1869 
L 1837 2214 
Q 1837 2502 1699 2646 
Q 1562 2790 1338 2790 
Q 1146 2790 1018 2697 
Q 890 2605 890 2477 
Q 890 2419 909 2348 
Q 928 2278 928 2208 
Q 928 2112 841 2029 
Q 755 1946 634 1946 
Q 525 1946 441 2029 
Q 358 2112 358 2240 
Q 358 2547 685 2752 
Q 986 2944 1421 2944 
Q 1939 2944 2176 2656 
Q 2291 2522 2323 2384 
Q 2355 2246 2355 1946 
L 2355 723 
Q 2355 301 2554 301 
Q 2682 301 2829 422 
z
M 1837 813 
L 1837 1715 
Q 1248 1510 1018 1293 
Q 800 1094 800 800 
Q 800 557 921 432 
Q 1043 307 1242 307 
Q 1453 307 1613 410 
Q 1747 506 1792 589 
Q 1837 672 1837 813 
z
" transform="scale(0.015625)"/>
       <path id="STIXGeneral-Regular-6e" d="M 3104 0 
L 1773 0 
L 1779 96 
Q 2016 115 2096 233 
Q 2176 352 2176 672 
L 2176 1946 
Q 2176 2592 1709 2592 
Q 1549 2592 1408 2515 
Q 1267 2438 1050 2227 
L 1050 461 
Q 1050 269 1136 192 
Q 1222 115 1466 96 
L 1466 0 
L 115 0 
L 115 96 
Q 358 115 435 214 
Q 512 314 512 602 
L 512 2157 
Q 512 2394 467 2483 
Q 422 2573 288 2573 
Q 160 2573 102 2547 
L 102 2656 
Q 550 2784 979 2944 
L 1030 2925 
L 1030 2426 
L 1037 2426 
Q 1491 2944 1958 2944 
Q 2323 2944 2518 2688 
Q 2714 2432 2714 1958 
L 2714 544 
Q 2714 288 2790 205 
Q 2867 122 3104 96 
L 3104 0 
z
" transform="scale(0.015625)"/>
       <path id="STIXGeneral-Regular-67" d="M 3008 2483 
L 2477 2483 
Q 2598 2208 2598 1946 
Q 2598 1453 2265 1203 
Q 1933 954 1600 954 
Q 1530 954 1357 973 
L 1235 986 
Q 1107 947 979 812 
Q 851 678 851 582 
Q 851 435 1350 410 
L 2176 371 
Q 2528 358 2739 172 
Q 2950 -13 2950 -314 
Q 2950 -685 2566 -986 
Q 2035 -1395 1286 -1395 
Q 826 -1395 502 -1212 
Q 179 -1030 179 -774 
Q 179 -595 320 -419 
Q 461 -243 806 6 
Q 602 102 534 172 
Q 467 243 467 346 
Q 467 531 762 787 
Q 909 915 1037 1043 
Q 717 1203 579 1401 
Q 442 1600 442 1901 
Q 442 2336 752 2640 
Q 1062 2944 1510 2944 
Q 1766 2944 2022 2848 
L 2163 2797 
Q 2349 2733 2515 2733 
L 3008 2733 
L 3008 2483 
z
M 973 2163 
L 973 2144 
Q 973 1683 1155 1398 
Q 1338 1114 1632 1114 
Q 1850 1114 1978 1270 
Q 2106 1427 2106 1690 
Q 2106 2112 1914 2464 
Q 1754 2765 1446 2765 
Q 1222 2765 1097 2605 
Q 973 2445 973 2163 
z
M 2771 -410 
Q 2771 -230 2595 -163 
Q 2419 -96 1978 -96 
Q 1344 -96 941 -13 
Q 749 -243 688 -348 
Q 627 -454 627 -563 
Q 627 -774 880 -902 
Q 1133 -1030 1555 -1030 
Q 2099 -1030 2435 -860 
Q 2771 -691 2771 -410 
z
" transform="scale(0.015625)"/>
       <path id="STIXGeneral-Italic-61" d="M 2963 710 
L 3046 640 
Q 2688 205 2518 70 
Q 2349 -64 2157 -64 
Q 1901 -64 1901 198 
Q 1901 358 2048 934 
Q 1690 397 1389 163 
Q 1088 -70 749 -70 
Q 467 -70 288 125 
Q 109 320 109 672 
Q 109 1158 387 1664 
Q 666 2170 1094 2496 
Q 1523 2822 1939 2822 
Q 2368 2822 2451 2451 
L 2522 2758 
L 2541 2778 
L 2931 2822 
L 2976 2803 
Q 2970 2778 2938 2669 
Q 2368 595 2368 346 
Q 2368 262 2458 262 
Q 2554 262 2790 525 
L 2963 710 
z
M 2336 2310 
Q 2336 2477 2240 2579 
Q 2144 2682 1978 2682 
Q 1542 2682 1139 2093 
Q 928 1779 787 1395 
Q 646 1011 646 717 
Q 646 243 1030 243 
Q 1408 243 1843 870 
Q 2336 1581 2336 2310 
z
" transform="scale(0.015625)"/>
       <path id="STIXGeneral-Regular-3d" d="M 4077 2048 
L 307 2048 
L 307 2470 
L 4077 2470 
L 4077 2048 
z
M 4077 768 
L 307 768 
L 307 1190 
L 4077 1190 
L 4077 768 
z
" transform="scale(0.015625)"/>
       <path id="STIXGeneral-Regular-29" d="M 186 4224 
L 262 4326 
Q 992 3891 1408 3148 
Q 1824 2406 1824 1581 
Q 1824 -166 243 -1133 
L 186 -1030 
Q 845 -486 1059 54 
Q 1274 595 1274 1562 
Q 1274 2534 1059 3120 
Q 845 3706 186 4224 
z
" transform="scale(0.015625)"/>
      </defs>
      <use xlink:href="#STIXGeneral-Italic-3d5" transform="translate(0 0.703125)"/>
      <use xlink:href="#STIXGeneral-Italic-62" transform="translate(62.699997 -12.525) scale(0.7)"/>
      <use xlink:href="#STIXGeneral-Regular-2f" transform="translate(102.109361 0.703125)"/>
      <use xlink:href="#STIXGeneral-Italic-3c0" transform="translate(129.909349 0.703125)"/>
      <use xlink:href="#STIXGeneral-Regular-20" transform="translate(180.309343 0.703125)"/>
      <use xlink:href="#STIXGeneral-Regular-28" transform="translate(205.309328 0.703125)"/>
      <use xlink:href="#STIXGeneral-Regular-41" transform="translate(238.609315 0.703125)"/>
      <use xlink:href="#STIXGeneral-Regular-6c" transform="translate(310.809297 0.703125)"/>
      <use xlink:href="#STIXGeneral-Regular-69" transform="translate(338.609285 0.703125)"/>
      <use xlink:href="#STIXGeneral-Regular-63" transform="translate(366.409273 0.703125)"/>
      <use xlink:href="#STIXGeneral-Regular-65" transform="translate(410.809267 0.703125)"/>
      <use xlink:href="#STIXGeneral-Regular-20" transform="translate(455.209261 0.703125)"/>
      <use xlink:href="#STIXGeneral-Regular-61" transform="translate(480.209245 0.703125)"/>
      <use xlink:href="#STIXGeneral-Regular-6e" transform="translate(524.609239 0.703125)"/>
      <use xlink:href="#STIXGeneral-Regular-67" transform="translate(574.609224 0.703125)"/>
      <use xlink:href="#STIXGeneral-Regular-6c" transform="translate(624.609209 0.703125)"/>
      <use xlink:href="#STIXGeneral-Regular-65" transform="translate(652.409196 0.703125)"/>
      <use xlink:href="#STIXGeneral-Regular-20" transform="translate(696.80919 0.703125)"/>
      <use xlink:href="#STIXGeneral-Italic-61" transform="translate(721.809175 0.703125)"/>
      <use xlink:href="#STIXGeneral-Regular-3d" transform="translate(786.349162 0.703125)"/>
      <use xlink:href="#STIXGeneral-Regular-30" transform="translate(869.289143 0.703125)"/>
      <use xlink:href="#STIXGeneral-Regular-29" transform="translate(919.289128 0.703125)"/>
     </g>
    </g>
   </g>
   <g id="matplotlib.axis_2">
    <g id="ytick_1">
     <g id="line2d_7">
      <defs>
       <path id="ma48332fd41" d="M 0 0 
L -3.5 0 
" style="stroke: #000000; stroke-width: 0.8"/>
      </defs>
      <g>
       <use xlink:href="#ma48332fd41" x="60.02" y="359.387386" style="stroke: #000000; stroke-width: 0.8"/>
      </g>
     </g>
     <g id="text_8">
      <!-- −1.00 -->
      <g transform="translate(23.8 363.485199) scale(0.12 -0.12)">
       <defs>
        <path id="STIXGeneral-Regular-2212" d="M 3974 1408 
L 410 1408 
L 410 1830 
L 3974 1830 
L 3974 1408 
z
" transform="scale(0.015625)"/>
       </defs>
       <use xlink:href="#STIXGeneral-Regular-2212"/>
       <use xlink:href="#STIXGeneral-Regular-31" transform="translate(68.499985 0)"/>
       <use xlink:href="#STIXGeneral-Regular-2e" transform="translate(118.499969 0)"/>
       <use xlink:href="#STIXGeneral-Regular-30" transform="translate(143.499954 0)"/>
       <use xlink:href="#STIXGeneral-Regular-30" transform="translate(193.499939 0)"/>
      </g>
     </g>
    </g>
    <g id="ytick_2">
     <g id="line2d_8">
      <g>
       <use xlink:href="#ma48332fd41" x="60.02" y="319.373498" style="stroke: #000000; stroke-width: 0.8"/>
      </g>
     </g>
     <g id="text_9">
      <!-- −0.75 -->
      <g transform="translate(23.8 323.47131) scale(0.12 -0.12)">
       <defs>
        <path id="STIXGeneral-Regular-37" d="M 2874 4134 
L 1517 -51 
L 1101 -51 
L 2368 3763 
L 992 3763 
Q 717 3763 582 3667 
Q 448 3571 243 3238 
L 128 3296 
L 512 4237 
L 2874 4237 
L 2874 4134 
z
" transform="scale(0.015625)"/>
        <path id="STIXGeneral-Regular-35" d="M 2803 4358 
L 2573 3814 
Q 2534 3731 2400 3731 
L 1158 3731 
L 902 3187 
Q 1606 3053 1920 2896 
Q 2234 2739 2502 2368 
Q 2726 2061 2726 1555 
Q 2726 1094 2576 780 
Q 2426 467 2099 224 
Q 1664 -90 1011 -90 
Q 646 -90 422 19 
Q 198 128 198 307 
Q 198 550 486 550 
Q 717 550 960 352 
Q 1210 147 1414 147 
Q 1747 147 2012 480 
Q 2278 813 2278 1229 
Q 2278 1843 1850 2189 
Q 1293 2637 486 2637 
Q 410 2637 410 2688 
L 416 2720 
L 1114 4237 
L 2438 4237 
Q 2547 4237 2608 4269 
Q 2669 4301 2746 4403 
L 2803 4358 
z
" transform="scale(0.015625)"/>
       </defs>
       <use xlink:href="#STIXGeneral-Regular-2212"/>
       <use xlink:href="#STIXGeneral-Regular-30" transform="translate(68.499985 0)"/>
       <use xlink:href="#STIXGeneral-Regular-2e" transform="translate(118.499969 0)"/>
       <use xlink:href="#STIXGeneral-Regular-37" transform="translate(143.499954 0)"/>
       <use xlink:href="#STIXGeneral-Regular-35" transform="translate(193.499939 0)"/>
      </g>
     </g>
    </g>
    <g id="ytick_3">
     <g id="line2d_9">
      <g>
       <use xlink:href="#ma48332fd41" x="60.02" y="279.359609" style="stroke: #000000; stroke-width: 0.8"/>
      </g>
     </g>
     <g id="text_10">
      <!-- −0.50 -->
      <g transform="translate(23.8 283.457422) scale(0.12 -0.12)">
       <use xlink:href="#STIXGeneral-Regular-2212"/>
       <use xlink:href="#STIXGeneral-Regular-30" transform="translate(68.499985 0)"/>
       <use xlink:href="#STIXGeneral-Regular-2e" transform="translate(118.499969 0)"/>
       <use xlink:href="#STIXGeneral-Regular-35" transform="translate(143.499954 0)"/>
       <use xlink:href="#STIXGeneral-Regular-30" transform="translate(193.499939 0)"/>
      </g>
     </g>
    </g>
    <g id="ytick_4">
     <g id="line2d_10">
      <g>
       <use xlink:href="#ma48332fd41" x="60.02" y="239.345721" style="stroke: #000000; stroke-width: 0.8"/>
      </g>
     </g>
     <g id="text_11">
      <!-- −0.25 -->
      <g transform="translate(23.8 243.443534) scale(0.12 -0.12)">
       <use xlink:href="#STIXGeneral-Regular-2212"/>
       <use xlink:href="#STIXGeneral-Regular-30" transform="translate(68.499985 0)"/>
       <use xlink:href="#STIXGeneral-Regular-2e" transform="translate(118.499969 0)"/>
       <use xlink:href="#STIXGeneral-Regular-32" transform="translate(143.499954 0)"/>
       <use xlink:href="#STIXGeneral-Regular-35" transform="translate(193.499939 0)"/>
      </g>
     </g>
    </g>
    <g id="ytick_5">
     <g id="line2d_11">
      <g>
       <use xlink:href="#ma48332fd41" x="60.02" y="199.331833" style="stroke: #000000; stroke-width: 0.8"/>
      </g>
     </g>
     <g id="text_12">
      <!-- 0.00 -->
      <g transform="translate(32.02 203.429645) scale(0.12 -0.12)">
       <use xlink:href="#STIXGeneral-Regular-30"/>
       <use xlink:href="#STIXGeneral-Regular-2e" transform="translate(49.999985 0)"/>
       <use xlink:href="#STIXGeneral-Regular-30" transform="translate(74.999969 0)"/>
       <use xlink:href="#STIXGeneral-Regular-30" transform="translate(124.999954 0)"/>
      </g>
     </g>
    </g>
    <g id="ytick_6">
     <g id="line2d_12">
      <g>
       <use xlink:href="#ma48332fd41" x="60.02" y="159.317944" style="stroke: #000000; stroke-width: 0.8"/>
      </g>
     </g>
     <g id="text_13">
      <!-- 0.25 -->
      <g transform="translate(32.02 163.415757) scale(0.12 -0.12)">
       <use xlink:href="#STIXGeneral-Regular-30"/>
       <use xlink:href="#STIXGeneral-Regular-2e" transform="translate(49.999985 0)"/>
       <use xlink:href="#STIXGeneral-Regular-32" transform="translate(74.999969 0)"/>
       <use xlink:href="#STIXGeneral-Regular-35" transform="translate(124.999954 0)"/>
      </g>
     </g>
    </g>
    <g id="ytick_7">
     <g id="line2d_13">
      <g>
       <use xlink:href="#ma48332fd41" x="60.02" y="119.304056" style="stroke: #000000; stroke-width: 0.8"/>
      </g>
     </g>
     <g id="text_14">
      <!-- 0.50 -->
      <g transform="translate(32.02 123.401868) scale(0.12 -0.12)">
       <use xlink:href="#STIXGeneral-Regular-30"/>
       <use xlink:href="#STIXGeneral-Regular-2e" transform="translate(49.999985 0)"/>
       <use xlink:href="#STIXGeneral-Regular-35" transform="translate(74.999969 0)"/>
       <use xlink:href="#STIXGeneral-Regular-30" transform="translate(124.999954 0)"/>
      </g>
     </g>
    </g>
    <g id="ytick_8">
     <g id="line2d_14">
      <g>
       <use xlink:href="#ma48332fd41" x="60.02" y="79.290167" style="stroke: #000000; stroke-width: 0.8"/>
      </g>
     </g>
     <g id="text_15">
      <!-- 0.75 -->
      <g transform="translate(32.02 83.38798) scale(0.12 -0.12)">
       <use xlink:href="#STIXGeneral-Regular-30"/>
       <use xlink:href="#STIXGeneral-Regular-2e" transform="translate(49.999985 0)"/>
       <use xlink:href="#STIXGeneral-Regular-37" transform="translate(74.999969 0)"/>
       <use xlink:href="#STIXGeneral-Regular-35" transform="translate(124.999954 0)"/>
      </g>
     </g>
    </g>
    <g id="ytick_9">
     <g id="line2d_15">
      <g>
       <use xlink:href="#ma48332fd41" x="60.02" y="39.276279" style="stroke: #000000; stroke-width: 0.8"/>
      </g>
     </g>
     <g id="text_16">
      <!-- 1.00 -->
      <g transform="translate(32.02 43.374091) scale(0.12 -0.12)">
       <use xlink:href="#STIXGeneral-Regular-31"/>
       <use xlink:href="#STIXGeneral-Regular-2e" transform="translate(49.999985 0)"/>
       <use xlink:href="#STIXGeneral-Regular-30" transform="translate(74.999969 0)"/>
       <use xlink:href="#STIXGeneral-Regular-30" transform="translate(124.999954 0)"/>
      </g>
     </g>
    </g>
    <g id="text_17">
     <!-- Correlation $E(a, b)$ -->
     <g transform="translate(16.761563 251.69625) rotate(-90) scale(0.14 -0.14)">
      <defs>
       <path id="STIXGeneral-Regular-43" d="M 3930 838 
L 4051 723 
Q 3482 -90 2304 -90 
Q 1376 -90 794 480 
Q 179 1082 179 2080 
Q 179 3014 755 3661 
Q 1357 4326 2310 4326 
Q 2720 4326 3072 4230 
Q 3475 4115 3514 4115 
Q 3725 4115 3782 4326 
L 3910 4326 
L 3968 2874 
L 3821 2874 
Q 3718 3334 3488 3584 
Q 3034 4070 2458 4070 
Q 1747 4070 1334 3548 
Q 922 3027 922 2182 
Q 922 1152 1382 653 
Q 1811 192 2522 192 
Q 2944 192 3251 339 
Q 3558 486 3930 838 
z
" transform="scale(0.015625)"/>
       <path id="STIXGeneral-Regular-6f" d="M 3008 1478 
Q 3008 806 2608 371 
Q 2208 -64 1568 -64 
Q 979 -64 582 368 
Q 186 800 186 1459 
Q 186 2125 582 2534 
Q 979 2944 1626 2944 
Q 2221 2944 2614 2537 
Q 3008 2131 3008 1478 
z
M 2432 1306 
Q 2432 2035 2112 2445 
Q 1856 2765 1504 2765 
Q 1171 2765 966 2493 
Q 762 2221 762 1747 
Q 762 928 1101 435 
Q 1318 115 1677 115 
Q 2029 115 2230 432 
Q 2432 749 2432 1306 
z
" transform="scale(0.015625)"/>
       <path id="STIXGeneral-Regular-72" d="M 1024 2931 
L 1024 2342 
Q 1267 2688 1430 2816 
Q 1594 2944 1792 2944 
Q 1958 2944 2051 2854 
Q 2144 2765 2144 2605 
Q 2144 2470 2077 2393 
Q 2010 2317 1894 2317 
Q 1773 2317 1638 2445 
Q 1536 2541 1472 2541 
Q 1338 2541 1181 2355 
Q 1024 2170 1024 2016 
L 1024 576 
Q 1024 301 1133 205 
Q 1242 109 1568 96 
L 1568 0 
L 32 0 
L 32 96 
Q 339 154 412 224 
Q 486 294 486 538 
L 486 2138 
Q 486 2349 438 2435 
Q 390 2522 269 2522 
Q 166 2522 45 2496 
L 45 2598 
Q 448 2726 992 2944 
L 1024 2931 
z
" transform="scale(0.015625)"/>
       <path id="STIXGeneral-Regular-74" d="M 1702 493 
L 1786 422 
Q 1478 -64 1011 -64 
Q 448 -64 448 749 
L 448 2675 
L 109 2675 
Q 83 2694 83 2720 
Q 83 2771 192 2842 
Q 435 2982 813 3526 
Q 826 3546 874 3606 
Q 922 3667 941 3706 
Q 986 3706 986 3622 
L 986 2880 
L 1632 2880 
L 1632 2675 
L 986 2675 
L 986 845 
Q 986 538 1062 403 
Q 1139 269 1318 269 
Q 1510 269 1702 493 
z
" transform="scale(0.015625)"/>
       <path id="STIXGeneral-Italic-45" d="M 4058 4179 
L 3859 3194 
L 3718 3206 
Q 3738 3366 3738 3501 
Q 3738 3789 3501 3878 
Q 3264 3968 2509 3968 
Q 2240 3968 2157 3939 
Q 2074 3910 2042 3802 
L 1619 2310 
L 2118 2310 
Q 2541 2310 2681 2412 
Q 2822 2515 3008 2931 
L 3123 2906 
L 2688 1421 
L 2560 1453 
Q 2605 1651 2605 1786 
Q 2605 1939 2560 1984 
Q 2451 2080 2061 2080 
L 1562 2080 
L 1357 1363 
Q 1126 550 1126 429 
Q 1126 211 1632 211 
Q 2458 211 2931 461 
Q 3174 589 3533 1088 
L 3635 1037 
L 3238 0 
L -6 0 
L -6 102 
Q 269 154 352 227 
Q 435 301 512 576 
L 1299 3405 
Q 1370 3642 1370 3814 
Q 1370 3942 1270 3996 
Q 1171 4051 877 4077 
L 877 4179 
L 4058 4179 
z
" transform="scale(0.015625)"/>
       <path id="STIXGeneral-Regular-2c" d="M 531 -902 
L 467 -781 
Q 998 -422 998 -96 
Q 998 -13 909 -13 
Q 883 -13 822 -25 
Q 762 -38 723 -38 
Q 352 -38 352 288 
Q 352 454 457 553 
Q 563 653 736 653 
Q 954 653 1101 496 
Q 1248 339 1248 96 
Q 1248 -198 1053 -473 
Q 858 -749 531 -902 
z
" transform="scale(0.015625)"/>
      </defs>
      <use xlink:href="#STIXGeneral-Regular-43" transform="translate(0 0.703125)"/>
      <use xlink:href="#STIXGeneral-Regular-6f" transform="translate(66.699997 0.703125)"/>
      <use xlink:href="#STIXGeneral-Regular-72" transform="translate(116.699982 0.703125)"/>
      <use xlink:href="#STIXGeneral-Regular-72" transform="translate(149.999969 0.703125)"/>
      <use xlink:href="#STIXGeneral-Regular-65" transform="translate(183.299957 0.703125)"/>
      <use xlink:href="#STIXGeneral-Regular-6c" transform="translate(227.699951 0.703125)"/>
      <use xlink:href="#STIXGeneral-Regular-61" transform="translate(255.499939 0.703125)"/>
      <use xlink:href="#STIXGeneral-Regular-74" transform="translate(299.899933 0.703125)"/>
      <use xlink:href="#STIXGeneral-Regular-69" transform="translate(327.699921 0.703125)"/>
      <use xlink:href="#STIXGeneral-Regular-6f" transform="translate(355.499908 0.703125)"/>
      <use xlink:href="#STIXGeneral-Regular-6e" transform="translate(405.499893 0.703125)"/>
      <use xlink:href="#STIXGeneral-Regular-20" transform="translate(455.499878 0.703125)"/>
      <use xlink:href="#STIXGeneral-Italic-45" transform="translate(480.499863 0.703125)"/>
      <use xlink:href="#STIXGeneral-Regular-28" transform="translate(541.599854 0.703125)"/>
      <use xlink:href="#STIXGeneral-Italic-61" transform="translate(574.899841 0.703125)"/>
      <use xlink:href="#STIXGeneral-Regular-2c" transform="translate(624.999832 0.703125)"/>
      <use xlink:href="#STIXGeneral-Italic-62" transform="translate(664.439813 0.703125)"/>
      <use xlink:href="#STIXGeneral-Regular-29" transform="translate(714.439798 0.703125)"/>
     </g>
    </g>
   </g>
   <g id="line2d_16">
    <path d="M 89.086364 359.387386 
L 92.97484 359.24605 
L 96.863317 358.82229 
L 100.751794 358.116856 
L 104.640271 357.130992 
L 108.528747 355.86644 
L 112.417224 354.325434 
L 116.305701 352.510695 
L 120.194178 350.425428 
L 124.082654 348.073315 
L 127.971131 345.458512 
L 131.859608 342.585635 
L 135.748085 339.459759 
L 139.636561 336.086404 
L 143.525038 332.471527 
L 147.413515 328.621514 
L 151.301991 324.543163 
L 157.134707 318.013367 
L 162.967422 311.012052 
L 168.800137 303.567034 
L 174.632852 295.707892 
L 180.465567 287.46585 
L 186.298282 278.873654 
L 194.075236 266.931892 
L 201.852189 254.51279 
L 209.629143 241.704041 
L 219.350334 225.283164 
L 234.904241 198.490985 
L 252.402387 168.415864 
L 262.123579 152.11637 
L 269.900532 139.443273 
L 277.677486 127.193065 
L 283.510201 118.335095 
L 289.342916 109.798923 
L 295.175631 101.618463 
L 301.008346 93.826217 
L 306.841061 86.453141 
L 312.673776 79.52853 
L 318.506491 73.079895 
L 322.394968 69.057969 
L 326.283445 65.266118 
L 330.171922 61.71104 
L 334.060398 58.399013 
L 337.948875 55.335886 
L 341.837352 52.52707 
L 345.725829 49.977524 
L 349.614305 47.691752 
L 353.502782 45.67379 
L 357.391259 43.927202 
L 361.279735 42.455074 
L 365.168212 41.260004 
L 369.056689 40.344104 
L 372.945166 39.70899 
L 376.833642 39.355786 
L 380.722119 39.285114 
L 384.610596 39.497099 
L 388.499073 39.991367 
L 392.387549 40.767045 
L 396.276026 41.822763 
L 400.164503 43.156657 
L 404.05298 44.76637 
L 407.941456 46.649061 
L 411.829933 48.801403 
L 415.71841 51.219596 
L 419.606887 53.899369 
L 423.495363 56.835989 
L 427.38384 60.02427 
L 431.272317 63.45858 
L 435.160794 67.132856 
L 439.04927 71.040607 
L 442.937747 75.174932 
L 448.770462 81.785169 
L 454.603177 88.862415 
L 460.435892 96.378553 
L 466.268607 104.303723 
L 472.101323 112.606437 
L 477.934038 121.253709 
L 485.710991 133.259825 
L 493.487945 145.732491 
L 503.209137 161.844974 
L 514.874567 181.709744 
L 547.926619 238.45152 
L 557.647811 254.51279 
L 565.424764 266.931892 
L 573.201718 278.873654 
L 579.034433 287.46585 
L 584.867148 295.707892 
L 590.699863 303.567034 
L 596.532578 311.012052 
L 602.365293 318.013367 
L 608.198009 324.543163 
L 612.086485 328.621514 
L 615.974962 332.471527 
L 619.863439 336.086404 
L 623.751915 339.459759 
L 627.640392 342.585635 
L 631.528869 345.458512 
L 635.417346 348.073315 
L 639.305822 350.425428 
L 643.194299 352.510695 
L 647.082776 354.325434 
L 650.971253 355.86644 
L 654.859729 357.130992 
L 658.748206 358.116856 
L 662.636683 358.82229 
L 666.52516 359.24605 
L 670.413636 359.387386 
L 670.413636 359.387386 
" clip-path="url(#p2f6e0210d3)" style="fill: none; stroke: #0000ff; stroke-width: 2; stroke-linecap: square"/>
   </g>
   <g id="line2d_17">
    <path d="M 89.086364 359.387386 
L 92.97484 359.24605 
L 96.863317 358.82229 
L 100.751794 358.116856 
L 104.640271 357.130992 
L 108.528747 355.86644 
L 112.417224 354.325434 
L 116.305701 352.510695 
L 120.194178 350.425428 
L 124.082654 348.073315 
L 127.971131 345.458512 
L 131.859608 342.585635 
L 135.748085 339.459759 
L 139.636561 336.086404 
L 143.525038 332.471527 
L 147.413515 328.621514 
L 151.301991 324.543163 
L 157.134707 318.013367 
L 162.967422 311.012052 
L 168.800137 303.567034 
L 174.632852 295.707892 
L 180.465567 287.46585 
L 186.298282 278.873654 
L 194.075236 266.931892 
L 201.852189 254.51279 
L 209.629143 241.704041 
L 219.350334 225.283164 
L 234.904241 198.490985 
L 252.402387 168.415864 
L 262.123579 152.11637 
L 269.900532 139.443273 
L 277.677486 127.193065 
L 283.510201 118.335095 
L 289.342916 109.798923 
L 295.175631 101.618463 
L 301.008346 93.826217 
L 306.841061 86.453141 
L 312.673776 79.52853 
L 318.506491 73.079895 
L 322.394968 69.057969 
L 326.283445 65.266118 
L 330.171922 61.71104 
L 334.060398 58.399013 
L 337.948875 55.335886 
L 341.837352 52.52707 
L 345.725829 49.977524 
L 349.614305 47.691752 
L 353.502782 45.67379 
L 357.391259 43.927202 
L 361.279735 42.455074 
L 365.168212 41.260004 
L 369.056689 40.344104 
L 372.945166 39.70899 
L 376.833642 39.355786 
L 380.722119 39.285114 
L 384.610596 39.497099 
L 388.499073 39.991367 
L 392.387549 40.767045 
L 396.276026 41.822763 
L 400.164503 43.156657 
L 404.05298 44.76637 
L 407.941456 46.649061 
L 411.829933 48.801403 
L 415.71841 51.219596 
L 419.606887 53.899369 
L 423.495363 56.835989 
L 427.38384 60.02427 
L 431.272317 63.45858 
L 435.160794 67.132856 
L 439.04927 71.040607 
L 442.937747 75.174932 
L 448.770462 81.785169 
L 454.603177 88.862415 
L 460.435892 96.378553 
L 466.268607 104.303723 
L 472.101323 112.606437 
L 477.934038 121.253709 
L 485.710991 133.259825 
L 493.487945 145.732491 
L 503.209137 161.844974 
L 514.874567 181.709744 
L 547.926619 238.45152 
L 557.647811 254.51279 
L 565.424764 266.931892 
L 573.201718 278.873654 
L 579.034433 287.46585 
L 584.867148 295.707892 
L 590.699863 303.567034 
L 596.532578 311.012052 
L 602.365293 318.013367 
L 608.198009 324.543163 
L 612.086485 328.621514 
L 615.974962 332.471527 
L 619.863439 336.086404 
L 623.751915 339.459759 
L 627.640392 342.585635 
L 631.528869 345.458512 
L 635.417346 348.073315 
L 639.305822 350.425428 
L 643.194299 352.510695 
L 647.082776 354.325434 
L 650.971253 355.86644 
L 654.859729 357.130992 
L 658.748206 358.116856 
L 662.636683 358.82229 
L 666.52516 359.24605 
L 670.413636 359.387386 
L 670.413636 359.387386 
" clip-path="url(#p2f6e0210d3)" style="fill: none; stroke-dasharray: 5.55,2.4; stroke-dashoffset: 0; stroke: #ff0000; stroke-width: 1.5"/>
   </g>
   <g id="line2d_18">
    <path d="M 60.02 199.331833 
L 699.48 199.331833 
" clip-path="url(#p2f6e0210d3)" style="fill: none; stroke: #808080; stroke-width: 0.5; stroke-linecap: square"/>
   </g>
   <g id="patch_3">
    <path d="M 60.02 375.3925 
L 60.02 23.28 
" style="fill: none; stroke: #000000; stroke-width: 0.8; stroke-linejoin: miter; stroke-linecap: square"/>
   </g>
   <g id="patch_4">
    <path d="M 699.48 375.3925 
L 699.48 23.28 
" style="fill: none; stroke: #000000; stroke-width: 0.8; stroke-linejoin: miter; stroke-linecap: square"/>
   </g>
   <g id="patch_5">
    <path d="M 60.02 375.3925 
L 699.48 375.3925 
" style="fill: none; stroke: #000000; stroke-width: 0.8; stroke-linejoin: miter; stroke-linecap: square"/>
   </g>
   <g id="patch_6">
    <path d="M 60.02 23.28 
L 699.48 23.28 
" style="fill: none; stroke: #000000; stroke-width: 0.8; stroke-linejoin: miter; stroke-linecap: square"/>
   </g>
   <g id="text_18">
    <!-- Correlation Function $E(a,b)$ for $|\Psi^-\rangle$ -->
    <g transform="translate(274.47 17.28) scale(0.14 -0.14)">
     <defs>
      <path id="STIXGeneral-Regular-46" d="M 3494 3322 
L 3334 3322 
Q 3264 3757 3094 3875 
Q 2925 3994 2349 3994 
L 1504 3994 
Q 1370 3994 1328 3946 
Q 1286 3898 1286 3744 
L 1286 2355 
L 2195 2355 
Q 2598 2355 2736 2470 
Q 2874 2586 2918 2963 
L 3066 2963 
L 3066 1472 
L 2918 1472 
Q 2880 1862 2745 1977 
Q 2611 2093 2195 2093 
L 1286 2093 
L 1286 717 
Q 1286 352 1392 246 
Q 1498 141 1869 122 
L 1869 0 
L 70 0 
L 70 122 
Q 435 147 534 259 
Q 634 371 634 787 
L 634 3526 
Q 634 3878 538 3984 
Q 442 4090 77 4115 
L 77 4237 
L 3462 4237 
L 3494 3322 
z
" transform="scale(0.015625)"/>
      <path id="STIXGeneral-Regular-75" d="M 3072 320 
L 3072 230 
Q 2573 96 2195 -58 
L 2163 -38 
L 2163 486 
L 2150 486 
Q 1747 -64 1235 -64 
Q 870 -64 662 160 
Q 454 384 454 755 
L 454 2362 
Q 454 2598 371 2688 
Q 288 2778 58 2790 
L 58 2880 
L 992 2880 
L 992 813 
Q 992 595 1123 451 
Q 1254 307 1446 307 
Q 1760 307 1984 506 
Q 2067 582 2099 649 
Q 2131 717 2131 877 
L 2131 2355 
Q 2131 2605 2041 2678 
Q 1952 2752 1658 2771 
L 1658 2880 
L 2669 2880 
L 2669 685 
Q 2669 461 2742 390 
Q 2816 320 3034 320 
L 3072 320 
z
" transform="scale(0.015625)"/>
      <path id="STIXGeneral-Regular-66" d="M 134 2880 
L 659 2880 
Q 666 3264 710 3478 
Q 755 3693 883 3910 
Q 1152 4371 1786 4371 
Q 2074 4371 2262 4259 
Q 2451 4147 2451 3974 
Q 2451 3866 2374 3789 
Q 2298 3712 2182 3712 
Q 2029 3712 1894 3942 
Q 1741 4192 1555 4192 
Q 1197 4192 1197 3622 
L 1197 2880 
L 1978 2880 
L 1978 2675 
L 1197 2675 
L 1197 666 
Q 1197 307 1299 208 
Q 1402 109 1792 96 
L 1792 0 
L 128 0 
L 128 96 
Q 474 115 566 214 
Q 659 314 659 666 
L 659 2675 
L 134 2675 
L 134 2880 
z
" transform="scale(0.015625)"/>
      <path id="STIXGeneral-Regular-7c" d="M 851 -90 
L 429 -90 
L 429 4326 
L 851 4326 
L 851 -90 
z
" transform="scale(0.015625)"/>
      <path id="STIXGeneral-Regular-3a8" d="M 4634 4416 
L 4634 4294 
Q 4467 4262 4400 4054 
Q 4333 3846 4333 3629 
Q 4333 3533 4345 3341 
Q 4358 3149 4358 3053 
Q 4358 2598 4118 2291 
Q 3878 1984 3520 1856 
Q 3162 1728 2714 1728 
L 2714 710 
Q 2714 339 2851 236 
Q 2989 134 3373 122 
L 3373 0 
L 1414 0 
L 1414 122 
Q 1830 141 1945 259 
Q 2061 378 2061 794 
L 2061 1728 
Q 1613 1728 1254 1856 
Q 896 1984 656 2291 
Q 416 2598 416 3053 
Q 416 3149 429 3341 
Q 442 3533 442 3629 
Q 442 3846 374 4054 
Q 307 4262 141 4294 
L 141 4416 
Q 1133 4416 1133 3258 
Q 1133 3046 1145 2886 
Q 1158 2726 1212 2544 
Q 1267 2362 1353 2243 
Q 1440 2125 1603 2045 
Q 1766 1965 1990 1965 
L 2061 1965 
L 2061 3597 
Q 2061 3910 1904 4012 
Q 1747 4115 1414 4115 
L 1414 4237 
L 3373 4237 
L 3373 4115 
Q 3027 4115 2870 4019 
Q 2714 3923 2714 3597 
L 2714 1965 
L 2784 1965 
Q 3008 1965 3171 2045 
Q 3334 2125 3420 2243 
Q 3507 2362 3561 2544 
Q 3616 2726 3629 2886 
Q 3642 3046 3642 3258 
Q 3642 4416 4634 4416 
z
" transform="scale(0.015625)"/>
      <path id="STIXGeneral-Regular-27e9" d="M 2067 1536 
L 749 -1363 
L 416 -1363 
L 1645 1600 
L 422 4563 
L 755 4563 
L 2067 1664 
L 2067 1536 
z
" transform="scale(0.015625)"/>
     </defs>
     <use xlink:href="#STIXGeneral-Regular-43" transform="translate(0 0.703125)"/>
     <use xlink:href="#STIXGeneral-Regular-6f" transform="translate(66.699997 0.703125)"/>
     <use xlink:href="#STIXGeneral-Regular-72" transform="translate(116.699982 0.703125)"/>
     <use xlink:href="#STIXGeneral-Regular-72" transform="translate(149.999969 0.703125)"/>
     <use xlink:href="#STIXGeneral-Regular-65" transform="translate(183.299957 0.703125)"/>
     <use xlink:href="#STIXGeneral-Regular-6c" transform="translate(227.699951 0.703125)"/>
     <use xlink:href="#STIXGeneral-Regular-61" transform="translate(255.499939 0.703125)"/>
     <use xlink:href="#STIXGeneral-Regular-74" transform="translate(299.899933 0.703125)"/>
     <use xlink:href="#STIXGeneral-Regular-69" transform="translate(327.699921 0.703125)"/>
     <use xlink:href="#STIXGeneral-Regular-6f" transform="translate(355.499908 0.703125)"/>
     <use xlink:href="#STIXGeneral-Regular-6e" transform="translate(405.499893 0.703125)"/>
     <use xlink:href="#STIXGeneral-Regular-20" transform="translate(455.499878 0.703125)"/>
     <use xlink:href="#STIXGeneral-Regular-46" transform="translate(480.499863 0.703125)"/>
     <use xlink:href="#STIXGeneral-Regular-75" transform="translate(536.099854 0.703125)"/>
     <use xlink:href="#STIXGeneral-Regular-6e" transform="translate(586.099838 0.703125)"/>
     <use xlink:href="#STIXGeneral-Regular-63" transform="translate(636.099823 0.703125)"/>
     <use xlink:href="#STIXGeneral-Regular-74" transform="translate(680.499817 0.703125)"/>
     <use xlink:href="#STIXGeneral-Regular-69" transform="translate(708.299805 0.703125)"/>
     <use xlink:href="#STIXGeneral-Regular-6f" transform="translate(736.099792 0.703125)"/>
     <use xlink:href="#STIXGeneral-Regular-6e" transform="translate(786.099777 0.703125)"/>
     <use xlink:href="#STIXGeneral-Regular-20" transform="translate(836.099762 0.703125)"/>
     <use xlink:href="#STIXGeneral-Italic-45" transform="translate(861.099747 0.703125)"/>
     <use xlink:href="#STIXGeneral-Regular-28" transform="translate(922.199738 0.703125)"/>
     <use xlink:href="#STIXGeneral-Italic-61" transform="translate(955.499725 0.703125)"/>
     <use xlink:href="#STIXGeneral-Regular-2c" transform="translate(1005.599716 0.703125)"/>
     <use xlink:href="#STIXGeneral-Italic-62" transform="translate(1045.039697 0.703125)"/>
     <use xlink:href="#STIXGeneral-Regular-29" transform="translate(1095.039682 0.703125)"/>
     <use xlink:href="#STIXGeneral-Regular-20" transform="translate(1128.33967 0.703125)"/>
     <use xlink:href="#STIXGeneral-Regular-66" transform="translate(1153.339655 0.703125)"/>
     <use xlink:href="#STIXGeneral-Regular-6f" transform="translate(1186.639642 0.703125)"/>
     <use xlink:href="#STIXGeneral-Regular-72" transform="translate(1236.639627 0.703125)"/>
     <use xlink:href="#STIXGeneral-Regular-20" transform="translate(1269.939615 0.703125)"/>
     <use xlink:href="#STIXGeneral-Regular-7c" transform="translate(1294.9396 0.703125)"/>
     <use xlink:href="#STIXGeneral-Regular-3a8" transform="translate(1314.939584 0.703125)"/>
     <use xlink:href="#STIXGeneral-Regular-2212" transform="translate(1401.190854 35.978125) scale(0.7)"/>
     <use xlink:href="#STIXGeneral-Regular-27e9" transform="translate(1463.658216 0.703125)"/>
    </g>
   </g>
   <g id="legend_1">
    <g id="patch_7">
     <path d="M 537.45 63.287344 
L 691.78 63.287344 
Q 693.98 63.287344 693.98 61.087344 
L 693.98 30.98 
Q 693.98 28.78 691.78 28.78 
L 537.45 28.78 
Q 535.25 28.78 535.25 30.98 
L 535.25 61.087344 
Q 535.25 63.287344 537.45 63.287344 
z
" style="fill: #ffffff; opacity: 0.8; stroke: #cccccc; stroke-linejoin: miter"/>
    </g>
    <g id="line2d_19">
     <path d="M 539.65 37.03 
L 550.65 37.03 
L 561.65 37.03 
" style="fill: none; stroke: #0000ff; stroke-width: 2; stroke-linecap: square"/>
    </g>
    <g id="text_19">
     <!-- Theory: $E = -\cos(2(a - b))$ -->
     <g transform="translate(570.45 40.88) scale(0.11 -0.11)">
      <defs>
       <path id="STIXGeneral-Regular-54" d="M 3795 3149 
L 3642 3149 
Q 3539 3674 3353 3821 
Q 3168 3968 2656 3968 
L 2278 3968 
L 2278 710 
Q 2278 346 2387 243 
Q 2496 141 2893 122 
L 2893 0 
L 1024 0 
L 1024 122 
Q 1427 147 1526 256 
Q 1626 365 1626 787 
L 1626 3968 
L 1242 3968 
Q 723 3968 540 3817 
Q 358 3667 262 3149 
L 109 3149 
L 154 4237 
L 3750 4237 
L 3795 3149 
z
" transform="scale(0.015625)"/>
       <path id="STIXGeneral-Regular-68" d="M 3117 0 
L 1760 0 
L 1760 96 
Q 2042 128 2118 224 
Q 2195 320 2195 653 
L 2195 1920 
Q 2195 2598 1722 2598 
Q 1530 2598 1370 2508 
Q 1210 2419 1005 2195 
L 1005 653 
Q 1005 320 1081 224 
Q 1158 128 1440 96 
L 1440 0 
L 58 0 
L 58 96 
Q 333 134 400 224 
Q 467 314 467 653 
L 467 3667 
Q 467 3872 406 3933 
Q 346 3994 141 3994 
Q 83 3994 64 3987 
L 64 4090 
L 237 4141 
Q 730 4288 973 4371 
L 1005 4352 
L 1005 2406 
Q 1229 2694 1446 2819 
Q 1664 2944 1946 2944 
Q 2733 2944 2733 1926 
L 2733 653 
Q 2733 320 2793 233 
Q 2854 147 3117 96 
L 3117 0 
z
" transform="scale(0.015625)"/>
       <path id="STIXGeneral-Regular-79" d="M 3040 2880 
L 3040 2784 
Q 2925 2771 2854 2700 
Q 2784 2630 2720 2458 
L 1760 -160 
Q 1510 -838 1257 -1116 
Q 1005 -1395 640 -1395 
Q 435 -1395 313 -1289 
Q 192 -1184 192 -1024 
Q 192 -902 272 -816 
Q 352 -730 467 -730 
Q 653 -730 800 -813 
Q 883 -858 966 -858 
Q 1101 -858 1286 -576 
Q 1376 -448 1459 -211 
Q 1542 26 1542 115 
Q 1542 198 1274 762 
L 429 2566 
Q 346 2752 90 2790 
L 90 2880 
L 1402 2880 
L 1402 2784 
Q 1197 2778 1117 2739 
Q 1037 2701 1037 2611 
Q 1037 2541 1120 2349 
L 1837 749 
L 2458 2515 
Q 2483 2573 2483 2630 
Q 2483 2784 2189 2784 
L 2189 2880 
L 3040 2880 
z
" transform="scale(0.015625)"/>
       <path id="STIXGeneral-Regular-3a" d="M 1123 2832 
Q 1229 2726 1229 2579 
Q 1229 2432 1126 2329 
Q 1024 2227 877 2227 
Q 730 2227 624 2332 
Q 518 2438 518 2579 
Q 518 2733 620 2835 
Q 723 2938 877 2938 
Q 1018 2938 1123 2832 
z
M 1229 282 
Q 1229 141 1126 35 
Q 1024 -70 877 -70 
Q 730 -70 624 35 
Q 518 141 518 282 
Q 518 435 620 537 
Q 723 640 877 640 
Q 1018 640 1123 534 
Q 1229 429 1229 282 
z
" transform="scale(0.015625)"/>
       <path id="STIXGeneral-Regular-73" d="M 998 1926 
L 1664 1523 
Q 1984 1331 2105 1164 
Q 2227 998 2227 736 
Q 2227 416 1961 176 
Q 1696 -64 1331 -64 
Q 1030 -64 864 -6 
Q 691 51 570 51 
Q 461 51 416 -26 
L 333 -26 
L 333 979 
L 435 979 
Q 538 512 730 294 
Q 922 77 1248 77 
Q 1485 77 1632 211 
Q 1779 346 1779 550 
Q 1779 845 1440 1030 
L 1094 1222 
Q 326 1651 326 2150 
Q 326 2522 566 2730 
Q 806 2938 1210 2938 
Q 1491 2938 1638 2867 
Q 1754 2816 1818 2816 
Q 1862 2816 1920 2880 
L 1990 2880 
L 2022 2010 
L 1926 2010 
Q 1818 2445 1654 2621 
Q 1491 2797 1203 2797 
Q 986 2797 854 2688 
Q 723 2579 723 2362 
Q 723 2253 796 2128 
Q 870 2003 998 1926 
z
" transform="scale(0.015625)"/>
      </defs>
      <use xlink:href="#STIXGeneral-Regular-54" transform="translate(0 0.703125)"/>
      <use xlink:href="#STIXGeneral-Regular-68" transform="translate(61.099991 0.703125)"/>
      <use xlink:href="#STIXGeneral-Regular-65" transform="translate(111.099976 0.703125)"/>
      <use xlink:href="#STIXGeneral-Regular-6f" transform="translate(155.499969 0.703125)"/>
      <use xlink:href="#STIXGeneral-Regular-72" transform="translate(205.499954 0.703125)"/>
      <use xlink:href="#STIXGeneral-Regular-79" transform="translate(238.799942 0.703125)"/>
      <use xlink:href="#STIXGeneral-Regular-3a" transform="translate(288.799927 0.703125)"/>
      <use xlink:href="#STIXGeneral-Regular-20" transform="translate(316.599915 0.703125)"/>
      <use xlink:href="#STIXGeneral-Italic-45" transform="translate(341.599899 0.703125)"/>
      <use xlink:href="#STIXGeneral-Regular-3d" transform="translate(417.139886 0.703125)"/>
      <use xlink:href="#STIXGeneral-Regular-2212" transform="translate(500.079868 0.703125)"/>
      <use xlink:href="#STIXGeneral-Regular-63" transform="translate(568.579852 0.703125)"/>
      <use xlink:href="#STIXGeneral-Regular-6f" transform="translate(612.979846 0.703125)"/>
      <use xlink:href="#STIXGeneral-Regular-73" transform="translate(662.979831 0.703125)"/>
      <use xlink:href="#STIXGeneral-Regular-28" transform="translate(701.879825 0.703125)"/>
      <use xlink:href="#STIXGeneral-Regular-32" transform="translate(735.179813 0.703125)"/>
      <use xlink:href="#STIXGeneral-Regular-28" transform="translate(785.179797 0.703125)"/>
      <use xlink:href="#STIXGeneral-Italic-61" transform="translate(818.479785 0.703125)"/>
      <use xlink:href="#STIXGeneral-Regular-2212" transform="translate(883.019772 0.703125)"/>
      <use xlink:href="#STIXGeneral-Italic-62" transform="translate(965.959753 0.703125)"/>
      <use xlink:href="#STIXGeneral-Regular-29" transform="translate(1015.959738 0.703125)"/>
      <use xlink:href="#STIXGeneral-Regular-29" transform="translate(1049.259726 0.703125)"/>
     </g>
    </g>
    <g id="line2d_20">
     <path d="M 539.65 52.65 
L 550.65 52.65 
L 561.65 52.65 
" style="fill: none; stroke-dasharray: 5.55,2.4; stroke-dashoffset: 0; stroke: #ff0000; stroke-width: 1.5"/>
    </g>
    <g id="text_20">
     <!-- QuTiP numerical -->
     <g transform="translate(570.45 56.5) scale(0.11 -0.11)">
      <defs>
       <path id="STIXGeneral-Regular-51" d="M 4486 -1133 
L 4179 -1133 
Q 2586 -1133 1958 -339 
L 1696 -6 
Q 1312 128 1097 265 
Q 883 403 704 640 
Q 218 1286 218 2125 
Q 218 3123 806 3724 
Q 1395 4326 2310 4326 
Q 3232 4326 3817 3721 
Q 4403 3117 4403 2131 
Q 4403 1568 4236 1158 
Q 4070 749 3712 410 
Q 3514 211 3293 115 
Q 3072 19 2726 -45 
Q 3066 -531 3491 -758 
Q 3917 -986 4486 -1018 
L 4486 -1133 
z
M 3674 2163 
Q 3674 2714 3520 3146 
Q 3366 3578 3091 3808 
Q 2746 4096 2291 4096 
Q 1741 4096 1370 3642 
Q 1178 3418 1062 3008 
Q 947 2598 947 2144 
Q 947 1158 1318 640 
Q 1472 416 1750 278 
Q 2029 141 2310 141 
Q 2867 141 3264 602 
Q 3456 819 3565 1248 
Q 3674 1677 3674 2163 
z
" transform="scale(0.015625)"/>
       <path id="STIXGeneral-Regular-50" d="M 102 4237 
L 1760 4237 
Q 2669 4237 3149 3834 
Q 3469 3565 3469 3072 
Q 3469 2560 3104 2234 
Q 2835 1990 2553 1916 
Q 2272 1843 1734 1843 
Q 1549 1843 1293 1862 
L 1293 717 
Q 1293 352 1398 246 
Q 1504 141 1894 122 
L 1894 0 
L 102 0 
L 102 122 
Q 474 147 557 256 
Q 640 365 640 781 
L 640 3526 
Q 640 3885 547 3987 
Q 454 4090 102 4115 
L 102 4237 
z
M 1293 3770 
L 1293 2118 
Q 1510 2099 1683 2099 
Q 2202 2099 2486 2352 
Q 2771 2605 2771 3040 
Q 2771 3558 2476 3779 
Q 2182 4000 1517 4000 
Q 1382 4000 1337 3952 
Q 1293 3904 1293 3770 
z
" transform="scale(0.015625)"/>
       <path id="STIXGeneral-Regular-6d" d="M 4960 0 
L 3565 0 
L 3565 96 
Q 3834 122 3907 208 
Q 3981 294 3981 576 
L 3981 1894 
Q 3981 2278 3869 2444 
Q 3757 2611 3488 2611 
Q 3264 2611 3107 2521 
Q 2950 2432 2803 2221 
L 2803 608 
Q 2803 301 2896 201 
Q 2989 102 3264 96 
L 3264 0 
L 1830 0 
L 1830 96 
Q 2112 115 2189 188 
Q 2266 262 2266 550 
L 2266 1901 
Q 2266 2611 1850 2611 
Q 1670 2611 1468 2531 
Q 1267 2451 1171 2336 
Q 1088 2240 1088 2227 
L 1088 448 
Q 1088 243 1177 176 
Q 1267 109 1523 96 
L 1523 0 
L 102 0 
L 102 96 
Q 371 102 460 195 
Q 550 288 550 563 
L 550 2150 
Q 550 2387 499 2480 
Q 448 2573 326 2573 
Q 230 2573 122 2547 
L 122 2656 
Q 557 2778 1011 2944 
L 1062 2925 
L 1062 2451 
L 1075 2451 
Q 1363 2752 1584 2848 
Q 1805 2944 2054 2944 
Q 2560 2944 2733 2406 
Q 3232 2944 3776 2944 
Q 4518 2944 4518 1792 
L 4518 493 
Q 4518 282 4582 202 
Q 4646 122 4794 109 
L 4960 96 
L 4960 0 
z
" transform="scale(0.015625)"/>
      </defs>
      <use xlink:href="#STIXGeneral-Regular-51"/>
      <use xlink:href="#STIXGeneral-Regular-75" transform="translate(72.199982 0)"/>
      <use xlink:href="#STIXGeneral-Regular-54" transform="translate(122.199966 0)"/>
      <use xlink:href="#STIXGeneral-Regular-69" transform="translate(183.299957 0)"/>
      <use xlink:href="#STIXGeneral-Regular-50" transform="translate(211.099945 0)"/>
      <use xlink:href="#STIXGeneral-Regular-20" transform="translate(266.799942 0)"/>
      <use xlink:href="#STIXGeneral-Regular-6e" transform="translate(291.799927 0)"/>
      <use xlink:href="#STIXGeneral-Regular-75" transform="translate(341.799911 0)"/>
      <use xlink:href="#STIXGeneral-Regular-6d" transform="translate(391.799896 0)"/>
      <use xlink:href="#STIXGeneral-Regular-65" transform="translate(469.599884 0)"/>
      <use xlink:href="#STIXGeneral-Regular-72" transform="translate(513.999878 0)"/>
      <use xlink:href="#STIXGeneral-Regular-69" transform="translate(547.299866 0)"/>
      <use xlink:href="#STIXGeneral-Regular-63" transform="translate(575.099854 0)"/>
      <use xlink:href="#STIXGeneral-Regular-61" transform="translate(619.499847 0)"/>
      <use xlink:href="#STIXGeneral-Regular-6c" transform="translate(663.899841 0)"/>
     </g>
    </g>
   </g>
  </g>
 </g>
 <defs>
  <clipPath id="p2f6e0210d3">
   <rect x="60.02" y="23.28" width="639.46" height="352.1125"/>
  </clipPath>
 </defs>
</svg>
