<?xml version="1.0" encoding="utf-8" standalone="no"?>
<!DOCTYPE svg PUBLIC "-//W3C//DTD SVG 1.1//EN"
  "http://www.w3.org/Graphics/SVG/1.1/DTD/svg11.dtd">
<svg xmlns:xlink="http://www.w3.org/1999/xlink" width="707.16pt" height="347.325pt" viewBox="0 0 707.16 347.325" xmlns="http://www.w3.org/2000/svg" version="1.1">
 <metadata>
  <rdf:RDF xmlns:dc="http://purl.org/dc/elements/1.1/" xmlns:cc="http://creativecommons.org/ns#" xmlns:rdf="http://www.w3.org/1999/02/22-rdf-syntax-ns#">
   <cc:Work>
    <dc:type rdf:resource="http://purl.org/dc/dcmitype/StillImage"/>
    <dc:date>2026-05-28T03:18:08.681687</dc:date>
    <dc:format>image/svg+xml</dc:format>
    <dc:creator>
     <cc:Agent>
      <dc:title>Matplotlib v3.10.7, https://matplotlib.org/</dc:title>
     </cc:Agent>
    </dc:creator>
   </cc:Work>
  </rdf:RDF>
 </metadata>
 <defs>
  <style type="text/css">*{stroke-linejoin: round; stroke-linecap: butt}</style>
 </defs>
 <g id="figure_1">
  <g id="patch_1">
   <path d="M 0 347.325 
L 707.16 347.325 
L 707.16 0 
L 0 0 
z
" style="fill: #ffffff"/>
  </g>
  <g id="axes_1">
   <g id="patch_2">
    <path d="M 51.8 305.725 
L 699.96 305.725 
L 699.96 24.72 
L 51.8 24.72 
z
" style="fill: #ffffff"/>
   </g>
   <g id="patch_3">
    <path d="M 54.500667 305.725 
L 76.106 305.725 
L 76.106 305.474328 
L 54.500667 305.474328 
z
" clip-path="url(#p67676534e7)" style="fill: #4682b4; opacity: 0.7; stroke: #000000; stroke-width: 0.5; stroke-linejoin: miter"/>
   </g>
   <g id="patch_4">
    <path d="M 81.507333 305.725 
L 103.112667 305.725 
L 103.112667 303.468955 
L 81.507333 303.468955 
z
" clip-path="url(#p67676534e7)" style="fill: #4682b4; opacity: 0.7; stroke: #000000; stroke-width: 0.5; stroke-linejoin: miter"/>
   </g>
   <g id="patch_5">
    <path d="M 108.514 305.725 
L 130.119333 305.725 
L 130.119333 295.572799 
L 108.514 295.572799 
z
" clip-path="url(#p67676534e7)" style="fill: #4682b4; opacity: 0.7; stroke: #000000; stroke-width: 0.5; stroke-linejoin: miter"/>
   </g>
   <g id="patch_6">
    <path d="M 135.520667 305.725 
L 157.126 305.725 
L 157.126 275.268396 
L 135.520667 275.268396 
z
" clip-path="url(#p67676534e7)" style="fill: #4682b4; opacity: 0.7; stroke: #000000; stroke-width: 0.5; stroke-linejoin: miter"/>
   </g>
   <g id="patch_7">
    <path d="M 162.527333 305.725 
L 184.132667 305.725 
L 184.132667 237.197641 
L 162.527333 237.197641 
z
" clip-path="url(#p67676534e7)" style="fill: #4682b4; opacity: 0.7; stroke: #000000; stroke-width: 0.5; stroke-linejoin: miter"/>
   </g>
   <g id="patch_8">
    <path d="M 189.534 305.725 
L 211.139333 305.725 
L 211.139333 182.375754 
L 189.534 182.375754 
z
" clip-path="url(#p67676534e7)" style="fill: #4682b4; opacity: 0.7; stroke: #000000; stroke-width: 0.5; stroke-linejoin: miter"/>
   </g>
   <g id="patch_9">
    <path d="M 216.540667 305.725 
L 238.146 305.725 
L 238.146 120.701132 
L 216.540667 120.701132 
z
" clip-path="url(#p67676534e7)" style="fill: #4682b4; opacity: 0.7; stroke: #000000; stroke-width: 0.5; stroke-linejoin: miter"/>
   </g>
   <g id="patch_10">
    <path d="M 243.547333 305.725 
L 265.152667 305.725 
L 265.152667 67.837169 
L 243.547333 67.837169 
z
" clip-path="url(#p67676534e7)" style="fill: #4682b4; opacity: 0.7; stroke: #000000; stroke-width: 0.5; stroke-linejoin: miter"/>
   </g>
   <g id="patch_11">
    <path d="M 270.554 305.725 
L 292.159333 305.725 
L 292.159333 38.10119 
L 270.554 38.10119 
z
" clip-path="url(#p67676534e7)" style="fill: #4682b4; opacity: 0.7; stroke: #000000; stroke-width: 0.5; stroke-linejoin: miter"/>
   </g>
   <g id="patch_12">
    <path d="M 297.560667 305.725 
L 319.166 305.725 
L 319.166 38.10119 
L 297.560667 38.10119 
z
" clip-path="url(#p67676534e7)" style="fill: #4682b4; opacity: 0.7; stroke: #000000; stroke-width: 0.5; stroke-linejoin: miter"/>
   </g>
   <g id="patch_13">
    <path d="M 324.567333 305.725 
L 346.172667 305.725 
L 346.172667 64.863571 
L 324.567333 64.863571 
z
" clip-path="url(#p67676534e7)" style="fill: #4682b4; opacity: 0.7; stroke: #000000; stroke-width: 0.5; stroke-linejoin: miter"/>
   </g>
   <g id="patch_14">
    <path d="M 351.574 305.725 
L 373.179333 305.725 
L 373.179333 108.656558 
L 351.574 108.656558 
z
" clip-path="url(#p67676534e7)" style="fill: #4682b4; opacity: 0.7; stroke: #000000; stroke-width: 0.5; stroke-linejoin: miter"/>
   </g>
   <g id="patch_15">
    <path d="M 378.580667 305.725 
L 400.186 305.725 
L 400.186 157.923669 
L 378.580667 157.923669 
z
" clip-path="url(#p67676534e7)" style="fill: #4682b4; opacity: 0.7; stroke: #000000; stroke-width: 0.5; stroke-linejoin: miter"/>
   </g>
   <g id="patch_16">
    <path d="M 405.587333 305.725 
L 427.192667 305.725 
L 427.192667 203.401001 
L 405.587333 203.401001 
z
" clip-path="url(#p67676534e7)" style="fill: #4682b4; opacity: 0.7; stroke: #000000; stroke-width: 0.5; stroke-linejoin: miter"/>
   </g>
   <g id="patch_17">
    <path d="M 432.594 305.725 
L 454.199333 305.725 
L 454.199333 239.945287 
L 432.594 239.945287 
z
" clip-path="url(#p67676534e7)" style="fill: #4682b4; opacity: 0.7; stroke: #000000; stroke-width: 0.5; stroke-linejoin: miter"/>
   </g>
   <g id="patch_18">
    <path d="M 459.600667 305.725 
L 481.206 305.725 
L 481.206 266.257172 
L 459.600667 266.257172 
z
" clip-path="url(#p67676534e7)" style="fill: #4682b4; opacity: 0.7; stroke: #000000; stroke-width: 0.5; stroke-linejoin: miter"/>
   </g>
   <g id="patch_19">
    <path d="M 486.607333 305.725 
L 508.212667 305.725 
L 508.212667 283.524347 
L 486.607333 283.524347 
z
" clip-path="url(#p67676534e7)" style="fill: #4682b4; opacity: 0.7; stroke: #000000; stroke-width: 0.5; stroke-linejoin: miter"/>
   </g>
   <g id="patch_20">
    <path d="M 513.614 305.725 
L 535.219333 305.725 
L 535.219333 293.971713 
L 513.614 293.971713 
z
" clip-path="url(#p67676534e7)" style="fill: #4682b4; opacity: 0.7; stroke: #000000; stroke-width: 0.5; stroke-linejoin: miter"/>
   </g>
   <g id="patch_21">
    <path d="M 540.620667 305.725 
L 562.226 305.725 
L 562.226 299.848356 
L 540.620667 299.848356 
z
" clip-path="url(#p67676534e7)" style="fill: #4682b4; opacity: 0.7; stroke: #000000; stroke-width: 0.5; stroke-linejoin: miter"/>
   </g>
   <g id="patch_22">
    <path d="M 567.627333 305.725 
L 589.232667 305.725 
L 589.232667 302.941327 
L 567.627333 302.941327 
z
" clip-path="url(#p67676534e7)" style="fill: #4682b4; opacity: 0.7; stroke: #000000; stroke-width: 0.5; stroke-linejoin: miter"/>
   </g>
   <g id="patch_23">
    <path d="M 594.634 305.725 
L 616.239333 305.725 
L 616.239333 304.472347 
L 594.634 304.472347 
z
" clip-path="url(#p67676534e7)" style="fill: #4682b4; opacity: 0.7; stroke: #000000; stroke-width: 0.5; stroke-linejoin: miter"/>
   </g>
   <g id="patch_24">
    <path d="M 621.640667 305.725 
L 643.246 305.725 
L 643.246 305.188149 
L 621.640667 305.188149 
z
" clip-path="url(#p67676534e7)" style="fill: #4682b4; opacity: 0.7; stroke: #000000; stroke-width: 0.5; stroke-linejoin: miter"/>
   </g>
   <g id="patch_25">
    <path d="M 648.647333 305.725 
L 670.252667 305.725 
L 670.252667 305.505379 
L 648.647333 305.505379 
z
" clip-path="url(#p67676534e7)" style="fill: #4682b4; opacity: 0.7; stroke: #000000; stroke-width: 0.5; stroke-linejoin: miter"/>
   </g>
   <g id="patch_26">
    <path d="M 675.654 305.725 
L 697.259333 305.725 
L 697.259333 305.639061 
L 675.654 305.639061 
z
" clip-path="url(#p67676534e7)" style="fill: #4682b4; opacity: 0.7; stroke: #000000; stroke-width: 0.5; stroke-linejoin: miter"/>
   </g>
   <g id="matplotlib.axis_1">
    <g id="xtick_1">
     <g id="line2d_1">
      <defs>
       <path id="me22222367b" d="M 0 0 
L 0 3.5 
" style="stroke: #000000; stroke-width: 0.8"/>
      </defs>
      <g>
       <use xlink:href="#me22222367b" x="65.303333" y="305.725" style="stroke: #000000; stroke-width: 0.8"/>
      </g>
     </g>
     <g id="text_1">
      <!-- 0 -->
      <g transform="translate(62.303333 320.920625) scale(0.12 -0.12)">
       <defs>
        <path id="STIXGeneral-Regular-30" d="M 3046 2112 
Q 3046 1683 2963 1302 
Q 2880 922 2717 602 
Q 2554 282 2266 96 
Q 1978 -90 1600 -90 
Q 1210 -90 915 108 
Q 621 307 461 640 
Q 301 973 227 1350 
Q 154 1728 154 2150 
Q 154 2746 301 3222 
Q 448 3699 790 4012 
Q 1133 4326 1626 4326 
Q 2253 4326 2649 3712 
Q 3046 3098 3046 2112 
z
M 2432 2080 
Q 2432 3091 2217 3625 
Q 2003 4160 1587 4160 
Q 1190 4160 979 3622 
Q 768 3085 768 2106 
Q 768 1120 979 598 
Q 1190 77 1600 77 
Q 2003 77 2217 598 
Q 2432 1120 2432 2080 
z
" transform="scale(0.015625)"/>
       </defs>
       <use xlink:href="#STIXGeneral-Regular-30"/>
      </g>
     </g>
    </g>
    <g id="xtick_2">
     <g id="line2d_2">
      <g>
       <use xlink:href="#me22222367b" x="200.336667" y="305.725" style="stroke: #000000; stroke-width: 0.8"/>
      </g>
     </g>
     <g id="text_2">
      <!-- 5 -->
      <g transform="translate(197.336667 320.920625) scale(0.12 -0.12)">
       <defs>
        <path id="STIXGeneral-Regular-35" d="M 2803 4358 
L 2573 3814 
Q 2534 3731 2400 3731 
L 1158 3731 
L 902 3187 
Q 1606 3053 1920 2896 
Q 2234 2739 2502 2368 
Q 2726 2061 2726 1555 
Q 2726 1094 2576 780 
Q 2426 467 2099 224 
Q 1664 -90 1011 -90 
Q 646 -90 422 19 
Q 198 128 198 307 
Q 198 550 486 550 
Q 717 550 960 352 
Q 1210 147 1414 147 
Q 1747 147 2012 480 
Q 2278 813 2278 1229 
Q 2278 1843 1850 2189 
Q 1293 2637 486 2637 
Q 410 2637 410 2688 
L 416 2720 
L 1114 4237 
L 2438 4237 
Q 2547 4237 2608 4269 
Q 2669 4301 2746 4403 
L 2803 4358 
z
" transform="scale(0.015625)"/>
       </defs>
       <use xlink:href="#STIXGeneral-Regular-35"/>
      </g>
     </g>
    </g>
    <g id="xtick_3">
     <g id="line2d_3">
      <g>
       <use xlink:href="#me22222367b" x="335.37" y="305.725" style="stroke: #000000; stroke-width: 0.8"/>
      </g>
     </g>
     <g id="text_3">
      <!-- 10 -->
      <g transform="translate(329.37 320.920625) scale(0.12 -0.12)">
       <defs>
        <path id="STIXGeneral-Regular-31" d="M 2522 0 
L 755 0 
L 755 96 
Q 1107 115 1235 227 
Q 1363 339 1363 608 
L 1363 3482 
Q 1363 3795 1171 3795 
Q 1082 3795 883 3718 
L 710 3654 
L 710 3744 
L 1856 4326 
L 1914 4307 
L 1914 486 
Q 1914 275 2042 185 
Q 2170 96 2522 96 
L 2522 0 
z
" transform="scale(0.015625)"/>
       </defs>
       <use xlink:href="#STIXGeneral-Regular-31"/>
       <use xlink:href="#STIXGeneral-Regular-30" transform="translate(49.999985 0)"/>
      </g>
     </g>
    </g>
    <g id="xtick_4">
     <g id="line2d_4">
      <g>
       <use xlink:href="#me22222367b" x="470.403333" y="305.725" style="stroke: #000000; stroke-width: 0.8"/>
      </g>
     </g>
     <g id="text_4">
      <!-- 15 -->
      <g transform="translate(464.403333 320.920625) scale(0.12 -0.12)">
       <use xlink:href="#STIXGeneral-Regular-31"/>
       <use xlink:href="#STIXGeneral-Regular-35" transform="translate(49.999985 0)"/>
      </g>
     </g>
    </g>
    <g id="xtick_5">
     <g id="line2d_5">
      <g>
       <use xlink:href="#me22222367b" x="605.436667" y="305.725" style="stroke: #000000; stroke-width: 0.8"/>
      </g>
     </g>
     <g id="text_5">
      <!-- 20 -->
      <g transform="translate(599.436667 320.920625) scale(0.12 -0.12)">
       <defs>
        <path id="STIXGeneral-Regular-32" d="M 3034 877 
L 2688 0 
L 186 0 
L 186 77 
L 1325 1286 
Q 1773 1754 1965 2144 
Q 2157 2534 2157 2950 
Q 2157 3379 1920 3616 
Q 1683 3853 1267 3853 
Q 922 3853 720 3673 
Q 518 3494 326 3021 
L 192 3053 
Q 301 3648 630 3987 
Q 960 4326 1523 4326 
Q 2054 4326 2380 4006 
Q 2707 3686 2707 3200 
Q 2707 2477 1888 1613 
L 832 486 
L 2330 486 
Q 2541 486 2665 569 
Q 2790 653 2944 915 
L 3034 877 
z
" transform="scale(0.015625)"/>
       </defs>
       <use xlink:href="#STIXGeneral-Regular-32"/>
       <use xlink:href="#STIXGeneral-Regular-30" transform="translate(49.999985 0)"/>
      </g>
     </g>
    </g>
    <g id="text_6">
     <!-- Photon number $n$ -->
     <g transform="translate(327.65 337.086562) scale(0.14 -0.14)">
      <defs>
       <path id="STIXGeneral-Regular-50" d="M 102 4237 
L 1760 4237 
Q 2669 4237 3149 3834 
Q 3469 3565 3469 3072 
Q 3469 2560 3104 2234 
Q 2835 1990 2553 1916 
Q 2272 1843 1734 1843 
Q 1549 1843 1293 1862 
L 1293 717 
Q 1293 352 1398 246 
Q 1504 141 1894 122 
L 1894 0 
L 102 0 
L 102 122 
Q 474 147 557 256 
Q 640 365 640 781 
L 640 3526 
Q 640 3885 547 3987 
Q 454 4090 102 4115 
L 102 4237 
z
M 1293 3770 
L 1293 2118 
Q 1510 2099 1683 2099 
Q 2202 2099 2486 2352 
Q 2771 2605 2771 3040 
Q 2771 3558 2476 3779 
Q 2182 4000 1517 4000 
Q 1382 4000 1337 3952 
Q 1293 3904 1293 3770 
z
" transform="scale(0.015625)"/>
       <path id="STIXGeneral-Regular-68" d="M 3117 0 
L 1760 0 
L 1760 96 
Q 2042 128 2118 224 
Q 2195 320 2195 653 
L 2195 1920 
Q 2195 2598 1722 2598 
Q 1530 2598 1370 2508 
Q 1210 2419 1005 2195 
L 1005 653 
Q 1005 320 1081 224 
Q 1158 128 1440 96 
L 1440 0 
L 58 0 
L 58 96 
Q 333 134 400 224 
Q 467 314 467 653 
L 467 3667 
Q 467 3872 406 3933 
Q 346 3994 141 3994 
Q 83 3994 64 3987 
L 64 4090 
L 237 4141 
Q 730 4288 973 4371 
L 1005 4352 
L 1005 2406 
Q 1229 2694 1446 2819 
Q 1664 2944 1946 2944 
Q 2733 2944 2733 1926 
L 2733 653 
Q 2733 320 2793 233 
Q 2854 147 3117 96 
L 3117 0 
z
" transform="scale(0.015625)"/>
       <path id="STIXGeneral-Regular-6f" d="M 3008 1478 
Q 3008 806 2608 371 
Q 2208 -64 1568 -64 
Q 979 -64 582 368 
Q 186 800 186 1459 
Q 186 2125 582 2534 
Q 979 2944 1626 2944 
Q 2221 2944 2614 2537 
Q 3008 2131 3008 1478 
z
M 2432 1306 
Q 2432 2035 2112 2445 
Q 1856 2765 1504 2765 
Q 1171 2765 966 2493 
Q 762 2221 762 1747 
Q 762 928 1101 435 
Q 1318 115 1677 115 
Q 2029 115 2230 432 
Q 2432 749 2432 1306 
z
" transform="scale(0.015625)"/>
       <path id="STIXGeneral-Regular-74" d="M 1702 493 
L 1786 422 
Q 1478 -64 1011 -64 
Q 448 -64 448 749 
L 448 2675 
L 109 2675 
Q 83 2694 83 2720 
Q 83 2771 192 2842 
Q 435 2982 813 3526 
Q 826 3546 874 3606 
Q 922 3667 941 3706 
Q 986 3706 986 3622 
L 986 2880 
L 1632 2880 
L 1632 2675 
L 986 2675 
L 986 845 
Q 986 538 1062 403 
Q 1139 269 1318 269 
Q 1510 269 1702 493 
z
" transform="scale(0.015625)"/>
       <path id="STIXGeneral-Regular-6e" d="M 3104 0 
L 1773 0 
L 1779 96 
Q 2016 115 2096 233 
Q 2176 352 2176 672 
L 2176 1946 
Q 2176 2592 1709 2592 
Q 1549 2592 1408 2515 
Q 1267 2438 1050 2227 
L 1050 461 
Q 1050 269 1136 192 
Q 1222 115 1466 96 
L 1466 0 
L 115 0 
L 115 96 
Q 358 115 435 214 
Q 512 314 512 602 
L 512 2157 
Q 512 2394 467 2483 
Q 422 2573 288 2573 
Q 160 2573 102 2547 
L 102 2656 
Q 550 2784 979 2944 
L 1030 2925 
L 1030 2426 
L 1037 2426 
Q 1491 2944 1958 2944 
Q 2323 2944 2518 2688 
Q 2714 2432 2714 1958 
L 2714 544 
Q 2714 288 2790 205 
Q 2867 122 3104 96 
L 3104 0 
z
" transform="scale(0.015625)"/>
       <path id="STIXGeneral-Regular-20" transform="scale(0.015625)"/>
       <path id="STIXGeneral-Regular-75" d="M 3072 320 
L 3072 230 
Q 2573 96 2195 -58 
L 2163 -38 
L 2163 486 
L 2150 486 
Q 1747 -64 1235 -64 
Q 870 -64 662 160 
Q 454 384 454 755 
L 454 2362 
Q 454 2598 371 2688 
Q 288 2778 58 2790 
L 58 2880 
L 992 2880 
L 992 813 
Q 992 595 1123 451 
Q 1254 307 1446 307 
Q 1760 307 1984 506 
Q 2067 582 2099 649 
Q 2131 717 2131 877 
L 2131 2355 
Q 2131 2605 2041 2678 
Q 1952 2752 1658 2771 
L 1658 2880 
L 2669 2880 
L 2669 685 
Q 2669 461 2742 390 
Q 2816 320 3034 320 
L 3072 320 
z
" transform="scale(0.015625)"/>
       <path id="STIXGeneral-Regular-6d" d="M 4960 0 
L 3565 0 
L 3565 96 
Q 3834 122 3907 208 
Q 3981 294 3981 576 
L 3981 1894 
Q 3981 2278 3869 2444 
Q 3757 2611 3488 2611 
Q 3264 2611 3107 2521 
Q 2950 2432 2803 2221 
L 2803 608 
Q 2803 301 2896 201 
Q 2989 102 3264 96 
L 3264 0 
L 1830 0 
L 1830 96 
Q 2112 115 2189 188 
Q 2266 262 2266 550 
L 2266 1901 
Q 2266 2611 1850 2611 
Q 1670 2611 1468 2531 
Q 1267 2451 1171 2336 
Q 1088 2240 1088 2227 
L 1088 448 
Q 1088 243 1177 176 
Q 1267 109 1523 96 
L 1523 0 
L 102 0 
L 102 96 
Q 371 102 460 195 
Q 550 288 550 563 
L 550 2150 
Q 550 2387 499 2480 
Q 448 2573 326 2573 
Q 230 2573 122 2547 
L 122 2656 
Q 557 2778 1011 2944 
L 1062 2925 
L 1062 2451 
L 1075 2451 
Q 1363 2752 1584 2848 
Q 1805 2944 2054 2944 
Q 2560 2944 2733 2406 
Q 3232 2944 3776 2944 
Q 4518 2944 4518 1792 
L 4518 493 
Q 4518 282 4582 202 
Q 4646 122 4794 109 
L 4960 96 
L 4960 0 
z
" transform="scale(0.015625)"/>
       <path id="STIXGeneral-Regular-62" d="M 979 4358 
L 979 2406 
Q 1082 2650 1315 2797 
Q 1549 2944 1843 2944 
Q 2349 2944 2672 2541 
Q 2995 2138 2995 1536 
Q 2995 832 2566 384 
Q 2138 -64 1498 -64 
Q 1107 -64 774 67 
Q 442 198 442 358 
L 442 3622 
Q 442 3859 384 3926 
Q 326 3994 128 3994 
Q 83 3994 19 3981 
L 19 4090 
L 211 4147 
Q 864 4346 947 4371 
L 979 4358 
z
M 979 2035 
L 979 474 
Q 979 326 1161 233 
Q 1344 141 1600 141 
Q 1978 141 2195 416 
Q 2432 710 2432 1261 
Q 2432 1888 2182 2240 
Q 1971 2541 1613 2541 
Q 1357 2541 1168 2390 
Q 979 2240 979 2035 
z
" transform="scale(0.015625)"/>
       <path id="STIXGeneral-Regular-65" d="M 2611 1050 
L 2714 1005 
Q 2330 -64 1376 -64 
Q 813 -64 486 329 
Q 160 723 160 1389 
Q 160 2074 525 2509 
Q 890 2944 1485 2944 
Q 2061 2944 2374 2502 
Q 2560 2246 2592 1773 
L 621 1773 
Q 646 1370 700 1158 
Q 755 947 915 730 
Q 1184 378 1626 378 
Q 1939 378 2153 531 
Q 2368 685 2611 1050 
z
M 634 1978 
L 1939 1978 
Q 1882 2381 1750 2547 
Q 1619 2714 1312 2714 
Q 1043 2714 864 2525 
Q 685 2336 634 1978 
z
" transform="scale(0.015625)"/>
       <path id="STIXGeneral-Regular-72" d="M 1024 2931 
L 1024 2342 
Q 1267 2688 1430 2816 
Q 1594 2944 1792 2944 
Q 1958 2944 2051 2854 
Q 2144 2765 2144 2605 
Q 2144 2470 2077 2393 
Q 2010 2317 1894 2317 
Q 1773 2317 1638 2445 
Q 1536 2541 1472 2541 
Q 1338 2541 1181 2355 
Q 1024 2170 1024 2016 
L 1024 576 
Q 1024 301 1133 205 
Q 1242 109 1568 96 
L 1568 0 
L 32 0 
L 32 96 
Q 339 154 412 224 
Q 486 294 486 538 
L 486 2138 
Q 486 2349 438 2435 
Q 390 2522 269 2522 
Q 166 2522 45 2496 
L 45 2598 
Q 448 2726 992 2944 
L 1024 2931 
z
" transform="scale(0.015625)"/>
       <path id="STIXGeneral-Italic-6e" d="M 2944 749 
L 3034 666 
Q 2707 218 2534 80 
Q 2362 -58 2138 -58 
Q 2010 -58 1923 28 
Q 1837 115 1837 288 
Q 1837 390 1939 768 
L 2221 1805 
Q 2310 2150 2310 2310 
Q 2310 2496 2157 2496 
Q 1971 2496 1750 2275 
Q 1530 2054 1210 1587 
Q 998 1274 899 1024 
Q 800 774 570 0 
L 90 0 
L 704 2240 
Q 717 2304 717 2349 
Q 717 2445 630 2480 
Q 544 2515 301 2522 
L 301 2624 
Q 550 2675 857 2729 
Q 1165 2784 1338 2822 
L 1363 2810 
L 934 1414 
Q 1408 2170 1753 2496 
Q 2099 2822 2413 2822 
Q 2611 2822 2720 2716 
Q 2829 2611 2829 2432 
Q 2829 2272 2765 2048 
L 2406 749 
Q 2317 429 2317 358 
Q 2317 243 2419 243 
Q 2541 243 2810 582 
Q 2854 634 2944 749 
z
" transform="scale(0.015625)"/>
      </defs>
      <use xlink:href="#STIXGeneral-Regular-50" transform="translate(0 0.703125)"/>
      <use xlink:href="#STIXGeneral-Regular-68" transform="translate(55.699997 0.703125)"/>
      <use xlink:href="#STIXGeneral-Regular-6f" transform="translate(105.699982 0.703125)"/>
      <use xlink:href="#STIXGeneral-Regular-74" transform="translate(155.699966 0.703125)"/>
      <use xlink:href="#STIXGeneral-Regular-6f" transform="translate(183.499954 0.703125)"/>
      <use xlink:href="#STIXGeneral-Regular-6e" transform="translate(233.499939 0.703125)"/>
      <use xlink:href="#STIXGeneral-Regular-20" transform="translate(283.499924 0.703125)"/>
      <use xlink:href="#STIXGeneral-Regular-6e" transform="translate(308.499908 0.703125)"/>
      <use xlink:href="#STIXGeneral-Regular-75" transform="translate(358.499893 0.703125)"/>
      <use xlink:href="#STIXGeneral-Regular-6d" transform="translate(408.499878 0.703125)"/>
      <use xlink:href="#STIXGeneral-Regular-62" transform="translate(486.299866 0.703125)"/>
      <use xlink:href="#STIXGeneral-Regular-65" transform="translate(536.29985 0.703125)"/>
      <use xlink:href="#STIXGeneral-Regular-72" transform="translate(580.699844 0.703125)"/>
      <use xlink:href="#STIXGeneral-Regular-20" transform="translate(613.999832 0.703125)"/>
      <use xlink:href="#STIXGeneral-Italic-6e" transform="translate(638.999817 0.703125)"/>
     </g>
    </g>
   </g>
   <g id="matplotlib.axis_2">
    <g id="ytick_1">
     <g id="line2d_6">
      <defs>
       <path id="mb24a2f78b7" d="M 0 0 
L -3.5 0 
" style="stroke: #000000; stroke-width: 0.8"/>
      </defs>
      <g>
       <use xlink:href="#mb24a2f78b7" x="51.8" y="305.725" style="stroke: #000000; stroke-width: 0.8"/>
      </g>
     </g>
     <g id="text_7">
      <!-- 0.00 -->
      <g transform="translate(23.8 309.822812) scale(0.12 -0.12)">
       <defs>
        <path id="STIXGeneral-Regular-2e" d="M 1158 275 
Q 1158 134 1052 32 
Q 947 -70 800 -70 
Q 653 -70 550 32 
Q 448 134 448 281 
Q 448 429 553 534 
Q 659 640 806 640 
Q 947 640 1052 531 
Q 1158 422 1158 275 
z
" transform="scale(0.015625)"/>
       </defs>
       <use xlink:href="#STIXGeneral-Regular-30"/>
       <use xlink:href="#STIXGeneral-Regular-2e" transform="translate(49.999985 0)"/>
       <use xlink:href="#STIXGeneral-Regular-30" transform="translate(74.999969 0)"/>
       <use xlink:href="#STIXGeneral-Regular-30" transform="translate(124.999954 0)"/>
      </g>
     </g>
    </g>
    <g id="ytick_2">
     <g id="line2d_7">
      <g>
       <use xlink:href="#mb24a2f78b7" x="51.8" y="265.100734" style="stroke: #000000; stroke-width: 0.8"/>
      </g>
     </g>
     <g id="text_8">
      <!-- 0.02 -->
      <g transform="translate(23.8 269.198546) scale(0.12 -0.12)">
       <use xlink:href="#STIXGeneral-Regular-30"/>
       <use xlink:href="#STIXGeneral-Regular-2e" transform="translate(49.999985 0)"/>
       <use xlink:href="#STIXGeneral-Regular-30" transform="translate(74.999969 0)"/>
       <use xlink:href="#STIXGeneral-Regular-32" transform="translate(124.999954 0)"/>
      </g>
     </g>
    </g>
    <g id="ytick_3">
     <g id="line2d_8">
      <g>
       <use xlink:href="#mb24a2f78b7" x="51.8" y="224.476468" style="stroke: #000000; stroke-width: 0.8"/>
      </g>
     </g>
     <g id="text_9">
      <!-- 0.04 -->
      <g transform="translate(23.8 228.57428) scale(0.12 -0.12)">
       <defs>
        <path id="STIXGeneral-Regular-34" d="M 3027 1069 
L 2368 1069 
L 2368 0 
L 1869 0 
L 1869 1069 
L 77 1069 
L 77 1478 
L 2086 4326 
L 2368 4326 
L 2368 1478 
L 3027 1478 
L 3027 1069 
z
M 1869 1478 
L 1869 3674 
L 333 1478 
L 1869 1478 
z
" transform="scale(0.015625)"/>
       </defs>
       <use xlink:href="#STIXGeneral-Regular-30"/>
       <use xlink:href="#STIXGeneral-Regular-2e" transform="translate(49.999985 0)"/>
       <use xlink:href="#STIXGeneral-Regular-30" transform="translate(74.999969 0)"/>
       <use xlink:href="#STIXGeneral-Regular-34" transform="translate(124.999954 0)"/>
      </g>
     </g>
    </g>
    <g id="ytick_4">
     <g id="line2d_9">
      <g>
       <use xlink:href="#mb24a2f78b7" x="51.8" y="183.852201" style="stroke: #000000; stroke-width: 0.8"/>
      </g>
     </g>
     <g id="text_10">
      <!-- 0.06 -->
      <g transform="translate(23.8 187.950014) scale(0.12 -0.12)">
       <defs>
        <path id="STIXGeneral-Regular-36" d="M 2854 4378 
L 2867 4275 
Q 2112 4154 1606 3664 
Q 1101 3174 973 2451 
Q 1344 2739 1786 2739 
Q 2349 2739 2672 2380 
Q 2995 2022 2995 1402 
Q 2995 774 2669 378 
Q 2291 -90 1651 -90 
Q 870 -90 518 557 
Q 218 1107 218 1786 
Q 218 2835 915 3552 
Q 1312 3962 1731 4131 
Q 2150 4301 2854 4378 
z
M 2419 1203 
Q 2419 2445 1555 2445 
Q 1235 2445 1024 2275 
Q 813 2106 813 1702 
Q 813 954 1046 522 
Q 1280 90 1722 90 
Q 2061 90 2240 394 
Q 2419 698 2419 1203 
z
" transform="scale(0.015625)"/>
       </defs>
       <use xlink:href="#STIXGeneral-Regular-30"/>
       <use xlink:href="#STIXGeneral-Regular-2e" transform="translate(49.999985 0)"/>
       <use xlink:href="#STIXGeneral-Regular-30" transform="translate(74.999969 0)"/>
       <use xlink:href="#STIXGeneral-Regular-36" transform="translate(124.999954 0)"/>
      </g>
     </g>
    </g>
    <g id="ytick_5">
     <g id="line2d_10">
      <g>
       <use xlink:href="#mb24a2f78b7" x="51.8" y="143.227935" style="stroke: #000000; stroke-width: 0.8"/>
      </g>
     </g>
     <g id="text_11">
      <!-- 0.08 -->
      <g transform="translate(23.8 147.325748) scale(0.12 -0.12)">
       <defs>
        <path id="STIXGeneral-Regular-38" d="M 2848 992 
Q 2848 499 2505 204 
Q 2163 -90 1587 -90 
Q 1050 -90 704 204 
Q 358 499 358 954 
Q 358 1293 524 1533 
Q 691 1773 1190 2125 
Q 710 2522 553 2765 
Q 397 3008 397 3328 
Q 397 3782 745 4054 
Q 1094 4326 1638 4326 
Q 2106 4326 2410 4060 
Q 2714 3795 2714 3411 
Q 2714 3059 2531 2848 
Q 2349 2637 1856 2374 
Q 2432 1990 2640 1689 
Q 2848 1389 2848 992 
z
M 2272 3411 
Q 2272 3744 2086 3945 
Q 1901 4147 1574 4147 
Q 1248 4147 1059 3977 
Q 870 3808 870 3513 
Q 870 3219 1059 2979 
Q 1248 2739 1670 2490 
Q 1997 2682 2134 2896 
Q 2272 3110 2272 3411 
z
M 1734 1741 
L 1357 1997 
Q 1075 1766 960 1545 
Q 845 1325 845 1011 
Q 845 576 1065 333 
Q 1286 90 1658 90 
Q 1971 90 2166 285 
Q 2362 480 2362 794 
Q 2362 1082 2214 1299 
Q 2067 1517 1734 1741 
z
" transform="scale(0.015625)"/>
       </defs>
       <use xlink:href="#STIXGeneral-Regular-30"/>
       <use xlink:href="#STIXGeneral-Regular-2e" transform="translate(49.999985 0)"/>
       <use xlink:href="#STIXGeneral-Regular-30" transform="translate(74.999969 0)"/>
       <use xlink:href="#STIXGeneral-Regular-38" transform="translate(124.999954 0)"/>
      </g>
     </g>
    </g>
    <g id="ytick_6">
     <g id="line2d_11">
      <g>
       <use xlink:href="#mb24a2f78b7" x="51.8" y="102.603669" style="stroke: #000000; stroke-width: 0.8"/>
      </g>
     </g>
     <g id="text_12">
      <!-- 0.10 -->
      <g transform="translate(23.8 106.701482) scale(0.12 -0.12)">
       <use xlink:href="#STIXGeneral-Regular-30"/>
       <use xlink:href="#STIXGeneral-Regular-2e" transform="translate(49.999985 0)"/>
       <use xlink:href="#STIXGeneral-Regular-31" transform="translate(74.999969 0)"/>
       <use xlink:href="#STIXGeneral-Regular-30" transform="translate(124.999954 0)"/>
      </g>
     </g>
    </g>
    <g id="ytick_7">
     <g id="line2d_12">
      <g>
       <use xlink:href="#mb24a2f78b7" x="51.8" y="61.979403" style="stroke: #000000; stroke-width: 0.8"/>
      </g>
     </g>
     <g id="text_13">
      <!-- 0.12 -->
      <g transform="translate(23.8 66.077215) scale(0.12 -0.12)">
       <use xlink:href="#STIXGeneral-Regular-30"/>
       <use xlink:href="#STIXGeneral-Regular-2e" transform="translate(49.999985 0)"/>
       <use xlink:href="#STIXGeneral-Regular-31" transform="translate(74.999969 0)"/>
       <use xlink:href="#STIXGeneral-Regular-32" transform="translate(124.999954 0)"/>
      </g>
     </g>
    </g>
    <g id="text_14">
     <!-- $P(n)$ -->
     <g transform="translate(16.761563 177.6825) rotate(-90) scale(0.14 -0.14)">
      <defs>
       <path id="STIXGeneral-Italic-50" d="M 934 4179 
L 2477 4179 
Q 3872 4179 3872 3232 
Q 3872 2976 3753 2729 
Q 3635 2483 3437 2317 
Q 2995 1952 2125 1952 
Q 1773 1952 1549 2003 
L 1210 768 
Q 1120 422 1120 365 
Q 1120 250 1216 189 
Q 1312 128 1562 102 
L 1562 0 
L 0 0 
L 0 102 
Q 275 141 361 227 
Q 448 314 538 627 
L 1280 3277 
Q 1389 3667 1389 3808 
Q 1389 3936 1299 3990 
Q 1210 4045 934 4077 
L 934 4179 
z
M 2048 3789 
L 1606 2221 
Q 1792 2189 1939 2189 
Q 2496 2189 2758 2342 
Q 3213 2598 3213 3200 
Q 3213 3987 2381 3987 
Q 2099 3987 2048 3789 
z
" transform="scale(0.015625)"/>
       <path id="STIXGeneral-Regular-28" d="M 1946 -1030 
L 1869 -1133 
Q 1126 -710 716 32 
Q 307 774 307 1613 
Q 307 3386 1888 4326 
L 1946 4224 
Q 1293 3667 1075 3126 
Q 858 2586 858 1632 
Q 858 685 1082 96 
Q 1306 -493 1946 -1030 
z
" transform="scale(0.015625)"/>
       <path id="STIXGeneral-Regular-29" d="M 186 4224 
L 262 4326 
Q 992 3891 1408 3148 
Q 1824 2406 1824 1581 
Q 1824 -166 243 -1133 
L 186 -1030 
Q 845 -486 1059 54 
Q 1274 595 1274 1562 
Q 1274 2534 1059 3120 
Q 845 3706 186 4224 
z
" transform="scale(0.015625)"/>
      </defs>
      <use xlink:href="#STIXGeneral-Italic-50" transform="translate(0 0.40625)"/>
      <use xlink:href="#STIXGeneral-Regular-28" transform="translate(61.099991 0.40625)"/>
      <use xlink:href="#STIXGeneral-Italic-6e" transform="translate(94.399979 0.40625)"/>
      <use xlink:href="#STIXGeneral-Regular-29" transform="translate(144.399963 0.40625)"/>
     </g>
    </g>
   </g>
   <g id="line2d_13">
    <path d="M 65.303333 305.474328 
L 92.31 303.468955 
L 119.316667 295.572799 
L 146.323333 275.268396 
L 173.33 237.197641 
L 200.336667 182.375754 
L 227.343333 120.701132 
L 254.35 67.837169 
L 281.356667 38.10119 
L 308.363333 38.10119 
L 335.37 64.863571 
L 362.376667 108.656558 
L 389.383333 157.923669 
L 416.39 203.401001 
L 443.396667 239.945287 
L 470.403333 266.257172 
L 497.41 283.524347 
L 524.416667 293.971713 
L 551.423333 299.848356 
L 578.43 302.941327 
L 605.436667 304.472347 
L 632.443333 305.188149 
L 659.45 305.505379 
L 686.456667 305.639061 
" clip-path="url(#p67676534e7)" style="fill: none; stroke: #ff0000; stroke-width: 1.5; stroke-linecap: square"/>
    <defs>
     <path id="ma3a05d1f08" d="M 0 3 
C 0.795609 3 1.55874 2.683901 2.12132 2.12132 
C 2.683901 1.55874 3 0.795609 3 0 
C 3 -0.795609 2.683901 -1.55874 2.12132 -2.12132 
C 1.55874 -2.683901 0.795609 -3 0 -3 
C -0.795609 -3 -1.55874 -2.683901 -2.12132 -2.12132 
C -2.683901 -1.55874 -3 -0.795609 -3 0 
C -3 0.795609 -2.683901 1.55874 -2.12132 2.12132 
C -1.55874 2.683901 -0.795609 3 0 3 
z
" style="stroke: #ff0000"/>
    </defs>
    <g clip-path="url(#p67676534e7)">
     <use xlink:href="#ma3a05d1f08" x="65.303333" y="305.474328" style="fill: #ff0000; stroke: #ff0000"/>
     <use xlink:href="#ma3a05d1f08" x="92.31" y="303.468955" style="fill: #ff0000; stroke: #ff0000"/>
     <use xlink:href="#ma3a05d1f08" x="119.316667" y="295.572799" style="fill: #ff0000; stroke: #ff0000"/>
     <use xlink:href="#ma3a05d1f08" x="146.323333" y="275.268396" style="fill: #ff0000; stroke: #ff0000"/>
     <use xlink:href="#ma3a05d1f08" x="173.33" y="237.197641" style="fill: #ff0000; stroke: #ff0000"/>
     <use xlink:href="#ma3a05d1f08" x="200.336667" y="182.375754" style="fill: #ff0000; stroke: #ff0000"/>
     <use xlink:href="#ma3a05d1f08" x="227.343333" y="120.701132" style="fill: #ff0000; stroke: #ff0000"/>
     <use xlink:href="#ma3a05d1f08" x="254.35" y="67.837169" style="fill: #ff0000; stroke: #ff0000"/>
     <use xlink:href="#ma3a05d1f08" x="281.356667" y="38.10119" style="fill: #ff0000; stroke: #ff0000"/>
     <use xlink:href="#ma3a05d1f08" x="308.363333" y="38.10119" style="fill: #ff0000; stroke: #ff0000"/>
     <use xlink:href="#ma3a05d1f08" x="335.37" y="64.863571" style="fill: #ff0000; stroke: #ff0000"/>
     <use xlink:href="#ma3a05d1f08" x="362.376667" y="108.656558" style="fill: #ff0000; stroke: #ff0000"/>
     <use xlink:href="#ma3a05d1f08" x="389.383333" y="157.923669" style="fill: #ff0000; stroke: #ff0000"/>
     <use xlink:href="#ma3a05d1f08" x="416.39" y="203.401001" style="fill: #ff0000; stroke: #ff0000"/>
     <use xlink:href="#ma3a05d1f08" x="443.396667" y="239.945287" style="fill: #ff0000; stroke: #ff0000"/>
     <use xlink:href="#ma3a05d1f08" x="470.403333" y="266.257172" style="fill: #ff0000; stroke: #ff0000"/>
     <use xlink:href="#ma3a05d1f08" x="497.41" y="283.524347" style="fill: #ff0000; stroke: #ff0000"/>
     <use xlink:href="#ma3a05d1f08" x="524.416667" y="293.971713" style="fill: #ff0000; stroke: #ff0000"/>
     <use xlink:href="#ma3a05d1f08" x="551.423333" y="299.848356" style="fill: #ff0000; stroke: #ff0000"/>
     <use xlink:href="#ma3a05d1f08" x="578.43" y="302.941327" style="fill: #ff0000; stroke: #ff0000"/>
     <use xlink:href="#ma3a05d1f08" x="605.436667" y="304.472347" style="fill: #ff0000; stroke: #ff0000"/>
     <use xlink:href="#ma3a05d1f08" x="632.443333" y="305.188149" style="fill: #ff0000; stroke: #ff0000"/>
     <use xlink:href="#ma3a05d1f08" x="659.45" y="305.505379" style="fill: #ff0000; stroke: #ff0000"/>
     <use xlink:href="#ma3a05d1f08" x="686.456667" y="305.639061" style="fill: #ff0000; stroke: #ff0000"/>
    </g>
   </g>
   <g id="patch_27">
    <path d="M 51.8 305.725 
L 51.8 24.72 
" style="fill: none; stroke: #000000; stroke-width: 0.8; stroke-linejoin: miter; stroke-linecap: square"/>
   </g>
   <g id="patch_28">
    <path d="M 699.96 305.725 
L 699.96 24.72 
" style="fill: none; stroke: #000000; stroke-width: 0.8; stroke-linejoin: miter; stroke-linecap: square"/>
   </g>
   <g id="patch_29">
    <path d="M 51.8 305.725 
L 699.96 305.725 
" style="fill: none; stroke: #000000; stroke-width: 0.8; stroke-linejoin: miter; stroke-linecap: square"/>
   </g>
   <g id="patch_30">
    <path d="M 51.8 24.72 
L 699.96 24.72 
" style="fill: none; stroke: #000000; stroke-width: 0.8; stroke-linejoin: miter; stroke-linecap: square"/>
   </g>
   <g id="text_15">
    <g id="patch_31">
     <path d="M 561.245594 73.218094 
L 671.512 73.218094 
L 671.512 55.398094 
L 561.245594 55.398094 
z
" style="fill: #90ee90; opacity: 0.8; stroke: #000000; stroke-linejoin: miter"/>
    </g>
    <!-- Max residual: 3.61e-16 -->
    <g transform="translate(565.205594 66.87075) scale(0.11 -0.11)">
     <defs>
      <path id="STIXGeneral-Regular-4d" d="M 5530 0 
L 3738 0 
L 3738 122 
Q 4115 147 4214 265 
Q 4314 384 4314 787 
L 4314 3661 
L 2682 0 
L 2592 0 
L 979 3514 
L 979 966 
Q 979 448 1088 294 
Q 1197 141 1574 122 
L 1574 0 
L 77 0 
L 77 122 
Q 358 141 480 205 
Q 602 269 650 432 
Q 698 595 698 966 
L 698 3514 
Q 698 3878 589 3984 
Q 480 4090 90 4115 
L 90 4237 
L 1357 4237 
L 2835 1024 
L 4250 4237 
L 5523 4237 
L 5523 4115 
Q 5178 4109 5072 3993 
Q 4966 3878 4966 3520 
L 4966 717 
Q 4966 378 5072 262 
Q 5178 147 5530 122 
L 5530 0 
z
" transform="scale(0.015625)"/>
      <path id="STIXGeneral-Regular-61" d="M 2829 422 
L 2829 243 
Q 2586 -64 2253 -64 
Q 1888 -64 1843 403 
L 1837 403 
Q 1427 -64 909 -64 
Q 608 -64 422 112 
Q 237 288 237 602 
Q 237 1050 685 1350 
Q 992 1555 1837 1869 
L 1837 2214 
Q 1837 2502 1699 2646 
Q 1562 2790 1338 2790 
Q 1146 2790 1018 2697 
Q 890 2605 890 2477 
Q 890 2419 909 2348 
Q 928 2278 928 2208 
Q 928 2112 841 2029 
Q 755 1946 634 1946 
Q 525 1946 441 2029 
Q 358 2112 358 2240 
Q 358 2547 685 2752 
Q 986 2944 1421 2944 
Q 1939 2944 2176 2656 
Q 2291 2522 2323 2384 
Q 2355 2246 2355 1946 
L 2355 723 
Q 2355 301 2554 301 
Q 2682 301 2829 422 
z
M 1837 813 
L 1837 1715 
Q 1248 1510 1018 1293 
Q 800 1094 800 800 
Q 800 557 921 432 
Q 1043 307 1242 307 
Q 1453 307 1613 410 
Q 1747 506 1792 589 
Q 1837 672 1837 813 
z
" transform="scale(0.015625)"/>
      <path id="STIXGeneral-Regular-78" d="M 3066 0 
L 1779 0 
L 1779 96 
Q 1939 109 1987 137 
Q 2035 166 2035 250 
Q 2035 307 1997 365 
L 1414 1261 
L 909 474 
Q 781 275 781 211 
Q 781 96 1037 96 
L 1037 0 
L 109 0 
L 109 96 
Q 269 109 355 169 
Q 442 230 576 422 
L 1306 1478 
L 704 2400 
Q 557 2624 454 2704 
Q 352 2784 211 2784 
L 154 2784 
L 154 2880 
L 1478 2880 
L 1478 2784 
Q 1203 2778 1203 2643 
Q 1203 2509 1498 2074 
Q 1581 1958 1587 1946 
Q 1619 1990 1779 2227 
Q 1811 2285 1856 2349 
Q 1901 2413 1923 2451 
Q 1946 2490 1971 2528 
Q 1997 2566 2006 2595 
Q 2016 2624 2016 2643 
Q 2016 2765 1760 2784 
L 1760 2880 
L 2771 2880 
L 2771 2784 
Q 2445 2771 2253 2502 
L 1722 1734 
L 2541 480 
Q 2790 96 3066 96 
L 3066 0 
z
" transform="scale(0.015625)"/>
      <path id="STIXGeneral-Regular-73" d="M 998 1926 
L 1664 1523 
Q 1984 1331 2105 1164 
Q 2227 998 2227 736 
Q 2227 416 1961 176 
Q 1696 -64 1331 -64 
Q 1030 -64 864 -6 
Q 691 51 570 51 
Q 461 51 416 -26 
L 333 -26 
L 333 979 
L 435 979 
Q 538 512 730 294 
Q 922 77 1248 77 
Q 1485 77 1632 211 
Q 1779 346 1779 550 
Q 1779 845 1440 1030 
L 1094 1222 
Q 326 1651 326 2150 
Q 326 2522 566 2730 
Q 806 2938 1210 2938 
Q 1491 2938 1638 2867 
Q 1754 2816 1818 2816 
Q 1862 2816 1920 2880 
L 1990 2880 
L 2022 2010 
L 1926 2010 
Q 1818 2445 1654 2621 
Q 1491 2797 1203 2797 
Q 986 2797 854 2688 
Q 723 2579 723 2362 
Q 723 2253 796 2128 
Q 870 2003 998 1926 
z
" transform="scale(0.015625)"/>
      <path id="STIXGeneral-Regular-69" d="M 1152 4045 
Q 1152 3904 1056 3811 
Q 960 3718 819 3718 
Q 685 3718 592 3811 
Q 499 3904 499 4045 
Q 499 4179 595 4275 
Q 691 4371 826 4371 
Q 966 4371 1059 4275 
Q 1152 4179 1152 4045 
z
M 1619 0 
L 102 0 
L 102 96 
Q 435 115 521 211 
Q 608 307 608 666 
L 608 2118 
Q 608 2342 563 2432 
Q 518 2522 397 2522 
Q 243 2522 128 2490 
L 128 2592 
L 1120 2944 
L 1146 2918 
L 1146 672 
Q 1146 314 1226 218 
Q 1306 122 1619 96 
L 1619 0 
z
" transform="scale(0.015625)"/>
      <path id="STIXGeneral-Regular-64" d="M 3142 269 
L 2202 -64 
L 2176 -45 
L 2176 365 
Q 1869 -64 1357 -64 
Q 826 -64 499 317 
Q 173 698 173 1312 
Q 173 1990 563 2467 
Q 954 2944 1504 2944 
Q 1850 2944 2176 2669 
L 2176 3667 
Q 2176 3866 2118 3930 
Q 2061 3994 1882 3994 
Q 1792 3994 1741 3987 
L 1741 4090 
Q 2323 4243 2682 4371 
L 2714 4358 
L 2714 730 
Q 2714 506 2768 435 
Q 2822 365 2995 365 
Q 3034 365 3142 371 
L 3142 269 
z
M 2176 653 
L 2176 2125 
Q 2176 2381 1981 2573 
Q 1786 2765 1523 2765 
Q 1158 2765 940 2438 
Q 723 2112 723 1568 
Q 723 979 963 624 
Q 1203 269 1606 269 
Q 1907 269 2080 474 
Q 2176 582 2176 653 
z
" transform="scale(0.015625)"/>
      <path id="STIXGeneral-Regular-6c" d="M 1645 0 
L 134 0 
L 134 96 
Q 435 122 531 221 
Q 627 320 627 589 
L 627 3590 
Q 627 3821 569 3910 
Q 512 4000 358 4000 
Q 224 4000 122 3987 
L 122 4090 
Q 730 4237 1133 4371 
L 1165 4346 
L 1165 557 
Q 1165 288 1254 201 
Q 1344 115 1645 96 
L 1645 0 
z
" transform="scale(0.015625)"/>
      <path id="STIXGeneral-Regular-3a" d="M 1123 2832 
Q 1229 2726 1229 2579 
Q 1229 2432 1126 2329 
Q 1024 2227 877 2227 
Q 730 2227 624 2332 
Q 518 2438 518 2579 
Q 518 2733 620 2835 
Q 723 2938 877 2938 
Q 1018 2938 1123 2832 
z
M 1229 282 
Q 1229 141 1126 35 
Q 1024 -70 877 -70 
Q 730 -70 624 35 
Q 518 141 518 282 
Q 518 435 620 537 
Q 723 640 877 640 
Q 1018 640 1123 534 
Q 1229 429 1229 282 
z
" transform="scale(0.015625)"/>
      <path id="STIXGeneral-Regular-33" d="M 390 3264 
L 288 3290 
Q 435 3770 748 4048 
Q 1062 4326 1542 4326 
Q 1990 4326 2265 4083 
Q 2541 3840 2541 3450 
Q 2541 2925 1946 2566 
Q 2298 2413 2477 2227 
Q 2758 1914 2758 1402 
Q 2758 890 2464 506 
Q 2246 211 1840 60 
Q 1434 -90 979 -90 
Q 262 -90 262 275 
Q 262 378 339 442 
Q 416 506 525 506 
Q 685 506 915 339 
Q 1197 141 1466 141 
Q 1818 141 2058 425 
Q 2298 710 2298 1120 
Q 2298 1856 1632 2048 
Q 1434 2112 979 2112 
L 979 2202 
Q 1338 2323 1517 2432 
Q 2035 2726 2035 3290 
Q 2035 3610 1852 3776 
Q 1670 3942 1344 3942 
Q 768 3942 390 3264 
z
" transform="scale(0.015625)"/>
      <path id="STIXGeneral-Regular-2d" d="M 1824 1242 
L 250 1242 
L 250 1645 
L 1824 1645 
L 1824 1242 
z
" transform="scale(0.015625)"/>
     </defs>
     <use xlink:href="#STIXGeneral-Regular-4d"/>
     <use xlink:href="#STIXGeneral-Regular-61" transform="translate(88.899994 0)"/>
     <use xlink:href="#STIXGeneral-Regular-78" transform="translate(133.299988 0)"/>
     <use xlink:href="#STIXGeneral-Regular-20" transform="translate(183.299973 0)"/>
     <use xlink:href="#STIXGeneral-Regular-72" transform="translate(208.299957 0)"/>
     <use xlink:href="#STIXGeneral-Regular-65" transform="translate(241.599945 0)"/>
     <use xlink:href="#STIXGeneral-Regular-73" transform="translate(285.999939 0)"/>
     <use xlink:href="#STIXGeneral-Regular-69" transform="translate(324.899933 0)"/>
     <use xlink:href="#STIXGeneral-Regular-64" transform="translate(352.699921 0)"/>
     <use xlink:href="#STIXGeneral-Regular-75" transform="translate(402.699905 0)"/>
     <use xlink:href="#STIXGeneral-Regular-61" transform="translate(452.69989 0)"/>
     <use xlink:href="#STIXGeneral-Regular-6c" transform="translate(497.099884 0)"/>
     <use xlink:href="#STIXGeneral-Regular-3a" transform="translate(524.899872 0)"/>
     <use xlink:href="#STIXGeneral-Regular-20" transform="translate(552.69986 0)"/>
     <use xlink:href="#STIXGeneral-Regular-33" transform="translate(577.699844 0)"/>
     <use xlink:href="#STIXGeneral-Regular-2e" transform="translate(627.699829 0)"/>
     <use xlink:href="#STIXGeneral-Regular-36" transform="translate(652.699814 0)"/>
     <use xlink:href="#STIXGeneral-Regular-31" transform="translate(702.699799 0)"/>
     <use xlink:href="#STIXGeneral-Regular-65" transform="translate(752.699783 0)"/>
     <use xlink:href="#STIXGeneral-Regular-2d" transform="translate(797.099777 0)"/>
     <use xlink:href="#STIXGeneral-Regular-31" transform="translate(830.399765 0)"/>
     <use xlink:href="#STIXGeneral-Regular-36" transform="translate(880.39975 0)"/>
    </g>
   </g>
   <g id="text_16">
    <!-- Coherent State $|\alpha = 3.0\rangle$: Computed vs. Analytical Poisson -->
    <g transform="translate(188.6 18.72) scale(0.16 -0.16)">
     <defs>
      <path id="STIXGeneral-Regular-43" d="M 3930 838 
L 4051 723 
Q 3482 -90 2304 -90 
Q 1376 -90 794 480 
Q 179 1082 179 2080 
Q 179 3014 755 3661 
Q 1357 4326 2310 4326 
Q 2720 4326 3072 4230 
Q 3475 4115 3514 4115 
Q 3725 4115 3782 4326 
L 3910 4326 
L 3968 2874 
L 3821 2874 
Q 3718 3334 3488 3584 
Q 3034 4070 2458 4070 
Q 1747 4070 1334 3548 
Q 922 3027 922 2182 
Q 922 1152 1382 653 
Q 1811 192 2522 192 
Q 2944 192 3251 339 
Q 3558 486 3930 838 
z
" transform="scale(0.015625)"/>
      <path id="STIXGeneral-Regular-53" d="M 3002 2963 
L 2842 2963 
Q 2733 3360 2579 3565 
Q 2189 4064 1651 4064 
Q 1357 4064 1181 3894 
Q 1005 3725 1005 3456 
Q 1005 3328 1069 3206 
Q 1133 3085 1206 2998 
Q 1280 2912 1465 2784 
Q 1651 2656 1766 2589 
Q 1882 2522 2150 2362 
Q 2669 2061 2905 1763 
Q 3142 1466 3142 1107 
Q 3142 576 2771 243 
Q 2400 -90 1837 -90 
Q 1421 -90 1082 58 
Q 915 128 781 128 
Q 704 128 653 70 
Q 602 13 602 -83 
L 461 -83 
L 275 1274 
L 416 1274 
Q 845 141 1734 141 
Q 2074 141 2285 342 
Q 2496 544 2496 858 
Q 2496 1158 2310 1363 
Q 2003 1696 1235 2106 
Q 454 2522 454 3206 
Q 454 3718 768 4022 
Q 1082 4326 1568 4326 
Q 1907 4326 2240 4186 
Q 2413 4109 2522 4109 
Q 2688 4109 2726 4326 
L 2861 4326 
L 3002 2963 
z
" transform="scale(0.015625)"/>
      <path id="STIXGeneral-Regular-7c" d="M 851 -90 
L 429 -90 
L 429 4326 
L 851 4326 
L 851 -90 
z
" transform="scale(0.015625)"/>
      <path id="STIXGeneral-Italic-3b1" d="M 3514 2739 
L 2605 1069 
L 2605 954 
Q 2605 704 2662 512 
Q 2720 320 2822 320 
Q 2970 320 3149 794 
L 3251 749 
Q 3014 -58 2605 -58 
Q 2291 -58 2272 614 
Q 1709 -70 1030 -70 
Q 589 -70 381 198 
Q 173 467 173 902 
Q 173 1293 329 1673 
Q 486 2054 755 2330 
Q 973 2547 1270 2684 
Q 1568 2822 1862 2822 
Q 2246 2822 2457 2595 
Q 2669 2368 2669 2061 
L 2963 2739 
L 3514 2739 
z
M 2298 1741 
Q 2298 2688 1805 2688 
Q 1472 2688 1085 2099 
Q 698 1510 698 800 
Q 698 493 806 278 
Q 915 64 1139 64 
Q 1606 64 2195 1286 
Q 2202 1325 2230 1411 
Q 2259 1498 2278 1581 
Q 2298 1664 2298 1741 
z
" transform="scale(0.015625)"/>
      <path id="STIXGeneral-Regular-3d" d="M 4077 2048 
L 307 2048 
L 307 2470 
L 4077 2470 
L 4077 2048 
z
M 4077 768 
L 307 768 
L 307 1190 
L 4077 1190 
L 4077 768 
z
" transform="scale(0.015625)"/>
      <path id="STIXGeneral-Regular-27e9" d="M 2067 1536 
L 749 -1363 
L 416 -1363 
L 1645 1600 
L 422 4563 
L 755 4563 
L 2067 1664 
L 2067 1536 
z
" transform="scale(0.015625)"/>
      <path id="STIXGeneral-Regular-70" d="M 1018 2931 
L 1018 2438 
Q 1421 2944 1939 2944 
Q 2406 2944 2707 2560 
Q 3008 2176 3008 1581 
Q 3008 883 2621 409 
Q 2234 -64 1664 -64 
Q 1466 -64 1328 -6 
Q 1190 51 1018 211 
L 1018 -794 
Q 1018 -1094 1120 -1180 
Q 1222 -1267 1581 -1274 
L 1581 -1389 
L 32 -1389 
L 32 -1280 
Q 314 -1254 397 -1171 
Q 480 -1088 480 -838 
L 480 2157 
Q 480 2381 429 2451 
Q 378 2522 218 2522 
Q 115 2522 58 2515 
L 58 2618 
Q 506 2752 979 2944 
L 1018 2931 
z
M 1018 2138 
L 1018 563 
Q 1018 422 1238 281 
Q 1459 141 1683 141 
Q 2029 141 2243 467 
Q 2458 794 2458 1325 
Q 2458 1888 2243 2224 
Q 2029 2560 1670 2560 
Q 1446 2560 1232 2419 
Q 1018 2278 1018 2138 
z
" transform="scale(0.015625)"/>
      <path id="STIXGeneral-Regular-76" d="M 3053 2880 
L 3053 2784 
Q 2906 2771 2835 2688 
Q 2765 2605 2637 2285 
L 1818 230 
Q 1690 -90 1638 -90 
Q 1587 -90 1523 77 
Q 1510 96 1497 141 
Q 1485 186 1472 211 
L 704 2048 
Q 499 2534 403 2652 
Q 307 2771 122 2784 
L 122 2880 
L 1376 2880 
L 1376 2784 
Q 1210 2771 1146 2732 
Q 1082 2694 1082 2611 
Q 1082 2509 1139 2368 
L 1792 730 
L 2426 2387 
Q 2464 2483 2464 2579 
Q 2464 2758 2163 2784 
L 2163 2880 
L 3053 2880 
z
" transform="scale(0.015625)"/>
      <path id="STIXGeneral-Regular-41" d="M 4525 0 
L 2893 0 
L 2893 122 
Q 3149 122 3245 179 
Q 3334 224 3334 333 
Q 3334 499 3213 781 
L 2950 1382 
L 1274 1382 
L 979 653 
Q 922 506 922 384 
Q 922 237 1027 179 
Q 1133 122 1370 122 
L 1370 0 
L 96 0 
L 96 122 
Q 365 147 486 316 
Q 608 486 902 1190 
L 2221 4314 
L 2349 4314 
L 3923 710 
Q 4064 378 4176 262 
Q 4288 147 4525 122 
L 4525 0 
z
M 2861 1645 
L 2118 3405 
L 1382 1645 
L 2861 1645 
z
" transform="scale(0.015625)"/>
      <path id="STIXGeneral-Regular-79" d="M 3040 2880 
L 3040 2784 
Q 2925 2771 2854 2700 
Q 2784 2630 2720 2458 
L 1760 -160 
Q 1510 -838 1257 -1116 
Q 1005 -1395 640 -1395 
Q 435 -1395 313 -1289 
Q 192 -1184 192 -1024 
Q 192 -902 272 -816 
Q 352 -730 467 -730 
Q 653 -730 800 -813 
Q 883 -858 966 -858 
Q 1101 -858 1286 -576 
Q 1376 -448 1459 -211 
Q 1542 26 1542 115 
Q 1542 198 1274 762 
L 429 2566 
Q 346 2752 90 2790 
L 90 2880 
L 1402 2880 
L 1402 2784 
Q 1197 2778 1117 2739 
Q 1037 2701 1037 2611 
Q 1037 2541 1120 2349 
L 1837 749 
L 2458 2515 
Q 2483 2573 2483 2630 
Q 2483 2784 2189 2784 
L 2189 2880 
L 3040 2880 
z
" transform="scale(0.015625)"/>
      <path id="STIXGeneral-Regular-63" d="M 2547 998 
L 2637 941 
Q 2362 403 2112 205 
Q 1786 -64 1376 -64 
Q 845 -64 502 336 
Q 160 736 160 1357 
Q 160 2170 698 2618 
Q 1094 2944 1562 2944 
Q 1965 2944 2256 2749 
Q 2547 2554 2547 2285 
Q 2547 2176 2457 2096 
Q 2368 2016 2246 2016 
Q 2022 2016 1939 2310 
L 1901 2451 
Q 1850 2630 1773 2694 
Q 1696 2758 1523 2758 
Q 1133 2758 893 2451 
Q 653 2144 653 1645 
Q 653 1094 928 745 
Q 1203 397 1645 397 
Q 1920 397 2118 528 
Q 2317 659 2547 998 
z
" transform="scale(0.015625)"/>
     </defs>
     <use xlink:href="#STIXGeneral-Regular-43" transform="translate(0 0.703125)"/>
     <use xlink:href="#STIXGeneral-Regular-6f" transform="translate(66.699997 0.703125)"/>
     <use xlink:href="#STIXGeneral-Regular-68" transform="translate(116.699982 0.703125)"/>
     <use xlink:href="#STIXGeneral-Regular-65" transform="translate(166.699966 0.703125)"/>
     <use xlink:href="#STIXGeneral-Regular-72" transform="translate(211.09996 0.703125)"/>
     <use xlink:href="#STIXGeneral-Regular-65" transform="translate(244.399948 0.703125)"/>
     <use xlink:href="#STIXGeneral-Regular-6e" transform="translate(288.799942 0.703125)"/>
     <use xlink:href="#STIXGeneral-Regular-74" transform="translate(338.799927 0.703125)"/>
     <use xlink:href="#STIXGeneral-Regular-20" transform="translate(366.599915 0.703125)"/>
     <use xlink:href="#STIXGeneral-Regular-53" transform="translate(391.599899 0.703125)"/>
     <use xlink:href="#STIXGeneral-Regular-74" transform="translate(447.19989 0.703125)"/>
     <use xlink:href="#STIXGeneral-Regular-61" transform="translate(474.999878 0.703125)"/>
     <use xlink:href="#STIXGeneral-Regular-74" transform="translate(519.399872 0.703125)"/>
     <use xlink:href="#STIXGeneral-Regular-65" transform="translate(547.19986 0.703125)"/>
     <use xlink:href="#STIXGeneral-Regular-20" transform="translate(591.599854 0.703125)"/>
     <use xlink:href="#STIXGeneral-Regular-7c" transform="translate(616.599838 0.703125)"/>
     <use xlink:href="#STIXGeneral-Italic-3b1" transform="translate(636.599823 0.703125)"/>
     <use xlink:href="#STIXGeneral-Regular-3d" transform="translate(706.239816 0.703125)"/>
     <use xlink:href="#STIXGeneral-Regular-33" transform="translate(789.179797 0.703125)"/>
     <use xlink:href="#STIXGeneral-Regular-2e" transform="translate(839.179782 0.703125)"/>
     <use xlink:href="#STIXGeneral-Regular-30" transform="translate(864.179767 0.703125)"/>
     <use xlink:href="#STIXGeneral-Regular-27e9" transform="translate(914.179752 0.703125)"/>
     <use xlink:href="#STIXGeneral-Regular-3a" transform="translate(954.179736 0.703125)"/>
     <use xlink:href="#STIXGeneral-Regular-20" transform="translate(981.979724 0.703125)"/>
     <use xlink:href="#STIXGeneral-Regular-43" transform="translate(1006.979709 0.703125)"/>
     <use xlink:href="#STIXGeneral-Regular-6f" transform="translate(1073.679706 0.703125)"/>
     <use xlink:href="#STIXGeneral-Regular-6d" transform="translate(1123.679691 0.703125)"/>
     <use xlink:href="#STIXGeneral-Regular-70" transform="translate(1201.479678 0.703125)"/>
     <use xlink:href="#STIXGeneral-Regular-75" transform="translate(1251.479663 0.703125)"/>
     <use xlink:href="#STIXGeneral-Regular-74" transform="translate(1301.479648 0.703125)"/>
     <use xlink:href="#STIXGeneral-Regular-65" transform="translate(1329.279636 0.703125)"/>
     <use xlink:href="#STIXGeneral-Regular-64" transform="translate(1373.67963 0.703125)"/>
     <use xlink:href="#STIXGeneral-Regular-20" transform="translate(1423.679614 0.703125)"/>
     <use xlink:href="#STIXGeneral-Regular-76" transform="translate(1448.679599 0.703125)"/>
     <use xlink:href="#STIXGeneral-Regular-73" transform="translate(1498.679584 0.703125)"/>
     <use xlink:href="#STIXGeneral-Regular-2e" transform="translate(1537.579578 0.703125)"/>
     <use xlink:href="#STIXGeneral-Regular-20" transform="translate(1562.579562 0.703125)"/>
     <use xlink:href="#STIXGeneral-Regular-41" transform="translate(1587.579547 0.703125)"/>
     <use xlink:href="#STIXGeneral-Regular-6e" transform="translate(1659.779529 0.703125)"/>
     <use xlink:href="#STIXGeneral-Regular-61" transform="translate(1709.779514 0.703125)"/>
     <use xlink:href="#STIXGeneral-Regular-6c" transform="translate(1754.179507 0.703125)"/>
     <use xlink:href="#STIXGeneral-Regular-79" transform="translate(1781.979495 0.703125)"/>
     <use xlink:href="#STIXGeneral-Regular-74" transform="translate(1831.97948 0.703125)"/>
     <use xlink:href="#STIXGeneral-Regular-69" transform="translate(1859.779468 0.703125)"/>
     <use xlink:href="#STIXGeneral-Regular-63" transform="translate(1887.579456 0.703125)"/>
     <use xlink:href="#STIXGeneral-Regular-61" transform="translate(1931.979449 0.703125)"/>
     <use xlink:href="#STIXGeneral-Regular-6c" transform="translate(1976.379443 0.703125)"/>
     <use xlink:href="#STIXGeneral-Regular-20" transform="translate(2004.179431 0.703125)"/>
     <use xlink:href="#STIXGeneral-Regular-50" transform="translate(2029.179416 0.703125)"/>
     <use xlink:href="#STIXGeneral-Regular-6f" transform="translate(2084.879413 0.703125)"/>
     <use xlink:href="#STIXGeneral-Regular-69" transform="translate(2134.879398 0.703125)"/>
     <use xlink:href="#STIXGeneral-Regular-73" transform="translate(2162.679385 0.703125)"/>
     <use xlink:href="#STIXGeneral-Regular-73" transform="translate(2201.579379 0.703125)"/>
     <use xlink:href="#STIXGeneral-Regular-6f" transform="translate(2240.479373 0.703125)"/>
     <use xlink:href="#STIXGeneral-Regular-6e" transform="translate(2290.479358 0.703125)"/>
    </g>
   </g>
   <g id="legend_1">
    <g id="patch_32">
     <path d="M 60.2 68.4 
L 223.16 68.4 
Q 225.56 68.4 225.56 66 
L 225.56 33.12 
Q 225.56 30.72 223.16 30.72 
L 60.2 30.72 
Q 57.8 30.72 57.8 33.12 
L 57.8 66 
Q 57.8 68.4 60.2 68.4 
z
" style="fill: #ffffff; opacity: 0.8; stroke: #cccccc; stroke-linejoin: miter"/>
    </g>
    <g id="line2d_14">
     <path d="M 62.6 39.72 
L 74.6 39.72 
L 86.6 39.72 
" style="fill: none; stroke: #ff0000; stroke-width: 1.5; stroke-linecap: square"/>
     <g>
      <use xlink:href="#ma3a05d1f08" x="74.6" y="39.72" style="fill: #ff0000; stroke: #ff0000"/>
     </g>
    </g>
    <g id="text_17">
     <!-- Analytical Poisson ($\lambda = 9$) -->
     <g transform="translate(96.2 43.92) scale(0.12 -0.12)">
      <defs>
       <path id="STIXGeneral-Italic-3bb" d="M 2656 787 
L 2758 787 
Q 2560 -102 2112 -102 
Q 1965 -102 1869 48 
Q 1773 198 1773 499 
Q 1773 672 1789 889 
Q 1805 1107 1833 1446 
Q 1862 1786 1875 2016 
L 538 0 
L -77 0 
L 1907 2739 
Q 1933 2970 1933 3245 
Q 1933 3936 1619 3936 
Q 1530 3936 1408 3821 
Q 1286 3706 1203 3462 
L 1101 3462 
Q 1312 4339 1747 4339 
Q 1926 4339 2041 4115 
Q 2157 3891 2157 3475 
Q 2157 3040 2093 2192 
Q 2029 1344 2029 941 
Q 2029 602 2089 451 
Q 2150 301 2291 301 
Q 2483 301 2656 787 
z
" transform="scale(0.015625)"/>
       <path id="STIXGeneral-Regular-39" d="M 378 -141 
L 358 -13 
Q 1094 115 1603 608 
Q 2112 1101 2304 1882 
Q 1933 1517 1344 1517 
Q 826 1517 509 1875 
Q 192 2234 192 2816 
Q 192 3462 573 3894 
Q 954 4326 1523 4326 
Q 2131 4326 2528 3840 
Q 2938 3328 2938 2522 
Q 2938 1958 2742 1462 
Q 2547 966 2170 621 
Q 1773 262 1395 105 
Q 1018 -51 378 -141 
z
M 2317 2272 
L 2317 2522 
Q 2317 4147 1472 4147 
Q 1171 4147 1005 3930 
Q 909 3802 845 3546 
Q 781 3290 781 3034 
Q 781 2464 995 2128 
Q 1210 1792 1568 1792 
Q 1824 1792 2070 1917 
Q 2317 2042 2317 2272 
z
" transform="scale(0.015625)"/>
      </defs>
      <use xlink:href="#STIXGeneral-Regular-41" transform="translate(0 0.703125)"/>
      <use xlink:href="#STIXGeneral-Regular-6e" transform="translate(72.199982 0.703125)"/>
      <use xlink:href="#STIXGeneral-Regular-61" transform="translate(122.199966 0.703125)"/>
      <use xlink:href="#STIXGeneral-Regular-6c" transform="translate(166.59996 0.703125)"/>
      <use xlink:href="#STIXGeneral-Regular-79" transform="translate(194.399948 0.703125)"/>
      <use xlink:href="#STIXGeneral-Regular-74" transform="translate(244.399933 0.703125)"/>
      <use xlink:href="#STIXGeneral-Regular-69" transform="translate(272.199921 0.703125)"/>
      <use xlink:href="#STIXGeneral-Regular-63" transform="translate(299.999908 0.703125)"/>
      <use xlink:href="#STIXGeneral-Regular-61" transform="translate(344.399902 0.703125)"/>
      <use xlink:href="#STIXGeneral-Regular-6c" transform="translate(388.799896 0.703125)"/>
      <use xlink:href="#STIXGeneral-Regular-20" transform="translate(416.599884 0.703125)"/>
      <use xlink:href="#STIXGeneral-Regular-50" transform="translate(441.599869 0.703125)"/>
      <use xlink:href="#STIXGeneral-Regular-6f" transform="translate(497.299866 0.703125)"/>
      <use xlink:href="#STIXGeneral-Regular-69" transform="translate(547.29985 0.703125)"/>
      <use xlink:href="#STIXGeneral-Regular-73" transform="translate(575.099838 0.703125)"/>
      <use xlink:href="#STIXGeneral-Regular-73" transform="translate(613.999832 0.703125)"/>
      <use xlink:href="#STIXGeneral-Regular-6f" transform="translate(652.899826 0.703125)"/>
      <use xlink:href="#STIXGeneral-Regular-6e" transform="translate(702.899811 0.703125)"/>
      <use xlink:href="#STIXGeneral-Regular-20" transform="translate(752.899796 0.703125)"/>
      <use xlink:href="#STIXGeneral-Regular-28" transform="translate(777.89978 0.703125)"/>
      <use xlink:href="#STIXGeneral-Italic-3bb" transform="translate(811.199768 0.703125)"/>
      <use xlink:href="#STIXGeneral-Regular-3d" transform="translate(871.439752 0.703125)"/>
      <use xlink:href="#STIXGeneral-Regular-39" transform="translate(954.379733 0.703125)"/>
      <use xlink:href="#STIXGeneral-Regular-29" transform="translate(1004.379718 0.703125)"/>
     </g>
    </g>
    <g id="patch_33">
     <path d="M 62.6 60.96 
L 86.6 60.96 
L 86.6 52.56 
L 62.6 52.56 
z
" style="fill: #4682b4; opacity: 0.7; stroke: #000000; stroke-width: 0.5; stroke-linejoin: miter"/>
    </g>
    <g id="text_18">
     <!-- QuTiP: computed $P(n)$ -->
     <g transform="translate(96.2 60.96) scale(0.12 -0.12)">
      <defs>
       <path id="STIXGeneral-Regular-51" d="M 4486 -1133 
L 4179 -1133 
Q 2586 -1133 1958 -339 
L 1696 -6 
Q 1312 128 1097 265 
Q 883 403 704 640 
Q 218 1286 218 2125 
Q 218 3123 806 3724 
Q 1395 4326 2310 4326 
Q 3232 4326 3817 3721 
Q 4403 3117 4403 2131 
Q 4403 1568 4236 1158 
Q 4070 749 3712 410 
Q 3514 211 3293 115 
Q 3072 19 2726 -45 
Q 3066 -531 3491 -758 
Q 3917 -986 4486 -1018 
L 4486 -1133 
z
M 3674 2163 
Q 3674 2714 3520 3146 
Q 3366 3578 3091 3808 
Q 2746 4096 2291 4096 
Q 1741 4096 1370 3642 
Q 1178 3418 1062 3008 
Q 947 2598 947 2144 
Q 947 1158 1318 640 
Q 1472 416 1750 278 
Q 2029 141 2310 141 
Q 2867 141 3264 602 
Q 3456 819 3565 1248 
Q 3674 1677 3674 2163 
z
" transform="scale(0.015625)"/>
       <path id="STIXGeneral-Regular-54" d="M 3795 3149 
L 3642 3149 
Q 3539 3674 3353 3821 
Q 3168 3968 2656 3968 
L 2278 3968 
L 2278 710 
Q 2278 346 2387 243 
Q 2496 141 2893 122 
L 2893 0 
L 1024 0 
L 1024 122 
Q 1427 147 1526 256 
Q 1626 365 1626 787 
L 1626 3968 
L 1242 3968 
Q 723 3968 540 3817 
Q 358 3667 262 3149 
L 109 3149 
L 154 4237 
L 3750 4237 
L 3795 3149 
z
" transform="scale(0.015625)"/>
      </defs>
      <use xlink:href="#STIXGeneral-Regular-51" transform="translate(0 0.703125)"/>
      <use xlink:href="#STIXGeneral-Regular-75" transform="translate(72.199982 0.703125)"/>
      <use xlink:href="#STIXGeneral-Regular-54" transform="translate(122.199966 0.703125)"/>
      <use xlink:href="#STIXGeneral-Regular-69" transform="translate(183.299957 0.703125)"/>
      <use xlink:href="#STIXGeneral-Regular-50" transform="translate(211.099945 0.703125)"/>
      <use xlink:href="#STIXGeneral-Regular-3a" transform="translate(266.799942 0.703125)"/>
      <use xlink:href="#STIXGeneral-Regular-20" transform="translate(294.59993 0.703125)"/>
      <use xlink:href="#STIXGeneral-Regular-63" transform="translate(319.599915 0.703125)"/>
      <use xlink:href="#STIXGeneral-Regular-6f" transform="translate(363.999908 0.703125)"/>
      <use xlink:href="#STIXGeneral-Regular-6d" transform="translate(413.999893 0.703125)"/>
      <use xlink:href="#STIXGeneral-Regular-70" transform="translate(491.799881 0.703125)"/>
      <use xlink:href="#STIXGeneral-Regular-75" transform="translate(541.799866 0.703125)"/>
      <use xlink:href="#STIXGeneral-Regular-74" transform="translate(591.79985 0.703125)"/>
      <use xlink:href="#STIXGeneral-Regular-65" transform="translate(619.599838 0.703125)"/>
      <use xlink:href="#STIXGeneral-Regular-64" transform="translate(663.999832 0.703125)"/>
      <use xlink:href="#STIXGeneral-Regular-20" transform="translate(713.999817 0.703125)"/>
      <use xlink:href="#STIXGeneral-Italic-50" transform="translate(738.999802 0.703125)"/>
      <use xlink:href="#STIXGeneral-Regular-28" transform="translate(800.099792 0.703125)"/>
      <use xlink:href="#STIXGeneral-Italic-6e" transform="translate(833.39978 0.703125)"/>
      <use xlink:href="#STIXGeneral-Regular-29" transform="translate(883.399765 0.703125)"/>
     </g>
    </g>
   </g>
  </g>
 </g>
 <defs>
  <clipPath id="p67676534e7">
   <rect x="51.8" y="24.72" width="648.16" height="281.005"/>
  </clipPath>
 </defs>
</svg>
