<?xml version="1.0" encoding="utf-8" standalone="no"?>
<!DOCTYPE svg PUBLIC "-//W3C//DTD SVG 1.1//EN"
  "http://www.w3.org/Graphics/SVG/1.1/DTD/svg11.dtd">
<svg xmlns:xlink="http://www.w3.org/1999/xlink" width="562.528pt" height="346.5425pt" viewBox="0 0 562.528 346.5425" xmlns="http://www.w3.org/2000/svg" version="1.1">
 <metadata>
  <rdf:RDF xmlns:dc="http://purl.org/dc/elements/1.1/" xmlns:cc="http://creativecommons.org/ns#" xmlns:rdf="http://www.w3.org/1999/02/22-rdf-syntax-ns#">
   <cc:Work>
    <dc:type rdf:resource="http://purl.org/dc/dcmitype/StillImage"/>
    <dc:date>2026-05-28T03:20:02.294071</dc:date>
    <dc:format>image/svg+xml</dc:format>
    <dc:creator>
     <cc:Agent>
      <dc:title>Matplotlib v3.10.7, https://matplotlib.org/</dc:title>
     </cc:Agent>
    </dc:creator>
   </cc:Work>
  </rdf:RDF>
 </metadata>
 <defs>
  <style type="text/css">*{stroke-linejoin: round; stroke-linecap: butt}</style>
 </defs>
 <g id="figure_1">
  <g id="patch_1">
   <path d="M 0 346.5425 
L 562.528 346.5425 
L 562.528 0 
L 0 0 
z
" style="fill: #ffffff"/>
  </g>
  <g id="axes_1">
   <g id="patch_2">
    <path d="M 47.76 321.5425 
L 555.328 321.5425 
L 555.328 26.48 
L 47.76 26.48 
z
" style="fill: #ffffff"/>
   </g>
   <g id="patch_3">
    <path d="M 70.831273 321.5425 
L 167.973474 321.5425 
L 167.973474 276.145151 
L 70.831273 276.145151 
z
" clip-path="url(#pe4f4706a5d)" style="fill: #e91e63; stroke: #000000; stroke-width: 1.5; stroke-linejoin: miter"/>
   </g>
   <g id="patch_4">
    <path d="M 192.259024 321.5425 
L 289.401225 321.5425 
L 289.401225 253.446477 
L 192.259024 253.446477 
z
" clip-path="url(#pe4f4706a5d)" style="fill: #1976d2; stroke: #000000; stroke-width: 1.5; stroke-linejoin: miter"/>
   </g>
   <g id="patch_5">
    <path d="M 313.686775 321.5425 
L 410.828976 321.5425 
L 410.828976 94.576023 
L 313.686775 94.576023 
z
" clip-path="url(#pe4f4706a5d)" style="fill: #7b1fa2; stroke: #000000; stroke-width: 1.5; stroke-linejoin: miter"/>
   </g>
   <g id="patch_6">
    <path d="M 435.114526 321.5425 
L 532.256727 321.5425 
L 532.256727 185.350458 
L 435.114526 185.350458 
z
" clip-path="url(#pe4f4706a5d)" style="fill: #ff6f00; stroke: #000000; stroke-width: 1.5; stroke-linejoin: miter"/>
   </g>
   <g id="matplotlib.axis_1">
    <g id="xtick_1">
     <g id="line2d_1">
      <defs>
       <path id="md2339dd49b" d="M 0 0 
L 0 3.5 
" style="stroke: #000000; stroke-width: 0.8"/>
      </defs>
      <g>
       <use xlink:href="#md2339dd49b" x="119.402373" y="321.5425" style="stroke: #000000; stroke-width: 0.8"/>
      </g>
     </g>
     <g id="text_1">
      <!-- Fock |3&gt; -->
      <g transform="translate(97.592373 336.738125) scale(0.12 -0.12)">
       <defs>
        <path id="STIXGeneral-Regular-46" d="M 3494 3322 
L 3334 3322 
Q 3264 3757 3094 3875 
Q 2925 3994 2349 3994 
L 1504 3994 
Q 1370 3994 1328 3946 
Q 1286 3898 1286 3744 
L 1286 2355 
L 2195 2355 
Q 2598 2355 2736 2470 
Q 2874 2586 2918 2963 
L 3066 2963 
L 3066 1472 
L 2918 1472 
Q 2880 1862 2745 1977 
Q 2611 2093 2195 2093 
L 1286 2093 
L 1286 717 
Q 1286 352 1392 246 
Q 1498 141 1869 122 
L 1869 0 
L 70 0 
L 70 122 
Q 435 147 534 259 
Q 634 371 634 787 
L 634 3526 
Q 634 3878 538 3984 
Q 442 4090 77 4115 
L 77 4237 
L 3462 4237 
L 3494 3322 
z
" transform="scale(0.015625)"/>
        <path id="STIXGeneral-Regular-6f" d="M 3008 1478 
Q 3008 806 2608 371 
Q 2208 -64 1568 -64 
Q 979 -64 582 368 
Q 186 800 186 1459 
Q 186 2125 582 2534 
Q 979 2944 1626 2944 
Q 2221 2944 2614 2537 
Q 3008 2131 3008 1478 
z
M 2432 1306 
Q 2432 2035 2112 2445 
Q 1856 2765 1504 2765 
Q 1171 2765 966 2493 
Q 762 2221 762 1747 
Q 762 928 1101 435 
Q 1318 115 1677 115 
Q 2029 115 2230 432 
Q 2432 749 2432 1306 
z
" transform="scale(0.015625)"/>
        <path id="STIXGeneral-Regular-63" d="M 2547 998 
L 2637 941 
Q 2362 403 2112 205 
Q 1786 -64 1376 -64 
Q 845 -64 502 336 
Q 160 736 160 1357 
Q 160 2170 698 2618 
Q 1094 2944 1562 2944 
Q 1965 2944 2256 2749 
Q 2547 2554 2547 2285 
Q 2547 2176 2457 2096 
Q 2368 2016 2246 2016 
Q 2022 2016 1939 2310 
L 1901 2451 
Q 1850 2630 1773 2694 
Q 1696 2758 1523 2758 
Q 1133 2758 893 2451 
Q 653 2144 653 1645 
Q 653 1094 928 745 
Q 1203 397 1645 397 
Q 1920 397 2118 528 
Q 2317 659 2547 998 
z
" transform="scale(0.015625)"/>
        <path id="STIXGeneral-Regular-6b" d="M 3232 0 
L 1837 0 
L 1837 96 
L 1958 96 
Q 2093 96 2093 192 
Q 2093 250 2022 339 
L 1062 1606 
L 1062 429 
Q 1062 262 1142 185 
Q 1222 109 1414 102 
L 1542 96 
L 1542 0 
L 45 0 
L 45 96 
Q 390 154 457 214 
Q 525 275 525 525 
L 525 3610 
Q 525 3840 467 3920 
Q 410 4000 250 4000 
Q 211 4000 45 3987 
L 45 4090 
L 237 4141 
Q 621 4243 1037 4371 
L 1062 4358 
L 1062 1670 
L 1939 2451 
Q 2086 2586 2086 2675 
Q 2086 2739 2019 2761 
Q 1952 2784 1766 2790 
L 1766 2880 
L 3072 2880 
L 3072 2784 
Q 2752 2784 2505 2646 
Q 2259 2509 1690 1978 
L 1504 1805 
L 2483 563 
Q 2829 122 3232 96 
L 3232 0 
z
" transform="scale(0.015625)"/>
        <path id="STIXGeneral-Regular-20" transform="scale(0.015625)"/>
        <path id="STIXGeneral-Regular-7c" d="M 851 -90 
L 429 -90 
L 429 4326 
L 851 4326 
L 851 -90 
z
" transform="scale(0.015625)"/>
        <path id="STIXGeneral-Regular-33" d="M 390 3264 
L 288 3290 
Q 435 3770 748 4048 
Q 1062 4326 1542 4326 
Q 1990 4326 2265 4083 
Q 2541 3840 2541 3450 
Q 2541 2925 1946 2566 
Q 2298 2413 2477 2227 
Q 2758 1914 2758 1402 
Q 2758 890 2464 506 
Q 2246 211 1840 60 
Q 1434 -90 979 -90 
Q 262 -90 262 275 
Q 262 378 339 442 
Q 416 506 525 506 
Q 685 506 915 339 
Q 1197 141 1466 141 
Q 1818 141 2058 425 
Q 2298 710 2298 1120 
Q 2298 1856 1632 2048 
Q 1434 2112 979 2112 
L 979 2202 
Q 1338 2323 1517 2432 
Q 2035 2726 2035 3290 
Q 2035 3610 1852 3776 
Q 1670 3942 1344 3942 
Q 768 3942 390 3264 
z
" transform="scale(0.015625)"/>
        <path id="STIXGeneral-Regular-3e" d="M 3974 1594 
L 358 -154 
L 358 250 
L 3123 1626 
L 358 3002 
L 358 3418 
L 3974 1658 
L 3974 1594 
z
" transform="scale(0.015625)"/>
       </defs>
       <use xlink:href="#STIXGeneral-Regular-46"/>
       <use xlink:href="#STIXGeneral-Regular-6f" transform="translate(55.599991 0)"/>
       <use xlink:href="#STIXGeneral-Regular-63" transform="translate(105.599976 0)"/>
       <use xlink:href="#STIXGeneral-Regular-6b" transform="translate(149.999969 0)"/>
       <use xlink:href="#STIXGeneral-Regular-20" transform="translate(199.999954 0)"/>
       <use xlink:href="#STIXGeneral-Regular-7c" transform="translate(224.999939 0)"/>
       <use xlink:href="#STIXGeneral-Regular-33" transform="translate(244.999924 0)"/>
       <use xlink:href="#STIXGeneral-Regular-3e" transform="translate(294.999908 0)"/>
      </g>
     </g>
    </g>
    <g id="xtick_2">
     <g id="line2d_2">
      <g>
       <use xlink:href="#md2339dd49b" x="240.830124" y="321.5425" style="stroke: #000000; stroke-width: 0.8"/>
      </g>
     </g>
     <g id="text_2">
      <!-- Coherent -->
      <g transform="translate(218.833562 336.738125) scale(0.12 -0.12)">
       <defs>
        <path id="STIXGeneral-Regular-43" d="M 3930 838 
L 4051 723 
Q 3482 -90 2304 -90 
Q 1376 -90 794 480 
Q 179 1082 179 2080 
Q 179 3014 755 3661 
Q 1357 4326 2310 4326 
Q 2720 4326 3072 4230 
Q 3475 4115 3514 4115 
Q 3725 4115 3782 4326 
L 3910 4326 
L 3968 2874 
L 3821 2874 
Q 3718 3334 3488 3584 
Q 3034 4070 2458 4070 
Q 1747 4070 1334 3548 
Q 922 3027 922 2182 
Q 922 1152 1382 653 
Q 1811 192 2522 192 
Q 2944 192 3251 339 
Q 3558 486 3930 838 
z
" transform="scale(0.015625)"/>
        <path id="STIXGeneral-Regular-68" d="M 3117 0 
L 1760 0 
L 1760 96 
Q 2042 128 2118 224 
Q 2195 320 2195 653 
L 2195 1920 
Q 2195 2598 1722 2598 
Q 1530 2598 1370 2508 
Q 1210 2419 1005 2195 
L 1005 653 
Q 1005 320 1081 224 
Q 1158 128 1440 96 
L 1440 0 
L 58 0 
L 58 96 
Q 333 134 400 224 
Q 467 314 467 653 
L 467 3667 
Q 467 3872 406 3933 
Q 346 3994 141 3994 
Q 83 3994 64 3987 
L 64 4090 
L 237 4141 
Q 730 4288 973 4371 
L 1005 4352 
L 1005 2406 
Q 1229 2694 1446 2819 
Q 1664 2944 1946 2944 
Q 2733 2944 2733 1926 
L 2733 653 
Q 2733 320 2793 233 
Q 2854 147 3117 96 
L 3117 0 
z
" transform="scale(0.015625)"/>
        <path id="STIXGeneral-Regular-65" d="M 2611 1050 
L 2714 1005 
Q 2330 -64 1376 -64 
Q 813 -64 486 329 
Q 160 723 160 1389 
Q 160 2074 525 2509 
Q 890 2944 1485 2944 
Q 2061 2944 2374 2502 
Q 2560 2246 2592 1773 
L 621 1773 
Q 646 1370 700 1158 
Q 755 947 915 730 
Q 1184 378 1626 378 
Q 1939 378 2153 531 
Q 2368 685 2611 1050 
z
M 634 1978 
L 1939 1978 
Q 1882 2381 1750 2547 
Q 1619 2714 1312 2714 
Q 1043 2714 864 2525 
Q 685 2336 634 1978 
z
" transform="scale(0.015625)"/>
        <path id="STIXGeneral-Regular-72" d="M 1024 2931 
L 1024 2342 
Q 1267 2688 1430 2816 
Q 1594 2944 1792 2944 
Q 1958 2944 2051 2854 
Q 2144 2765 2144 2605 
Q 2144 2470 2077 2393 
Q 2010 2317 1894 2317 
Q 1773 2317 1638 2445 
Q 1536 2541 1472 2541 
Q 1338 2541 1181 2355 
Q 1024 2170 1024 2016 
L 1024 576 
Q 1024 301 1133 205 
Q 1242 109 1568 96 
L 1568 0 
L 32 0 
L 32 96 
Q 339 154 412 224 
Q 486 294 486 538 
L 486 2138 
Q 486 2349 438 2435 
Q 390 2522 269 2522 
Q 166 2522 45 2496 
L 45 2598 
Q 448 2726 992 2944 
L 1024 2931 
z
" transform="scale(0.015625)"/>
        <path id="STIXGeneral-Regular-6e" d="M 3104 0 
L 1773 0 
L 1779 96 
Q 2016 115 2096 233 
Q 2176 352 2176 672 
L 2176 1946 
Q 2176 2592 1709 2592 
Q 1549 2592 1408 2515 
Q 1267 2438 1050 2227 
L 1050 461 
Q 1050 269 1136 192 
Q 1222 115 1466 96 
L 1466 0 
L 115 0 
L 115 96 
Q 358 115 435 214 
Q 512 314 512 602 
L 512 2157 
Q 512 2394 467 2483 
Q 422 2573 288 2573 
Q 160 2573 102 2547 
L 102 2656 
Q 550 2784 979 2944 
L 1030 2925 
L 1030 2426 
L 1037 2426 
Q 1491 2944 1958 2944 
Q 2323 2944 2518 2688 
Q 2714 2432 2714 1958 
L 2714 544 
Q 2714 288 2790 205 
Q 2867 122 3104 96 
L 3104 0 
z
" transform="scale(0.015625)"/>
        <path id="STIXGeneral-Regular-74" d="M 1702 493 
L 1786 422 
Q 1478 -64 1011 -64 
Q 448 -64 448 749 
L 448 2675 
L 109 2675 
Q 83 2694 83 2720 
Q 83 2771 192 2842 
Q 435 2982 813 3526 
Q 826 3546 874 3606 
Q 922 3667 941 3706 
Q 986 3706 986 3622 
L 986 2880 
L 1632 2880 
L 1632 2675 
L 986 2675 
L 986 845 
Q 986 538 1062 403 
Q 1139 269 1318 269 
Q 1510 269 1702 493 
z
" transform="scale(0.015625)"/>
       </defs>
       <use xlink:href="#STIXGeneral-Regular-43"/>
       <use xlink:href="#STIXGeneral-Regular-6f" transform="translate(66.699997 0)"/>
       <use xlink:href="#STIXGeneral-Regular-68" transform="translate(116.699982 0)"/>
       <use xlink:href="#STIXGeneral-Regular-65" transform="translate(166.699966 0)"/>
       <use xlink:href="#STIXGeneral-Regular-72" transform="translate(211.09996 0)"/>
       <use xlink:href="#STIXGeneral-Regular-65" transform="translate(244.399948 0)"/>
       <use xlink:href="#STIXGeneral-Regular-6e" transform="translate(288.799942 0)"/>
       <use xlink:href="#STIXGeneral-Regular-74" transform="translate(338.799927 0)"/>
      </g>
     </g>
    </g>
    <g id="xtick_3">
     <g id="line2d_3">
      <g>
       <use xlink:href="#md2339dd49b" x="362.257876" y="321.5425" style="stroke: #000000; stroke-width: 0.8"/>
      </g>
     </g>
     <g id="text_3">
      <!-- Squeezed -->
      <g transform="translate(339.264751 336.738125) scale(0.12 -0.12)">
       <defs>
        <path id="STIXGeneral-Regular-53" d="M 3002 2963 
L 2842 2963 
Q 2733 3360 2579 3565 
Q 2189 4064 1651 4064 
Q 1357 4064 1181 3894 
Q 1005 3725 1005 3456 
Q 1005 3328 1069 3206 
Q 1133 3085 1206 2998 
Q 1280 2912 1465 2784 
Q 1651 2656 1766 2589 
Q 1882 2522 2150 2362 
Q 2669 2061 2905 1763 
Q 3142 1466 3142 1107 
Q 3142 576 2771 243 
Q 2400 -90 1837 -90 
Q 1421 -90 1082 58 
Q 915 128 781 128 
Q 704 128 653 70 
Q 602 13 602 -83 
L 461 -83 
L 275 1274 
L 416 1274 
Q 845 141 1734 141 
Q 2074 141 2285 342 
Q 2496 544 2496 858 
Q 2496 1158 2310 1363 
Q 2003 1696 1235 2106 
Q 454 2522 454 3206 
Q 454 3718 768 4022 
Q 1082 4326 1568 4326 
Q 1907 4326 2240 4186 
Q 2413 4109 2522 4109 
Q 2688 4109 2726 4326 
L 2861 4326 
L 3002 2963 
z
" transform="scale(0.015625)"/>
        <path id="STIXGeneral-Regular-71" d="M 3123 -1389 
L 1613 -1389 
L 1613 -1280 
Q 1952 -1254 2067 -1158 
Q 2182 -1062 2182 -794 
L 2182 410 
Q 1747 -64 1178 -64 
Q 730 -64 442 320 
Q 154 704 154 1312 
Q 154 2003 560 2473 
Q 966 2944 1562 2944 
Q 1920 2944 2304 2720 
L 2650 2925 
L 2720 2925 
L 2720 -902 
Q 2720 -1107 2797 -1180 
Q 2874 -1254 3123 -1280 
L 3123 -1389 
z
M 2182 813 
L 2182 2131 
Q 2182 2758 1587 2758 
Q 1178 2758 941 2432 
Q 704 2106 704 1542 
Q 704 1210 803 925 
Q 902 640 1062 499 
Q 1254 326 1542 326 
Q 1882 326 2106 531 
Q 2182 602 2182 813 
z
" transform="scale(0.015625)"/>
        <path id="STIXGeneral-Regular-75" d="M 3072 320 
L 3072 230 
Q 2573 96 2195 -58 
L 2163 -38 
L 2163 486 
L 2150 486 
Q 1747 -64 1235 -64 
Q 870 -64 662 160 
Q 454 384 454 755 
L 454 2362 
Q 454 2598 371 2688 
Q 288 2778 58 2790 
L 58 2880 
L 992 2880 
L 992 813 
Q 992 595 1123 451 
Q 1254 307 1446 307 
Q 1760 307 1984 506 
Q 2067 582 2099 649 
Q 2131 717 2131 877 
L 2131 2355 
Q 2131 2605 2041 2678 
Q 1952 2752 1658 2771 
L 1658 2880 
L 2669 2880 
L 2669 685 
Q 2669 461 2742 390 
Q 2816 320 3034 320 
L 3072 320 
z
" transform="scale(0.015625)"/>
        <path id="STIXGeneral-Regular-7a" d="M 2675 870 
L 2579 0 
L 173 0 
L 173 96 
L 1875 2688 
L 1011 2688 
Q 710 2688 604 2582 
Q 499 2477 454 2125 
L 339 2125 
L 365 2880 
L 2579 2880 
L 2579 2784 
L 858 192 
L 1709 192 
Q 2246 192 2387 365 
Q 2477 474 2560 896 
L 2675 870 
z
" transform="scale(0.015625)"/>
        <path id="STIXGeneral-Regular-64" d="M 3142 269 
L 2202 -64 
L 2176 -45 
L 2176 365 
Q 1869 -64 1357 -64 
Q 826 -64 499 317 
Q 173 698 173 1312 
Q 173 1990 563 2467 
Q 954 2944 1504 2944 
Q 1850 2944 2176 2669 
L 2176 3667 
Q 2176 3866 2118 3930 
Q 2061 3994 1882 3994 
Q 1792 3994 1741 3987 
L 1741 4090 
Q 2323 4243 2682 4371 
L 2714 4358 
L 2714 730 
Q 2714 506 2768 435 
Q 2822 365 2995 365 
Q 3034 365 3142 371 
L 3142 269 
z
M 2176 653 
L 2176 2125 
Q 2176 2381 1981 2573 
Q 1786 2765 1523 2765 
Q 1158 2765 940 2438 
Q 723 2112 723 1568 
Q 723 979 963 624 
Q 1203 269 1606 269 
Q 1907 269 2080 474 
Q 2176 582 2176 653 
z
" transform="scale(0.015625)"/>
       </defs>
       <use xlink:href="#STIXGeneral-Regular-53"/>
       <use xlink:href="#STIXGeneral-Regular-71" transform="translate(55.599991 0)"/>
       <use xlink:href="#STIXGeneral-Regular-75" transform="translate(105.599976 0)"/>
       <use xlink:href="#STIXGeneral-Regular-65" transform="translate(155.59996 0)"/>
       <use xlink:href="#STIXGeneral-Regular-65" transform="translate(199.999954 0)"/>
       <use xlink:href="#STIXGeneral-Regular-7a" transform="translate(244.399948 0)"/>
       <use xlink:href="#STIXGeneral-Regular-65" transform="translate(288.799942 0)"/>
       <use xlink:href="#STIXGeneral-Regular-64" transform="translate(333.199936 0)"/>
      </g>
     </g>
    </g>
    <g id="xtick_4">
     <g id="line2d_4">
      <g>
       <use xlink:href="#md2339dd49b" x="483.685627" y="321.5425" style="stroke: #000000; stroke-width: 0.8"/>
      </g>
     </g>
     <g id="text_4">
      <!-- Thermal -->
      <g transform="translate(463.357814 336.738125) scale(0.12 -0.12)">
       <defs>
        <path id="STIXGeneral-Regular-54" d="M 3795 3149 
L 3642 3149 
Q 3539 3674 3353 3821 
Q 3168 3968 2656 3968 
L 2278 3968 
L 2278 710 
Q 2278 346 2387 243 
Q 2496 141 2893 122 
L 2893 0 
L 1024 0 
L 1024 122 
Q 1427 147 1526 256 
Q 1626 365 1626 787 
L 1626 3968 
L 1242 3968 
Q 723 3968 540 3817 
Q 358 3667 262 3149 
L 109 3149 
L 154 4237 
L 3750 4237 
L 3795 3149 
z
" transform="scale(0.015625)"/>
        <path id="STIXGeneral-Regular-6d" d="M 4960 0 
L 3565 0 
L 3565 96 
Q 3834 122 3907 208 
Q 3981 294 3981 576 
L 3981 1894 
Q 3981 2278 3869 2444 
Q 3757 2611 3488 2611 
Q 3264 2611 3107 2521 
Q 2950 2432 2803 2221 
L 2803 608 
Q 2803 301 2896 201 
Q 2989 102 3264 96 
L 3264 0 
L 1830 0 
L 1830 96 
Q 2112 115 2189 188 
Q 2266 262 2266 550 
L 2266 1901 
Q 2266 2611 1850 2611 
Q 1670 2611 1468 2531 
Q 1267 2451 1171 2336 
Q 1088 2240 1088 2227 
L 1088 448 
Q 1088 243 1177 176 
Q 1267 109 1523 96 
L 1523 0 
L 102 0 
L 102 96 
Q 371 102 460 195 
Q 550 288 550 563 
L 550 2150 
Q 550 2387 499 2480 
Q 448 2573 326 2573 
Q 230 2573 122 2547 
L 122 2656 
Q 557 2778 1011 2944 
L 1062 2925 
L 1062 2451 
L 1075 2451 
Q 1363 2752 1584 2848 
Q 1805 2944 2054 2944 
Q 2560 2944 2733 2406 
Q 3232 2944 3776 2944 
Q 4518 2944 4518 1792 
L 4518 493 
Q 4518 282 4582 202 
Q 4646 122 4794 109 
L 4960 96 
L 4960 0 
z
" transform="scale(0.015625)"/>
        <path id="STIXGeneral-Regular-61" d="M 2829 422 
L 2829 243 
Q 2586 -64 2253 -64 
Q 1888 -64 1843 403 
L 1837 403 
Q 1427 -64 909 -64 
Q 608 -64 422 112 
Q 237 288 237 602 
Q 237 1050 685 1350 
Q 992 1555 1837 1869 
L 1837 2214 
Q 1837 2502 1699 2646 
Q 1562 2790 1338 2790 
Q 1146 2790 1018 2697 
Q 890 2605 890 2477 
Q 890 2419 909 2348 
Q 928 2278 928 2208 
Q 928 2112 841 2029 
Q 755 1946 634 1946 
Q 525 1946 441 2029 
Q 358 2112 358 2240 
Q 358 2547 685 2752 
Q 986 2944 1421 2944 
Q 1939 2944 2176 2656 
Q 2291 2522 2323 2384 
Q 2355 2246 2355 1946 
L 2355 723 
Q 2355 301 2554 301 
Q 2682 301 2829 422 
z
M 1837 813 
L 1837 1715 
Q 1248 1510 1018 1293 
Q 800 1094 800 800 
Q 800 557 921 432 
Q 1043 307 1242 307 
Q 1453 307 1613 410 
Q 1747 506 1792 589 
Q 1837 672 1837 813 
z
" transform="scale(0.015625)"/>
        <path id="STIXGeneral-Regular-6c" d="M 1645 0 
L 134 0 
L 134 96 
Q 435 122 531 221 
Q 627 320 627 589 
L 627 3590 
Q 627 3821 569 3910 
Q 512 4000 358 4000 
Q 224 4000 122 3987 
L 122 4090 
Q 730 4237 1133 4371 
L 1165 4346 
L 1165 557 
Q 1165 288 1254 201 
Q 1344 115 1645 96 
L 1645 0 
z
" transform="scale(0.015625)"/>
       </defs>
       <use xlink:href="#STIXGeneral-Regular-54"/>
       <use xlink:href="#STIXGeneral-Regular-68" transform="translate(61.099991 0)"/>
       <use xlink:href="#STIXGeneral-Regular-65" transform="translate(111.099976 0)"/>
       <use xlink:href="#STIXGeneral-Regular-72" transform="translate(155.499969 0)"/>
       <use xlink:href="#STIXGeneral-Regular-6d" transform="translate(188.799957 0)"/>
       <use xlink:href="#STIXGeneral-Regular-61" transform="translate(266.599945 0)"/>
       <use xlink:href="#STIXGeneral-Regular-6c" transform="translate(310.999939 0)"/>
      </g>
     </g>
    </g>
   </g>
   <g id="matplotlib.axis_2">
    <g id="ytick_1">
     <g id="line2d_5">
      <defs>
       <path id="m4ddee2ecb8" d="M 0 0 
L -3.5 0 
" style="stroke: #000000; stroke-width: 0.8"/>
      </defs>
      <g>
       <use xlink:href="#m4ddee2ecb8" x="47.76" y="321.5425" style="stroke: #000000; stroke-width: 0.8"/>
      </g>
     </g>
     <g id="text_5">
      <!-- 0.0 -->
      <g transform="translate(25.76 325.640312) scale(0.12 -0.12)">
       <defs>
        <path id="STIXGeneral-Regular-30" d="M 3046 2112 
Q 3046 1683 2963 1302 
Q 2880 922 2717 602 
Q 2554 282 2266 96 
Q 1978 -90 1600 -90 
Q 1210 -90 915 108 
Q 621 307 461 640 
Q 301 973 227 1350 
Q 154 1728 154 2150 
Q 154 2746 301 3222 
Q 448 3699 790 4012 
Q 1133 4326 1626 4326 
Q 2253 4326 2649 3712 
Q 3046 3098 3046 2112 
z
M 2432 2080 
Q 2432 3091 2217 3625 
Q 2003 4160 1587 4160 
Q 1190 4160 979 3622 
Q 768 3085 768 2106 
Q 768 1120 979 598 
Q 1190 77 1600 77 
Q 2003 77 2217 598 
Q 2432 1120 2432 2080 
z
" transform="scale(0.015625)"/>
        <path id="STIXGeneral-Regular-2e" d="M 1158 275 
Q 1158 134 1052 32 
Q 947 -70 800 -70 
Q 653 -70 550 32 
Q 448 134 448 281 
Q 448 429 553 534 
Q 659 640 806 640 
Q 947 640 1052 531 
Q 1158 422 1158 275 
z
" transform="scale(0.015625)"/>
       </defs>
       <use xlink:href="#STIXGeneral-Regular-30"/>
       <use xlink:href="#STIXGeneral-Regular-2e" transform="translate(49.999985 0)"/>
       <use xlink:href="#STIXGeneral-Regular-30" transform="translate(74.999969 0)"/>
      </g>
     </g>
    </g>
    <g id="ytick_2">
     <g id="line2d_6">
      <g>
       <use xlink:href="#m4ddee2ecb8" x="47.76" y="287.494488" style="stroke: #000000; stroke-width: 0.8"/>
      </g>
     </g>
     <g id="text_6">
      <!-- 0.5 -->
      <g transform="translate(25.76 291.592301) scale(0.12 -0.12)">
       <defs>
        <path id="STIXGeneral-Regular-35" d="M 2803 4358 
L 2573 3814 
Q 2534 3731 2400 3731 
L 1158 3731 
L 902 3187 
Q 1606 3053 1920 2896 
Q 2234 2739 2502 2368 
Q 2726 2061 2726 1555 
Q 2726 1094 2576 780 
Q 2426 467 2099 224 
Q 1664 -90 1011 -90 
Q 646 -90 422 19 
Q 198 128 198 307 
Q 198 550 486 550 
Q 717 550 960 352 
Q 1210 147 1414 147 
Q 1747 147 2012 480 
Q 2278 813 2278 1229 
Q 2278 1843 1850 2189 
Q 1293 2637 486 2637 
Q 410 2637 410 2688 
L 416 2720 
L 1114 4237 
L 2438 4237 
Q 2547 4237 2608 4269 
Q 2669 4301 2746 4403 
L 2803 4358 
z
" transform="scale(0.015625)"/>
       </defs>
       <use xlink:href="#STIXGeneral-Regular-30"/>
       <use xlink:href="#STIXGeneral-Regular-2e" transform="translate(49.999985 0)"/>
       <use xlink:href="#STIXGeneral-Regular-35" transform="translate(74.999969 0)"/>
      </g>
     </g>
    </g>
    <g id="ytick_3">
     <g id="line2d_7">
      <g>
       <use xlink:href="#m4ddee2ecb8" x="47.76" y="253.446477" style="stroke: #000000; stroke-width: 0.8"/>
      </g>
     </g>
     <g id="text_7">
      <!-- 1.0 -->
      <g transform="translate(25.76 257.544289) scale(0.12 -0.12)">
       <defs>
        <path id="STIXGeneral-Regular-31" d="M 2522 0 
L 755 0 
L 755 96 
Q 1107 115 1235 227 
Q 1363 339 1363 608 
L 1363 3482 
Q 1363 3795 1171 3795 
Q 1082 3795 883 3718 
L 710 3654 
L 710 3744 
L 1856 4326 
L 1914 4307 
L 1914 486 
Q 1914 275 2042 185 
Q 2170 96 2522 96 
L 2522 0 
z
" transform="scale(0.015625)"/>
       </defs>
       <use xlink:href="#STIXGeneral-Regular-31"/>
       <use xlink:href="#STIXGeneral-Regular-2e" transform="translate(49.999985 0)"/>
       <use xlink:href="#STIXGeneral-Regular-30" transform="translate(74.999969 0)"/>
      </g>
     </g>
    </g>
    <g id="ytick_4">
     <g id="line2d_8">
      <g>
       <use xlink:href="#m4ddee2ecb8" x="47.76" y="219.398465" style="stroke: #000000; stroke-width: 0.8"/>
      </g>
     </g>
     <g id="text_8">
      <!-- 1.5 -->
      <g transform="translate(25.76 223.496277) scale(0.12 -0.12)">
       <use xlink:href="#STIXGeneral-Regular-31"/>
       <use xlink:href="#STIXGeneral-Regular-2e" transform="translate(49.999985 0)"/>
       <use xlink:href="#STIXGeneral-Regular-35" transform="translate(74.999969 0)"/>
      </g>
     </g>
    </g>
    <g id="ytick_5">
     <g id="line2d_9">
      <g>
       <use xlink:href="#m4ddee2ecb8" x="47.76" y="185.350453" style="stroke: #000000; stroke-width: 0.8"/>
      </g>
     </g>
     <g id="text_9">
      <!-- 2.0 -->
      <g transform="translate(25.76 189.448266) scale(0.12 -0.12)">
       <defs>
        <path id="STIXGeneral-Regular-32" d="M 3034 877 
L 2688 0 
L 186 0 
L 186 77 
L 1325 1286 
Q 1773 1754 1965 2144 
Q 2157 2534 2157 2950 
Q 2157 3379 1920 3616 
Q 1683 3853 1267 3853 
Q 922 3853 720 3673 
Q 518 3494 326 3021 
L 192 3053 
Q 301 3648 630 3987 
Q 960 4326 1523 4326 
Q 2054 4326 2380 4006 
Q 2707 3686 2707 3200 
Q 2707 2477 1888 1613 
L 832 486 
L 2330 486 
Q 2541 486 2665 569 
Q 2790 653 2944 915 
L 3034 877 
z
" transform="scale(0.015625)"/>
       </defs>
       <use xlink:href="#STIXGeneral-Regular-32"/>
       <use xlink:href="#STIXGeneral-Regular-2e" transform="translate(49.999985 0)"/>
       <use xlink:href="#STIXGeneral-Regular-30" transform="translate(74.999969 0)"/>
      </g>
     </g>
    </g>
    <g id="ytick_6">
     <g id="line2d_10">
      <g>
       <use xlink:href="#m4ddee2ecb8" x="47.76" y="151.302442" style="stroke: #000000; stroke-width: 0.8"/>
      </g>
     </g>
     <g id="text_10">
      <!-- 2.5 -->
      <g transform="translate(25.76 155.400254) scale(0.12 -0.12)">
       <use xlink:href="#STIXGeneral-Regular-32"/>
       <use xlink:href="#STIXGeneral-Regular-2e" transform="translate(49.999985 0)"/>
       <use xlink:href="#STIXGeneral-Regular-35" transform="translate(74.999969 0)"/>
      </g>
     </g>
    </g>
    <g id="ytick_7">
     <g id="line2d_11">
      <g>
       <use xlink:href="#m4ddee2ecb8" x="47.76" y="117.25443" style="stroke: #000000; stroke-width: 0.8"/>
      </g>
     </g>
     <g id="text_11">
      <!-- 3.0 -->
      <g transform="translate(25.76 121.352242) scale(0.12 -0.12)">
       <use xlink:href="#STIXGeneral-Regular-33"/>
       <use xlink:href="#STIXGeneral-Regular-2e" transform="translate(49.999985 0)"/>
       <use xlink:href="#STIXGeneral-Regular-30" transform="translate(74.999969 0)"/>
      </g>
     </g>
    </g>
    <g id="ytick_8">
     <g id="line2d_12">
      <g>
       <use xlink:href="#m4ddee2ecb8" x="47.76" y="83.206418" style="stroke: #000000; stroke-width: 0.8"/>
      </g>
     </g>
     <g id="text_12">
      <!-- 3.5 -->
      <g transform="translate(25.76 87.304231) scale(0.12 -0.12)">
       <use xlink:href="#STIXGeneral-Regular-33"/>
       <use xlink:href="#STIXGeneral-Regular-2e" transform="translate(49.999985 0)"/>
       <use xlink:href="#STIXGeneral-Regular-35" transform="translate(74.999969 0)"/>
      </g>
     </g>
    </g>
    <g id="ytick_9">
     <g id="line2d_13">
      <g>
       <use xlink:href="#m4ddee2ecb8" x="47.76" y="49.158406" style="stroke: #000000; stroke-width: 0.8"/>
      </g>
     </g>
     <g id="text_13">
      <!-- 4.0 -->
      <g transform="translate(25.76 53.256219) scale(0.12 -0.12)">
       <defs>
        <path id="STIXGeneral-Regular-34" d="M 3027 1069 
L 2368 1069 
L 2368 0 
L 1869 0 
L 1869 1069 
L 77 1069 
L 77 1478 
L 2086 4326 
L 2368 4326 
L 2368 1478 
L 3027 1478 
L 3027 1069 
z
M 1869 1478 
L 1869 3674 
L 333 1478 
L 1869 1478 
z
" transform="scale(0.015625)"/>
       </defs>
       <use xlink:href="#STIXGeneral-Regular-34"/>
       <use xlink:href="#STIXGeneral-Regular-2e" transform="translate(49.999985 0)"/>
       <use xlink:href="#STIXGeneral-Regular-30" transform="translate(74.999969 0)"/>
      </g>
     </g>
    </g>
    <g id="text_14">
     <!-- $g^{(2)}(0)$ -->
     <g transform="translate(18.721563 192.14125) rotate(-90) scale(0.14 -0.14)">
      <defs>
       <path id="STIXGeneral-Italic-67" d="M 3014 2342 
L 2701 2342 
Q 2758 2227 2758 2016 
Q 2758 1613 2390 1289 
Q 2022 966 1574 966 
Q 1459 966 1376 986 
Q 1357 992 1331 992 
Q 1248 992 1174 909 
Q 1101 826 1101 730 
Q 1101 576 1555 461 
Q 2464 243 2464 -352 
Q 2464 -781 2105 -1049 
Q 1747 -1318 1120 -1318 
Q 621 -1318 336 -1142 
Q 51 -966 51 -627 
Q 51 -378 195 -202 
Q 339 -26 800 250 
Q 627 352 627 499 
Q 627 806 1120 1037 
Q 614 1216 614 1728 
Q 614 2202 1004 2512 
Q 1395 2822 1901 2822 
Q 2272 2822 2528 2643 
Q 2598 2592 2630 2592 
L 3014 2592 
L 3014 2342 
z
M 2253 2227 
Q 2253 2477 2166 2579 
Q 2080 2682 1894 2682 
Q 1587 2682 1350 2362 
Q 1114 2042 1114 1581 
Q 1114 1357 1216 1229 
Q 1318 1101 1498 1101 
Q 1818 1101 2042 1478 
Q 2253 1837 2253 2227 
z
M 2080 -576 
Q 2080 -352 1878 -201 
Q 1677 -51 1165 109 
Q 1011 154 947 179 
Q 902 179 752 57 
Q 602 -64 531 -154 
Q 403 -314 403 -525 
Q 403 -1178 1216 -1178 
Q 1594 -1178 1837 -1002 
Q 2080 -826 2080 -576 
z
" transform="scale(0.015625)"/>
       <path id="STIXGeneral-Regular-28" d="M 1946 -1030 
L 1869 -1133 
Q 1126 -710 716 32 
Q 307 774 307 1613 
Q 307 3386 1888 4326 
L 1946 4224 
Q 1293 3667 1075 3126 
Q 858 2586 858 1632 
Q 858 685 1082 96 
Q 1306 -493 1946 -1030 
z
" transform="scale(0.015625)"/>
       <path id="STIXGeneral-Regular-29" d="M 186 4224 
L 262 4326 
Q 992 3891 1408 3148 
Q 1824 2406 1824 1581 
Q 1824 -166 243 -1133 
L 186 -1030 
Q 845 -486 1059 54 
Q 1274 595 1274 1562 
Q 1274 2534 1059 3120 
Q 845 3706 186 4224 
z
" transform="scale(0.015625)"/>
      </defs>
      <use xlink:href="#STIXGeneral-Italic-67" transform="translate(0 0.409375)"/>
      <use xlink:href="#STIXGeneral-Regular-28" transform="translate(56.17311 35.684375) scale(0.7)"/>
      <use xlink:href="#STIXGeneral-Regular-32" transform="translate(79.483101 35.684375) scale(0.7)"/>
      <use xlink:href="#STIXGeneral-Regular-29" transform="translate(114.483091 35.684375) scale(0.7)"/>
      <use xlink:href="#STIXGeneral-Regular-28" transform="translate(142.202457 0.409375)"/>
      <use xlink:href="#STIXGeneral-Regular-30" transform="translate(175.502445 0.409375)"/>
      <use xlink:href="#STIXGeneral-Regular-29" transform="translate(225.50243 0.409375)"/>
     </g>
    </g>
   </g>
   <g id="line2d_14">
    <path d="M 47.76 253.446477 
L 555.328 253.446477 
" clip-path="url(#pe4f4706a5d)" style="fill: none; stroke-dasharray: 3.7,1.6; stroke-dashoffset: 0; stroke: #808080"/>
   </g>
   <g id="line2d_15">
    <path d="M 47.76 185.350453 
L 555.328 185.350453 
" clip-path="url(#pe4f4706a5d)" style="fill: none; stroke-dasharray: 1,1.65; stroke-dashoffset: 0; stroke: #d3d3d3"/>
   </g>
   <g id="patch_7">
    <path d="M 47.76 321.5425 
L 47.76 26.48 
" style="fill: none; stroke: #000000; stroke-width: 0.8; stroke-linejoin: miter; stroke-linecap: square"/>
   </g>
   <g id="patch_8">
    <path d="M 555.328 321.5425 
L 555.328 26.48 
" style="fill: none; stroke: #000000; stroke-width: 0.8; stroke-linejoin: miter; stroke-linecap: square"/>
   </g>
   <g id="patch_9">
    <path d="M 47.76 321.5425 
L 555.328 321.5425 
" style="fill: none; stroke: #000000; stroke-width: 0.8; stroke-linejoin: miter; stroke-linecap: square"/>
   </g>
   <g id="patch_10">
    <path d="M 47.76 26.48 
L 555.328 26.48 
" style="fill: none; stroke: #000000; stroke-width: 0.8; stroke-linejoin: miter; stroke-linecap: square"/>
   </g>
   <g id="text_15">
    <!-- 0.67 -->
    <g transform="translate(108.902373 269.335549) scale(0.12 -0.12)">
     <defs>
      <path id="STIXGeneral-Bold-30" d="M 3046 2157 
Q 3046 1152 2643 534 
Q 2240 -83 1606 -83 
Q 973 -83 563 531 
Q 154 1146 154 2138 
Q 154 2464 198 2774 
Q 243 3085 355 3385 
Q 467 3686 630 3907 
Q 794 4128 1050 4265 
Q 1306 4403 1619 4403 
Q 2099 4403 2435 4054 
Q 2771 3706 2908 3216 
Q 3046 2726 3046 2157 
z
M 2035 1434 
L 2035 2874 
Q 2035 3584 1932 3904 
Q 1830 4224 1593 4224 
Q 1357 4224 1261 3913 
Q 1165 3603 1165 2874 
L 1165 1434 
Q 1165 717 1267 406 
Q 1370 96 1606 96 
Q 1843 96 1939 403 
Q 2035 710 2035 1434 
z
" transform="scale(0.015625)"/>
      <path id="STIXGeneral-Bold-2e" d="M 1184 838 
Q 1344 678 1344 454 
Q 1344 230 1184 73 
Q 1024 -83 800 -83 
Q 570 -83 416 70 
Q 262 224 262 454 
Q 262 678 422 838 
Q 582 998 806 998 
Q 1024 998 1184 838 
z
" transform="scale(0.015625)"/>
      <path id="STIXGeneral-Bold-36" d="M 3008 4403 
L 3008 4237 
Q 2310 4096 1900 3693 
Q 1491 3290 1306 2586 
Q 1555 2694 1843 2694 
Q 2387 2694 2713 2348 
Q 3040 2003 3040 1421 
Q 3040 749 2662 333 
Q 2285 -83 1664 -83 
Q 986 -83 582 413 
Q 179 909 179 1754 
Q 179 2874 1069 3654 
Q 1459 3994 1827 4125 
Q 2195 4256 3008 4403 
z
M 2067 1056 
Q 2067 1805 1939 2105 
Q 1811 2406 1498 2406 
Q 1338 2406 1261 2342 
Q 1178 2272 1178 1568 
Q 1178 608 1350 275 
Q 1446 90 1677 90 
Q 1901 90 1984 288 
Q 2067 486 2067 1056 
z
" transform="scale(0.015625)"/>
      <path id="STIXGeneral-Bold-37" d="M 3053 4326 
L 1549 0 
L 941 0 
L 2221 3450 
L 947 3450 
Q 646 3450 508 3334 
Q 371 3219 275 2906 
L 109 2906 
L 397 4326 
L 3053 4326 
z
" transform="scale(0.015625)"/>
     </defs>
     <use xlink:href="#STIXGeneral-Bold-30"/>
     <use xlink:href="#STIXGeneral-Bold-2e" transform="translate(49.999985 0)"/>
     <use xlink:href="#STIXGeneral-Bold-36" transform="translate(74.999969 0)"/>
     <use xlink:href="#STIXGeneral-Bold-37" transform="translate(124.999954 0)"/>
    </g>
   </g>
   <g id="text_16">
    <!-- 1.00 -->
    <g transform="translate(230.330124 246.636874) scale(0.12 -0.12)">
     <defs>
      <path id="STIXGeneral-Bold-31" d="M 2822 0 
L 435 0 
L 435 154 
Q 909 160 1049 285 
Q 1190 410 1190 826 
L 1190 3245 
Q 1190 3693 960 3693 
Q 806 3693 544 3590 
L 416 3539 
L 416 3706 
L 2022 4403 
L 2138 4403 
L 2138 755 
Q 2138 390 2262 275 
Q 2387 160 2822 154 
L 2822 0 
z
" transform="scale(0.015625)"/>
     </defs>
     <use xlink:href="#STIXGeneral-Bold-31"/>
     <use xlink:href="#STIXGeneral-Bold-2e" transform="translate(49.999985 0)"/>
     <use xlink:href="#STIXGeneral-Bold-30" transform="translate(74.999969 0)"/>
     <use xlink:href="#STIXGeneral-Bold-30" transform="translate(124.999954 0)"/>
    </g>
   </g>
   <g id="text_17">
    <!-- 3.33 -->
    <g transform="translate(351.757876 87.766421) scale(0.12 -0.12)">
     <defs>
      <path id="STIXGeneral-Bold-33" d="M 371 3354 
L 237 3430 
Q 742 4403 1702 4403 
Q 2176 4403 2464 4144 
Q 2752 3885 2752 3526 
Q 2752 3283 2621 3059 
Q 2490 2835 2214 2714 
Q 2579 2586 2787 2275 
Q 2995 1965 2995 1574 
Q 2995 870 2448 390 
Q 1901 -90 1075 -90 
Q 634 -90 368 67 
Q 102 224 102 486 
Q 102 653 220 761 
Q 339 870 518 870 
Q 806 870 1133 506 
Q 1382 230 1638 230 
Q 1926 230 2096 448 
Q 2266 666 2266 1011 
Q 2266 1491 1952 1786 
Q 1786 1939 1594 2035 
Q 1402 2131 973 2278 
L 973 2387 
Q 1421 2528 1616 2733 
Q 1811 2938 1811 3226 
Q 1811 3885 1178 3885 
Q 922 3885 736 3766 
Q 550 3648 371 3354 
z
" transform="scale(0.015625)"/>
     </defs>
     <use xlink:href="#STIXGeneral-Bold-33"/>
     <use xlink:href="#STIXGeneral-Bold-2e" transform="translate(49.999985 0)"/>
     <use xlink:href="#STIXGeneral-Bold-33" transform="translate(74.999969 0)"/>
     <use xlink:href="#STIXGeneral-Bold-33" transform="translate(124.999954 0)"/>
    </g>
   </g>
   <g id="text_18">
    <!-- 2.00 -->
    <g transform="translate(473.185627 178.540855) scale(0.12 -0.12)">
     <defs>
      <path id="STIXGeneral-Bold-32" d="M 3059 1350 
L 2765 0 
L 109 0 
L 109 147 
Q 806 890 1078 1213 
Q 1350 1536 1594 1914 
Q 1920 2413 1920 2861 
Q 1920 3206 1721 3440 
Q 1523 3674 1158 3674 
Q 666 3674 378 3098 
L 198 3098 
Q 634 4403 1626 4403 
Q 2150 4403 2470 4086 
Q 2790 3770 2790 3232 
Q 2790 2528 2061 1837 
L 1024 851 
L 1920 851 
Q 2438 851 2608 934 
Q 2778 1018 2899 1350 
L 3059 1350 
z
" transform="scale(0.015625)"/>
     </defs>
     <use xlink:href="#STIXGeneral-Bold-32"/>
     <use xlink:href="#STIXGeneral-Bold-2e" transform="translate(49.999985 0)"/>
     <use xlink:href="#STIXGeneral-Bold-30" transform="translate(74.999969 0)"/>
     <use xlink:href="#STIXGeneral-Bold-30" transform="translate(124.999954 0)"/>
    </g>
   </g>
   <g id="text_19">
    <!-- Second-Order Coherence $g^{(2)}(0)$ — Light Classification -->
    <g transform="translate(122.344 20.48) scale(0.16 -0.16)">
     <defs>
      <path id="STIXGeneral-Regular-2d" d="M 1824 1242 
L 250 1242 
L 250 1645 
L 1824 1645 
L 1824 1242 
z
" transform="scale(0.015625)"/>
      <path id="STIXGeneral-Regular-4f" d="M 4403 2118 
Q 4403 1133 3820 521 
Q 3238 -90 2310 -90 
Q 1376 -90 797 524 
Q 218 1139 218 2138 
Q 218 3110 797 3718 
Q 1376 4326 2310 4326 
Q 3245 4326 3824 3702 
Q 4403 3078 4403 2118 
z
M 3674 2157 
Q 3674 2701 3520 3133 
Q 3366 3565 3091 3795 
Q 2733 4096 2304 4096 
Q 1760 4096 1389 3667 
Q 1184 3437 1065 3011 
Q 947 2586 947 2125 
Q 947 960 1523 429 
Q 1837 141 2317 141 
Q 2816 141 3142 448 
Q 3674 960 3674 2157 
z
" transform="scale(0.015625)"/>
      <path id="STIXGeneral-Regular-2014" d="M 6400 1286 
L 0 1286 
L 0 1600 
L 6400 1600 
L 6400 1286 
z
" transform="scale(0.015625)"/>
      <path id="STIXGeneral-Regular-4c" d="M 3827 1114 
L 3520 0 
L 77 0 
L 77 122 
Q 429 141 531 256 
Q 634 371 634 736 
L 634 3494 
Q 634 3872 541 3981 
Q 448 4090 77 4115 
L 77 4237 
L 1888 4237 
L 1888 4115 
Q 1498 4090 1392 3984 
Q 1286 3878 1286 3507 
L 1286 538 
Q 1286 358 1398 304 
Q 1510 250 1862 250 
L 2310 250 
Q 3085 250 3392 640 
Q 3520 813 3661 1114 
L 3827 1114 
z
" transform="scale(0.015625)"/>
      <path id="STIXGeneral-Regular-69" d="M 1152 4045 
Q 1152 3904 1056 3811 
Q 960 3718 819 3718 
Q 685 3718 592 3811 
Q 499 3904 499 4045 
Q 499 4179 595 4275 
Q 691 4371 826 4371 
Q 966 4371 1059 4275 
Q 1152 4179 1152 4045 
z
M 1619 0 
L 102 0 
L 102 96 
Q 435 115 521 211 
Q 608 307 608 666 
L 608 2118 
Q 608 2342 563 2432 
Q 518 2522 397 2522 
Q 243 2522 128 2490 
L 128 2592 
L 1120 2944 
L 1146 2918 
L 1146 672 
Q 1146 314 1226 218 
Q 1306 122 1619 96 
L 1619 0 
z
" transform="scale(0.015625)"/>
      <path id="STIXGeneral-Regular-67" d="M 3008 2483 
L 2477 2483 
Q 2598 2208 2598 1946 
Q 2598 1453 2265 1203 
Q 1933 954 1600 954 
Q 1530 954 1357 973 
L 1235 986 
Q 1107 947 979 812 
Q 851 678 851 582 
Q 851 435 1350 410 
L 2176 371 
Q 2528 358 2739 172 
Q 2950 -13 2950 -314 
Q 2950 -685 2566 -986 
Q 2035 -1395 1286 -1395 
Q 826 -1395 502 -1212 
Q 179 -1030 179 -774 
Q 179 -595 320 -419 
Q 461 -243 806 6 
Q 602 102 534 172 
Q 467 243 467 346 
Q 467 531 762 787 
Q 909 915 1037 1043 
Q 717 1203 579 1401 
Q 442 1600 442 1901 
Q 442 2336 752 2640 
Q 1062 2944 1510 2944 
Q 1766 2944 2022 2848 
L 2163 2797 
Q 2349 2733 2515 2733 
L 3008 2733 
L 3008 2483 
z
M 973 2163 
L 973 2144 
Q 973 1683 1155 1398 
Q 1338 1114 1632 1114 
Q 1850 1114 1978 1270 
Q 2106 1427 2106 1690 
Q 2106 2112 1914 2464 
Q 1754 2765 1446 2765 
Q 1222 2765 1097 2605 
Q 973 2445 973 2163 
z
M 2771 -410 
Q 2771 -230 2595 -163 
Q 2419 -96 1978 -96 
Q 1344 -96 941 -13 
Q 749 -243 688 -348 
Q 627 -454 627 -563 
Q 627 -774 880 -902 
Q 1133 -1030 1555 -1030 
Q 2099 -1030 2435 -860 
Q 2771 -691 2771 -410 
z
" transform="scale(0.015625)"/>
      <path id="STIXGeneral-Regular-73" d="M 998 1926 
L 1664 1523 
Q 1984 1331 2105 1164 
Q 2227 998 2227 736 
Q 2227 416 1961 176 
Q 1696 -64 1331 -64 
Q 1030 -64 864 -6 
Q 691 51 570 51 
Q 461 51 416 -26 
L 333 -26 
L 333 979 
L 435 979 
Q 538 512 730 294 
Q 922 77 1248 77 
Q 1485 77 1632 211 
Q 1779 346 1779 550 
Q 1779 845 1440 1030 
L 1094 1222 
Q 326 1651 326 2150 
Q 326 2522 566 2730 
Q 806 2938 1210 2938 
Q 1491 2938 1638 2867 
Q 1754 2816 1818 2816 
Q 1862 2816 1920 2880 
L 1990 2880 
L 2022 2010 
L 1926 2010 
Q 1818 2445 1654 2621 
Q 1491 2797 1203 2797 
Q 986 2797 854 2688 
Q 723 2579 723 2362 
Q 723 2253 796 2128 
Q 870 2003 998 1926 
z
" transform="scale(0.015625)"/>
      <path id="STIXGeneral-Regular-66" d="M 134 2880 
L 659 2880 
Q 666 3264 710 3478 
Q 755 3693 883 3910 
Q 1152 4371 1786 4371 
Q 2074 4371 2262 4259 
Q 2451 4147 2451 3974 
Q 2451 3866 2374 3789 
Q 2298 3712 2182 3712 
Q 2029 3712 1894 3942 
Q 1741 4192 1555 4192 
Q 1197 4192 1197 3622 
L 1197 2880 
L 1978 2880 
L 1978 2675 
L 1197 2675 
L 1197 666 
Q 1197 307 1299 208 
Q 1402 109 1792 96 
L 1792 0 
L 128 0 
L 128 96 
Q 474 115 566 214 
Q 659 314 659 666 
L 659 2675 
L 134 2675 
L 134 2880 
z
" transform="scale(0.015625)"/>
     </defs>
     <use xlink:href="#STIXGeneral-Regular-53" transform="translate(0 0.409375)"/>
     <use xlink:href="#STIXGeneral-Regular-65" transform="translate(55.599991 0.409375)"/>
     <use xlink:href="#STIXGeneral-Regular-63" transform="translate(99.999985 0.409375)"/>
     <use xlink:href="#STIXGeneral-Regular-6f" transform="translate(144.399979 0.409375)"/>
     <use xlink:href="#STIXGeneral-Regular-6e" transform="translate(194.399963 0.409375)"/>
     <use xlink:href="#STIXGeneral-Regular-64" transform="translate(244.399948 0.409375)"/>
     <use xlink:href="#STIXGeneral-Regular-2d" transform="translate(294.399933 0.409375)"/>
     <use xlink:href="#STIXGeneral-Regular-4f" transform="translate(327.699921 0.409375)"/>
     <use xlink:href="#STIXGeneral-Regular-72" transform="translate(399.899902 0.409375)"/>
     <use xlink:href="#STIXGeneral-Regular-64" transform="translate(433.19989 0.409375)"/>
     <use xlink:href="#STIXGeneral-Regular-65" transform="translate(483.199875 0.409375)"/>
     <use xlink:href="#STIXGeneral-Regular-72" transform="translate(527.599869 0.409375)"/>
     <use xlink:href="#STIXGeneral-Regular-20" transform="translate(560.899857 0.409375)"/>
     <use xlink:href="#STIXGeneral-Regular-43" transform="translate(585.899841 0.409375)"/>
     <use xlink:href="#STIXGeneral-Regular-6f" transform="translate(652.599838 0.409375)"/>
     <use xlink:href="#STIXGeneral-Regular-68" transform="translate(702.599823 0.409375)"/>
     <use xlink:href="#STIXGeneral-Regular-65" transform="translate(752.599808 0.409375)"/>
     <use xlink:href="#STIXGeneral-Regular-72" transform="translate(796.999802 0.409375)"/>
     <use xlink:href="#STIXGeneral-Regular-65" transform="translate(830.299789 0.409375)"/>
     <use xlink:href="#STIXGeneral-Regular-6e" transform="translate(874.699783 0.409375)"/>
     <use xlink:href="#STIXGeneral-Regular-63" transform="translate(924.699768 0.409375)"/>
     <use xlink:href="#STIXGeneral-Regular-65" transform="translate(969.099762 0.409375)"/>
     <use xlink:href="#STIXGeneral-Regular-20" transform="translate(1013.499756 0.409375)"/>
     <use xlink:href="#STIXGeneral-Italic-67" transform="translate(1038.499741 0.409375)"/>
     <use xlink:href="#STIXGeneral-Regular-28" transform="translate(1094.67285 35.684375) scale(0.7)"/>
     <use xlink:href="#STIXGeneral-Regular-32" transform="translate(1117.982842 35.684375) scale(0.7)"/>
     <use xlink:href="#STIXGeneral-Regular-29" transform="translate(1152.982831 35.684375) scale(0.7)"/>
     <use xlink:href="#STIXGeneral-Regular-28" transform="translate(1180.702198 0.409375)"/>
     <use xlink:href="#STIXGeneral-Regular-30" transform="translate(1214.002185 0.409375)"/>
     <use xlink:href="#STIXGeneral-Regular-29" transform="translate(1264.00217 0.409375)"/>
     <use xlink:href="#STIXGeneral-Regular-20" transform="translate(1297.302158 0.409375)"/>
     <use xlink:href="#STIXGeneral-Regular-2014" transform="translate(1322.302143 0.409375)"/>
     <use xlink:href="#STIXGeneral-Regular-20" transform="translate(1422.302127 0.409375)"/>
     <use xlink:href="#STIXGeneral-Regular-4c" transform="translate(1447.302112 0.409375)"/>
     <use xlink:href="#STIXGeneral-Regular-69" transform="translate(1508.402103 0.409375)"/>
     <use xlink:href="#STIXGeneral-Regular-67" transform="translate(1536.202091 0.409375)"/>
     <use xlink:href="#STIXGeneral-Regular-68" transform="translate(1586.202076 0.409375)"/>
     <use xlink:href="#STIXGeneral-Regular-74" transform="translate(1636.20206 0.409375)"/>
     <use xlink:href="#STIXGeneral-Regular-20" transform="translate(1664.002048 0.409375)"/>
     <use xlink:href="#STIXGeneral-Regular-43" transform="translate(1689.002033 0.409375)"/>
     <use xlink:href="#STIXGeneral-Regular-6c" transform="translate(1755.70203 0.409375)"/>
     <use xlink:href="#STIXGeneral-Regular-61" transform="translate(1783.502018 0.409375)"/>
     <use xlink:href="#STIXGeneral-Regular-73" transform="translate(1827.902011 0.409375)"/>
     <use xlink:href="#STIXGeneral-Regular-73" transform="translate(1866.802005 0.409375)"/>
     <use xlink:href="#STIXGeneral-Regular-69" transform="translate(1905.701999 0.409375)"/>
     <use xlink:href="#STIXGeneral-Regular-66" transform="translate(1933.501987 0.409375)"/>
     <use xlink:href="#STIXGeneral-Regular-69" transform="translate(1966.801975 0.409375)"/>
     <use xlink:href="#STIXGeneral-Regular-63" transform="translate(1994.601963 0.409375)"/>
     <use xlink:href="#STIXGeneral-Regular-61" transform="translate(2039.001956 0.409375)"/>
     <use xlink:href="#STIXGeneral-Regular-74" transform="translate(2083.40195 0.409375)"/>
     <use xlink:href="#STIXGeneral-Regular-69" transform="translate(2111.201938 0.409375)"/>
     <use xlink:href="#STIXGeneral-Regular-6f" transform="translate(2139.001926 0.409375)"/>
     <use xlink:href="#STIXGeneral-Regular-6e" transform="translate(2189.001911 0.409375)"/>
    </g>
   </g>
   <g id="legend_1">
    <g id="patch_11">
     <path d="M 432.706125 62.83 
L 548.328 62.83 
Q 550.328 62.83 550.328 60.83 
L 550.328 33.48 
Q 550.328 31.48 548.328 31.48 
L 432.706125 31.48 
Q 430.706125 31.48 430.706125 33.48 
L 430.706125 60.83 
Q 430.706125 62.83 432.706125 62.83 
z
" style="fill: #ffffff; opacity: 0.8; stroke: #cccccc; stroke-linejoin: miter"/>
    </g>
    <g id="line2d_16">
     <path d="M 434.706125 38.98 
L 444.706125 38.98 
L 454.706125 38.98 
" style="fill: none; stroke-dasharray: 3.7,1.6; stroke-dashoffset: 0; stroke: #808080"/>
    </g>
    <g id="text_20">
     <!-- Poissonian boundary -->
     <g transform="translate(462.706125 42.48) scale(0.1 -0.1)">
      <defs>
       <path id="STIXGeneral-Regular-50" d="M 102 4237 
L 1760 4237 
Q 2669 4237 3149 3834 
Q 3469 3565 3469 3072 
Q 3469 2560 3104 2234 
Q 2835 1990 2553 1916 
Q 2272 1843 1734 1843 
Q 1549 1843 1293 1862 
L 1293 717 
Q 1293 352 1398 246 
Q 1504 141 1894 122 
L 1894 0 
L 102 0 
L 102 122 
Q 474 147 557 256 
Q 640 365 640 781 
L 640 3526 
Q 640 3885 547 3987 
Q 454 4090 102 4115 
L 102 4237 
z
M 1293 3770 
L 1293 2118 
Q 1510 2099 1683 2099 
Q 2202 2099 2486 2352 
Q 2771 2605 2771 3040 
Q 2771 3558 2476 3779 
Q 2182 4000 1517 4000 
Q 1382 4000 1337 3952 
Q 1293 3904 1293 3770 
z
" transform="scale(0.015625)"/>
       <path id="STIXGeneral-Regular-62" d="M 979 4358 
L 979 2406 
Q 1082 2650 1315 2797 
Q 1549 2944 1843 2944 
Q 2349 2944 2672 2541 
Q 2995 2138 2995 1536 
Q 2995 832 2566 384 
Q 2138 -64 1498 -64 
Q 1107 -64 774 67 
Q 442 198 442 358 
L 442 3622 
Q 442 3859 384 3926 
Q 326 3994 128 3994 
Q 83 3994 19 3981 
L 19 4090 
L 211 4147 
Q 864 4346 947 4371 
L 979 4358 
z
M 979 2035 
L 979 474 
Q 979 326 1161 233 
Q 1344 141 1600 141 
Q 1978 141 2195 416 
Q 2432 710 2432 1261 
Q 2432 1888 2182 2240 
Q 1971 2541 1613 2541 
Q 1357 2541 1168 2390 
Q 979 2240 979 2035 
z
" transform="scale(0.015625)"/>
       <path id="STIXGeneral-Regular-79" d="M 3040 2880 
L 3040 2784 
Q 2925 2771 2854 2700 
Q 2784 2630 2720 2458 
L 1760 -160 
Q 1510 -838 1257 -1116 
Q 1005 -1395 640 -1395 
Q 435 -1395 313 -1289 
Q 192 -1184 192 -1024 
Q 192 -902 272 -816 
Q 352 -730 467 -730 
Q 653 -730 800 -813 
Q 883 -858 966 -858 
Q 1101 -858 1286 -576 
Q 1376 -448 1459 -211 
Q 1542 26 1542 115 
Q 1542 198 1274 762 
L 429 2566 
Q 346 2752 90 2790 
L 90 2880 
L 1402 2880 
L 1402 2784 
Q 1197 2778 1117 2739 
Q 1037 2701 1037 2611 
Q 1037 2541 1120 2349 
L 1837 749 
L 2458 2515 
Q 2483 2573 2483 2630 
Q 2483 2784 2189 2784 
L 2189 2880 
L 3040 2880 
z
" transform="scale(0.015625)"/>
      </defs>
      <use xlink:href="#STIXGeneral-Regular-50"/>
      <use xlink:href="#STIXGeneral-Regular-6f" transform="translate(55.699997 0)"/>
      <use xlink:href="#STIXGeneral-Regular-69" transform="translate(105.699982 0)"/>
      <use xlink:href="#STIXGeneral-Regular-73" transform="translate(133.499969 0)"/>
      <use xlink:href="#STIXGeneral-Regular-73" transform="translate(172.399963 0)"/>
      <use xlink:href="#STIXGeneral-Regular-6f" transform="translate(211.299957 0)"/>
      <use xlink:href="#STIXGeneral-Regular-6e" transform="translate(261.299942 0)"/>
      <use xlink:href="#STIXGeneral-Regular-69" transform="translate(311.299927 0)"/>
      <use xlink:href="#STIXGeneral-Regular-61" transform="translate(339.099915 0)"/>
      <use xlink:href="#STIXGeneral-Regular-6e" transform="translate(383.499908 0)"/>
      <use xlink:href="#STIXGeneral-Regular-20" transform="translate(433.499893 0)"/>
      <use xlink:href="#STIXGeneral-Regular-62" transform="translate(458.499878 0)"/>
      <use xlink:href="#STIXGeneral-Regular-6f" transform="translate(508.499863 0)"/>
      <use xlink:href="#STIXGeneral-Regular-75" transform="translate(558.499847 0)"/>
      <use xlink:href="#STIXGeneral-Regular-6e" transform="translate(608.499832 0)"/>
      <use xlink:href="#STIXGeneral-Regular-64" transform="translate(658.499817 0)"/>
      <use xlink:href="#STIXGeneral-Regular-61" transform="translate(708.499802 0)"/>
      <use xlink:href="#STIXGeneral-Regular-72" transform="translate(752.899796 0)"/>
      <use xlink:href="#STIXGeneral-Regular-79" transform="translate(786.199783 0)"/>
     </g>
    </g>
    <g id="line2d_17">
     <path d="M 434.706125 53.159687 
L 444.706125 53.159687 
L 454.706125 53.159687 
" style="fill: none; stroke-dasharray: 1,1.65; stroke-dashoffset: 0; stroke: #d3d3d3"/>
    </g>
    <g id="text_21">
     <!-- Thermal limit -->
     <g transform="translate(462.706125 56.659687) scale(0.1 -0.1)">
      <use xlink:href="#STIXGeneral-Regular-54"/>
      <use xlink:href="#STIXGeneral-Regular-68" transform="translate(61.099991 0)"/>
      <use xlink:href="#STIXGeneral-Regular-65" transform="translate(111.099976 0)"/>
      <use xlink:href="#STIXGeneral-Regular-72" transform="translate(155.499969 0)"/>
      <use xlink:href="#STIXGeneral-Regular-6d" transform="translate(188.799957 0)"/>
      <use xlink:href="#STIXGeneral-Regular-61" transform="translate(266.599945 0)"/>
      <use xlink:href="#STIXGeneral-Regular-6c" transform="translate(310.999939 0)"/>
      <use xlink:href="#STIXGeneral-Regular-20" transform="translate(338.799927 0)"/>
      <use xlink:href="#STIXGeneral-Regular-6c" transform="translate(363.799911 0)"/>
      <use xlink:href="#STIXGeneral-Regular-69" transform="translate(391.599899 0)"/>
      <use xlink:href="#STIXGeneral-Regular-6d" transform="translate(419.399887 0)"/>
      <use xlink:href="#STIXGeneral-Regular-69" transform="translate(497.199875 0)"/>
      <use xlink:href="#STIXGeneral-Regular-74" transform="translate(524.999863 0)"/>
     </g>
    </g>
   </g>
  </g>
 </g>
 <defs>
  <clipPath id="pe4f4706a5d">
   <rect x="47.76" y="26.48" width="507.568" height="295.0625"/>
  </clipPath>
 </defs>
</svg>
