<?xml version="1.0" encoding="utf-8" standalone="no"?>
<!DOCTYPE svg PUBLIC "-//W3C//DTD SVG 1.1//EN"
  "http://www.w3.org/Graphics/SVG/1.1/DTD/svg11.dtd">
<svg xmlns:xlink="http://www.w3.org/1999/xlink" width="706.528pt" height="488.83pt" viewBox="0 0 706.528 488.83" xmlns="http://www.w3.org/2000/svg" version="1.1">
 <metadata>
  <rdf:RDF xmlns:dc="http://purl.org/dc/elements/1.1/" xmlns:cc="http://creativecommons.org/ns#" xmlns:rdf="http://www.w3.org/1999/02/22-rdf-syntax-ns#">
   <cc:Work>
    <dc:type rdf:resource="http://purl.org/dc/dcmitype/StillImage"/>
    <dc:date>2026-05-28T03:20:37.592769</dc:date>
    <dc:format>image/svg+xml</dc:format>
    <dc:creator>
     <cc:Agent>
      <dc:title>Matplotlib v3.10.7, https://matplotlib.org/</dc:title>
     </cc:Agent>
    </dc:creator>
   </cc:Work>
  </rdf:RDF>
 </metadata>
 <defs>
  <style type="text/css">*{stroke-linejoin: round; stroke-linecap: butt}</style>
 </defs>
 <g id="figure_1">
  <g id="patch_1">
   <path d="M -0 488.83 
L 706.528 488.83 
L 706.528 0 
L -0 0 
z
" style="fill: #ffffff"/>
  </g>
  <g id="axes_1">
   <g id="patch_2">
    <path d="M 44.76 446.67 
L 699.328 446.67 
L 699.328 26.48 
L 44.76 26.48 
z
" style="fill: #ffffff"/>
   </g>
   <g id="matplotlib.axis_1">
    <g id="xtick_1">
     <g id="line2d_1">
      <defs>
       <path id="mf70f0c3214" d="M 0 0 
L 0 3.5 
" style="stroke: #000000; stroke-width: 0.8"/>
      </defs>
      <g>
       <use xlink:href="#mf70f0c3214" x="121.322471" y="446.67" style="stroke: #000000; stroke-width: 0.8"/>
      </g>
     </g>
     <g id="text_1">
      <!-- 0 -->
      <g transform="translate(118.322471 461.865625) scale(0.12 -0.12)">
       <defs>
        <path id="STIXGeneral-Regular-30" d="M 3046 2112 
Q 3046 1683 2963 1302 
Q 2880 922 2717 602 
Q 2554 282 2266 96 
Q 1978 -90 1600 -90 
Q 1210 -90 915 108 
Q 621 307 461 640 
Q 301 973 227 1350 
Q 154 1728 154 2150 
Q 154 2746 301 3222 
Q 448 3699 790 4012 
Q 1133 4326 1626 4326 
Q 2253 4326 2649 3712 
Q 3046 3098 3046 2112 
z
M 2432 2080 
Q 2432 3091 2217 3625 
Q 2003 4160 1587 4160 
Q 1190 4160 979 3622 
Q 768 3085 768 2106 
Q 768 1120 979 598 
Q 1190 77 1600 77 
Q 2003 77 2217 598 
Q 2432 1120 2432 2080 
z
" transform="scale(0.015625)"/>
       </defs>
       <use xlink:href="#STIXGeneral-Regular-30"/>
      </g>
     </g>
    </g>
    <g id="xtick_2">
     <g id="line2d_2">
      <g>
       <use xlink:href="#mf70f0c3214" x="206.430433" y="446.67" style="stroke: #000000; stroke-width: 0.8"/>
      </g>
     </g>
     <g id="text_2">
      <!-- 2 -->
      <g transform="translate(203.430433 461.865625) scale(0.12 -0.12)">
       <defs>
        <path id="STIXGeneral-Regular-32" d="M 3034 877 
L 2688 0 
L 186 0 
L 186 77 
L 1325 1286 
Q 1773 1754 1965 2144 
Q 2157 2534 2157 2950 
Q 2157 3379 1920 3616 
Q 1683 3853 1267 3853 
Q 922 3853 720 3673 
Q 518 3494 326 3021 
L 192 3053 
Q 301 3648 630 3987 
Q 960 4326 1523 4326 
Q 2054 4326 2380 4006 
Q 2707 3686 2707 3200 
Q 2707 2477 1888 1613 
L 832 486 
L 2330 486 
Q 2541 486 2665 569 
Q 2790 653 2944 915 
L 3034 877 
z
" transform="scale(0.015625)"/>
       </defs>
       <use xlink:href="#STIXGeneral-Regular-32"/>
      </g>
     </g>
    </g>
    <g id="xtick_3">
     <g id="line2d_3">
      <g>
       <use xlink:href="#mf70f0c3214" x="291.538396" y="446.67" style="stroke: #000000; stroke-width: 0.8"/>
      </g>
     </g>
     <g id="text_3">
      <!-- 4 -->
      <g transform="translate(288.538396 461.865625) scale(0.12 -0.12)">
       <defs>
        <path id="STIXGeneral-Regular-34" d="M 3027 1069 
L 2368 1069 
L 2368 0 
L 1869 0 
L 1869 1069 
L 77 1069 
L 77 1478 
L 2086 4326 
L 2368 4326 
L 2368 1478 
L 3027 1478 
L 3027 1069 
z
M 1869 1478 
L 1869 3674 
L 333 1478 
L 1869 1478 
z
" transform="scale(0.015625)"/>
       </defs>
       <use xlink:href="#STIXGeneral-Regular-34"/>
      </g>
     </g>
    </g>
    <g id="xtick_4">
     <g id="line2d_4">
      <g>
       <use xlink:href="#mf70f0c3214" x="376.646359" y="446.67" style="stroke: #000000; stroke-width: 0.8"/>
      </g>
     </g>
     <g id="text_4">
      <!-- 6 -->
      <g transform="translate(373.646359 461.865625) scale(0.12 -0.12)">
       <defs>
        <path id="STIXGeneral-Regular-36" d="M 2854 4378 
L 2867 4275 
Q 2112 4154 1606 3664 
Q 1101 3174 973 2451 
Q 1344 2739 1786 2739 
Q 2349 2739 2672 2380 
Q 2995 2022 2995 1402 
Q 2995 774 2669 378 
Q 2291 -90 1651 -90 
Q 870 -90 518 557 
Q 218 1107 218 1786 
Q 218 2835 915 3552 
Q 1312 3962 1731 4131 
Q 2150 4301 2854 4378 
z
M 2419 1203 
Q 2419 2445 1555 2445 
Q 1235 2445 1024 2275 
Q 813 2106 813 1702 
Q 813 954 1046 522 
Q 1280 90 1722 90 
Q 2061 90 2240 394 
Q 2419 698 2419 1203 
z
" transform="scale(0.015625)"/>
       </defs>
       <use xlink:href="#STIXGeneral-Regular-36"/>
      </g>
     </g>
    </g>
    <g id="xtick_5">
     <g id="line2d_5">
      <g>
       <use xlink:href="#mf70f0c3214" x="461.754322" y="446.67" style="stroke: #000000; stroke-width: 0.8"/>
      </g>
     </g>
     <g id="text_5">
      <!-- 8 -->
      <g transform="translate(458.754322 461.865625) scale(0.12 -0.12)">
       <defs>
        <path id="STIXGeneral-Regular-38" d="M 2848 992 
Q 2848 499 2505 204 
Q 2163 -90 1587 -90 
Q 1050 -90 704 204 
Q 358 499 358 954 
Q 358 1293 524 1533 
Q 691 1773 1190 2125 
Q 710 2522 553 2765 
Q 397 3008 397 3328 
Q 397 3782 745 4054 
Q 1094 4326 1638 4326 
Q 2106 4326 2410 4060 
Q 2714 3795 2714 3411 
Q 2714 3059 2531 2848 
Q 2349 2637 1856 2374 
Q 2432 1990 2640 1689 
Q 2848 1389 2848 992 
z
M 2272 3411 
Q 2272 3744 2086 3945 
Q 1901 4147 1574 4147 
Q 1248 4147 1059 3977 
Q 870 3808 870 3513 
Q 870 3219 1059 2979 
Q 1248 2739 1670 2490 
Q 1997 2682 2134 2896 
Q 2272 3110 2272 3411 
z
M 1734 1741 
L 1357 1997 
Q 1075 1766 960 1545 
Q 845 1325 845 1011 
Q 845 576 1065 333 
Q 1286 90 1658 90 
Q 1971 90 2166 285 
Q 2362 480 2362 794 
Q 2362 1082 2214 1299 
Q 2067 1517 1734 1741 
z
" transform="scale(0.015625)"/>
       </defs>
       <use xlink:href="#STIXGeneral-Regular-38"/>
      </g>
     </g>
    </g>
    <g id="xtick_6">
     <g id="line2d_6">
      <g>
       <use xlink:href="#mf70f0c3214" x="546.862285" y="446.67" style="stroke: #000000; stroke-width: 0.8"/>
      </g>
     </g>
     <g id="text_6">
      <!-- 10 -->
      <g transform="translate(540.862285 461.865625) scale(0.12 -0.12)">
       <defs>
        <path id="STIXGeneral-Regular-31" d="M 2522 0 
L 755 0 
L 755 96 
Q 1107 115 1235 227 
Q 1363 339 1363 608 
L 1363 3482 
Q 1363 3795 1171 3795 
Q 1082 3795 883 3718 
L 710 3654 
L 710 3744 
L 1856 4326 
L 1914 4307 
L 1914 486 
Q 1914 275 2042 185 
Q 2170 96 2522 96 
L 2522 0 
z
" transform="scale(0.015625)"/>
       </defs>
       <use xlink:href="#STIXGeneral-Regular-31"/>
       <use xlink:href="#STIXGeneral-Regular-30" transform="translate(49.999985 0)"/>
      </g>
     </g>
    </g>
    <g id="xtick_7">
     <g id="line2d_7">
      <g>
       <use xlink:href="#mf70f0c3214" x="631.970248" y="446.67" style="stroke: #000000; stroke-width: 0.8"/>
      </g>
     </g>
     <g id="text_7">
      <!-- 12 -->
      <g transform="translate(625.970248 461.865625) scale(0.12 -0.12)">
       <use xlink:href="#STIXGeneral-Regular-31"/>
       <use xlink:href="#STIXGeneral-Regular-32" transform="translate(49.999985 0)"/>
      </g>
     </g>
    </g>
    <g id="text_8">
     <!-- Mandel $Q/\langle n \rangle$ -->
     <g transform="translate(332.774 478.55) scale(0.14 -0.14)">
      <defs>
       <path id="STIXGeneral-Regular-4d" d="M 5530 0 
L 3738 0 
L 3738 122 
Q 4115 147 4214 265 
Q 4314 384 4314 787 
L 4314 3661 
L 2682 0 
L 2592 0 
L 979 3514 
L 979 966 
Q 979 448 1088 294 
Q 1197 141 1574 122 
L 1574 0 
L 77 0 
L 77 122 
Q 358 141 480 205 
Q 602 269 650 432 
Q 698 595 698 966 
L 698 3514 
Q 698 3878 589 3984 
Q 480 4090 90 4115 
L 90 4237 
L 1357 4237 
L 2835 1024 
L 4250 4237 
L 5523 4237 
L 5523 4115 
Q 5178 4109 5072 3993 
Q 4966 3878 4966 3520 
L 4966 717 
Q 4966 378 5072 262 
Q 5178 147 5530 122 
L 5530 0 
z
" transform="scale(0.015625)"/>
       <path id="STIXGeneral-Regular-61" d="M 2829 422 
L 2829 243 
Q 2586 -64 2253 -64 
Q 1888 -64 1843 403 
L 1837 403 
Q 1427 -64 909 -64 
Q 608 -64 422 112 
Q 237 288 237 602 
Q 237 1050 685 1350 
Q 992 1555 1837 1869 
L 1837 2214 
Q 1837 2502 1699 2646 
Q 1562 2790 1338 2790 
Q 1146 2790 1018 2697 
Q 890 2605 890 2477 
Q 890 2419 909 2348 
Q 928 2278 928 2208 
Q 928 2112 841 2029 
Q 755 1946 634 1946 
Q 525 1946 441 2029 
Q 358 2112 358 2240 
Q 358 2547 685 2752 
Q 986 2944 1421 2944 
Q 1939 2944 2176 2656 
Q 2291 2522 2323 2384 
Q 2355 2246 2355 1946 
L 2355 723 
Q 2355 301 2554 301 
Q 2682 301 2829 422 
z
M 1837 813 
L 1837 1715 
Q 1248 1510 1018 1293 
Q 800 1094 800 800 
Q 800 557 921 432 
Q 1043 307 1242 307 
Q 1453 307 1613 410 
Q 1747 506 1792 589 
Q 1837 672 1837 813 
z
" transform="scale(0.015625)"/>
       <path id="STIXGeneral-Regular-6e" d="M 3104 0 
L 1773 0 
L 1779 96 
Q 2016 115 2096 233 
Q 2176 352 2176 672 
L 2176 1946 
Q 2176 2592 1709 2592 
Q 1549 2592 1408 2515 
Q 1267 2438 1050 2227 
L 1050 461 
Q 1050 269 1136 192 
Q 1222 115 1466 96 
L 1466 0 
L 115 0 
L 115 96 
Q 358 115 435 214 
Q 512 314 512 602 
L 512 2157 
Q 512 2394 467 2483 
Q 422 2573 288 2573 
Q 160 2573 102 2547 
L 102 2656 
Q 550 2784 979 2944 
L 1030 2925 
L 1030 2426 
L 1037 2426 
Q 1491 2944 1958 2944 
Q 2323 2944 2518 2688 
Q 2714 2432 2714 1958 
L 2714 544 
Q 2714 288 2790 205 
Q 2867 122 3104 96 
L 3104 0 
z
" transform="scale(0.015625)"/>
       <path id="STIXGeneral-Regular-64" d="M 3142 269 
L 2202 -64 
L 2176 -45 
L 2176 365 
Q 1869 -64 1357 -64 
Q 826 -64 499 317 
Q 173 698 173 1312 
Q 173 1990 563 2467 
Q 954 2944 1504 2944 
Q 1850 2944 2176 2669 
L 2176 3667 
Q 2176 3866 2118 3930 
Q 2061 3994 1882 3994 
Q 1792 3994 1741 3987 
L 1741 4090 
Q 2323 4243 2682 4371 
L 2714 4358 
L 2714 730 
Q 2714 506 2768 435 
Q 2822 365 2995 365 
Q 3034 365 3142 371 
L 3142 269 
z
M 2176 653 
L 2176 2125 
Q 2176 2381 1981 2573 
Q 1786 2765 1523 2765 
Q 1158 2765 940 2438 
Q 723 2112 723 1568 
Q 723 979 963 624 
Q 1203 269 1606 269 
Q 1907 269 2080 474 
Q 2176 582 2176 653 
z
" transform="scale(0.015625)"/>
       <path id="STIXGeneral-Regular-65" d="M 2611 1050 
L 2714 1005 
Q 2330 -64 1376 -64 
Q 813 -64 486 329 
Q 160 723 160 1389 
Q 160 2074 525 2509 
Q 890 2944 1485 2944 
Q 2061 2944 2374 2502 
Q 2560 2246 2592 1773 
L 621 1773 
Q 646 1370 700 1158 
Q 755 947 915 730 
Q 1184 378 1626 378 
Q 1939 378 2153 531 
Q 2368 685 2611 1050 
z
M 634 1978 
L 1939 1978 
Q 1882 2381 1750 2547 
Q 1619 2714 1312 2714 
Q 1043 2714 864 2525 
Q 685 2336 634 1978 
z
" transform="scale(0.015625)"/>
       <path id="STIXGeneral-Regular-6c" d="M 1645 0 
L 134 0 
L 134 96 
Q 435 122 531 221 
Q 627 320 627 589 
L 627 3590 
Q 627 3821 569 3910 
Q 512 4000 358 4000 
Q 224 4000 122 3987 
L 122 4090 
Q 730 4237 1133 4371 
L 1165 4346 
L 1165 557 
Q 1165 288 1254 201 
Q 1344 115 1645 96 
L 1645 0 
z
" transform="scale(0.015625)"/>
       <path id="STIXGeneral-Regular-20" transform="scale(0.015625)"/>
       <path id="STIXGeneral-Italic-51" d="M 442 -1082 
L 378 -979 
Q 749 -717 912 -589 
Q 1075 -461 1510 -77 
Q 966 32 675 425 
Q 384 819 384 1440 
Q 384 2035 678 2624 
Q 973 3213 1491 3661 
Q 2202 4262 3034 4262 
Q 3680 4262 4077 3833 
Q 4474 3405 4474 2746 
Q 4474 1997 4019 1277 
Q 3565 557 2835 173 
Q 2400 -64 1786 -102 
L 1440 -467 
L 1600 -467 
Q 1824 -467 2387 -595 
Q 2938 -730 3098 -730 
Q 3443 -730 3673 -624 
Q 3904 -518 4173 -237 
L 4275 -307 
Q 4122 -525 3942 -685 
Q 3411 -1165 2720 -1165 
Q 2298 -1165 1773 -998 
Q 1421 -883 1178 -883 
Q 800 -883 442 -1082 
z
M 3802 3072 
Q 3802 3526 3581 3788 
Q 3360 4051 2976 4051 
Q 2272 4051 1734 3251 
Q 1446 2822 1251 2230 
Q 1056 1638 1056 1171 
Q 1056 691 1273 400 
Q 1491 109 1850 109 
Q 2579 109 3117 902 
Q 3411 1350 3606 1964 
Q 3802 2579 3802 3072 
z
" transform="scale(0.015625)"/>
       <path id="STIXGeneral-Regular-2f" d="M 1837 4326 
L 378 -90 
L -58 -90 
L 1408 4326 
L 1837 4326 
z
" transform="scale(0.015625)"/>
       <path id="STIXGeneral-Regular-27e8" d="M 2144 4563 
L 915 1606 
L 2138 -1363 
L 1805 -1363 
L 493 1542 
L 493 1670 
L 1811 4563 
L 2144 4563 
z
" transform="scale(0.015625)"/>
       <path id="STIXGeneral-Italic-6e" d="M 2944 749 
L 3034 666 
Q 2707 218 2534 80 
Q 2362 -58 2138 -58 
Q 2010 -58 1923 28 
Q 1837 115 1837 288 
Q 1837 390 1939 768 
L 2221 1805 
Q 2310 2150 2310 2310 
Q 2310 2496 2157 2496 
Q 1971 2496 1750 2275 
Q 1530 2054 1210 1587 
Q 998 1274 899 1024 
Q 800 774 570 0 
L 90 0 
L 704 2240 
Q 717 2304 717 2349 
Q 717 2445 630 2480 
Q 544 2515 301 2522 
L 301 2624 
Q 550 2675 857 2729 
Q 1165 2784 1338 2822 
L 1363 2810 
L 934 1414 
Q 1408 2170 1753 2496 
Q 2099 2822 2413 2822 
Q 2611 2822 2720 2716 
Q 2829 2611 2829 2432 
Q 2829 2272 2765 2048 
L 2406 749 
Q 2317 429 2317 358 
Q 2317 243 2419 243 
Q 2541 243 2810 582 
Q 2854 634 2944 749 
z
" transform="scale(0.015625)"/>
       <path id="STIXGeneral-Regular-27e9" d="M 2067 1536 
L 749 -1363 
L 416 -1363 
L 1645 1600 
L 422 4563 
L 755 4563 
L 2067 1664 
L 2067 1536 
z
" transform="scale(0.015625)"/>
      </defs>
      <use xlink:href="#STIXGeneral-Regular-4d" transform="translate(0 0.703125)"/>
      <use xlink:href="#STIXGeneral-Regular-61" transform="translate(88.899994 0.703125)"/>
      <use xlink:href="#STIXGeneral-Regular-6e" transform="translate(133.299988 0.703125)"/>
      <use xlink:href="#STIXGeneral-Regular-64" transform="translate(183.299973 0.703125)"/>
      <use xlink:href="#STIXGeneral-Regular-65" transform="translate(233.299957 0.703125)"/>
      <use xlink:href="#STIXGeneral-Regular-6c" transform="translate(277.699951 0.703125)"/>
      <use xlink:href="#STIXGeneral-Regular-20" transform="translate(305.499939 0.703125)"/>
      <use xlink:href="#STIXGeneral-Italic-51" transform="translate(330.499924 0.703125)"/>
      <use xlink:href="#STIXGeneral-Regular-2f" transform="translate(402.699905 0.703125)"/>
      <use xlink:href="#STIXGeneral-Regular-27e8" transform="translate(430.499893 0.703125)"/>
      <use xlink:href="#STIXGeneral-Italic-6e" transform="translate(470.499878 0.703125)"/>
      <use xlink:href="#STIXGeneral-Regular-27e9" transform="translate(520.499863 0.703125)"/>
     </g>
    </g>
   </g>
   <g id="matplotlib.axis_2">
    <g id="ytick_1">
     <g id="line2d_8">
      <defs>
       <path id="m9557cdab20" d="M 0 0 
L -3.5 0 
" style="stroke: #000000; stroke-width: 0.8"/>
      </defs>
      <g>
       <use xlink:href="#m9557cdab20" x="44.76" y="424.838766" style="stroke: #000000; stroke-width: 0.8"/>
      </g>
     </g>
     <g id="text_9">
      <!-- 0 -->
      <g transform="translate(31.76 428.936579) scale(0.12 -0.12)">
       <use xlink:href="#STIXGeneral-Regular-30"/>
      </g>
     </g>
    </g>
    <g id="ytick_2">
     <g id="line2d_9">
      <g>
       <use xlink:href="#m9557cdab20" x="44.76" y="370.205" style="stroke: #000000; stroke-width: 0.8"/>
      </g>
     </g>
     <g id="text_10">
      <!-- 2 -->
      <g transform="translate(31.76 374.302813) scale(0.12 -0.12)">
       <use xlink:href="#STIXGeneral-Regular-32"/>
      </g>
     </g>
    </g>
    <g id="ytick_3">
     <g id="line2d_10">
      <g>
       <use xlink:href="#m9557cdab20" x="44.76" y="315.571234" style="stroke: #000000; stroke-width: 0.8"/>
      </g>
     </g>
     <g id="text_11">
      <!-- 4 -->
      <g transform="translate(31.76 319.669047) scale(0.12 -0.12)">
       <use xlink:href="#STIXGeneral-Regular-34"/>
      </g>
     </g>
    </g>
    <g id="ytick_4">
     <g id="line2d_11">
      <g>
       <use xlink:href="#m9557cdab20" x="44.76" y="260.937468" style="stroke: #000000; stroke-width: 0.8"/>
      </g>
     </g>
     <g id="text_12">
      <!-- 6 -->
      <g transform="translate(31.76 265.035281) scale(0.12 -0.12)">
       <use xlink:href="#STIXGeneral-Regular-36"/>
      </g>
     </g>
    </g>
    <g id="ytick_5">
     <g id="line2d_12">
      <g>
       <use xlink:href="#m9557cdab20" x="44.76" y="206.303702" style="stroke: #000000; stroke-width: 0.8"/>
      </g>
     </g>
     <g id="text_13">
      <!-- 8 -->
      <g transform="translate(31.76 210.401515) scale(0.12 -0.12)">
       <use xlink:href="#STIXGeneral-Regular-38"/>
      </g>
     </g>
    </g>
    <g id="ytick_6">
     <g id="line2d_13">
      <g>
       <use xlink:href="#m9557cdab20" x="44.76" y="151.669936" style="stroke: #000000; stroke-width: 0.8"/>
      </g>
     </g>
     <g id="text_14">
      <!-- 10 -->
      <g transform="translate(25.76 155.767749) scale(0.12 -0.12)">
       <use xlink:href="#STIXGeneral-Regular-31"/>
       <use xlink:href="#STIXGeneral-Regular-30" transform="translate(49.999985 0)"/>
      </g>
     </g>
    </g>
    <g id="ytick_7">
     <g id="line2d_14">
      <g>
       <use xlink:href="#m9557cdab20" x="44.76" y="97.03617" style="stroke: #000000; stroke-width: 0.8"/>
      </g>
     </g>
     <g id="text_15">
      <!-- 12 -->
      <g transform="translate(25.76 101.133983) scale(0.12 -0.12)">
       <use xlink:href="#STIXGeneral-Regular-31"/>
       <use xlink:href="#STIXGeneral-Regular-32" transform="translate(49.999985 0)"/>
      </g>
     </g>
    </g>
    <g id="ytick_8">
     <g id="line2d_15">
      <g>
       <use xlink:href="#m9557cdab20" x="44.76" y="42.402404" style="stroke: #000000; stroke-width: 0.8"/>
      </g>
     </g>
     <g id="text_16">
      <!-- 14 -->
      <g transform="translate(25.76 46.500217) scale(0.12 -0.12)">
       <use xlink:href="#STIXGeneral-Regular-31"/>
       <use xlink:href="#STIXGeneral-Regular-34" transform="translate(49.999985 0)"/>
      </g>
     </g>
    </g>
    <g id="text_17">
     <!-- $g^{(2)}(0)$ -->
     <g transform="translate(18.721563 254.705) rotate(-90) scale(0.14 -0.14)">
      <defs>
       <path id="STIXGeneral-Italic-67" d="M 3014 2342 
L 2701 2342 
Q 2758 2227 2758 2016 
Q 2758 1613 2390 1289 
Q 2022 966 1574 966 
Q 1459 966 1376 986 
Q 1357 992 1331 992 
Q 1248 992 1174 909 
Q 1101 826 1101 730 
Q 1101 576 1555 461 
Q 2464 243 2464 -352 
Q 2464 -781 2105 -1049 
Q 1747 -1318 1120 -1318 
Q 621 -1318 336 -1142 
Q 51 -966 51 -627 
Q 51 -378 195 -202 
Q 339 -26 800 250 
Q 627 352 627 499 
Q 627 806 1120 1037 
Q 614 1216 614 1728 
Q 614 2202 1004 2512 
Q 1395 2822 1901 2822 
Q 2272 2822 2528 2643 
Q 2598 2592 2630 2592 
L 3014 2592 
L 3014 2342 
z
M 2253 2227 
Q 2253 2477 2166 2579 
Q 2080 2682 1894 2682 
Q 1587 2682 1350 2362 
Q 1114 2042 1114 1581 
Q 1114 1357 1216 1229 
Q 1318 1101 1498 1101 
Q 1818 1101 2042 1478 
Q 2253 1837 2253 2227 
z
M 2080 -576 
Q 2080 -352 1878 -201 
Q 1677 -51 1165 109 
Q 1011 154 947 179 
Q 902 179 752 57 
Q 602 -64 531 -154 
Q 403 -314 403 -525 
Q 403 -1178 1216 -1178 
Q 1594 -1178 1837 -1002 
Q 2080 -826 2080 -576 
z
" transform="scale(0.015625)"/>
       <path id="STIXGeneral-Regular-28" d="M 1946 -1030 
L 1869 -1133 
Q 1126 -710 716 32 
Q 307 774 307 1613 
Q 307 3386 1888 4326 
L 1946 4224 
Q 1293 3667 1075 3126 
Q 858 2586 858 1632 
Q 858 685 1082 96 
Q 1306 -493 1946 -1030 
z
" transform="scale(0.015625)"/>
       <path id="STIXGeneral-Regular-29" d="M 186 4224 
L 262 4326 
Q 992 3891 1408 3148 
Q 1824 2406 1824 1581 
Q 1824 -166 243 -1133 
L 186 -1030 
Q 845 -486 1059 54 
Q 1274 595 1274 1562 
Q 1274 2534 1059 3120 
Q 845 3706 186 4224 
z
" transform="scale(0.015625)"/>
      </defs>
      <use xlink:href="#STIXGeneral-Italic-67" transform="translate(0 0.409375)"/>
      <use xlink:href="#STIXGeneral-Regular-28" transform="translate(56.17311 35.684375) scale(0.7)"/>
      <use xlink:href="#STIXGeneral-Regular-32" transform="translate(79.483101 35.684375) scale(0.7)"/>
      <use xlink:href="#STIXGeneral-Regular-29" transform="translate(114.483091 35.684375) scale(0.7)"/>
      <use xlink:href="#STIXGeneral-Regular-28" transform="translate(142.202457 0.409375)"/>
      <use xlink:href="#STIXGeneral-Regular-30" transform="translate(175.502445 0.409375)"/>
      <use xlink:href="#STIXGeneral-Regular-29" transform="translate(225.50243 0.409375)"/>
     </g>
    </g>
   </g>
   <g id="line2d_16">
    <path d="M 74.513091 427.570455 
L 669.574909 45.579545 
L 669.574909 45.579545 
" clip-path="url(#p5e29fc9629)" style="fill: none; stroke-dasharray: 5.55,2.4; stroke-dashoffset: 0; stroke: #000000; stroke-opacity: 0.6; stroke-width: 1.5"/>
   </g>
   <g id="line2d_17">
    <path d="M 44.76 397.521883 
L 699.328 397.521883 
" clip-path="url(#p5e29fc9629)" style="fill: none; stroke-dasharray: 1.5,2.475; stroke-dashoffset: 0; stroke: #808080; stroke-opacity: 0.5; stroke-width: 1.5"/>
   </g>
   <g id="line2d_18">
    <path d="M 121.322471 446.67 
L 121.322471 26.48 
" clip-path="url(#p5e29fc9629)" style="fill: none; stroke-dasharray: 1.5,2.475; stroke-dashoffset: 0; stroke: #808080; stroke-opacity: 0.5; stroke-width: 1.5"/>
   </g>
   <g id="patch_3">
    <path d="M 44.76 446.67 
L 44.76 26.48 
" style="fill: none; stroke: #000000; stroke-width: 0.8; stroke-linejoin: miter; stroke-linecap: square"/>
   </g>
   <g id="patch_4">
    <path d="M 699.328 446.67 
L 699.328 26.48 
" style="fill: none; stroke: #000000; stroke-width: 0.8; stroke-linejoin: miter; stroke-linecap: square"/>
   </g>
   <g id="patch_5">
    <path d="M 44.76 446.67 
L 699.328 446.67 
" style="fill: none; stroke: #000000; stroke-width: 0.8; stroke-linejoin: miter; stroke-linecap: square"/>
   </g>
   <g id="patch_6">
    <path d="M 44.76 26.48 
L 699.328 26.48 
" style="fill: none; stroke: #000000; stroke-width: 0.8; stroke-linejoin: miter; stroke-linecap: square"/>
   </g>
   <g id="PathCollection_1">
    <defs>
     <path id="C0_0_d9f75c65b1" d="M 0 4.472136 
C 1.186024 4.472136 2.323632 4.000923 3.162278 3.162278 
C 4.000923 2.323632 4.472136 1.186024 4.472136 -0 
C 4.472136 -1.186024 4.000923 -2.323632 3.162278 -3.162278 
C 2.323632 -4.000923 1.186024 -4.472136 0 -4.472136 
C -1.186024 -4.472136 -2.323632 -4.000923 -3.162278 -3.162278 
C -4.000923 -2.323632 -4.472136 -1.186024 -4.472136 0 
C -4.472136 1.186024 -4.000923 2.323632 -3.162278 3.162278 
C -2.323632 4.000923 -1.186024 4.472136 0 4.472136 
z
"/>
    </defs>
    <g clip-path="url(#p5e29fc9629)">
     <use xlink:href="#C0_0_d9f75c65b1" x="78.768489" y="424.838766" style="fill: #e91e63; stroke: #000000; stroke-width: 0.5"/>
    </g>
    <g clip-path="url(#p5e29fc9629)">
     <use xlink:href="#C0_0_d9f75c65b1" x="100.04548" y="411.180325" style="fill: #e91e63; stroke: #000000; stroke-width: 0.5"/>
    </g>
    <g clip-path="url(#p5e29fc9629)">
     <use xlink:href="#C0_0_d9f75c65b1" x="107.13781" y="406.627511" style="fill: #e91e63; stroke: #000000; stroke-width: 0.5"/>
    </g>
    <g clip-path="url(#p5e29fc9629)">
     <use xlink:href="#C0_0_d9f75c65b1" x="110.683975" y="404.351104" style="fill: #e91e63; stroke: #000000; stroke-width: 0.5"/>
    </g>
    <g clip-path="url(#p5e29fc9629)">
     <use xlink:href="#C0_0_d9f75c65b1" x="112.811674" y="402.98526" style="fill: #e91e63; stroke: #000000; stroke-width: 0.5"/>
    </g>
    <g clip-path="url(#p5e29fc9629)">
     <use xlink:href="#C0_0_d9f75c65b1" x="114.23014" y="402.074697" style="fill: #e91e63; stroke: #000000; stroke-width: 0.5"/>
    </g>
    <g clip-path="url(#p5e29fc9629)">
     <use xlink:href="#C0_0_d9f75c65b1" x="115.24333" y="401.424295" style="fill: #e91e63; stroke: #000000; stroke-width: 0.5"/>
    </g>
    <g clip-path="url(#p5e29fc9629)">
     <use xlink:href="#C0_0_d9f75c65b1" x="116.003223" y="400.936494" style="fill: #e91e63; stroke: #000000; stroke-width: 0.5"/>
    </g>
    <g clip-path="url(#p5e29fc9629)">
     <use xlink:href="#C0_0_d9f75c65b1" x="116.59425" y="400.557092" style="fill: #e91e63; stroke: #000000; stroke-width: 0.5"/>
    </g>
    <g clip-path="url(#p5e29fc9629)">
     <use xlink:href="#C0_0_d9f75c65b1" x="117.067072" y="400.253572" style="fill: #e91e63; stroke: #000000; stroke-width: 0.5"/>
    </g>
    <g clip-path="url(#p5e29fc9629)">
     <use xlink:href="#C0_0_d9f75c65b1" x="121.322471" y="397.521883" style="fill: #1976d2; stroke: #000000; stroke-width: 0.5"/>
    </g>
    <g clip-path="url(#p5e29fc9629)">
     <use xlink:href="#C0_0_d9f75c65b1" x="121.322471" y="397.521883" style="fill: #1976d2; stroke: #000000; stroke-width: 0.5"/>
    </g>
    <g clip-path="url(#p5e29fc9629)">
     <use xlink:href="#C0_0_d9f75c65b1" x="121.322471" y="397.521883" style="fill: #1976d2; stroke: #000000; stroke-width: 0.5"/>
    </g>
    <g clip-path="url(#p5e29fc9629)">
     <use xlink:href="#C0_0_d9f75c65b1" x="121.322471" y="397.521883" style="fill: #1976d2; stroke: #000000; stroke-width: 0.5"/>
    </g>
    <g clip-path="url(#p5e29fc9629)">
     <use xlink:href="#C0_0_d9f75c65b1" x="121.322471" y="397.521883" style="fill: #1976d2; stroke: #000000; stroke-width: 0.5"/>
    </g>
    <g clip-path="url(#p5e29fc9629)">
     <use xlink:href="#C0_0_d9f75c65b1" x="121.322471" y="397.521883" style="fill: #1976d2; stroke: #000000; stroke-width: 0.5"/>
    </g>
    <g clip-path="url(#p5e29fc9629)">
     <use xlink:href="#C0_0_d9f75c65b1" x="121.322471" y="397.521883" style="fill: #1976d2; stroke: #000000; stroke-width: 0.5"/>
    </g>
    <g clip-path="url(#p5e29fc9629)">
     <use xlink:href="#C0_0_d9f75c65b1" x="121.322471" y="397.521883" style="fill: #1976d2; stroke: #000000; stroke-width: 0.5"/>
    </g>
    <g clip-path="url(#p5e29fc9629)">
     <use xlink:href="#C0_0_d9f75c65b1" x="163.876452" y="370.205" style="fill: #ff6f00; stroke: #000000; stroke-width: 0.5"/>
    </g>
    <g clip-path="url(#p5e29fc9629)">
     <use xlink:href="#C0_0_d9f75c65b1" x="163.876452" y="370.205" style="fill: #ff6f00; stroke: #000000; stroke-width: 0.5"/>
    </g>
    <g clip-path="url(#p5e29fc9629)">
     <use xlink:href="#C0_0_d9f75c65b1" x="163.876452" y="370.205" style="fill: #ff6f00; stroke: #000000; stroke-width: 0.5"/>
    </g>
    <g clip-path="url(#p5e29fc9629)">
     <use xlink:href="#C0_0_d9f75c65b1" x="163.876452" y="370.205" style="fill: #ff6f00; stroke: #000000; stroke-width: 0.5"/>
    </g>
    <g clip-path="url(#p5e29fc9629)">
     <use xlink:href="#C0_0_d9f75c65b1" x="163.876452" y="370.205" style="fill: #ff6f00; stroke: #000000; stroke-width: 0.5"/>
    </g>
    <g clip-path="url(#p5e29fc9629)">
     <use xlink:href="#C0_0_d9f75c65b1" x="163.876451" y="370.205001" style="fill: #ff6f00; stroke: #000000; stroke-width: 0.5"/>
    </g>
    <g clip-path="url(#p5e29fc9629)">
     <use xlink:href="#C0_0_d9f75c65b1" x="163.87643" y="370.205014" style="fill: #ff6f00; stroke: #000000; stroke-width: 0.5"/>
    </g>
    <g clip-path="url(#p5e29fc9629)">
     <use xlink:href="#C0_0_d9f75c65b1" x="163.876269" y="370.205118" style="fill: #ff6f00; stroke: #000000; stroke-width: 0.5"/>
    </g>
    <g clip-path="url(#p5e29fc9629)">
     <use xlink:href="#C0_0_d9f75c65b1" x="665.319511" y="48.311234" style="fill: #7b1fa2; stroke: #000000; stroke-width: 0.5"/>
    </g>
    <g clip-path="url(#p5e29fc9629)">
     <use xlink:href="#C0_0_d9f75c65b1" x="338.96896" y="257.807021" style="fill: #7b1fa2; stroke: #000000; stroke-width: 0.5"/>
    </g>
    <g clip-path="url(#p5e29fc9629)">
     <use xlink:href="#C0_0_d9f75c65b1" x="263.762321" y="306.084782" style="fill: #7b1fa2; stroke: #000000; stroke-width: 0.5"/>
    </g>
    <g clip-path="url(#p5e29fc9629)">
     <use xlink:href="#C0_0_d9f75c65b1" x="235.673951" y="324.115685" style="fill: #7b1fa2; stroke: #000000; stroke-width: 0.5"/>
    </g>
    <g clip-path="url(#p5e29fc9629)">
     <use xlink:href="#C0_0_d9f75c65b1" x="222.62734" y="332.490759" style="fill: #7b1fa2; stroke: #000000; stroke-width: 0.5"/>
    </g>
    <g clip-path="url(#p5e29fc9629)">
     <use xlink:href="#C0_0_d9f75c65b1" x="215.767188" y="336.894529" style="fill: #7b1fa2; stroke: #000000; stroke-width: 0.5"/>
    </g>
   </g>
   <g id="text_18">
    <!-- Mandel $Q/\langle n \rangle$ vs $g^{(2)}(0)$: Universal Relation -->
    <g transform="translate(230.924 20.48) scale(0.16 -0.16)">
     <defs>
      <path id="STIXGeneral-Regular-76" d="M 3053 2880 
L 3053 2784 
Q 2906 2771 2835 2688 
Q 2765 2605 2637 2285 
L 1818 230 
Q 1690 -90 1638 -90 
Q 1587 -90 1523 77 
Q 1510 96 1497 141 
Q 1485 186 1472 211 
L 704 2048 
Q 499 2534 403 2652 
Q 307 2771 122 2784 
L 122 2880 
L 1376 2880 
L 1376 2784 
Q 1210 2771 1146 2732 
Q 1082 2694 1082 2611 
Q 1082 2509 1139 2368 
L 1792 730 
L 2426 2387 
Q 2464 2483 2464 2579 
Q 2464 2758 2163 2784 
L 2163 2880 
L 3053 2880 
z
" transform="scale(0.015625)"/>
      <path id="STIXGeneral-Regular-73" d="M 998 1926 
L 1664 1523 
Q 1984 1331 2105 1164 
Q 2227 998 2227 736 
Q 2227 416 1961 176 
Q 1696 -64 1331 -64 
Q 1030 -64 864 -6 
Q 691 51 570 51 
Q 461 51 416 -26 
L 333 -26 
L 333 979 
L 435 979 
Q 538 512 730 294 
Q 922 77 1248 77 
Q 1485 77 1632 211 
Q 1779 346 1779 550 
Q 1779 845 1440 1030 
L 1094 1222 
Q 326 1651 326 2150 
Q 326 2522 566 2730 
Q 806 2938 1210 2938 
Q 1491 2938 1638 2867 
Q 1754 2816 1818 2816 
Q 1862 2816 1920 2880 
L 1990 2880 
L 2022 2010 
L 1926 2010 
Q 1818 2445 1654 2621 
Q 1491 2797 1203 2797 
Q 986 2797 854 2688 
Q 723 2579 723 2362 
Q 723 2253 796 2128 
Q 870 2003 998 1926 
z
" transform="scale(0.015625)"/>
      <path id="STIXGeneral-Regular-3a" d="M 1123 2832 
Q 1229 2726 1229 2579 
Q 1229 2432 1126 2329 
Q 1024 2227 877 2227 
Q 730 2227 624 2332 
Q 518 2438 518 2579 
Q 518 2733 620 2835 
Q 723 2938 877 2938 
Q 1018 2938 1123 2832 
z
M 1229 282 
Q 1229 141 1126 35 
Q 1024 -70 877 -70 
Q 730 -70 624 35 
Q 518 141 518 282 
Q 518 435 620 537 
Q 723 640 877 640 
Q 1018 640 1123 534 
Q 1229 429 1229 282 
z
" transform="scale(0.015625)"/>
      <path id="STIXGeneral-Regular-55" d="M 4512 4237 
L 4512 4115 
Q 4122 4077 4016 3926 
Q 3910 3776 3910 3302 
L 3910 1670 
Q 3910 1178 3840 896 
Q 3770 614 3565 378 
Q 3155 -90 2272 -90 
Q 1574 -90 1184 205 
Q 666 589 666 1594 
L 666 3578 
Q 666 3898 566 3994 
Q 467 4090 90 4115 
L 90 4237 
L 1901 4237 
L 1901 4115 
Q 1517 4083 1417 3977 
Q 1318 3872 1318 3514 
L 1318 1517 
Q 1318 1101 1369 877 
Q 1421 653 1600 480 
Q 1901 192 2419 192 
Q 3066 192 3392 570 
Q 3539 749 3584 963 
Q 3629 1178 3629 1600 
L 3629 3283 
Q 3629 3782 3520 3936 
Q 3411 4090 3027 4115 
L 3027 4237 
L 4512 4237 
z
" transform="scale(0.015625)"/>
      <path id="STIXGeneral-Regular-69" d="M 1152 4045 
Q 1152 3904 1056 3811 
Q 960 3718 819 3718 
Q 685 3718 592 3811 
Q 499 3904 499 4045 
Q 499 4179 595 4275 
Q 691 4371 826 4371 
Q 966 4371 1059 4275 
Q 1152 4179 1152 4045 
z
M 1619 0 
L 102 0 
L 102 96 
Q 435 115 521 211 
Q 608 307 608 666 
L 608 2118 
Q 608 2342 563 2432 
Q 518 2522 397 2522 
Q 243 2522 128 2490 
L 128 2592 
L 1120 2944 
L 1146 2918 
L 1146 672 
Q 1146 314 1226 218 
Q 1306 122 1619 96 
L 1619 0 
z
" transform="scale(0.015625)"/>
      <path id="STIXGeneral-Regular-72" d="M 1024 2931 
L 1024 2342 
Q 1267 2688 1430 2816 
Q 1594 2944 1792 2944 
Q 1958 2944 2051 2854 
Q 2144 2765 2144 2605 
Q 2144 2470 2077 2393 
Q 2010 2317 1894 2317 
Q 1773 2317 1638 2445 
Q 1536 2541 1472 2541 
Q 1338 2541 1181 2355 
Q 1024 2170 1024 2016 
L 1024 576 
Q 1024 301 1133 205 
Q 1242 109 1568 96 
L 1568 0 
L 32 0 
L 32 96 
Q 339 154 412 224 
Q 486 294 486 538 
L 486 2138 
Q 486 2349 438 2435 
Q 390 2522 269 2522 
Q 166 2522 45 2496 
L 45 2598 
Q 448 2726 992 2944 
L 1024 2931 
z
" transform="scale(0.015625)"/>
      <path id="STIXGeneral-Regular-52" d="M 4224 0 
L 3187 0 
L 1664 1971 
L 1306 1958 
L 1306 717 
Q 1306 352 1405 249 
Q 1504 147 1875 122 
L 1875 0 
L 109 0 
L 109 122 
Q 474 154 563 262 
Q 653 371 653 794 
L 653 3526 
Q 653 3885 563 3987 
Q 474 4090 109 4115 
L 109 4237 
L 1850 4237 
Q 2726 4237 3187 3859 
Q 3501 3603 3501 3091 
Q 3501 2221 2342 2042 
L 3622 422 
Q 3757 256 3878 198 
Q 4000 141 4224 122 
L 4224 0 
z
M 1306 3731 
L 1306 2195 
Q 1766 2202 1990 2246 
Q 2214 2291 2438 2413 
Q 2803 2618 2803 3142 
Q 2803 4000 1632 4000 
Q 1459 4000 1382 3945 
Q 1306 3891 1306 3731 
z
" transform="scale(0.015625)"/>
      <path id="STIXGeneral-Regular-74" d="M 1702 493 
L 1786 422 
Q 1478 -64 1011 -64 
Q 448 -64 448 749 
L 448 2675 
L 109 2675 
Q 83 2694 83 2720 
Q 83 2771 192 2842 
Q 435 2982 813 3526 
Q 826 3546 874 3606 
Q 922 3667 941 3706 
Q 986 3706 986 3622 
L 986 2880 
L 1632 2880 
L 1632 2675 
L 986 2675 
L 986 845 
Q 986 538 1062 403 
Q 1139 269 1318 269 
Q 1510 269 1702 493 
z
" transform="scale(0.015625)"/>
      <path id="STIXGeneral-Regular-6f" d="M 3008 1478 
Q 3008 806 2608 371 
Q 2208 -64 1568 -64 
Q 979 -64 582 368 
Q 186 800 186 1459 
Q 186 2125 582 2534 
Q 979 2944 1626 2944 
Q 2221 2944 2614 2537 
Q 3008 2131 3008 1478 
z
M 2432 1306 
Q 2432 2035 2112 2445 
Q 1856 2765 1504 2765 
Q 1171 2765 966 2493 
Q 762 2221 762 1747 
Q 762 928 1101 435 
Q 1318 115 1677 115 
Q 2029 115 2230 432 
Q 2432 749 2432 1306 
z
" transform="scale(0.015625)"/>
     </defs>
     <use xlink:href="#STIXGeneral-Regular-4d" transform="translate(0 0.409375)"/>
     <use xlink:href="#STIXGeneral-Regular-61" transform="translate(88.899994 0.409375)"/>
     <use xlink:href="#STIXGeneral-Regular-6e" transform="translate(133.299988 0.409375)"/>
     <use xlink:href="#STIXGeneral-Regular-64" transform="translate(183.299973 0.409375)"/>
     <use xlink:href="#STIXGeneral-Regular-65" transform="translate(233.299957 0.409375)"/>
     <use xlink:href="#STIXGeneral-Regular-6c" transform="translate(277.699951 0.409375)"/>
     <use xlink:href="#STIXGeneral-Regular-20" transform="translate(305.499939 0.409375)"/>
     <use xlink:href="#STIXGeneral-Italic-51" transform="translate(330.499924 0.409375)"/>
     <use xlink:href="#STIXGeneral-Regular-2f" transform="translate(402.699905 0.409375)"/>
     <use xlink:href="#STIXGeneral-Regular-27e8" transform="translate(430.499893 0.409375)"/>
     <use xlink:href="#STIXGeneral-Italic-6e" transform="translate(470.499878 0.409375)"/>
     <use xlink:href="#STIXGeneral-Regular-27e9" transform="translate(520.499863 0.409375)"/>
     <use xlink:href="#STIXGeneral-Regular-20" transform="translate(560.499847 0.409375)"/>
     <use xlink:href="#STIXGeneral-Regular-76" transform="translate(585.499832 0.409375)"/>
     <use xlink:href="#STIXGeneral-Regular-73" transform="translate(635.499817 0.409375)"/>
     <use xlink:href="#STIXGeneral-Regular-20" transform="translate(674.399811 0.409375)"/>
     <use xlink:href="#STIXGeneral-Italic-67" transform="translate(699.399796 0.409375)"/>
     <use xlink:href="#STIXGeneral-Regular-28" transform="translate(755.572905 35.684375) scale(0.7)"/>
     <use xlink:href="#STIXGeneral-Regular-32" transform="translate(778.882897 35.684375) scale(0.7)"/>
     <use xlink:href="#STIXGeneral-Regular-29" transform="translate(813.882886 35.684375) scale(0.7)"/>
     <use xlink:href="#STIXGeneral-Regular-28" transform="translate(841.602253 0.409375)"/>
     <use xlink:href="#STIXGeneral-Regular-30" transform="translate(874.90224 0.409375)"/>
     <use xlink:href="#STIXGeneral-Regular-29" transform="translate(924.902225 0.409375)"/>
     <use xlink:href="#STIXGeneral-Regular-3a" transform="translate(958.202213 0.409375)"/>
     <use xlink:href="#STIXGeneral-Regular-20" transform="translate(986.002201 0.409375)"/>
     <use xlink:href="#STIXGeneral-Regular-55" transform="translate(1011.002185 0.409375)"/>
     <use xlink:href="#STIXGeneral-Regular-6e" transform="translate(1083.202167 0.409375)"/>
     <use xlink:href="#STIXGeneral-Regular-69" transform="translate(1133.202152 0.409375)"/>
     <use xlink:href="#STIXGeneral-Regular-76" transform="translate(1161.00214 0.409375)"/>
     <use xlink:href="#STIXGeneral-Regular-65" transform="translate(1211.002124 0.409375)"/>
     <use xlink:href="#STIXGeneral-Regular-72" transform="translate(1255.402118 0.409375)"/>
     <use xlink:href="#STIXGeneral-Regular-73" transform="translate(1288.702106 0.409375)"/>
     <use xlink:href="#STIXGeneral-Regular-61" transform="translate(1327.6021 0.409375)"/>
     <use xlink:href="#STIXGeneral-Regular-6c" transform="translate(1372.002094 0.409375)"/>
     <use xlink:href="#STIXGeneral-Regular-20" transform="translate(1399.802082 0.409375)"/>
     <use xlink:href="#STIXGeneral-Regular-52" transform="translate(1424.802066 0.409375)"/>
     <use xlink:href="#STIXGeneral-Regular-65" transform="translate(1491.502063 0.409375)"/>
     <use xlink:href="#STIXGeneral-Regular-6c" transform="translate(1535.902057 0.409375)"/>
     <use xlink:href="#STIXGeneral-Regular-61" transform="translate(1563.702045 0.409375)"/>
     <use xlink:href="#STIXGeneral-Regular-74" transform="translate(1608.102039 0.409375)"/>
     <use xlink:href="#STIXGeneral-Regular-69" transform="translate(1635.902027 0.409375)"/>
     <use xlink:href="#STIXGeneral-Regular-6f" transform="translate(1663.702014 0.409375)"/>
     <use xlink:href="#STIXGeneral-Regular-6e" transform="translate(1713.701999 0.409375)"/>
    </g>
   </g>
   <g id="legend_1">
    <g id="patch_7">
     <path d="M 52.46 97.629375 
L 167.391094 97.629375 
Q 169.591094 97.629375 169.591094 95.429375 
L 169.591094 34.18 
Q 169.591094 31.98 167.391094 31.98 
L 52.46 31.98 
Q 50.26 31.98 50.26 34.18 
L 50.26 95.429375 
Q 50.26 97.629375 52.46 97.629375 
z
" style="fill: #ffffff; opacity: 0.8; stroke: #cccccc; stroke-linejoin: miter"/>
    </g>
    <g id="patch_8">
     <path d="M 54.66 44.08 
L 76.66 44.08 
L 76.66 36.38 
L 54.66 36.38 
z
" style="fill: #e91e63; stroke: #e91e63; stroke-linejoin: miter"/>
    </g>
    <g id="text_19">
     <!-- Fock states -->
     <g transform="translate(85.46 44.08) scale(0.11 -0.11)">
      <defs>
       <path id="STIXGeneral-Regular-46" d="M 3494 3322 
L 3334 3322 
Q 3264 3757 3094 3875 
Q 2925 3994 2349 3994 
L 1504 3994 
Q 1370 3994 1328 3946 
Q 1286 3898 1286 3744 
L 1286 2355 
L 2195 2355 
Q 2598 2355 2736 2470 
Q 2874 2586 2918 2963 
L 3066 2963 
L 3066 1472 
L 2918 1472 
Q 2880 1862 2745 1977 
Q 2611 2093 2195 2093 
L 1286 2093 
L 1286 717 
Q 1286 352 1392 246 
Q 1498 141 1869 122 
L 1869 0 
L 70 0 
L 70 122 
Q 435 147 534 259 
Q 634 371 634 787 
L 634 3526 
Q 634 3878 538 3984 
Q 442 4090 77 4115 
L 77 4237 
L 3462 4237 
L 3494 3322 
z
" transform="scale(0.015625)"/>
       <path id="STIXGeneral-Regular-63" d="M 2547 998 
L 2637 941 
Q 2362 403 2112 205 
Q 1786 -64 1376 -64 
Q 845 -64 502 336 
Q 160 736 160 1357 
Q 160 2170 698 2618 
Q 1094 2944 1562 2944 
Q 1965 2944 2256 2749 
Q 2547 2554 2547 2285 
Q 2547 2176 2457 2096 
Q 2368 2016 2246 2016 
Q 2022 2016 1939 2310 
L 1901 2451 
Q 1850 2630 1773 2694 
Q 1696 2758 1523 2758 
Q 1133 2758 893 2451 
Q 653 2144 653 1645 
Q 653 1094 928 745 
Q 1203 397 1645 397 
Q 1920 397 2118 528 
Q 2317 659 2547 998 
z
" transform="scale(0.015625)"/>
       <path id="STIXGeneral-Regular-6b" d="M 3232 0 
L 1837 0 
L 1837 96 
L 1958 96 
Q 2093 96 2093 192 
Q 2093 250 2022 339 
L 1062 1606 
L 1062 429 
Q 1062 262 1142 185 
Q 1222 109 1414 102 
L 1542 96 
L 1542 0 
L 45 0 
L 45 96 
Q 390 154 457 214 
Q 525 275 525 525 
L 525 3610 
Q 525 3840 467 3920 
Q 410 4000 250 4000 
Q 211 4000 45 3987 
L 45 4090 
L 237 4141 
Q 621 4243 1037 4371 
L 1062 4358 
L 1062 1670 
L 1939 2451 
Q 2086 2586 2086 2675 
Q 2086 2739 2019 2761 
Q 1952 2784 1766 2790 
L 1766 2880 
L 3072 2880 
L 3072 2784 
Q 2752 2784 2505 2646 
Q 2259 2509 1690 1978 
L 1504 1805 
L 2483 563 
Q 2829 122 3232 96 
L 3232 0 
z
" transform="scale(0.015625)"/>
      </defs>
      <use xlink:href="#STIXGeneral-Regular-46"/>
      <use xlink:href="#STIXGeneral-Regular-6f" transform="translate(55.599991 0)"/>
      <use xlink:href="#STIXGeneral-Regular-63" transform="translate(105.599976 0)"/>
      <use xlink:href="#STIXGeneral-Regular-6b" transform="translate(149.999969 0)"/>
      <use xlink:href="#STIXGeneral-Regular-20" transform="translate(199.999954 0)"/>
      <use xlink:href="#STIXGeneral-Regular-73" transform="translate(224.999939 0)"/>
      <use xlink:href="#STIXGeneral-Regular-74" transform="translate(263.899933 0)"/>
      <use xlink:href="#STIXGeneral-Regular-61" transform="translate(291.699921 0)"/>
      <use xlink:href="#STIXGeneral-Regular-74" transform="translate(336.099915 0)"/>
      <use xlink:href="#STIXGeneral-Regular-65" transform="translate(363.899902 0)"/>
      <use xlink:href="#STIXGeneral-Regular-73" transform="translate(408.299896 0)"/>
     </g>
    </g>
    <g id="patch_9">
     <path d="M 54.66 59.667344 
L 76.66 59.667344 
L 76.66 51.967344 
L 54.66 51.967344 
z
" style="fill: #1976d2; stroke: #1976d2; stroke-linejoin: miter"/>
    </g>
    <g id="text_20">
     <!-- Coherent states -->
     <g transform="translate(85.46 59.667344) scale(0.11 -0.11)">
      <defs>
       <path id="STIXGeneral-Regular-43" d="M 3930 838 
L 4051 723 
Q 3482 -90 2304 -90 
Q 1376 -90 794 480 
Q 179 1082 179 2080 
Q 179 3014 755 3661 
Q 1357 4326 2310 4326 
Q 2720 4326 3072 4230 
Q 3475 4115 3514 4115 
Q 3725 4115 3782 4326 
L 3910 4326 
L 3968 2874 
L 3821 2874 
Q 3718 3334 3488 3584 
Q 3034 4070 2458 4070 
Q 1747 4070 1334 3548 
Q 922 3027 922 2182 
Q 922 1152 1382 653 
Q 1811 192 2522 192 
Q 2944 192 3251 339 
Q 3558 486 3930 838 
z
" transform="scale(0.015625)"/>
       <path id="STIXGeneral-Regular-68" d="M 3117 0 
L 1760 0 
L 1760 96 
Q 2042 128 2118 224 
Q 2195 320 2195 653 
L 2195 1920 
Q 2195 2598 1722 2598 
Q 1530 2598 1370 2508 
Q 1210 2419 1005 2195 
L 1005 653 
Q 1005 320 1081 224 
Q 1158 128 1440 96 
L 1440 0 
L 58 0 
L 58 96 
Q 333 134 400 224 
Q 467 314 467 653 
L 467 3667 
Q 467 3872 406 3933 
Q 346 3994 141 3994 
Q 83 3994 64 3987 
L 64 4090 
L 237 4141 
Q 730 4288 973 4371 
L 1005 4352 
L 1005 2406 
Q 1229 2694 1446 2819 
Q 1664 2944 1946 2944 
Q 2733 2944 2733 1926 
L 2733 653 
Q 2733 320 2793 233 
Q 2854 147 3117 96 
L 3117 0 
z
" transform="scale(0.015625)"/>
      </defs>
      <use xlink:href="#STIXGeneral-Regular-43"/>
      <use xlink:href="#STIXGeneral-Regular-6f" transform="translate(66.699997 0)"/>
      <use xlink:href="#STIXGeneral-Regular-68" transform="translate(116.699982 0)"/>
      <use xlink:href="#STIXGeneral-Regular-65" transform="translate(166.699966 0)"/>
      <use xlink:href="#STIXGeneral-Regular-72" transform="translate(211.09996 0)"/>
      <use xlink:href="#STIXGeneral-Regular-65" transform="translate(244.399948 0)"/>
      <use xlink:href="#STIXGeneral-Regular-6e" transform="translate(288.799942 0)"/>
      <use xlink:href="#STIXGeneral-Regular-74" transform="translate(338.799927 0)"/>
      <use xlink:href="#STIXGeneral-Regular-20" transform="translate(366.599915 0)"/>
      <use xlink:href="#STIXGeneral-Regular-73" transform="translate(391.599899 0)"/>
      <use xlink:href="#STIXGeneral-Regular-74" transform="translate(430.499893 0)"/>
      <use xlink:href="#STIXGeneral-Regular-61" transform="translate(458.299881 0)"/>
      <use xlink:href="#STIXGeneral-Regular-74" transform="translate(502.699875 0)"/>
      <use xlink:href="#STIXGeneral-Regular-65" transform="translate(530.499863 0)"/>
      <use xlink:href="#STIXGeneral-Regular-73" transform="translate(574.899857 0)"/>
     </g>
    </g>
    <g id="patch_10">
     <path d="M 54.66 75.254687 
L 76.66 75.254687 
L 76.66 67.554687 
L 54.66 67.554687 
z
" style="fill: #ff6f00; stroke: #ff6f00; stroke-linejoin: miter"/>
    </g>
    <g id="text_21">
     <!-- Thermal states -->
     <g transform="translate(85.46 75.254687) scale(0.11 -0.11)">
      <defs>
       <path id="STIXGeneral-Regular-54" d="M 3795 3149 
L 3642 3149 
Q 3539 3674 3353 3821 
Q 3168 3968 2656 3968 
L 2278 3968 
L 2278 710 
Q 2278 346 2387 243 
Q 2496 141 2893 122 
L 2893 0 
L 1024 0 
L 1024 122 
Q 1427 147 1526 256 
Q 1626 365 1626 787 
L 1626 3968 
L 1242 3968 
Q 723 3968 540 3817 
Q 358 3667 262 3149 
L 109 3149 
L 154 4237 
L 3750 4237 
L 3795 3149 
z
" transform="scale(0.015625)"/>
       <path id="STIXGeneral-Regular-6d" d="M 4960 0 
L 3565 0 
L 3565 96 
Q 3834 122 3907 208 
Q 3981 294 3981 576 
L 3981 1894 
Q 3981 2278 3869 2444 
Q 3757 2611 3488 2611 
Q 3264 2611 3107 2521 
Q 2950 2432 2803 2221 
L 2803 608 
Q 2803 301 2896 201 
Q 2989 102 3264 96 
L 3264 0 
L 1830 0 
L 1830 96 
Q 2112 115 2189 188 
Q 2266 262 2266 550 
L 2266 1901 
Q 2266 2611 1850 2611 
Q 1670 2611 1468 2531 
Q 1267 2451 1171 2336 
Q 1088 2240 1088 2227 
L 1088 448 
Q 1088 243 1177 176 
Q 1267 109 1523 96 
L 1523 0 
L 102 0 
L 102 96 
Q 371 102 460 195 
Q 550 288 550 563 
L 550 2150 
Q 550 2387 499 2480 
Q 448 2573 326 2573 
Q 230 2573 122 2547 
L 122 2656 
Q 557 2778 1011 2944 
L 1062 2925 
L 1062 2451 
L 1075 2451 
Q 1363 2752 1584 2848 
Q 1805 2944 2054 2944 
Q 2560 2944 2733 2406 
Q 3232 2944 3776 2944 
Q 4518 2944 4518 1792 
L 4518 493 
Q 4518 282 4582 202 
Q 4646 122 4794 109 
L 4960 96 
L 4960 0 
z
" transform="scale(0.015625)"/>
      </defs>
      <use xlink:href="#STIXGeneral-Regular-54"/>
      <use xlink:href="#STIXGeneral-Regular-68" transform="translate(61.099991 0)"/>
      <use xlink:href="#STIXGeneral-Regular-65" transform="translate(111.099976 0)"/>
      <use xlink:href="#STIXGeneral-Regular-72" transform="translate(155.499969 0)"/>
      <use xlink:href="#STIXGeneral-Regular-6d" transform="translate(188.799957 0)"/>
      <use xlink:href="#STIXGeneral-Regular-61" transform="translate(266.599945 0)"/>
      <use xlink:href="#STIXGeneral-Regular-6c" transform="translate(310.999939 0)"/>
      <use xlink:href="#STIXGeneral-Regular-20" transform="translate(338.799927 0)"/>
      <use xlink:href="#STIXGeneral-Regular-73" transform="translate(363.799911 0)"/>
      <use xlink:href="#STIXGeneral-Regular-74" transform="translate(402.699905 0)"/>
      <use xlink:href="#STIXGeneral-Regular-61" transform="translate(430.499893 0)"/>
      <use xlink:href="#STIXGeneral-Regular-74" transform="translate(474.899887 0)"/>
      <use xlink:href="#STIXGeneral-Regular-65" transform="translate(502.699875 0)"/>
      <use xlink:href="#STIXGeneral-Regular-73" transform="translate(547.099869 0)"/>
     </g>
    </g>
    <g id="patch_11">
     <path d="M 54.66 90.842031 
L 76.66 90.842031 
L 76.66 83.142031 
L 54.66 83.142031 
z
" style="fill: #7b1fa2; stroke: #7b1fa2; stroke-linejoin: miter"/>
    </g>
    <g id="text_22">
     <!-- Squeezed vacuum -->
     <g transform="translate(85.46 90.842031) scale(0.11 -0.11)">
      <defs>
       <path id="STIXGeneral-Regular-53" d="M 3002 2963 
L 2842 2963 
Q 2733 3360 2579 3565 
Q 2189 4064 1651 4064 
Q 1357 4064 1181 3894 
Q 1005 3725 1005 3456 
Q 1005 3328 1069 3206 
Q 1133 3085 1206 2998 
Q 1280 2912 1465 2784 
Q 1651 2656 1766 2589 
Q 1882 2522 2150 2362 
Q 2669 2061 2905 1763 
Q 3142 1466 3142 1107 
Q 3142 576 2771 243 
Q 2400 -90 1837 -90 
Q 1421 -90 1082 58 
Q 915 128 781 128 
Q 704 128 653 70 
Q 602 13 602 -83 
L 461 -83 
L 275 1274 
L 416 1274 
Q 845 141 1734 141 
Q 2074 141 2285 342 
Q 2496 544 2496 858 
Q 2496 1158 2310 1363 
Q 2003 1696 1235 2106 
Q 454 2522 454 3206 
Q 454 3718 768 4022 
Q 1082 4326 1568 4326 
Q 1907 4326 2240 4186 
Q 2413 4109 2522 4109 
Q 2688 4109 2726 4326 
L 2861 4326 
L 3002 2963 
z
" transform="scale(0.015625)"/>
       <path id="STIXGeneral-Regular-71" d="M 3123 -1389 
L 1613 -1389 
L 1613 -1280 
Q 1952 -1254 2067 -1158 
Q 2182 -1062 2182 -794 
L 2182 410 
Q 1747 -64 1178 -64 
Q 730 -64 442 320 
Q 154 704 154 1312 
Q 154 2003 560 2473 
Q 966 2944 1562 2944 
Q 1920 2944 2304 2720 
L 2650 2925 
L 2720 2925 
L 2720 -902 
Q 2720 -1107 2797 -1180 
Q 2874 -1254 3123 -1280 
L 3123 -1389 
z
M 2182 813 
L 2182 2131 
Q 2182 2758 1587 2758 
Q 1178 2758 941 2432 
Q 704 2106 704 1542 
Q 704 1210 803 925 
Q 902 640 1062 499 
Q 1254 326 1542 326 
Q 1882 326 2106 531 
Q 2182 602 2182 813 
z
" transform="scale(0.015625)"/>
       <path id="STIXGeneral-Regular-75" d="M 3072 320 
L 3072 230 
Q 2573 96 2195 -58 
L 2163 -38 
L 2163 486 
L 2150 486 
Q 1747 -64 1235 -64 
Q 870 -64 662 160 
Q 454 384 454 755 
L 454 2362 
Q 454 2598 371 2688 
Q 288 2778 58 2790 
L 58 2880 
L 992 2880 
L 992 813 
Q 992 595 1123 451 
Q 1254 307 1446 307 
Q 1760 307 1984 506 
Q 2067 582 2099 649 
Q 2131 717 2131 877 
L 2131 2355 
Q 2131 2605 2041 2678 
Q 1952 2752 1658 2771 
L 1658 2880 
L 2669 2880 
L 2669 685 
Q 2669 461 2742 390 
Q 2816 320 3034 320 
L 3072 320 
z
" transform="scale(0.015625)"/>
       <path id="STIXGeneral-Regular-7a" d="M 2675 870 
L 2579 0 
L 173 0 
L 173 96 
L 1875 2688 
L 1011 2688 
Q 710 2688 604 2582 
Q 499 2477 454 2125 
L 339 2125 
L 365 2880 
L 2579 2880 
L 2579 2784 
L 858 192 
L 1709 192 
Q 2246 192 2387 365 
Q 2477 474 2560 896 
L 2675 870 
z
" transform="scale(0.015625)"/>
      </defs>
      <use xlink:href="#STIXGeneral-Regular-53"/>
      <use xlink:href="#STIXGeneral-Regular-71" transform="translate(55.599991 0)"/>
      <use xlink:href="#STIXGeneral-Regular-75" transform="translate(105.599976 0)"/>
      <use xlink:href="#STIXGeneral-Regular-65" transform="translate(155.59996 0)"/>
      <use xlink:href="#STIXGeneral-Regular-65" transform="translate(199.999954 0)"/>
      <use xlink:href="#STIXGeneral-Regular-7a" transform="translate(244.399948 0)"/>
      <use xlink:href="#STIXGeneral-Regular-65" transform="translate(288.799942 0)"/>
      <use xlink:href="#STIXGeneral-Regular-64" transform="translate(333.199936 0)"/>
      <use xlink:href="#STIXGeneral-Regular-20" transform="translate(383.199921 0)"/>
      <use xlink:href="#STIXGeneral-Regular-76" transform="translate(408.199905 0)"/>
      <use xlink:href="#STIXGeneral-Regular-61" transform="translate(458.19989 0)"/>
      <use xlink:href="#STIXGeneral-Regular-63" transform="translate(502.599884 0)"/>
      <use xlink:href="#STIXGeneral-Regular-75" transform="translate(546.999878 0)"/>
      <use xlink:href="#STIXGeneral-Regular-75" transform="translate(596.999863 0)"/>
      <use xlink:href="#STIXGeneral-Regular-6d" transform="translate(646.999847 0)"/>
     </g>
    </g>
   </g>
  </g>
 </g>
 <defs>
  <clipPath id="p5e29fc9629">
   <rect x="44.76" y="26.48" width="654.568" height="420.19"/>
  </clipPath>
 </defs>
</svg>
