<?xml version="1.0" encoding="utf-8" standalone="no"?>
<!DOCTYPE svg PUBLIC "-//W3C//DTD SVG 1.1//EN"
  "http://www.w3.org/Graphics/SVG/1.1/DTD/svg11.dtd">
<svg xmlns:xlink="http://www.w3.org/1999/xlink" width="553.9425pt" height="564.45pt" viewBox="0 0 553.9425 564.45" xmlns="http://www.w3.org/2000/svg" version="1.1">
 <metadata>
  <rdf:RDF xmlns:dc="http://purl.org/dc/elements/1.1/" xmlns:cc="http://creativecommons.org/ns#" xmlns:rdf="http://www.w3.org/1999/02/22-rdf-syntax-ns#">
   <cc:Work>
    <dc:type rdf:resource="http://purl.org/dc/dcmitype/StillImage"/>
    <dc:date>2026-05-28T03:18:42.012238</dc:date>
    <dc:format>image/svg+xml</dc:format>
    <dc:creator>
     <cc:Agent>
      <dc:title>Matplotlib v3.10.7, https://matplotlib.org/</dc:title>
     </cc:Agent>
    </dc:creator>
   </cc:Work>
  </rdf:RDF>
 </metadata>
 <defs>
  <style type="text/css">*{stroke-linejoin: round; stroke-linecap: butt}</style>
 </defs>
 <g id="figure_1">
  <g id="patch_1">
   <path d="M 0 564.45 
L 553.9425 564.45 
L 553.9425 0 
L 0 0 
z
" style="fill: #ffffff"/>
  </g>
  <g id="axes_1">
   <g id="patch_2">
    <path d="M 45.02 522.85 
L 543.7425 522.85 
L 543.7425 24.1275 
L 45.02 24.1275 
z
" style="fill: #ffffff"/>
   </g>
   <g id="matplotlib.axis_1">
    <g id="xtick_1">
     <g id="line2d_1">
      <path d="M 45.02 522.85 
L 45.02 24.1275 
" clip-path="url(#pecff28ab92)" style="fill: none; stroke: #b0b0b0; stroke-opacity: 0.3; stroke-width: 0.8; stroke-linecap: square"/>
     </g>
     <g id="line2d_2">
      <defs>
       <path id="mddb3abb232" d="M 0 0 
L 0 3.5 
" style="stroke: #000000; stroke-width: 0.8"/>
      </defs>
      <g>
       <use xlink:href="#mddb3abb232" x="45.02" y="522.85" style="stroke: #000000; stroke-width: 0.8"/>
      </g>
     </g>
     <g id="text_1">
      <!-- −3 -->
      <g transform="translate(37.91 538.045625) scale(0.12 -0.12)">
       <defs>
        <path id="STIXGeneral-Regular-2212" d="M 3974 1408 
L 410 1408 
L 410 1830 
L 3974 1830 
L 3974 1408 
z
" transform="scale(0.015625)"/>
        <path id="STIXGeneral-Regular-33" d="M 390 3264 
L 288 3290 
Q 435 3770 748 4048 
Q 1062 4326 1542 4326 
Q 1990 4326 2265 4083 
Q 2541 3840 2541 3450 
Q 2541 2925 1946 2566 
Q 2298 2413 2477 2227 
Q 2758 1914 2758 1402 
Q 2758 890 2464 506 
Q 2246 211 1840 60 
Q 1434 -90 979 -90 
Q 262 -90 262 275 
Q 262 378 339 442 
Q 416 506 525 506 
Q 685 506 915 339 
Q 1197 141 1466 141 
Q 1818 141 2058 425 
Q 2298 710 2298 1120 
Q 2298 1856 1632 2048 
Q 1434 2112 979 2112 
L 979 2202 
Q 1338 2323 1517 2432 
Q 2035 2726 2035 3290 
Q 2035 3610 1852 3776 
Q 1670 3942 1344 3942 
Q 768 3942 390 3264 
z
" transform="scale(0.015625)"/>
       </defs>
       <use xlink:href="#STIXGeneral-Regular-2212"/>
       <use xlink:href="#STIXGeneral-Regular-33" transform="translate(68.499985 0)"/>
      </g>
     </g>
    </g>
    <g id="xtick_2">
     <g id="line2d_3">
      <path d="M 128.140417 522.85 
L 128.140417 24.1275 
" clip-path="url(#pecff28ab92)" style="fill: none; stroke: #b0b0b0; stroke-opacity: 0.3; stroke-width: 0.8; stroke-linecap: square"/>
     </g>
     <g id="line2d_4">
      <g>
       <use xlink:href="#mddb3abb232" x="128.140417" y="522.85" style="stroke: #000000; stroke-width: 0.8"/>
      </g>
     </g>
     <g id="text_2">
      <!-- −2 -->
      <g transform="translate(121.030417 538.045625) scale(0.12 -0.12)">
       <defs>
        <path id="STIXGeneral-Regular-32" d="M 3034 877 
L 2688 0 
L 186 0 
L 186 77 
L 1325 1286 
Q 1773 1754 1965 2144 
Q 2157 2534 2157 2950 
Q 2157 3379 1920 3616 
Q 1683 3853 1267 3853 
Q 922 3853 720 3673 
Q 518 3494 326 3021 
L 192 3053 
Q 301 3648 630 3987 
Q 960 4326 1523 4326 
Q 2054 4326 2380 4006 
Q 2707 3686 2707 3200 
Q 2707 2477 1888 1613 
L 832 486 
L 2330 486 
Q 2541 486 2665 569 
Q 2790 653 2944 915 
L 3034 877 
z
" transform="scale(0.015625)"/>
       </defs>
       <use xlink:href="#STIXGeneral-Regular-2212"/>
       <use xlink:href="#STIXGeneral-Regular-32" transform="translate(68.499985 0)"/>
      </g>
     </g>
    </g>
    <g id="xtick_3">
     <g id="line2d_5">
      <path d="M 211.260833 522.85 
L 211.260833 24.1275 
" clip-path="url(#pecff28ab92)" style="fill: none; stroke: #b0b0b0; stroke-opacity: 0.3; stroke-width: 0.8; stroke-linecap: square"/>
     </g>
     <g id="line2d_6">
      <g>
       <use xlink:href="#mddb3abb232" x="211.260833" y="522.85" style="stroke: #000000; stroke-width: 0.8"/>
      </g>
     </g>
     <g id="text_3">
      <!-- −1 -->
      <g transform="translate(204.150833 538.045625) scale(0.12 -0.12)">
       <defs>
        <path id="STIXGeneral-Regular-31" d="M 2522 0 
L 755 0 
L 755 96 
Q 1107 115 1235 227 
Q 1363 339 1363 608 
L 1363 3482 
Q 1363 3795 1171 3795 
Q 1082 3795 883 3718 
L 710 3654 
L 710 3744 
L 1856 4326 
L 1914 4307 
L 1914 486 
Q 1914 275 2042 185 
Q 2170 96 2522 96 
L 2522 0 
z
" transform="scale(0.015625)"/>
       </defs>
       <use xlink:href="#STIXGeneral-Regular-2212"/>
       <use xlink:href="#STIXGeneral-Regular-31" transform="translate(68.499985 0)"/>
      </g>
     </g>
    </g>
    <g id="xtick_4">
     <g id="line2d_7">
      <path d="M 294.38125 522.85 
L 294.38125 24.1275 
" clip-path="url(#pecff28ab92)" style="fill: none; stroke: #b0b0b0; stroke-opacity: 0.3; stroke-width: 0.8; stroke-linecap: square"/>
     </g>
     <g id="line2d_8">
      <g>
       <use xlink:href="#mddb3abb232" x="294.38125" y="522.85" style="stroke: #000000; stroke-width: 0.8"/>
      </g>
     </g>
     <g id="text_4">
      <!-- 0 -->
      <g transform="translate(291.38125 538.045625) scale(0.12 -0.12)">
       <defs>
        <path id="STIXGeneral-Regular-30" d="M 3046 2112 
Q 3046 1683 2963 1302 
Q 2880 922 2717 602 
Q 2554 282 2266 96 
Q 1978 -90 1600 -90 
Q 1210 -90 915 108 
Q 621 307 461 640 
Q 301 973 227 1350 
Q 154 1728 154 2150 
Q 154 2746 301 3222 
Q 448 3699 790 4012 
Q 1133 4326 1626 4326 
Q 2253 4326 2649 3712 
Q 3046 3098 3046 2112 
z
M 2432 2080 
Q 2432 3091 2217 3625 
Q 2003 4160 1587 4160 
Q 1190 4160 979 3622 
Q 768 3085 768 2106 
Q 768 1120 979 598 
Q 1190 77 1600 77 
Q 2003 77 2217 598 
Q 2432 1120 2432 2080 
z
" transform="scale(0.015625)"/>
       </defs>
       <use xlink:href="#STIXGeneral-Regular-30"/>
      </g>
     </g>
    </g>
    <g id="xtick_5">
     <g id="line2d_9">
      <path d="M 377.501667 522.85 
L 377.501667 24.1275 
" clip-path="url(#pecff28ab92)" style="fill: none; stroke: #b0b0b0; stroke-opacity: 0.3; stroke-width: 0.8; stroke-linecap: square"/>
     </g>
     <g id="line2d_10">
      <g>
       <use xlink:href="#mddb3abb232" x="377.501667" y="522.85" style="stroke: #000000; stroke-width: 0.8"/>
      </g>
     </g>
     <g id="text_5">
      <!-- 1 -->
      <g transform="translate(374.501667 538.045625) scale(0.12 -0.12)">
       <use xlink:href="#STIXGeneral-Regular-31"/>
      </g>
     </g>
    </g>
    <g id="xtick_6">
     <g id="line2d_11">
      <path d="M 460.622083 522.85 
L 460.622083 24.1275 
" clip-path="url(#pecff28ab92)" style="fill: none; stroke: #b0b0b0; stroke-opacity: 0.3; stroke-width: 0.8; stroke-linecap: square"/>
     </g>
     <g id="line2d_12">
      <g>
       <use xlink:href="#mddb3abb232" x="460.622083" y="522.85" style="stroke: #000000; stroke-width: 0.8"/>
      </g>
     </g>
     <g id="text_6">
      <!-- 2 -->
      <g transform="translate(457.622083 538.045625) scale(0.12 -0.12)">
       <use xlink:href="#STIXGeneral-Regular-32"/>
      </g>
     </g>
    </g>
    <g id="xtick_7">
     <g id="line2d_13">
      <path d="M 543.7425 522.85 
L 543.7425 24.1275 
" clip-path="url(#pecff28ab92)" style="fill: none; stroke: #b0b0b0; stroke-opacity: 0.3; stroke-width: 0.8; stroke-linecap: square"/>
     </g>
     <g id="line2d_14">
      <g>
       <use xlink:href="#mddb3abb232" x="543.7425" y="522.85" style="stroke: #000000; stroke-width: 0.8"/>
      </g>
     </g>
     <g id="text_7">
      <!-- 3 -->
      <g transform="translate(540.7425 538.045625) scale(0.12 -0.12)">
       <use xlink:href="#STIXGeneral-Regular-33"/>
      </g>
     </g>
    </g>
    <g id="text_8">
     <!-- $\Delta X$ -->
     <g transform="translate(285.00125 554.211562) scale(0.14 -0.14)">
      <defs>
       <path id="STIXGeneral-Regular-394" d="M 4320 0 
L 307 0 
L 2221 4314 
L 2349 4314 
L 4320 0 
z
M 3354 589 
L 2118 3405 
L 870 589 
L 3354 589 
z
" transform="scale(0.015625)"/>
       <path id="STIXGeneral-Italic-58" d="M 4192 4179 
L 4192 4077 
Q 3981 4006 3805 3875 
Q 3629 3744 3392 3469 
L 2310 2227 
L 2957 595 
Q 3072 307 3187 224 
Q 3302 141 3629 102 
L 3629 0 
L 1894 0 
L 1894 102 
Q 2170 109 2278 163 
Q 2387 218 2387 339 
Q 2387 442 2298 666 
L 1869 1722 
L 902 621 
Q 755 454 755 314 
Q 755 102 1178 102 
L 1178 0 
L -186 0 
L -186 102 
Q 70 147 300 361 
Q 531 576 1222 1382 
L 1754 2003 
L 1094 3635 
Q 998 3872 880 3961 
Q 762 4051 486 4077 
L 486 4179 
L 2170 4179 
L 2170 4077 
Q 1907 4045 1811 3990 
Q 1715 3936 1715 3814 
Q 1715 3706 1818 3456 
L 2195 2515 
L 3123 3584 
Q 3258 3738 3258 3859 
Q 3258 4058 2867 4077 
L 2867 4179 
L 4192 4179 
z
" transform="scale(0.015625)"/>
      </defs>
      <use xlink:href="#STIXGeneral-Regular-394" transform="translate(0 0.59375)"/>
      <use xlink:href="#STIXGeneral-Italic-58" transform="translate(72.199982 0.59375)"/>
     </g>
    </g>
   </g>
   <g id="matplotlib.axis_2">
    <g id="ytick_1">
     <g id="line2d_15">
      <path d="M 45.02 522.85 
L 543.7425 522.85 
" clip-path="url(#pecff28ab92)" style="fill: none; stroke: #b0b0b0; stroke-opacity: 0.3; stroke-width: 0.8; stroke-linecap: square"/>
     </g>
     <g id="line2d_16">
      <defs>
       <path id="m7bbb6bfc4f" d="M 0 0 
L -3.5 0 
" style="stroke: #000000; stroke-width: 0.8"/>
      </defs>
      <g>
       <use xlink:href="#m7bbb6bfc4f" x="45.02" y="522.85" style="stroke: #000000; stroke-width: 0.8"/>
      </g>
     </g>
     <g id="text_9">
      <!-- −3 -->
      <g transform="translate(23.8 526.947812) scale(0.12 -0.12)">
       <use xlink:href="#STIXGeneral-Regular-2212"/>
       <use xlink:href="#STIXGeneral-Regular-33" transform="translate(68.499985 0)"/>
      </g>
     </g>
    </g>
    <g id="ytick_2">
     <g id="line2d_17">
      <path d="M 45.02 439.729583 
L 543.7425 439.729583 
" clip-path="url(#pecff28ab92)" style="fill: none; stroke: #b0b0b0; stroke-opacity: 0.3; stroke-width: 0.8; stroke-linecap: square"/>
     </g>
     <g id="line2d_18">
      <g>
       <use xlink:href="#m7bbb6bfc4f" x="45.02" y="439.729583" style="stroke: #000000; stroke-width: 0.8"/>
      </g>
     </g>
     <g id="text_10">
      <!-- −2 -->
      <g transform="translate(23.8 443.827396) scale(0.12 -0.12)">
       <use xlink:href="#STIXGeneral-Regular-2212"/>
       <use xlink:href="#STIXGeneral-Regular-32" transform="translate(68.499985 0)"/>
      </g>
     </g>
    </g>
    <g id="ytick_3">
     <g id="line2d_19">
      <path d="M 45.02 356.609167 
L 543.7425 356.609167 
" clip-path="url(#pecff28ab92)" style="fill: none; stroke: #b0b0b0; stroke-opacity: 0.3; stroke-width: 0.8; stroke-linecap: square"/>
     </g>
     <g id="line2d_20">
      <g>
       <use xlink:href="#m7bbb6bfc4f" x="45.02" y="356.609167" style="stroke: #000000; stroke-width: 0.8"/>
      </g>
     </g>
     <g id="text_11">
      <!-- −1 -->
      <g transform="translate(23.8 360.706979) scale(0.12 -0.12)">
       <use xlink:href="#STIXGeneral-Regular-2212"/>
       <use xlink:href="#STIXGeneral-Regular-31" transform="translate(68.499985 0)"/>
      </g>
     </g>
    </g>
    <g id="ytick_4">
     <g id="line2d_21">
      <path d="M 45.02 273.48875 
L 543.7425 273.48875 
" clip-path="url(#pecff28ab92)" style="fill: none; stroke: #b0b0b0; stroke-opacity: 0.3; stroke-width: 0.8; stroke-linecap: square"/>
     </g>
     <g id="line2d_22">
      <g>
       <use xlink:href="#m7bbb6bfc4f" x="45.02" y="273.48875" style="stroke: #000000; stroke-width: 0.8"/>
      </g>
     </g>
     <g id="text_12">
      <!-- 0 -->
      <g transform="translate(32.02 277.586562) scale(0.12 -0.12)">
       <use xlink:href="#STIXGeneral-Regular-30"/>
      </g>
     </g>
    </g>
    <g id="ytick_5">
     <g id="line2d_23">
      <path d="M 45.02 190.368333 
L 543.7425 190.368333 
" clip-path="url(#pecff28ab92)" style="fill: none; stroke: #b0b0b0; stroke-opacity: 0.3; stroke-width: 0.8; stroke-linecap: square"/>
     </g>
     <g id="line2d_24">
      <g>
       <use xlink:href="#m7bbb6bfc4f" x="45.02" y="190.368333" style="stroke: #000000; stroke-width: 0.8"/>
      </g>
     </g>
     <g id="text_13">
      <!-- 1 -->
      <g transform="translate(32.02 194.466146) scale(0.12 -0.12)">
       <use xlink:href="#STIXGeneral-Regular-31"/>
      </g>
     </g>
    </g>
    <g id="ytick_6">
     <g id="line2d_25">
      <path d="M 45.02 107.247917 
L 543.7425 107.247917 
" clip-path="url(#pecff28ab92)" style="fill: none; stroke: #b0b0b0; stroke-opacity: 0.3; stroke-width: 0.8; stroke-linecap: square"/>
     </g>
     <g id="line2d_26">
      <g>
       <use xlink:href="#m7bbb6bfc4f" x="45.02" y="107.247917" style="stroke: #000000; stroke-width: 0.8"/>
      </g>
     </g>
     <g id="text_14">
      <!-- 2 -->
      <g transform="translate(32.02 111.345729) scale(0.12 -0.12)">
       <use xlink:href="#STIXGeneral-Regular-32"/>
      </g>
     </g>
    </g>
    <g id="ytick_7">
     <g id="line2d_27">
      <path d="M 45.02 24.1275 
L 543.7425 24.1275 
" clip-path="url(#pecff28ab92)" style="fill: none; stroke: #b0b0b0; stroke-opacity: 0.3; stroke-width: 0.8; stroke-linecap: square"/>
     </g>
     <g id="line2d_28">
      <g>
       <use xlink:href="#m7bbb6bfc4f" x="45.02" y="24.1275" style="stroke: #000000; stroke-width: 0.8"/>
      </g>
     </g>
     <g id="text_15">
      <!-- 3 -->
      <g transform="translate(32.02 28.225312) scale(0.12 -0.12)">
       <use xlink:href="#STIXGeneral-Regular-33"/>
      </g>
     </g>
    </g>
    <g id="text_16">
     <!-- $\Delta P$ -->
     <g transform="translate(16.761563 282.86875) rotate(-90) scale(0.14 -0.14)">
      <defs>
       <path id="STIXGeneral-Italic-50" d="M 934 4179 
L 2477 4179 
Q 3872 4179 3872 3232 
Q 3872 2976 3753 2729 
Q 3635 2483 3437 2317 
Q 2995 1952 2125 1952 
Q 1773 1952 1549 2003 
L 1210 768 
Q 1120 422 1120 365 
Q 1120 250 1216 189 
Q 1312 128 1562 102 
L 1562 0 
L 0 0 
L 0 102 
Q 275 141 361 227 
Q 448 314 538 627 
L 1280 3277 
Q 1389 3667 1389 3808 
Q 1389 3936 1299 3990 
Q 1210 4045 934 4077 
L 934 4179 
z
M 2048 3789 
L 1606 2221 
Q 1792 2189 1939 2189 
Q 2496 2189 2758 2342 
Q 3213 2598 3213 3200 
Q 3213 3987 2381 3987 
Q 2099 3987 2048 3789 
z
" transform="scale(0.015625)"/>
      </defs>
      <use xlink:href="#STIXGeneral-Regular-394" transform="translate(0 0.59375)"/>
      <use xlink:href="#STIXGeneral-Italic-50" transform="translate(72.199982 0.59375)"/>
     </g>
    </g>
   </g>
   <g id="line2d_29">
    <path d="M 353.15626 273.48875 
L 353.039113 269.779716 
L 352.688138 266.085467 
L 352.104735 262.42073 
L 351.29123 258.800113 
L 350.250864 255.238049 
L 348.987786 251.748739 
L 347.50703 248.34609 
L 345.814499 245.043667 
L 343.91694 241.854634 
L 341.821917 238.791705 
L 339.537782 235.867088 
L 337.07364 233.092442 
L 334.439313 230.478828 
L 331.645303 228.036663 
L 328.702748 225.775684 
L 325.623377 223.704904 
L 322.419466 221.832576 
L 319.103786 220.166165 
L 315.689555 218.712314 
L 312.190383 217.476817 
L 308.620218 216.464601 
L 304.993293 215.679699 
L 301.324065 215.125241 
L 297.627161 214.803438 
L 293.917317 214.715571 
L 290.209323 214.861991 
L 286.51796 215.242115 
L 282.857942 215.854427 
L 279.243859 216.696486 
L 275.690119 217.764936 
L 272.210886 219.055517 
L 268.820032 220.563086 
L 265.531071 222.281631 
L 262.357117 224.204303 
L 259.310819 226.323437 
L 256.404323 228.630586 
L 253.649214 231.116553 
L 251.056474 233.771428 
L 248.63644 236.584628 
L 246.398759 239.544938 
L 244.352349 242.640559 
L 242.505369 245.859149 
L 240.865182 249.187879 
L 239.438326 252.61348 
L 238.230488 256.122295 
L 237.246484 259.700338 
L 236.490235 263.333346 
L 235.964757 267.006836 
L 235.672145 270.706165 
L 235.613564 274.416587 
L 235.789248 278.123309 
L 236.198497 281.811557 
L 236.83968 285.466628 
L 237.71024 289.073951 
L 238.806708 292.619148 
L 240.124712 296.088084 
L 241.658998 299.466934 
L 243.403451 302.742226 
L 245.351117 305.900906 
L 247.49423 308.930381 
L 249.82425 311.818576 
L 252.331886 314.553977 
L 255.007144 317.125679 
L 257.839358 319.523432 
L 260.817239 321.737678 
L 263.928916 323.759588 
L 267.161985 325.581105 
L 270.503558 327.194966 
L 273.940315 328.594739 
L 277.458555 329.774843 
L 281.044253 330.730573 
L 284.683117 331.458122 
L 288.360641 331.954587 
L 292.062164 332.21799 
L 295.772933 332.247282 
L 299.478153 332.042344 
L 303.163056 331.603995 
L 306.812951 330.933982 
L 310.413291 330.034974 
L 313.949722 328.910557 
L 317.408147 327.565213 
L 320.77478 326.004304 
L 324.036201 324.234052 
L 327.179409 322.261515 
L 330.191874 320.094555 
L 333.061587 317.741811 
L 335.777108 315.212661 
L 338.327614 312.517187 
L 340.702937 309.666135 
L 342.893608 306.670869 
L 344.890894 303.543329 
L 346.686834 300.295983 
L 348.274269 296.941775 
L 349.64687 293.494077 
L 350.799166 289.966631 
L 351.726564 286.3735 
L 352.425367 282.729007 
L 352.892789 279.047679 
L 353.126966 275.344192 
L 353.15626 273.48875 
L 353.15626 273.48875 
" clip-path="url(#pecff28ab92)" style="fill: none; stroke: #000000; stroke-width: 2; stroke-linecap: square"/>
   </g>
   <g id="line2d_30">
    <path d="M 337.922849 273.48875 
L 337.836064 268.482078 
L 337.576055 263.495363 
L 337.14386 258.548486 
L 336.5412 253.661164 
L 335.770478 248.852881 
L 334.834767 244.142804 
L 333.737796 239.549709 
L 332.483938 235.091904 
L 331.078192 230.78716 
L 329.526161 226.652638 
L 327.834032 222.704818 
L 326.00855 218.959438 
L 324.056993 215.431427 
L 321.987139 212.13485 
L 319.807241 209.082848 
L 317.525987 206.287587 
L 315.152471 203.760209 
L 312.696155 201.510789 
L 310.16683 199.548295 
L 307.57458 197.880549 
L 304.929737 196.5142 
L 302.242845 195.454693 
L 299.524614 194.706254 
L 296.78588 194.271864 
L 294.03756 194.153256 
L 291.290611 194.350903 
L 288.555982 194.864017 
L 285.844573 195.690551 
L 283.167195 196.827212 
L 280.534519 198.269469 
L 277.957041 200.011572 
L 275.445034 202.046576 
L 273.008512 204.366369 
L 270.657188 206.961705 
L 268.400436 209.822237 
L 266.24725 212.936563 
L 264.206215 216.292267 
L 262.285467 219.875973 
L 260.492662 223.673396 
L 258.834946 227.669397 
L 257.318929 231.848047 
L 255.950652 236.19269 
L 254.735572 240.686005 
L 253.678531 245.310082 
L 252.783742 250.046488 
L 252.054774 254.876341 
L 251.494531 259.780388 
L 251.105248 264.739082 
L 250.888475 269.732654 
L 250.845077 274.741198 
L 250.975227 279.744751 
L 251.278407 284.723364 
L 251.753407 289.657194 
L 252.398333 294.526571 
L 253.210617 299.312086 
L 254.187018 303.994661 
L 255.323645 308.55563 
L 256.615968 312.976813 
L 258.058834 317.240584 
L 259.646492 321.329948 
L 261.372612 325.228603 
L 263.230315 328.921008 
L 265.212195 332.392443 
L 267.310351 335.629071 
L 269.516419 338.61799 
L 271.821606 341.347284 
L 274.216723 343.806074 
L 276.692221 345.984559 
L 279.238233 347.874054 
L 281.844609 349.467028 
L 284.50096 350.75713 
L 287.196697 351.739217 
L 289.921073 352.409375 
L 292.663229 352.764932 
L 295.412234 352.804472 
L 298.157129 352.527835 
L 300.886972 351.936126 
L 303.590881 351.031702 
L 306.258078 349.818169 
L 308.87793 348.300365 
L 311.439995 346.48434 
L 313.934058 344.377333 
L 316.350178 341.987743 
L 318.678724 339.325096 
L 320.910413 336.400006 
L 323.036348 333.224134 
L 325.048056 329.810139 
L 326.937517 326.17163 
L 328.6972 322.323112 
L 330.320088 318.279925 
L 331.799714 314.058188 
L 333.13018 309.674729 
L 334.30618 305.147023 
L 335.323028 300.493117 
L 336.17667 295.731563 
L 336.863703 290.881344 
L 337.381389 285.961792 
L 337.727664 280.99252 
L 337.901147 275.993335 
L 337.922849 273.48875 
L 337.922849 273.48875 
" clip-path="url(#pecff28ab92)" style="fill: none; stroke: #1976d2; stroke-width: 2; stroke-linecap: square"/>
   </g>
   <g id="line2d_31">
    <path d="M 323.568056 273.48875 
L 323.43722 262.294441 
L 323.045885 251.200494 
L 322.397558 240.306372 
L 321.498053 229.709743 
L 320.355434 219.505612 
L 318.979946 209.785464 
L 317.383919 200.636443 
L 315.581663 192.140575 
L 314.273495 186.877402 
L 312.886031 181.959487 
L 311.424801 177.406435 
L 309.895631 173.236395 
L 308.304616 169.46599 
L 306.658098 166.11025 
L 304.962641 163.182553 
L 303.225004 160.694568 
L 301.452112 158.656215 
L 299.651034 157.075617 
L 297.82895 155.959076 
L 295.993121 155.311043 
L 295.072339 155.163598 
L 294.150868 155.134101 
L 293.229626 155.222583 
L 292.309533 155.428955 
L 291.391504 155.753012 
L 289.5653 156.752771 
L 287.758293 158.217873 
L 285.977688 160.142479 
L 284.230582 162.518916 
L 282.523939 165.337712 
L 280.864563 168.587629 
L 279.259069 172.255713 
L 277.713855 176.327341 
L 276.235084 180.786284 
L 274.828648 185.614766 
L 273.500154 190.793539 
L 272.254898 196.301959 
L 271.097845 202.118069 
L 269.537633 211.368121 
L 268.200155 221.175112 
L 267.097401 231.451118 
L 266.239259 242.104009 
L 265.633423 253.038278 
L 265.285323 264.155894 
L 265.198081 275.357183 
L 265.372478 286.541721 
L 265.806952 297.609234 
L 266.497607 308.460496 
L 267.438251 318.998221 
L 268.62045 329.127934 
L 270.033606 338.758817 
L 271.66505 347.804526 
L 272.866803 353.469614 
L 274.154319 358.815876 
L 275.522466 363.821998 
L 276.965789 368.468026 
L 278.478536 372.735438 
L 280.054675 376.607224 
L 281.687925 380.06795 
L 283.371773 383.10382 
L 285.099509 385.702731 
L 286.864244 387.854325 
L 288.658945 389.550024 
L 290.476456 390.783069 
L 292.309533 391.548545 
L 293.229626 391.754917 
L 294.150868 391.843399 
L 295.072339 391.813902 
L 295.993121 391.666457 
L 296.912297 391.401209 
L 298.742166 390.518482 
L 300.55465 389.169241 
L 302.342526 387.358863 
L 304.098666 385.094565 
L 305.816069 382.385374 
L 307.487889 379.242088 
L 309.107463 375.67724 
L 310.668334 371.705037 
L 312.164279 367.341316 
L 313.589337 362.603471 
L 314.937825 357.510389 
L 316.204369 352.082371 
L 317.383919 346.341057 
L 318.979946 337.192036 
L 320.355434 327.471888 
L 321.498053 317.267757 
L 322.397558 306.671128 
L 323.045885 295.777006 
L 323.43722 284.683059 
L 323.568056 273.48875 
L 323.568056 273.48875 
" clip-path="url(#pecff28ab92)" style="fill: none; stroke: #388e3c; stroke-width: 2; stroke-linecap: square"/>
   </g>
   <g id="line2d_32">
    <path d="M 316.003368 273.48875 
L 315.906442 258.378014 
L 315.616534 243.402752 
L 315.136241 228.697224 
L 314.469872 214.393272 
L 313.623399 200.619136 
L 312.604412 187.498308 
L 311.422046 175.148422 
L 310.086902 163.6802 
L 308.610951 153.196459 
L 307.007423 143.791191 
L 305.290697 135.548717 
L 304.090887 130.736675 
L 302.852372 126.493683 
L 301.580088 122.836658 
L 300.279108 119.780176 
L 298.954617 117.336421 
L 297.611896 115.515135 
L 296.935369 114.840285 
L 296.256296 114.323578 
L 295.575354 113.965532 
L 294.893221 113.766501 
L 294.210579 113.726685 
L 293.528106 113.846123 
L 292.846484 114.124697 
L 292.166392 114.562128 
L 291.488507 115.15798 
L 290.142062 116.822417 
L 288.812515 119.111371 
L 287.505167 122.015719 
L 286.225229 125.523883 
L 284.977803 129.621878 
L 283.767862 134.293369 
L 282.60023 139.519733 
L 281.47956 145.280138 
L 279.896326 154.871278 
L 278.442956 165.525876 
L 277.132479 177.148407 
L 275.976646 189.634672 
L 274.985818 202.872725 
L 274.168878 216.743882 
L 273.533151 231.123781 
L 273.084336 245.8835 
L 272.826457 260.890712 
L 272.761826 276.010871 
L 272.891023 291.108418 
L 273.212889 306.047998 
L 273.724539 320.695669 
L 274.421385 334.92011 
L 275.29718 348.593792 
L 276.344072 361.594125 
L 277.552675 373.804554 
L 278.912154 385.115609 
L 280.410319 395.425881 
L 282.03374 404.642933 
L 283.178462 410.139057 
L 284.367842 415.090452 
L 285.597138 419.477382 
L 286.86145 423.282358 
L 288.155738 426.490213 
L 289.474843 429.088159 
L 290.813506 431.06584 
L 292.166392 432.415372 
L 292.846484 432.852803 
L 293.528106 433.131377 
L 294.210579 433.250815 
L 294.893221 433.210999 
L 295.575354 433.011968 
L 296.256296 432.653922 
L 296.935369 432.137215 
L 297.611896 431.462365 
L 298.954617 429.641079 
L 300.279108 427.197324 
L 301.580088 424.140842 
L 302.852372 420.483817 
L 304.090887 416.240825 
L 305.290697 411.428783 
L 306.447018 406.06687 
L 308.089929 397.040331 
L 309.609935 386.906099 
L 310.99341 375.75503 
L 312.227949 363.6871 
L 313.302485 350.810503 
L 314.207384 337.240682 
L 314.934532 323.099298 
L 315.477412 308.513133 
L 315.831156 293.61296 
L 315.992591 278.532364 
L 316.003368 273.48875 
L 316.003368 273.48875 
" clip-path="url(#pecff28ab92)" style="fill: none; stroke: #f57c00; stroke-width: 2; stroke-linecap: square"/>
   </g>
   <g id="line2d_33">
    <path d="M 307.495727 273.48875 
L 307.391275 240.309538 
L 307.079583 207.658846 
L 306.565615 176.056778 
L 305.857559 146.006732 
L 304.966694 117.987382 
L 303.90721 92.445058 
L 302.695984 69.78663 
L 301.699508 54.904383 
L 300.637422 41.98184 
L 299.519245 31.134857 
L 298.355005 22.460682 
L 297.558393 17.924243 
L 296.749117 14.406558 
L 295.930401 11.921651 
L 295.518523 11.069746 
L 295.105511 10.479427 
L 294.691776 10.15128 
L 294.277733 10.085635 
L 293.863792 10.282555 
L 293.450367 10.741845 
L 293.037871 11.463047 
L 292.217304 13.68805 
L 291.405364 16.948695 
L 290.605286 21.231984 
L 289.820261 26.520843 
L 288.677771 36.292378 
L 287.586416 48.190483 
L 286.555979 62.108484 
L 285.595699 77.921601 
L 284.714186 95.488063 
L 283.674909 121.36314 
L 282.806176 149.66147 
L 282.121827 179.932279 
L 281.63276 211.693375 
L 281.346769 244.438828 
L 281.268407 277.647025 
L 281.398923 310.788984 
L 281.736239 343.336776 
L 282.27498 374.77194 
L 283.006566 404.593735 
L 283.919342 432.327122 
L 284.998769 457.530327 
L 285.907452 474.529091 
L 286.892107 489.725441 
L 287.943905 502.983135 
L 289.053417 514.183312 
L 290.210695 523.225558 
L 291.003642 528.014018 
L 291.810052 531.787866 
L 292.626713 534.532058 
L 293.450367 536.235655 
L 293.863792 536.694945 
L 294.277733 536.891865 
L 294.691776 536.82622 
L 295.105511 536.498073 
L 295.518523 535.907754 
L 295.930401 535.055849 
L 296.749117 532.570942 
L 297.558393 529.053257 
L 298.355005 524.516818 
L 299.135775 518.979706 
L 300.270443 508.847133 
L 301.352311 496.60447 
L 302.37168 482.361477 
L 303.319412 466.245849 
L 304.187009 448.402071 
L 305.20582 422.200689 
L 306.052203 393.630432 
L 306.712677 363.146405 
L 307.176719 331.234195 
L 307.436939 298.402142 
L 307.495727 273.48875 
L 307.495727 273.48875 
" clip-path="url(#pecff28ab92)" style="fill: none; stroke: #c62828; stroke-width: 2; stroke-linecap: square"/>
   </g>
   <g id="line2d_34">
    <path d="M 45.02 273.48875 
L 543.7425 273.48875 
" clip-path="url(#pecff28ab92)" style="fill: none; stroke: #808080; stroke-width: 0.5; stroke-linecap: square"/>
   </g>
   <g id="line2d_35">
    <path d="M 294.38125 522.85 
L 294.38125 24.1275 
" clip-path="url(#pecff28ab92)" style="fill: none; stroke: #808080; stroke-width: 0.5; stroke-linecap: square"/>
   </g>
   <g id="patch_3">
    <path d="M 45.02 522.85 
L 45.02 24.1275 
" style="fill: none; stroke: #000000; stroke-width: 0.8; stroke-linejoin: miter; stroke-linecap: square"/>
   </g>
   <g id="patch_4">
    <path d="M 543.7425 522.85 
L 543.7425 24.1275 
" style="fill: none; stroke: #000000; stroke-width: 0.8; stroke-linejoin: miter; stroke-linecap: square"/>
   </g>
   <g id="patch_5">
    <path d="M 45.02 522.85 
L 543.7425 522.85 
" style="fill: none; stroke: #000000; stroke-width: 0.8; stroke-linejoin: miter; stroke-linecap: square"/>
   </g>
   <g id="patch_6">
    <path d="M 45.02 24.1275 
L 543.7425 24.1275 
" style="fill: none; stroke: #000000; stroke-width: 0.8; stroke-linejoin: miter; stroke-linecap: square"/>
   </g>
   <g id="text_17">
    <!-- Uncertainty Ellipses in Phase Space -->
    <g transform="translate(179.27375 18.1275) scale(0.16 -0.16)">
     <defs>
      <path id="STIXGeneral-Regular-55" d="M 4512 4237 
L 4512 4115 
Q 4122 4077 4016 3926 
Q 3910 3776 3910 3302 
L 3910 1670 
Q 3910 1178 3840 896 
Q 3770 614 3565 378 
Q 3155 -90 2272 -90 
Q 1574 -90 1184 205 
Q 666 589 666 1594 
L 666 3578 
Q 666 3898 566 3994 
Q 467 4090 90 4115 
L 90 4237 
L 1901 4237 
L 1901 4115 
Q 1517 4083 1417 3977 
Q 1318 3872 1318 3514 
L 1318 1517 
Q 1318 1101 1369 877 
Q 1421 653 1600 480 
Q 1901 192 2419 192 
Q 3066 192 3392 570 
Q 3539 749 3584 963 
Q 3629 1178 3629 1600 
L 3629 3283 
Q 3629 3782 3520 3936 
Q 3411 4090 3027 4115 
L 3027 4237 
L 4512 4237 
z
" transform="scale(0.015625)"/>
      <path id="STIXGeneral-Regular-6e" d="M 3104 0 
L 1773 0 
L 1779 96 
Q 2016 115 2096 233 
Q 2176 352 2176 672 
L 2176 1946 
Q 2176 2592 1709 2592 
Q 1549 2592 1408 2515 
Q 1267 2438 1050 2227 
L 1050 461 
Q 1050 269 1136 192 
Q 1222 115 1466 96 
L 1466 0 
L 115 0 
L 115 96 
Q 358 115 435 214 
Q 512 314 512 602 
L 512 2157 
Q 512 2394 467 2483 
Q 422 2573 288 2573 
Q 160 2573 102 2547 
L 102 2656 
Q 550 2784 979 2944 
L 1030 2925 
L 1030 2426 
L 1037 2426 
Q 1491 2944 1958 2944 
Q 2323 2944 2518 2688 
Q 2714 2432 2714 1958 
L 2714 544 
Q 2714 288 2790 205 
Q 2867 122 3104 96 
L 3104 0 
z
" transform="scale(0.015625)"/>
      <path id="STIXGeneral-Regular-63" d="M 2547 998 
L 2637 941 
Q 2362 403 2112 205 
Q 1786 -64 1376 -64 
Q 845 -64 502 336 
Q 160 736 160 1357 
Q 160 2170 698 2618 
Q 1094 2944 1562 2944 
Q 1965 2944 2256 2749 
Q 2547 2554 2547 2285 
Q 2547 2176 2457 2096 
Q 2368 2016 2246 2016 
Q 2022 2016 1939 2310 
L 1901 2451 
Q 1850 2630 1773 2694 
Q 1696 2758 1523 2758 
Q 1133 2758 893 2451 
Q 653 2144 653 1645 
Q 653 1094 928 745 
Q 1203 397 1645 397 
Q 1920 397 2118 528 
Q 2317 659 2547 998 
z
" transform="scale(0.015625)"/>
      <path id="STIXGeneral-Regular-65" d="M 2611 1050 
L 2714 1005 
Q 2330 -64 1376 -64 
Q 813 -64 486 329 
Q 160 723 160 1389 
Q 160 2074 525 2509 
Q 890 2944 1485 2944 
Q 2061 2944 2374 2502 
Q 2560 2246 2592 1773 
L 621 1773 
Q 646 1370 700 1158 
Q 755 947 915 730 
Q 1184 378 1626 378 
Q 1939 378 2153 531 
Q 2368 685 2611 1050 
z
M 634 1978 
L 1939 1978 
Q 1882 2381 1750 2547 
Q 1619 2714 1312 2714 
Q 1043 2714 864 2525 
Q 685 2336 634 1978 
z
" transform="scale(0.015625)"/>
      <path id="STIXGeneral-Regular-72" d="M 1024 2931 
L 1024 2342 
Q 1267 2688 1430 2816 
Q 1594 2944 1792 2944 
Q 1958 2944 2051 2854 
Q 2144 2765 2144 2605 
Q 2144 2470 2077 2393 
Q 2010 2317 1894 2317 
Q 1773 2317 1638 2445 
Q 1536 2541 1472 2541 
Q 1338 2541 1181 2355 
Q 1024 2170 1024 2016 
L 1024 576 
Q 1024 301 1133 205 
Q 1242 109 1568 96 
L 1568 0 
L 32 0 
L 32 96 
Q 339 154 412 224 
Q 486 294 486 538 
L 486 2138 
Q 486 2349 438 2435 
Q 390 2522 269 2522 
Q 166 2522 45 2496 
L 45 2598 
Q 448 2726 992 2944 
L 1024 2931 
z
" transform="scale(0.015625)"/>
      <path id="STIXGeneral-Regular-74" d="M 1702 493 
L 1786 422 
Q 1478 -64 1011 -64 
Q 448 -64 448 749 
L 448 2675 
L 109 2675 
Q 83 2694 83 2720 
Q 83 2771 192 2842 
Q 435 2982 813 3526 
Q 826 3546 874 3606 
Q 922 3667 941 3706 
Q 986 3706 986 3622 
L 986 2880 
L 1632 2880 
L 1632 2675 
L 986 2675 
L 986 845 
Q 986 538 1062 403 
Q 1139 269 1318 269 
Q 1510 269 1702 493 
z
" transform="scale(0.015625)"/>
      <path id="STIXGeneral-Regular-61" d="M 2829 422 
L 2829 243 
Q 2586 -64 2253 -64 
Q 1888 -64 1843 403 
L 1837 403 
Q 1427 -64 909 -64 
Q 608 -64 422 112 
Q 237 288 237 602 
Q 237 1050 685 1350 
Q 992 1555 1837 1869 
L 1837 2214 
Q 1837 2502 1699 2646 
Q 1562 2790 1338 2790 
Q 1146 2790 1018 2697 
Q 890 2605 890 2477 
Q 890 2419 909 2348 
Q 928 2278 928 2208 
Q 928 2112 841 2029 
Q 755 1946 634 1946 
Q 525 1946 441 2029 
Q 358 2112 358 2240 
Q 358 2547 685 2752 
Q 986 2944 1421 2944 
Q 1939 2944 2176 2656 
Q 2291 2522 2323 2384 
Q 2355 2246 2355 1946 
L 2355 723 
Q 2355 301 2554 301 
Q 2682 301 2829 422 
z
M 1837 813 
L 1837 1715 
Q 1248 1510 1018 1293 
Q 800 1094 800 800 
Q 800 557 921 432 
Q 1043 307 1242 307 
Q 1453 307 1613 410 
Q 1747 506 1792 589 
Q 1837 672 1837 813 
z
" transform="scale(0.015625)"/>
      <path id="STIXGeneral-Regular-69" d="M 1152 4045 
Q 1152 3904 1056 3811 
Q 960 3718 819 3718 
Q 685 3718 592 3811 
Q 499 3904 499 4045 
Q 499 4179 595 4275 
Q 691 4371 826 4371 
Q 966 4371 1059 4275 
Q 1152 4179 1152 4045 
z
M 1619 0 
L 102 0 
L 102 96 
Q 435 115 521 211 
Q 608 307 608 666 
L 608 2118 
Q 608 2342 563 2432 
Q 518 2522 397 2522 
Q 243 2522 128 2490 
L 128 2592 
L 1120 2944 
L 1146 2918 
L 1146 672 
Q 1146 314 1226 218 
Q 1306 122 1619 96 
L 1619 0 
z
" transform="scale(0.015625)"/>
      <path id="STIXGeneral-Regular-79" d="M 3040 2880 
L 3040 2784 
Q 2925 2771 2854 2700 
Q 2784 2630 2720 2458 
L 1760 -160 
Q 1510 -838 1257 -1116 
Q 1005 -1395 640 -1395 
Q 435 -1395 313 -1289 
Q 192 -1184 192 -1024 
Q 192 -902 272 -816 
Q 352 -730 467 -730 
Q 653 -730 800 -813 
Q 883 -858 966 -858 
Q 1101 -858 1286 -576 
Q 1376 -448 1459 -211 
Q 1542 26 1542 115 
Q 1542 198 1274 762 
L 429 2566 
Q 346 2752 90 2790 
L 90 2880 
L 1402 2880 
L 1402 2784 
Q 1197 2778 1117 2739 
Q 1037 2701 1037 2611 
Q 1037 2541 1120 2349 
L 1837 749 
L 2458 2515 
Q 2483 2573 2483 2630 
Q 2483 2784 2189 2784 
L 2189 2880 
L 3040 2880 
z
" transform="scale(0.015625)"/>
      <path id="STIXGeneral-Regular-20" transform="scale(0.015625)"/>
      <path id="STIXGeneral-Regular-45" d="M 3821 1082 
L 3526 0 
L 77 0 
L 77 122 
Q 442 147 538 252 
Q 634 358 634 730 
L 634 3520 
Q 634 3878 534 3987 
Q 435 4096 77 4115 
L 77 4237 
L 3469 4237 
L 3494 3322 
L 3334 3322 
Q 3264 3750 3085 3872 
Q 2906 3994 2349 3994 
L 1510 3994 
Q 1370 3994 1328 3952 
Q 1286 3910 1286 3763 
L 1286 2355 
L 2253 2355 
Q 2656 2355 2787 2470 
Q 2918 2586 2976 2970 
L 3123 2970 
L 3123 1472 
L 2976 1472 
Q 2918 1875 2790 1984 
Q 2662 2093 2253 2093 
L 1286 2093 
L 1286 538 
Q 1286 346 1420 291 
Q 1555 237 1933 237 
L 2163 237 
Q 2848 237 3136 403 
Q 3424 570 3642 1082 
L 3821 1082 
z
" transform="scale(0.015625)"/>
      <path id="STIXGeneral-Regular-6c" d="M 1645 0 
L 134 0 
L 134 96 
Q 435 122 531 221 
Q 627 320 627 589 
L 627 3590 
Q 627 3821 569 3910 
Q 512 4000 358 4000 
Q 224 4000 122 3987 
L 122 4090 
Q 730 4237 1133 4371 
L 1165 4346 
L 1165 557 
Q 1165 288 1254 201 
Q 1344 115 1645 96 
L 1645 0 
z
" transform="scale(0.015625)"/>
      <path id="STIXGeneral-Regular-70" d="M 1018 2931 
L 1018 2438 
Q 1421 2944 1939 2944 
Q 2406 2944 2707 2560 
Q 3008 2176 3008 1581 
Q 3008 883 2621 409 
Q 2234 -64 1664 -64 
Q 1466 -64 1328 -6 
Q 1190 51 1018 211 
L 1018 -794 
Q 1018 -1094 1120 -1180 
Q 1222 -1267 1581 -1274 
L 1581 -1389 
L 32 -1389 
L 32 -1280 
Q 314 -1254 397 -1171 
Q 480 -1088 480 -838 
L 480 2157 
Q 480 2381 429 2451 
Q 378 2522 218 2522 
Q 115 2522 58 2515 
L 58 2618 
Q 506 2752 979 2944 
L 1018 2931 
z
M 1018 2138 
L 1018 563 
Q 1018 422 1238 281 
Q 1459 141 1683 141 
Q 2029 141 2243 467 
Q 2458 794 2458 1325 
Q 2458 1888 2243 2224 
Q 2029 2560 1670 2560 
Q 1446 2560 1232 2419 
Q 1018 2278 1018 2138 
z
" transform="scale(0.015625)"/>
      <path id="STIXGeneral-Regular-73" d="M 998 1926 
L 1664 1523 
Q 1984 1331 2105 1164 
Q 2227 998 2227 736 
Q 2227 416 1961 176 
Q 1696 -64 1331 -64 
Q 1030 -64 864 -6 
Q 691 51 570 51 
Q 461 51 416 -26 
L 333 -26 
L 333 979 
L 435 979 
Q 538 512 730 294 
Q 922 77 1248 77 
Q 1485 77 1632 211 
Q 1779 346 1779 550 
Q 1779 845 1440 1030 
L 1094 1222 
Q 326 1651 326 2150 
Q 326 2522 566 2730 
Q 806 2938 1210 2938 
Q 1491 2938 1638 2867 
Q 1754 2816 1818 2816 
Q 1862 2816 1920 2880 
L 1990 2880 
L 2022 2010 
L 1926 2010 
Q 1818 2445 1654 2621 
Q 1491 2797 1203 2797 
Q 986 2797 854 2688 
Q 723 2579 723 2362 
Q 723 2253 796 2128 
Q 870 2003 998 1926 
z
" transform="scale(0.015625)"/>
      <path id="STIXGeneral-Regular-50" d="M 102 4237 
L 1760 4237 
Q 2669 4237 3149 3834 
Q 3469 3565 3469 3072 
Q 3469 2560 3104 2234 
Q 2835 1990 2553 1916 
Q 2272 1843 1734 1843 
Q 1549 1843 1293 1862 
L 1293 717 
Q 1293 352 1398 246 
Q 1504 141 1894 122 
L 1894 0 
L 102 0 
L 102 122 
Q 474 147 557 256 
Q 640 365 640 781 
L 640 3526 
Q 640 3885 547 3987 
Q 454 4090 102 4115 
L 102 4237 
z
M 1293 3770 
L 1293 2118 
Q 1510 2099 1683 2099 
Q 2202 2099 2486 2352 
Q 2771 2605 2771 3040 
Q 2771 3558 2476 3779 
Q 2182 4000 1517 4000 
Q 1382 4000 1337 3952 
Q 1293 3904 1293 3770 
z
" transform="scale(0.015625)"/>
      <path id="STIXGeneral-Regular-68" d="M 3117 0 
L 1760 0 
L 1760 96 
Q 2042 128 2118 224 
Q 2195 320 2195 653 
L 2195 1920 
Q 2195 2598 1722 2598 
Q 1530 2598 1370 2508 
Q 1210 2419 1005 2195 
L 1005 653 
Q 1005 320 1081 224 
Q 1158 128 1440 96 
L 1440 0 
L 58 0 
L 58 96 
Q 333 134 400 224 
Q 467 314 467 653 
L 467 3667 
Q 467 3872 406 3933 
Q 346 3994 141 3994 
Q 83 3994 64 3987 
L 64 4090 
L 237 4141 
Q 730 4288 973 4371 
L 1005 4352 
L 1005 2406 
Q 1229 2694 1446 2819 
Q 1664 2944 1946 2944 
Q 2733 2944 2733 1926 
L 2733 653 
Q 2733 320 2793 233 
Q 2854 147 3117 96 
L 3117 0 
z
" transform="scale(0.015625)"/>
      <path id="STIXGeneral-Regular-53" d="M 3002 2963 
L 2842 2963 
Q 2733 3360 2579 3565 
Q 2189 4064 1651 4064 
Q 1357 4064 1181 3894 
Q 1005 3725 1005 3456 
Q 1005 3328 1069 3206 
Q 1133 3085 1206 2998 
Q 1280 2912 1465 2784 
Q 1651 2656 1766 2589 
Q 1882 2522 2150 2362 
Q 2669 2061 2905 1763 
Q 3142 1466 3142 1107 
Q 3142 576 2771 243 
Q 2400 -90 1837 -90 
Q 1421 -90 1082 58 
Q 915 128 781 128 
Q 704 128 653 70 
Q 602 13 602 -83 
L 461 -83 
L 275 1274 
L 416 1274 
Q 845 141 1734 141 
Q 2074 141 2285 342 
Q 2496 544 2496 858 
Q 2496 1158 2310 1363 
Q 2003 1696 1235 2106 
Q 454 2522 454 3206 
Q 454 3718 768 4022 
Q 1082 4326 1568 4326 
Q 1907 4326 2240 4186 
Q 2413 4109 2522 4109 
Q 2688 4109 2726 4326 
L 2861 4326 
L 3002 2963 
z
" transform="scale(0.015625)"/>
     </defs>
     <use xlink:href="#STIXGeneral-Regular-55"/>
     <use xlink:href="#STIXGeneral-Regular-6e" transform="translate(72.199982 0)"/>
     <use xlink:href="#STIXGeneral-Regular-63" transform="translate(122.199966 0)"/>
     <use xlink:href="#STIXGeneral-Regular-65" transform="translate(166.59996 0)"/>
     <use xlink:href="#STIXGeneral-Regular-72" transform="translate(210.999954 0)"/>
     <use xlink:href="#STIXGeneral-Regular-74" transform="translate(244.299942 0)"/>
     <use xlink:href="#STIXGeneral-Regular-61" transform="translate(272.09993 0)"/>
     <use xlink:href="#STIXGeneral-Regular-69" transform="translate(316.499924 0)"/>
     <use xlink:href="#STIXGeneral-Regular-6e" transform="translate(344.299911 0)"/>
     <use xlink:href="#STIXGeneral-Regular-74" transform="translate(394.299896 0)"/>
     <use xlink:href="#STIXGeneral-Regular-79" transform="translate(422.099884 0)"/>
     <use xlink:href="#STIXGeneral-Regular-20" transform="translate(472.099869 0)"/>
     <use xlink:href="#STIXGeneral-Regular-45" transform="translate(497.099854 0)"/>
     <use xlink:href="#STIXGeneral-Regular-6c" transform="translate(558.199844 0)"/>
     <use xlink:href="#STIXGeneral-Regular-6c" transform="translate(585.999832 0)"/>
     <use xlink:href="#STIXGeneral-Regular-69" transform="translate(613.79982 0)"/>
     <use xlink:href="#STIXGeneral-Regular-70" transform="translate(641.599808 0)"/>
     <use xlink:href="#STIXGeneral-Regular-73" transform="translate(691.599792 0)"/>
     <use xlink:href="#STIXGeneral-Regular-65" transform="translate(730.499786 0)"/>
     <use xlink:href="#STIXGeneral-Regular-73" transform="translate(774.89978 0)"/>
     <use xlink:href="#STIXGeneral-Regular-20" transform="translate(813.799774 0)"/>
     <use xlink:href="#STIXGeneral-Regular-69" transform="translate(838.799759 0)"/>
     <use xlink:href="#STIXGeneral-Regular-6e" transform="translate(866.599747 0)"/>
     <use xlink:href="#STIXGeneral-Regular-20" transform="translate(916.599731 0)"/>
     <use xlink:href="#STIXGeneral-Regular-50" transform="translate(941.599716 0)"/>
     <use xlink:href="#STIXGeneral-Regular-68" transform="translate(997.299713 0)"/>
     <use xlink:href="#STIXGeneral-Regular-61" transform="translate(1047.299698 0)"/>
     <use xlink:href="#STIXGeneral-Regular-73" transform="translate(1091.699692 0)"/>
     <use xlink:href="#STIXGeneral-Regular-65" transform="translate(1130.599686 0)"/>
     <use xlink:href="#STIXGeneral-Regular-20" transform="translate(1174.99968 0)"/>
     <use xlink:href="#STIXGeneral-Regular-53" transform="translate(1199.999664 0)"/>
     <use xlink:href="#STIXGeneral-Regular-70" transform="translate(1255.599655 0)"/>
     <use xlink:href="#STIXGeneral-Regular-61" transform="translate(1305.59964 0)"/>
     <use xlink:href="#STIXGeneral-Regular-63" transform="translate(1349.999634 0)"/>
     <use xlink:href="#STIXGeneral-Regular-65" transform="translate(1394.399628 0)"/>
    </g>
   </g>
   <g id="legend_1">
    <g id="patch_7">
     <path d="M 403.5425 102.979062 
L 536.7425 102.979062 
Q 538.7425 102.979062 538.7425 100.979062 
L 538.7425 31.1275 
Q 538.7425 29.1275 536.7425 29.1275 
L 403.5425 29.1275 
Q 401.5425 29.1275 401.5425 31.1275 
L 401.5425 100.979062 
Q 401.5425 102.979062 403.5425 102.979062 
z
" style="fill: #ffffff; opacity: 0.8; stroke: #cccccc; stroke-linejoin: miter"/>
    </g>
    <g id="line2d_36">
     <path d="M 405.5425 36.6275 
L 415.5425 36.6275 
L 425.5425 36.6275 
" style="fill: none; stroke: #000000; stroke-width: 2; stroke-linecap: square"/>
    </g>
    <g id="text_18">
     <!-- Vacuum/Coherent ($r=0$) -->
     <g transform="translate(433.5425 40.1275) scale(0.1 -0.1)">
      <defs>
       <path id="STIXGeneral-Regular-56" d="M 4461 4237 
L 4461 4115 
Q 4262 4109 4134 3990 
Q 4006 3872 3872 3533 
L 2451 -70 
L 2355 -70 
L 794 3411 
Q 589 3866 467 3987 
Q 346 4109 102 4115 
L 102 4237 
L 1798 4237 
L 1798 4115 
L 1619 4102 
Q 1331 4083 1331 3904 
Q 1331 3776 1581 3219 
L 2554 1030 
L 3494 3392 
Q 3616 3699 3616 3853 
Q 3616 3898 3606 3933 
Q 3597 3968 3584 3993 
Q 3571 4019 3536 4038 
Q 3501 4058 3481 4067 
Q 3462 4077 3411 4086 
Q 3360 4096 3337 4099 
Q 3315 4102 3248 4108 
Q 3181 4115 3155 4115 
L 3155 4237 
L 4461 4237 
z
" transform="scale(0.015625)"/>
       <path id="STIXGeneral-Regular-75" d="M 3072 320 
L 3072 230 
Q 2573 96 2195 -58 
L 2163 -38 
L 2163 486 
L 2150 486 
Q 1747 -64 1235 -64 
Q 870 -64 662 160 
Q 454 384 454 755 
L 454 2362 
Q 454 2598 371 2688 
Q 288 2778 58 2790 
L 58 2880 
L 992 2880 
L 992 813 
Q 992 595 1123 451 
Q 1254 307 1446 307 
Q 1760 307 1984 506 
Q 2067 582 2099 649 
Q 2131 717 2131 877 
L 2131 2355 
Q 2131 2605 2041 2678 
Q 1952 2752 1658 2771 
L 1658 2880 
L 2669 2880 
L 2669 685 
Q 2669 461 2742 390 
Q 2816 320 3034 320 
L 3072 320 
z
" transform="scale(0.015625)"/>
       <path id="STIXGeneral-Regular-6d" d="M 4960 0 
L 3565 0 
L 3565 96 
Q 3834 122 3907 208 
Q 3981 294 3981 576 
L 3981 1894 
Q 3981 2278 3869 2444 
Q 3757 2611 3488 2611 
Q 3264 2611 3107 2521 
Q 2950 2432 2803 2221 
L 2803 608 
Q 2803 301 2896 201 
Q 2989 102 3264 96 
L 3264 0 
L 1830 0 
L 1830 96 
Q 2112 115 2189 188 
Q 2266 262 2266 550 
L 2266 1901 
Q 2266 2611 1850 2611 
Q 1670 2611 1468 2531 
Q 1267 2451 1171 2336 
Q 1088 2240 1088 2227 
L 1088 448 
Q 1088 243 1177 176 
Q 1267 109 1523 96 
L 1523 0 
L 102 0 
L 102 96 
Q 371 102 460 195 
Q 550 288 550 563 
L 550 2150 
Q 550 2387 499 2480 
Q 448 2573 326 2573 
Q 230 2573 122 2547 
L 122 2656 
Q 557 2778 1011 2944 
L 1062 2925 
L 1062 2451 
L 1075 2451 
Q 1363 2752 1584 2848 
Q 1805 2944 2054 2944 
Q 2560 2944 2733 2406 
Q 3232 2944 3776 2944 
Q 4518 2944 4518 1792 
L 4518 493 
Q 4518 282 4582 202 
Q 4646 122 4794 109 
L 4960 96 
L 4960 0 
z
" transform="scale(0.015625)"/>
       <path id="STIXGeneral-Regular-2f" d="M 1837 4326 
L 378 -90 
L -58 -90 
L 1408 4326 
L 1837 4326 
z
" transform="scale(0.015625)"/>
       <path id="STIXGeneral-Regular-43" d="M 3930 838 
L 4051 723 
Q 3482 -90 2304 -90 
Q 1376 -90 794 480 
Q 179 1082 179 2080 
Q 179 3014 755 3661 
Q 1357 4326 2310 4326 
Q 2720 4326 3072 4230 
Q 3475 4115 3514 4115 
Q 3725 4115 3782 4326 
L 3910 4326 
L 3968 2874 
L 3821 2874 
Q 3718 3334 3488 3584 
Q 3034 4070 2458 4070 
Q 1747 4070 1334 3548 
Q 922 3027 922 2182 
Q 922 1152 1382 653 
Q 1811 192 2522 192 
Q 2944 192 3251 339 
Q 3558 486 3930 838 
z
" transform="scale(0.015625)"/>
       <path id="STIXGeneral-Regular-6f" d="M 3008 1478 
Q 3008 806 2608 371 
Q 2208 -64 1568 -64 
Q 979 -64 582 368 
Q 186 800 186 1459 
Q 186 2125 582 2534 
Q 979 2944 1626 2944 
Q 2221 2944 2614 2537 
Q 3008 2131 3008 1478 
z
M 2432 1306 
Q 2432 2035 2112 2445 
Q 1856 2765 1504 2765 
Q 1171 2765 966 2493 
Q 762 2221 762 1747 
Q 762 928 1101 435 
Q 1318 115 1677 115 
Q 2029 115 2230 432 
Q 2432 749 2432 1306 
z
" transform="scale(0.015625)"/>
       <path id="STIXGeneral-Regular-28" d="M 1946 -1030 
L 1869 -1133 
Q 1126 -710 716 32 
Q 307 774 307 1613 
Q 307 3386 1888 4326 
L 1946 4224 
Q 1293 3667 1075 3126 
Q 858 2586 858 1632 
Q 858 685 1082 96 
Q 1306 -493 1946 -1030 
z
" transform="scale(0.015625)"/>
       <path id="STIXGeneral-Italic-72" d="M 1126 1427 
L 1229 1651 
Q 1446 2131 1830 2534 
Q 2106 2822 2336 2822 
Q 2470 2822 2553 2732 
Q 2637 2643 2637 2496 
Q 2637 2349 2557 2249 
Q 2477 2150 2336 2150 
Q 2214 2150 2112 2317 
Q 2061 2406 2010 2406 
Q 1837 2406 1485 1805 
Q 1267 1434 1136 1104 
Q 1005 774 774 0 
L 288 0 
L 806 1869 
Q 909 2246 909 2394 
Q 909 2560 666 2560 
Q 614 2560 467 2541 
L 467 2650 
L 1459 2822 
L 1478 2810 
L 1126 1427 
z
" transform="scale(0.015625)"/>
       <path id="STIXGeneral-Regular-3d" d="M 4077 2048 
L 307 2048 
L 307 2470 
L 4077 2470 
L 4077 2048 
z
M 4077 768 
L 307 768 
L 307 1190 
L 4077 1190 
L 4077 768 
z
" transform="scale(0.015625)"/>
       <path id="STIXGeneral-Regular-29" d="M 186 4224 
L 262 4326 
Q 992 3891 1408 3148 
Q 1824 2406 1824 1581 
Q 1824 -166 243 -1133 
L 186 -1030 
Q 845 -486 1059 54 
Q 1274 595 1274 1562 
Q 1274 2534 1059 3120 
Q 845 3706 186 4224 
z
" transform="scale(0.015625)"/>
      </defs>
      <use xlink:href="#STIXGeneral-Regular-56" transform="translate(0 0.703125)"/>
      <use xlink:href="#STIXGeneral-Regular-61" transform="translate(72.199982 0.703125)"/>
      <use xlink:href="#STIXGeneral-Regular-63" transform="translate(116.599976 0.703125)"/>
      <use xlink:href="#STIXGeneral-Regular-75" transform="translate(160.999969 0.703125)"/>
      <use xlink:href="#STIXGeneral-Regular-75" transform="translate(210.999954 0.703125)"/>
      <use xlink:href="#STIXGeneral-Regular-6d" transform="translate(260.999939 0.703125)"/>
      <use xlink:href="#STIXGeneral-Regular-2f" transform="translate(338.799927 0.703125)"/>
      <use xlink:href="#STIXGeneral-Regular-43" transform="translate(366.599915 0.703125)"/>
      <use xlink:href="#STIXGeneral-Regular-6f" transform="translate(433.299911 0.703125)"/>
      <use xlink:href="#STIXGeneral-Regular-68" transform="translate(483.299896 0.703125)"/>
      <use xlink:href="#STIXGeneral-Regular-65" transform="translate(533.299881 0.703125)"/>
      <use xlink:href="#STIXGeneral-Regular-72" transform="translate(577.699875 0.703125)"/>
      <use xlink:href="#STIXGeneral-Regular-65" transform="translate(610.999863 0.703125)"/>
      <use xlink:href="#STIXGeneral-Regular-6e" transform="translate(655.399857 0.703125)"/>
      <use xlink:href="#STIXGeneral-Regular-74" transform="translate(705.399841 0.703125)"/>
      <use xlink:href="#STIXGeneral-Regular-20" transform="translate(733.199829 0.703125)"/>
      <use xlink:href="#STIXGeneral-Regular-28" transform="translate(758.199814 0.703125)"/>
      <use xlink:href="#STIXGeneral-Italic-72" transform="translate(791.499802 0.703125)"/>
      <use xlink:href="#STIXGeneral-Regular-3d" transform="translate(844.839792 0.703125)"/>
      <use xlink:href="#STIXGeneral-Regular-30" transform="translate(927.779773 0.703125)"/>
      <use xlink:href="#STIXGeneral-Regular-29" transform="translate(977.779758 0.703125)"/>
     </g>
    </g>
    <g id="line2d_37">
     <path d="M 405.5425 50.797812 
L 415.5425 50.797812 
L 425.5425 50.797812 
" style="fill: none; stroke: #1976d2; stroke-width: 2; stroke-linecap: square"/>
    </g>
    <g id="text_19">
     <!-- $r = 0.3$ (2.6 dB) -->
     <g transform="translate(433.5425 54.297812) scale(0.1 -0.1)">
      <defs>
       <path id="STIXGeneral-Regular-2e" d="M 1158 275 
Q 1158 134 1052 32 
Q 947 -70 800 -70 
Q 653 -70 550 32 
Q 448 134 448 281 
Q 448 429 553 534 
Q 659 640 806 640 
Q 947 640 1052 531 
Q 1158 422 1158 275 
z
" transform="scale(0.015625)"/>
       <path id="STIXGeneral-Regular-36" d="M 2854 4378 
L 2867 4275 
Q 2112 4154 1606 3664 
Q 1101 3174 973 2451 
Q 1344 2739 1786 2739 
Q 2349 2739 2672 2380 
Q 2995 2022 2995 1402 
Q 2995 774 2669 378 
Q 2291 -90 1651 -90 
Q 870 -90 518 557 
Q 218 1107 218 1786 
Q 218 2835 915 3552 
Q 1312 3962 1731 4131 
Q 2150 4301 2854 4378 
z
M 2419 1203 
Q 2419 2445 1555 2445 
Q 1235 2445 1024 2275 
Q 813 2106 813 1702 
Q 813 954 1046 522 
Q 1280 90 1722 90 
Q 2061 90 2240 394 
Q 2419 698 2419 1203 
z
" transform="scale(0.015625)"/>
       <path id="STIXGeneral-Regular-64" d="M 3142 269 
L 2202 -64 
L 2176 -45 
L 2176 365 
Q 1869 -64 1357 -64 
Q 826 -64 499 317 
Q 173 698 173 1312 
Q 173 1990 563 2467 
Q 954 2944 1504 2944 
Q 1850 2944 2176 2669 
L 2176 3667 
Q 2176 3866 2118 3930 
Q 2061 3994 1882 3994 
Q 1792 3994 1741 3987 
L 1741 4090 
Q 2323 4243 2682 4371 
L 2714 4358 
L 2714 730 
Q 2714 506 2768 435 
Q 2822 365 2995 365 
Q 3034 365 3142 371 
L 3142 269 
z
M 2176 653 
L 2176 2125 
Q 2176 2381 1981 2573 
Q 1786 2765 1523 2765 
Q 1158 2765 940 2438 
Q 723 2112 723 1568 
Q 723 979 963 624 
Q 1203 269 1606 269 
Q 1907 269 2080 474 
Q 2176 582 2176 653 
z
" transform="scale(0.015625)"/>
       <path id="STIXGeneral-Regular-42" d="M 2701 2234 
L 2701 2227 
Q 3181 2150 3482 1875 
Q 3795 1594 3795 1139 
Q 3795 608 3379 304 
Q 2963 0 2266 0 
L 109 0 
L 109 122 
Q 486 134 604 246 
Q 723 358 723 723 
L 723 3520 
Q 723 3891 614 3990 
Q 506 4090 109 4115 
L 109 4237 
L 1901 4237 
Q 2726 4237 3152 3958 
Q 3578 3680 3578 3168 
Q 3578 2733 3315 2502 
Q 3130 2342 2701 2234 
z
M 1376 2342 
L 1965 2342 
Q 2925 2342 2925 3136 
Q 2925 3546 2640 3773 
Q 2355 4000 1792 4000 
L 1530 4000 
Q 1376 4000 1376 3795 
L 1376 2342 
z
M 1376 2086 
L 1376 525 
Q 1376 365 1462 301 
Q 1549 237 1773 237 
Q 2208 237 2413 285 
Q 2618 333 2816 512 
Q 3059 723 3059 1146 
Q 3059 1632 2758 1830 
Q 2688 1882 2617 1917 
Q 2547 1952 2492 1974 
Q 2438 1997 2348 2016 
Q 2259 2035 2211 2044 
Q 2163 2054 2041 2060 
Q 1920 2067 1862 2070 
Q 1805 2074 1635 2080 
Q 1466 2086 1376 2086 
z
" transform="scale(0.015625)"/>
      </defs>
      <use xlink:href="#STIXGeneral-Italic-72" transform="translate(0 0.59375)"/>
      <use xlink:href="#STIXGeneral-Regular-3d" transform="translate(53.33999 0.59375)"/>
      <use xlink:href="#STIXGeneral-Regular-30" transform="translate(136.279971 0.59375)"/>
      <use xlink:href="#STIXGeneral-Regular-2e" transform="translate(186.279956 0.59375)"/>
      <use xlink:href="#STIXGeneral-Regular-33" transform="translate(211.279941 0.59375)"/>
      <use xlink:href="#STIXGeneral-Regular-20" transform="translate(261.279926 0.59375)"/>
      <use xlink:href="#STIXGeneral-Regular-28" transform="translate(286.27991 0.59375)"/>
      <use xlink:href="#STIXGeneral-Regular-32" transform="translate(319.579898 0.59375)"/>
      <use xlink:href="#STIXGeneral-Regular-2e" transform="translate(369.579883 0.59375)"/>
      <use xlink:href="#STIXGeneral-Regular-36" transform="translate(394.579868 0.59375)"/>
      <use xlink:href="#STIXGeneral-Regular-20" transform="translate(444.579852 0.59375)"/>
      <use xlink:href="#STIXGeneral-Regular-64" transform="translate(469.579837 0.59375)"/>
      <use xlink:href="#STIXGeneral-Regular-42" transform="translate(519.579822 0.59375)"/>
      <use xlink:href="#STIXGeneral-Regular-29" transform="translate(586.279819 0.59375)"/>
     </g>
    </g>
    <g id="line2d_38">
     <path d="M 405.5425 64.968125 
L 415.5425 64.968125 
L 425.5425 64.968125 
" style="fill: none; stroke: #388e3c; stroke-width: 2; stroke-linecap: square"/>
    </g>
    <g id="text_20">
     <!-- $r = 0.7$ (6.1 dB) -->
     <g transform="translate(433.5425 68.468125) scale(0.1 -0.1)">
      <defs>
       <path id="STIXGeneral-Regular-37" d="M 2874 4134 
L 1517 -51 
L 1101 -51 
L 2368 3763 
L 992 3763 
Q 717 3763 582 3667 
Q 448 3571 243 3238 
L 128 3296 
L 512 4237 
L 2874 4237 
L 2874 4134 
z
" transform="scale(0.015625)"/>
      </defs>
      <use xlink:href="#STIXGeneral-Italic-72" transform="translate(0 0.59375)"/>
      <use xlink:href="#STIXGeneral-Regular-3d" transform="translate(53.33999 0.59375)"/>
      <use xlink:href="#STIXGeneral-Regular-30" transform="translate(136.279971 0.59375)"/>
      <use xlink:href="#STIXGeneral-Regular-2e" transform="translate(186.279956 0.59375)"/>
      <use xlink:href="#STIXGeneral-Regular-37" transform="translate(211.279941 0.59375)"/>
      <use xlink:href="#STIXGeneral-Regular-20" transform="translate(261.279926 0.59375)"/>
      <use xlink:href="#STIXGeneral-Regular-28" transform="translate(286.27991 0.59375)"/>
      <use xlink:href="#STIXGeneral-Regular-36" transform="translate(319.579898 0.59375)"/>
      <use xlink:href="#STIXGeneral-Regular-2e" transform="translate(369.579883 0.59375)"/>
      <use xlink:href="#STIXGeneral-Regular-31" transform="translate(394.579868 0.59375)"/>
      <use xlink:href="#STIXGeneral-Regular-20" transform="translate(444.579852 0.59375)"/>
      <use xlink:href="#STIXGeneral-Regular-64" transform="translate(469.579837 0.59375)"/>
      <use xlink:href="#STIXGeneral-Regular-42" transform="translate(519.579822 0.59375)"/>
      <use xlink:href="#STIXGeneral-Regular-29" transform="translate(586.279819 0.59375)"/>
     </g>
    </g>
    <g id="line2d_39">
     <path d="M 405.5425 79.138437 
L 415.5425 79.138437 
L 425.5425 79.138437 
" style="fill: none; stroke: #f57c00; stroke-width: 2; stroke-linecap: square"/>
    </g>
    <g id="text_21">
     <!-- $r = 1.0$ (8.7 dB) -->
     <g transform="translate(433.5425 82.638437) scale(0.1 -0.1)">
      <defs>
       <path id="STIXGeneral-Regular-38" d="M 2848 992 
Q 2848 499 2505 204 
Q 2163 -90 1587 -90 
Q 1050 -90 704 204 
Q 358 499 358 954 
Q 358 1293 524 1533 
Q 691 1773 1190 2125 
Q 710 2522 553 2765 
Q 397 3008 397 3328 
Q 397 3782 745 4054 
Q 1094 4326 1638 4326 
Q 2106 4326 2410 4060 
Q 2714 3795 2714 3411 
Q 2714 3059 2531 2848 
Q 2349 2637 1856 2374 
Q 2432 1990 2640 1689 
Q 2848 1389 2848 992 
z
M 2272 3411 
Q 2272 3744 2086 3945 
Q 1901 4147 1574 4147 
Q 1248 4147 1059 3977 
Q 870 3808 870 3513 
Q 870 3219 1059 2979 
Q 1248 2739 1670 2490 
Q 1997 2682 2134 2896 
Q 2272 3110 2272 3411 
z
M 1734 1741 
L 1357 1997 
Q 1075 1766 960 1545 
Q 845 1325 845 1011 
Q 845 576 1065 333 
Q 1286 90 1658 90 
Q 1971 90 2166 285 
Q 2362 480 2362 794 
Q 2362 1082 2214 1299 
Q 2067 1517 1734 1741 
z
" transform="scale(0.015625)"/>
      </defs>
      <use xlink:href="#STIXGeneral-Italic-72" transform="translate(0 0.703125)"/>
      <use xlink:href="#STIXGeneral-Regular-3d" transform="translate(53.33999 0.703125)"/>
      <use xlink:href="#STIXGeneral-Regular-31" transform="translate(136.279971 0.703125)"/>
      <use xlink:href="#STIXGeneral-Regular-2e" transform="translate(186.279956 0.703125)"/>
      <use xlink:href="#STIXGeneral-Regular-30" transform="translate(211.279941 0.703125)"/>
      <use xlink:href="#STIXGeneral-Regular-20" transform="translate(261.279926 0.703125)"/>
      <use xlink:href="#STIXGeneral-Regular-28" transform="translate(286.27991 0.703125)"/>
      <use xlink:href="#STIXGeneral-Regular-38" transform="translate(319.579898 0.703125)"/>
      <use xlink:href="#STIXGeneral-Regular-2e" transform="translate(369.579883 0.703125)"/>
      <use xlink:href="#STIXGeneral-Regular-37" transform="translate(394.579868 0.703125)"/>
      <use xlink:href="#STIXGeneral-Regular-20" transform="translate(444.579852 0.703125)"/>
      <use xlink:href="#STIXGeneral-Regular-64" transform="translate(469.579837 0.703125)"/>
      <use xlink:href="#STIXGeneral-Regular-42" transform="translate(519.579822 0.703125)"/>
      <use xlink:href="#STIXGeneral-Regular-29" transform="translate(586.279819 0.703125)"/>
     </g>
    </g>
    <g id="line2d_40">
     <path d="M 405.5425 93.30875 
L 415.5425 93.30875 
L 425.5425 93.30875 
" style="fill: none; stroke: #c62828; stroke-width: 2; stroke-linecap: square"/>
    </g>
    <g id="text_22">
     <!-- $r = 1.5$ (13.0 dB) -->
     <g transform="translate(433.5425 96.80875) scale(0.1 -0.1)">
      <defs>
       <path id="STIXGeneral-Regular-35" d="M 2803 4358 
L 2573 3814 
Q 2534 3731 2400 3731 
L 1158 3731 
L 902 3187 
Q 1606 3053 1920 2896 
Q 2234 2739 2502 2368 
Q 2726 2061 2726 1555 
Q 2726 1094 2576 780 
Q 2426 467 2099 224 
Q 1664 -90 1011 -90 
Q 646 -90 422 19 
Q 198 128 198 307 
Q 198 550 486 550 
Q 717 550 960 352 
Q 1210 147 1414 147 
Q 1747 147 2012 480 
Q 2278 813 2278 1229 
Q 2278 1843 1850 2189 
Q 1293 2637 486 2637 
Q 410 2637 410 2688 
L 416 2720 
L 1114 4237 
L 2438 4237 
Q 2547 4237 2608 4269 
Q 2669 4301 2746 4403 
L 2803 4358 
z
" transform="scale(0.015625)"/>
      </defs>
      <use xlink:href="#STIXGeneral-Italic-72" transform="translate(0 0.203125)"/>
      <use xlink:href="#STIXGeneral-Regular-3d" transform="translate(53.33999 0.203125)"/>
      <use xlink:href="#STIXGeneral-Regular-31" transform="translate(136.279971 0.203125)"/>
      <use xlink:href="#STIXGeneral-Regular-2e" transform="translate(186.279956 0.203125)"/>
      <use xlink:href="#STIXGeneral-Regular-35" transform="translate(211.279941 0.203125)"/>
      <use xlink:href="#STIXGeneral-Regular-20" transform="translate(261.279926 0.203125)"/>
      <use xlink:href="#STIXGeneral-Regular-28" transform="translate(286.27991 0.203125)"/>
      <use xlink:href="#STIXGeneral-Regular-31" transform="translate(319.579898 0.203125)"/>
      <use xlink:href="#STIXGeneral-Regular-33" transform="translate(369.579883 0.203125)"/>
      <use xlink:href="#STIXGeneral-Regular-2e" transform="translate(419.579868 0.203125)"/>
      <use xlink:href="#STIXGeneral-Regular-30" transform="translate(444.579852 0.203125)"/>
      <use xlink:href="#STIXGeneral-Regular-20" transform="translate(494.579837 0.203125)"/>
      <use xlink:href="#STIXGeneral-Regular-64" transform="translate(519.579822 0.203125)"/>
      <use xlink:href="#STIXGeneral-Regular-42" transform="translate(569.579807 0.203125)"/>
      <use xlink:href="#STIXGeneral-Regular-29" transform="translate(636.279803 0.203125)"/>
     </g>
    </g>
   </g>
  </g>
 </g>
 <defs>
  <clipPath id="pecff28ab92">
   <rect x="45.02" y="24.1275" width="498.7225" height="498.7225"/>
  </clipPath>
 </defs>
</svg>
